<svg width="180" height="40" viewBox="0 0 180 40" fill="none" xmlns="http://www.w3.org/2000/svg">
<g clip-path="url(#clip0_2262_1329)">
<path d="M0 7.33941H8.78049V9.90822H8.96342C9.69512 8.99079 10.6098 8.25684 11.7073 7.70639C12.8049 6.97244 14.0854 6.60547 15.3659 6.60547C17.378 6.60547 19.2073 7.15593 20.6707 8.07336C22.3171 8.99079 23.4146 10.4587 24.3293 12.477C25.2439 14.4954 25.6098 16.8807 25.6098 19.8165C25.6098 24.2201 24.6951 27.5229 22.6829 29.7247C20.8537 31.9266 18.2927 33.0275 15.1829 33.0275C12.622 33.0275 10.4268 31.9266 8.59756 29.7247H8.78049V39.8165H0V7.33941ZM9.87805 24.5871C10.6098 25.5045 11.7073 26.055 12.9878 26.055C14.2683 26.055 15.3659 25.5046 16.0976 24.4036C16.8293 23.3027 17.1951 21.8348 17.1951 19.8165C17.1951 17.7981 16.8293 16.3302 16.0976 15.4128C15.3659 14.4954 14.2683 13.9449 12.8049 13.9449C11.5244 13.9449 10.4268 14.4954 9.69512 15.5963C8.96342 16.5137 8.59756 17.9816 8.59756 20C8.59756 22.0183 9.14634 23.4862 9.87805 24.5871Z" fill="#1A1F35"/>
<path d="M29.8172 31.5596C27.805 30.4587 26.3416 28.9908 25.244 26.9724C24.1464 24.9541 23.5977 22.5688 23.5977 19.8165C23.5977 17.0642 24.1464 14.8623 25.244 12.844C26.3416 10.8257 27.805 9.35776 29.8172 8.25684C31.8294 7.15593 34.0245 6.60547 36.5855 6.60547C39.1464 6.60547 41.5245 7.15593 43.5367 8.25684C45.5489 9.35776 47.0123 10.8257 48.1098 12.844C49.2074 14.8623 49.7562 17.2477 49.7562 19.8165C49.7562 22.5688 49.2074 24.9541 48.1098 26.9724C47.0123 28.9908 45.3659 30.4587 43.5367 31.5596C41.5245 32.6605 39.3294 33.211 36.5855 33.211C34.0245 33.211 31.6464 32.6605 29.8172 31.5596ZM33.4757 24.5871C34.2074 25.688 35.305 26.2385 36.7684 26.2385C38.2318 26.2385 39.1464 25.688 40.0611 24.5871C40.7928 23.4862 41.1586 22.0183 41.1586 20C41.1586 17.9816 40.7928 16.5137 40.0611 15.4128C39.3294 14.3119 38.2318 13.7614 36.7684 13.7614C35.305 13.7614 34.2074 14.3119 33.4757 15.4128C32.744 16.5137 32.3781 17.9816 32.3781 20C32.1952 21.8348 32.5611 23.4862 33.4757 24.5871Z" fill="#1A1F35"/>
<path d="M50.305 31.1927C48.2928 29.9083 47.0123 27.89 46.6465 25.5047L53.7806 23.6698C54.1465 24.7707 54.6953 25.5047 55.427 26.2386C56.1587 26.7891 57.2562 27.156 58.7197 27.156C59.6343 27.156 60.5489 26.9726 61.0977 26.6056C61.6465 26.2386 62.0123 25.8716 62.0123 25.3212C62.0123 24.7707 61.6465 24.4037 61.0977 24.0368C60.5489 23.6698 59.4514 23.4863 57.805 23.1193C54.5123 22.5689 51.9514 21.6514 50.1221 20.367C48.2928 19.0826 47.5611 17.2478 47.5611 14.679C47.5611 12.2937 48.6587 10.2753 50.6709 8.80741C52.6831 7.33952 55.427 6.78906 58.7197 6.78906C65.305 6.78906 69.1465 9.17438 70.244 14.1285L63.1099 16.1469C62.1953 13.945 60.7318 12.8441 58.5367 12.8441C57.805 12.8441 57.2562 13.0276 56.7075 13.2111C56.1587 13.5781 55.9758 13.945 55.9758 14.312C55.9758 14.8625 56.3416 15.2294 57.0733 15.5964C57.805 15.9634 59.0855 16.3303 60.9148 16.6973C64.3904 17.2478 66.7684 18.1652 68.4148 19.4496C69.8782 20.734 70.7928 22.5689 70.7928 24.9542C70.7928 27.523 69.6953 29.5414 67.6831 31.0092C65.6709 32.4771 62.744 33.2111 58.9026 33.2111C55.0611 33.2111 52.3172 32.6606 50.305 31.1927Z" fill="#1A1F35"/>
<path d="M69.6951 0H78.2926L78.1097 10.6422H78.2926C79.0243 9.3578 80.1219 8.44037 81.5853 7.70642C83.0487 6.97248 84.5121 6.6055 86.1585 6.6055C89.0853 6.6055 91.2804 7.33945 92.7439 8.99083C94.2073 10.6422 94.939 13.0275 94.939 16.5138V20.5505V32.6605H86.1585V20.5505V18.1651C86.1585 15.4128 84.878 14.1284 82.4999 14.1284C81.2195 14.1284 80.1219 14.4954 79.3902 15.4128C78.6585 16.3303 78.2926 17.4312 78.2926 18.8991V32.4771H69.6951V0Z" fill="#1A1F35"/>
<path d="M101.524 14.6789V9.54126H105.366C106.646 9.54126 107.561 9.72475 108.293 10.2752C109.024 10.8257 109.39 11.5596 109.39 12.6605C109.39 14.8624 108.11 15.9633 105.366 15.9633H103.537V19.633H101.524V14.6789ZM105.549 14.6789C106.829 14.6789 107.561 14.1284 107.561 13.0275C107.561 12.477 107.378 12.1101 107.012 11.7431C106.646 11.5596 106.098 11.3761 105.549 11.3761H103.537V14.6789H105.549Z" fill="#1A1F35"/>
<path d="M110.854 14.8623L112.683 9.72473H114.878L116.707 14.8623L118.536 19.8165H116.524L115.793 17.4312H113.963H112.134L111.402 19.8165H109.39L110.854 14.8623ZM113.597 15.9633H115.061L113.597 11.7431L112.134 15.9633H113.597Z" fill="#1A1F35"/>
<path d="M120.549 19.4495C119.817 19.0825 119.268 18.3486 118.902 17.6146C118.536 16.8807 118.354 15.9633 118.354 14.8623C118.354 13.7614 118.536 12.844 118.902 12.1101C119.268 11.3761 119.817 10.6422 120.549 10.2752C121.28 9.90822 122.012 9.72473 122.927 9.72473C124.207 9.72473 125.122 10.0917 125.854 10.6422C126.585 11.1926 126.951 12.1101 127.134 13.211L125.305 13.7614C125.122 13.0275 124.939 12.477 124.573 11.9266C124.39 11.3761 123.658 11.0091 123.11 11.0091C122.378 11.0091 121.646 11.3761 121.097 11.9266C120.549 12.6605 120.366 13.3945 120.366 14.6789C120.366 15.7798 120.549 16.6972 121.097 17.4312C121.646 18.1651 122.195 18.3486 123.11 18.3486C123.841 18.3486 124.39 18.1651 124.756 17.7981C125.122 17.4312 125.488 16.6972 125.488 15.9633L127.317 16.5137C127.134 17.6146 126.768 18.5321 125.854 19.0825C125.122 19.8165 124.207 20 122.927 20C122.012 20 121.28 19.8165 120.549 19.4495Z" fill="#1A1F35"/>
<path d="M128.598 9.72473H130.61V14.4954L134.451 9.72473H136.646L133.354 13.7614L137.012 20H134.817L132.073 15.2293L130.61 17.0642V20H128.598V9.72473Z" fill="#1A1F35"/>
<path d="M139.208 14.8623L141.037 9.72473H143.232L145.061 14.8623L146.89 19.8165H144.878L144.147 17.4312H142.317H140.488L139.756 19.8165H137.744L139.208 14.8623ZM141.951 15.9633H143.415L141.951 11.7431L140.488 15.9633H141.951Z" fill="#1A1F35"/>
<path d="M148.902 19.4495C148.171 19.0825 147.805 18.3486 147.439 17.6146C147.073 16.8807 146.89 15.7798 146.89 14.8623C146.89 13.7614 147.073 12.844 147.439 12.1101C147.805 11.3761 148.354 10.6422 149.085 10.2752C149.817 9.90822 150.549 9.72473 151.646 9.72473C152.927 9.72473 153.841 10.0917 154.573 10.6422C155.122 11.0091 155.488 11.9266 155.671 12.844L153.841 13.3945C153.658 12.6605 153.475 12.1101 152.927 11.7431C152.378 11.3761 152.012 11.0091 151.463 11.0091C150.732 11.0091 150 11.3761 149.451 11.9266C148.902 12.6605 148.719 13.3945 148.719 14.6789C148.719 15.7798 148.902 16.6972 149.451 17.4312C150 18.1651 150.549 18.3486 151.463 18.3486C152.195 18.3486 152.927 18.1651 153.293 17.7981C153.658 17.4312 154.024 16.6972 154.024 15.7798H151.097V14.4954H155.671V17.2477V19.8165H154.39L154.207 18.5321C153.841 19.0825 153.475 19.4495 152.927 19.633C152.378 19.8165 151.829 20 151.097 20C150.366 20 149.634 19.8165 148.902 19.4495Z" fill="#1A1F35"/>
<path d="M157.683 9.72473H159.695V19.8165H157.683V9.72473Z" fill="#1A1F35"/>
<path d="M161.524 14.8623V9.72473H163.72L167.927 17.0642V14.1284V9.72473H169.756V14.8623V20H167.561L163.354 12.6605V15.5963V20H161.524V14.8623Z" fill="#1A1F35"/>
<path d="M173.232 19.4495C172.5 19.0825 172.134 18.3486 171.769 17.6146C171.403 16.8807 171.22 15.7798 171.22 14.8623C171.22 13.7614 171.403 12.844 171.769 12.1101C172.134 11.3761 172.683 10.6422 173.415 10.2752C174.147 9.90822 174.878 9.72473 175.976 9.72473C177.256 9.72473 178.171 10.0917 178.903 10.6422C179.451 11.0091 179.817 11.9266 180 12.844L178.171 13.3945C177.988 12.6605 177.805 12.1101 177.256 11.7431C176.708 11.3761 176.525 11.0091 175.793 11.0091C175.061 11.0091 174.329 11.3761 173.781 11.9266C173.232 12.6605 173.049 13.3945 173.049 14.6789C173.049 15.7798 173.232 16.6972 173.781 17.4312C174.329 18.1651 174.878 18.3486 175.793 18.3486C176.525 18.3486 177.256 18.1651 177.622 17.7981C177.988 17.4312 178.354 16.6972 178.354 15.7798H175.427V14.4954H180V17.2477V19.8165H178.72L178.537 18.5321C178.171 19.0825 177.805 19.4495 177.256 19.633C176.708 19.8165 176.159 20 175.427 20C174.695 20 173.964 19.8165 173.232 19.4495Z" fill="#1A1F35"/>
<path d="M101.524 27.7065V22.5688H104.634C106.463 22.5688 107.744 22.9358 108.659 23.8533C109.573 24.7707 109.939 26.0551 109.939 27.7065C109.939 29.3578 109.573 30.6422 108.659 31.5597C107.744 32.4771 106.463 32.8441 104.634 32.8441H101.524V27.7065ZM104.817 31.0092C107.012 31.0092 108.293 29.9083 108.293 27.523C108.293 25.1377 107.195 24.0367 104.817 24.0367H103.537V31.0092H104.817Z" fill="#1A1F35"/>
<path d="M111.402 22.5688H118.354V24.2202H113.415V26.789H117.805V28.2569H113.415V31.0092H118.536V32.6606H111.585V22.5688H111.402Z" fill="#1A1F35"/>
<path d="M120.366 32.1101C119.634 31.5597 119.268 30.8257 119.085 29.9083L120.732 29.3579C120.915 30.0918 121.098 30.4588 121.464 30.8257C121.829 31.1927 122.378 31.3762 123.11 31.3762C123.659 31.3762 124.207 31.1927 124.573 31.0092C124.939 30.8257 125.122 30.4588 125.122 30.0918C125.122 29.7248 125.122 29.5413 124.939 29.3579C124.756 29.1744 124.573 28.9909 124.207 28.8074C123.842 28.6239 123.476 28.6239 122.744 28.4404C121.646 28.2569 120.732 27.89 120.183 27.3395C119.634 26.789 119.451 26.2386 119.451 25.3212C119.451 24.4037 119.817 23.6698 120.366 23.1193C120.915 22.5689 121.829 22.3854 122.927 22.3854C124.024 22.3854 124.939 22.5689 125.671 23.1193C126.403 23.6698 126.768 24.4037 126.951 25.1377L125.122 25.6881C125.122 25.1377 124.756 24.7707 124.39 24.4037C124.024 24.0368 123.476 23.8533 122.927 23.8533C122.378 23.8533 122.012 24.0368 121.646 24.2202C121.281 24.4037 121.281 24.7707 121.281 25.1377C121.281 25.5046 121.281 25.6881 121.464 25.8716C121.646 26.0551 121.829 26.2386 122.195 26.4221C122.561 26.6056 122.927 26.6056 123.476 26.789C124.756 26.9725 125.671 27.3395 126.22 27.89C126.768 28.4404 126.951 28.9909 126.951 29.9083C126.951 30.4588 126.768 31.0092 126.403 31.5597C126.037 31.9267 125.671 32.2936 124.939 32.6606C124.39 32.8441 123.659 33.0276 122.927 33.0276C122.012 32.8441 121.098 32.6606 120.366 32.1101Z" fill="#1A1F35"/>
<path d="M128.415 22.5688H130.427V32.6606H128.415V22.5688Z" fill="#1A1F35"/>
<path d="M133.902 32.2936C133.171 31.9266 132.805 31.1927 132.439 30.4588C132.073 29.7248 131.89 28.6239 131.89 27.7065C131.89 26.6055 132.073 25.6881 132.439 24.9542C132.805 24.2202 133.354 23.4863 134.085 23.1193C134.817 22.7523 135.549 22.5688 136.646 22.5688C137.927 22.5688 138.841 22.9358 139.573 23.4863C140.305 24.0367 140.671 24.9542 140.854 26.0551L139.024 26.6055C138.841 25.8716 138.658 25.3211 138.11 24.9542C137.744 24.5872 137.195 24.4037 136.463 24.4037C135.732 24.4037 135 24.7707 134.451 25.3211C133.902 25.8716 133.719 26.789 133.719 28.0734C133.719 29.1744 133.902 30.0918 134.451 30.8257C135 31.5597 135.549 31.7432 136.463 31.7432C137.195 31.7432 137.927 31.5597 138.293 31.1927C138.658 30.8257 139.024 30.0918 139.024 29.1744H136.097V27.7065H140.671V30.4588V33.0276H139.39L139.207 31.7432C138.841 32.2936 138.476 32.6606 137.927 32.8441C137.378 33.0276 136.829 33.2111 136.097 33.2111C135.366 32.8441 134.634 32.6606 133.902 32.2936Z" fill="#1A1F35"/>
<path d="M142.683 27.7065V22.5688H144.878L149.086 29.9083V26.9725V22.5688H150.915V27.7065V32.8441H148.72L144.512 25.5046V28.4404V32.8441H142.683V27.7065Z" fill="#1A1F35"/>
</g>
<defs>
<clipPath id="clip0_2262_1329">
<rect width="180" height="40" fill="white"/>
</clipPath>
</defs>
</svg>
