<svg width="130" height="116" viewBox="0 0 130 116" fill="none" xmlns="http://www.w3.org/2000/svg">
<mask id="mask0_2370_15815" style="mask-type:luminance" maskUnits="userSpaceOnUse" x="0" y="1" width="130" height="115">
<path d="M129.842 1H3.8147e-06V115.634H129.842V1Z" fill="white"/>
</mask>
<g mask="url(#mask0_2370_15815)">
<mask id="mask1_2370_15815" style="mask-type:luminance" maskUnits="userSpaceOnUse" x="0" y="1" width="130" height="115">
<path d="M129.842 1H3.8147e-06V115.634H129.842V1Z" fill="white"/>
</mask>
<g mask="url(#mask1_2370_15815)">
<path d="M32.8771 95.2134C31.9357 96.0824 30.7047 96.372 29.4736 96.372C28.2425 96.372 27.0114 96.0099 26.07 95.2134C24.6941 93.9099 24.4045 91.9547 24.4045 89.9995C24.4045 88.1166 24.6217 86.089 26.07 84.8579C27.0114 83.9889 28.2425 83.6993 29.4736 83.6993C30.7047 83.6993 31.9357 84.0613 32.8771 84.8579C34.3254 86.1614 34.5427 88.1166 34.5427 89.9995C34.4703 91.9547 34.253 93.9823 32.8771 95.2134ZM29.4736 81.4543C23.6803 81.4543 20.7837 85.3648 20.7837 89.9995C20.7837 94.6341 23.6803 98.5445 29.4736 98.5445C35.2669 98.5445 38.1635 94.6341 38.1635 89.9995C38.1635 85.4373 35.2669 81.4543 29.4736 81.4543Z" fill="#1A1F35"/>
</g>
<mask id="mask2_2370_15815" style="mask-type:luminance" maskUnits="userSpaceOnUse" x="0" y="1" width="130" height="115">
<path d="M129.842 1H3.8147e-06V115.634H129.842V1Z" fill="white"/>
</mask>
<g mask="url(#mask2_2370_15815)">
<path d="M74.0092 91.1578H81.0335V98.0373H84.3646V82.0334H81.0335V88.9854H74.0092V82.0334H70.6781V98.0373H74.0092V91.1578Z" fill="#1A1F35"/>
</g>
<mask id="mask3_2370_15815" style="mask-type:luminance" maskUnits="userSpaceOnUse" x="0" y="1" width="130" height="115">
<path d="M129.842 1H3.8147e-06V115.634H129.842V1Z" fill="white"/>
</mask>
<g mask="url(#mask3_2370_15815)">
<path d="M58.6567 84.2059H60.9741C62.1328 84.2059 63.2914 84.2059 64.0879 84.8576C64.7397 85.3646 64.957 86.0163 64.957 86.7405C64.957 87.4646 64.7397 88.3336 64.0879 88.913C63.2189 89.7095 62.1328 89.7095 60.9741 89.7095H58.5843V84.2059H58.6567ZM58.6567 91.9544H60.1775C62.4948 91.9544 64.7397 91.9544 66.4777 90.5785C67.7812 89.5647 68.2881 88.1164 68.2881 86.7405C68.2881 85.437 67.7812 84.2059 66.5501 83.2645C64.8845 82.0334 62.4948 82.0334 60.1775 82.0334H55.3256V97.9649H58.6567V91.9544Z" fill="#1A1F35"/>
</g>
<mask id="mask4_2370_15815" style="mask-type:luminance" maskUnits="userSpaceOnUse" x="0" y="1" width="130" height="115">
<path d="M129.842 1H3.8147e-06V115.634H129.842V1Z" fill="white"/>
</mask>
<g mask="url(#mask4_2370_15815)">
<path d="M18.2491 82.0334H14.918V97.9649H18.2491V82.0334Z" fill="#1A1F35"/>
</g>
<mask id="mask5_2370_15815" style="mask-type:luminance" maskUnits="userSpaceOnUse" x="0" y="1" width="130" height="115">
<path d="M129.842 1H3.8147e-06V115.634H129.842V1Z" fill="white"/>
</mask>
<g mask="url(#mask5_2370_15815)">
<path d="M8.25529 95.2855C7.45871 95.8649 6.44487 95.8649 5.43105 95.8649H3.33106V90.5785H4.20002C5.5035 90.5785 6.87937 90.5785 7.96561 91.5199C8.61735 92.0992 9.05185 92.8958 9.05185 93.6924C8.97943 94.4165 8.7622 94.9235 8.25529 95.2855ZM3.33106 84.2059H5.14146C6.01045 84.2059 6.80699 84.2059 7.45873 84.7128C7.96564 85.0749 8.18289 85.6542 8.18289 86.1611C8.18289 86.8129 7.82085 87.3198 7.31394 87.7543C6.51736 88.406 5.43112 88.406 4.4173 88.406H3.33106V84.2059ZM8.11049 89.4923C9.70364 89.1302 11.514 88.1888 11.514 86.1611C11.514 85.1473 11.0795 83.9887 9.92089 83.1197C8.40016 82.0334 6.37246 82.0334 4.34481 82.0334H0.0723457V97.9649H4.5621C6.87941 97.9649 9.1243 97.9649 10.7174 96.8063C11.8037 96.0821 12.383 94.9959 12.383 93.6924C12.3106 91.4475 10.3554 89.9992 8.11049 89.4923Z" fill="#1A1F35"/>
</g>
<mask id="mask6_2370_15815" style="mask-type:luminance" maskUnits="userSpaceOnUse" x="0" y="1" width="130" height="115">
<path d="M129.842 1H3.8147e-06V115.634H129.842V1Z" fill="white"/>
</mask>
<g mask="url(#mask6_2370_15815)">
<path d="M52.6463 93.4752C52.6463 91.3752 51.4152 89.7096 48.0117 88.6234L46.491 88.1164C44.1012 87.3199 43.015 87.0302 43.015 85.7267C43.015 84.0612 44.6806 83.6991 46.1289 83.6991C47.8669 83.6991 49.46 84.3508 50.9807 84.9302V82.3956C49.46 81.8163 47.7944 81.5266 46.3461 81.5266C42.8701 81.5266 39.6838 83.1198 39.6838 86.5957C39.6838 88.551 40.6977 89.7096 44.4633 90.9407L45.9116 91.4476C48.1565 92.1718 49.3152 92.8959 49.3152 94.2718C49.3152 95.9374 47.722 96.4443 45.9116 96.4443C43.884 96.4443 41.6391 95.7201 39.6838 94.5615V97.4581C41.6391 98.5443 43.9564 98.6167 45.0426 98.6167C49.5324 98.6167 52.6463 96.8788 52.6463 93.4752Z" fill="#1A1F35"/>
</g>
<mask id="mask7_2370_15815" style="mask-type:luminance" maskUnits="userSpaceOnUse" x="0" y="1" width="130" height="115">
<path d="M129.842 1H3.8147e-06V115.634H129.842V1Z" fill="white"/>
</mask>
<g mask="url(#mask7_2370_15815)">
<path d="M121.007 95.8649V90.5785H127.887V88.406H121.007V84.2059H129.625V82.0334H117.749V98.0373H129.914V95.8649H121.007Z" fill="#1A1F35"/>
</g>
<mask id="mask8_2370_15815" style="mask-type:luminance" maskUnits="userSpaceOnUse" x="0" y="1" width="130" height="115">
<path d="M129.842 1H3.8147e-06V115.634H129.842V1Z" fill="white"/>
</mask>
<g mask="url(#mask8_2370_15815)">
<path d="M106.814 89.7095H105.655V84.2059H107.32C108.407 84.2059 110.796 84.1335 110.796 86.8129C110.796 87.537 110.579 88.406 109.927 88.9853C109.131 89.7095 107.972 89.7095 106.814 89.7095ZM114.128 86.8853C114.128 85.5094 113.621 84.2783 112.462 83.3369C110.869 82.1058 108.624 82.1058 106.451 82.1058H102.324V98.0373H105.655V91.9544H105.945C106.234 91.9544 106.524 91.9544 106.886 91.9544L112.245 98.0373H116.083L110.434 91.5923C113.186 90.7957 114.128 88.7681 114.128 86.8853Z" fill="#1A1F35"/>
</g>
<mask id="mask9_2370_15815" style="mask-type:luminance" maskUnits="userSpaceOnUse" x="0" y="1" width="130" height="115">
<path d="M129.842 1H3.8147e-06V115.634H129.842V1Z" fill="white"/>
</mask>
<g mask="url(#mask9_2370_15815)">
<path d="M91.1718 90.5785H98.0513V88.406H91.1718V84.2059H99.7893V82.0334H87.9131V98.0373H100.007V95.8649H91.1718V90.5785Z" fill="#1A1F35"/>
</g>
<mask id="mask10_2370_15815" style="mask-type:luminance" maskUnits="userSpaceOnUse" x="0" y="1" width="130" height="115">
<path d="M129.842 1H3.8147e-06V115.634H129.842V1Z" fill="white"/>
</mask>
<g mask="url(#mask10_2370_15815)">
<path d="M35.9907 112.52C34.3975 112.52 33.7458 111.145 33.7458 109.769C33.7458 108.393 34.3975 106.944 35.9907 106.944C37.0045 106.944 37.6562 107.524 37.9459 108.538H38.7424C38.5252 107.017 37.5114 106.293 35.9907 106.293C34.0354 106.293 32.9492 107.958 32.9492 109.769C32.9492 111.724 33.8906 113.245 35.9907 113.245C37.6562 113.245 38.5977 112.231 38.8149 110.782H38.0183C37.8734 111.869 37.1493 112.52 35.9907 112.52Z" fill="#1A1F35"/>
</g>
<mask id="mask11_2370_15815" style="mask-type:luminance" maskUnits="userSpaceOnUse" x="0" y="1" width="130" height="115">
<path d="M129.842 1H3.8147e-06V115.634H129.842V1Z" fill="white"/>
</mask>
<g mask="url(#mask11_2370_15815)">
<path d="M43.1598 112.521C41.7115 112.521 40.9149 111.362 40.9149 109.696C40.9149 108.248 41.5667 106.872 43.1598 106.872C44.753 106.872 45.4047 108.103 45.4047 109.696C45.4047 111.145 44.753 112.521 43.1598 112.521ZM43.1598 106.22C41.1322 106.22 40.1183 107.814 40.1183 109.696C40.1183 112.014 41.4943 113.172 43.1598 113.172C45.0427 113.172 46.2013 111.796 46.2013 109.696C46.2013 107.814 45.1875 106.22 43.1598 106.22Z" fill="#1A1F35"/>
</g>
<mask id="mask12_2370_15815" style="mask-type:luminance" maskUnits="userSpaceOnUse" x="0" y="1" width="130" height="115">
<path d="M129.842 1H3.8147e-06V115.634H129.842V1Z" fill="white"/>
</mask>
<g mask="url(#mask12_2370_15815)">
<path d="M79.2231 111.579V107.017H80.4542V106.365H79.2231V104.555H78.4265V106.365H77.4851V107.017H78.4265V111.869C78.4265 112.883 78.861 113.172 79.5852 113.172C79.9472 113.172 80.3094 113.027 80.4542 113.027V112.376C80.237 112.448 80.0197 112.448 79.8025 112.448C79.2955 112.521 79.2231 112.231 79.2231 111.579Z" fill="#1A1F35"/>
</g>
<mask id="mask13_2370_15815" style="mask-type:luminance" maskUnits="userSpaceOnUse" x="0" y="1" width="130" height="115">
<path d="M129.842 1H3.8147e-06V115.634H129.842V1Z" fill="white"/>
</mask>
<g mask="url(#mask13_2370_15815)">
<path d="M48.5185 107.669V106.438H47.722V113.028H48.5185V109.769C48.5185 108.321 48.953 107.017 50.691 107.017V106.22C49.5324 106.22 48.953 106.583 48.5185 107.669Z" fill="#1A1F35"/>
</g>
<mask id="mask14_2370_15815" style="mask-type:luminance" maskUnits="userSpaceOnUse" x="0" y="1" width="130" height="115">
<path d="M129.842 1H3.8147e-06V115.634H129.842V1Z" fill="white"/>
</mask>
<g mask="url(#mask14_2370_15815)">
<path d="M94.5754 106.22C93.634 106.22 93.0546 106.655 92.4753 107.307V106.365H91.6788V112.955H92.4753V109.334C92.4753 108.103 93.0546 106.872 94.5029 106.872C95.734 106.872 96.2409 107.452 96.2409 108.683V113.028H97.0375V108.683C96.965 107.017 96.0237 106.22 94.5754 106.22Z" fill="#1A1F35"/>
</g>
<mask id="mask15_2370_15815" style="mask-type:luminance" maskUnits="userSpaceOnUse" x="0" y="1" width="130" height="115">
<path d="M129.842 1H3.8147e-06V115.634H129.842V1Z" fill="white"/>
</mask>
<g mask="url(#mask15_2370_15815)">
<path d="M87.1165 112.521C85.6682 112.521 84.8717 111.362 84.8717 109.696C84.8717 108.248 85.5234 106.872 87.1165 106.872C88.7097 106.872 89.3614 108.103 89.3614 109.696C89.3614 111.145 88.7097 112.521 87.1165 112.521ZM87.1165 106.22C85.0889 106.22 84.0751 107.814 84.0751 109.696C84.0751 112.014 85.451 113.172 87.1165 113.172C88.9269 113.172 90.158 111.796 90.158 109.696C90.158 107.814 89.2166 106.22 87.1165 106.22Z" fill="#1A1F35"/>
</g>
<mask id="mask16_2370_15815" style="mask-type:luminance" maskUnits="userSpaceOnUse" x="0" y="1" width="130" height="115">
<path d="M129.842 1H3.8147e-06V115.634H129.842V1Z" fill="white"/>
</mask>
<g mask="url(#mask16_2370_15815)">
<path d="M82.5541 103.831H81.7576V104.989H82.5541V103.831Z" fill="#1A1F35"/>
</g>
<mask id="mask17_2370_15815" style="mask-type:luminance" maskUnits="userSpaceOnUse" x="0" y="1" width="130" height="115">
<path d="M129.842 1H3.8147e-06V115.634H129.842V1Z" fill="white"/>
</mask>
<g mask="url(#mask17_2370_15815)">
<path d="M62.2774 112.521C60.8291 112.521 60.0325 111.362 60.0325 109.696C60.0325 108.248 60.6842 106.872 62.2774 106.872C63.8705 106.872 64.5223 108.103 64.5223 109.696C64.5223 111.145 63.8705 112.521 62.2774 112.521ZM62.2774 106.22C60.2497 106.22 59.236 107.814 59.236 109.696C59.236 112.014 60.6118 113.172 62.2774 113.172C64.1602 113.172 65.3189 111.796 65.3189 109.696C65.3189 107.814 64.3774 106.22 62.2774 106.22Z" fill="#1A1F35"/>
</g>
<mask id="mask18_2370_15815" style="mask-type:luminance" maskUnits="userSpaceOnUse" x="0" y="1" width="130" height="115">
<path d="M129.842 1H3.8147e-06V115.634H129.842V1Z" fill="white"/>
</mask>
<g mask="url(#mask18_2370_15815)">
<path d="M82.5541 106.438H81.7576V113.027H82.5541V106.438Z" fill="#1A1F35"/>
</g>
<mask id="mask19_2370_15815" style="mask-type:luminance" maskUnits="userSpaceOnUse" x="0" y="1" width="130" height="115">
<path d="M129.842 1H3.8147e-06V115.634H129.842V1Z" fill="white"/>
</mask>
<g mask="url(#mask19_2370_15815)">
<path d="M54.8916 112.521C53.4433 112.521 52.6467 111.217 52.6467 109.841C52.6467 107.958 53.5881 106.945 54.8916 106.945C56.4848 106.945 57.1365 108.248 57.1365 109.841C57.2089 111.362 56.1951 112.521 54.8916 112.521ZM55.0364 106.22C54.1674 106.22 53.1536 106.655 52.7191 107.524V106.365H51.9226V115.562H52.7191V111.869C53.226 112.665 54.1675 113.1 55.1089 113.1C57.1365 113.1 58.0779 111.434 58.0779 109.624C58.0055 107.741 57.1365 106.22 55.0364 106.22Z" fill="#1A1F35"/>
</g>
<mask id="mask20_2370_15815" style="mask-type:luminance" maskUnits="userSpaceOnUse" x="0" y="1" width="130" height="115">
<path d="M129.842 1H3.8147e-06V115.634H129.842V1Z" fill="white"/>
</mask>
<g mask="url(#mask20_2370_15815)">
<path d="M75.4574 110.565C75.4574 111.869 74.2263 112.521 73.0676 112.521C72.3435 112.521 71.6193 112.159 71.6193 111.362C71.6193 110.493 72.3434 110.059 73.5021 109.986C74.4435 109.914 75.1677 109.769 75.4574 109.624V110.565ZM76.1815 111.869V108.248C76.1815 106.727 75.0953 106.22 73.7918 106.22C72.3435 106.22 71.1848 106.872 71.04 108.393H71.8366C71.9814 107.234 72.7055 106.872 73.7918 106.872C74.9504 106.872 75.4574 107.452 75.4574 108.248C75.4574 108.827 75.2401 109.045 74.5883 109.117L73.14 109.334C71.6193 109.552 70.8227 110.203 70.8227 111.29C70.8227 112.593 71.8365 113.172 73.0676 113.172C74.009 113.172 74.878 112.738 75.4574 112.086C75.5298 112.883 75.8194 113.1 76.3987 113.1C76.5436 113.1 76.8333 113.028 76.9781 112.955V112.376C76.7608 112.448 76.616 112.521 76.5436 112.521C76.2539 112.521 76.1815 112.303 76.1815 111.869Z" fill="#1A1F35"/>
</g>
<mask id="mask21_2370_15815" style="mask-type:luminance" maskUnits="userSpaceOnUse" x="0" y="1" width="130" height="115">
<path d="M129.842 1H3.8147e-06V115.634H129.842V1Z" fill="white"/>
</mask>
<g mask="url(#mask21_2370_15815)">
<path d="M67.709 107.669V106.438H66.9124V113.028H67.709V109.769C67.709 108.321 68.1435 107.017 69.8814 107.017V106.22C68.7228 106.22 68.071 106.583 67.709 107.669Z" fill="#1A1F35"/>
</g>
<mask id="mask22_2370_15815" style="mask-type:luminance" maskUnits="userSpaceOnUse" x="0" y="1" width="130" height="115">
<path d="M129.842 1H3.8147e-06V115.634H129.842V1Z" fill="white"/>
</mask>
<g mask="url(#mask22_2370_15815)">
<path d="M57.4256 53.0671C54.2393 53.7189 50.9805 54.2982 47.7218 54.3706C45.9114 54.443 44.101 54.3706 42.363 54.0809C40.9871 53.8637 39.4664 53.4292 38.3801 52.5602C37.9456 52.1981 37.7284 51.7636 37.4388 51.2567C37.0043 50.4601 36.4974 49.8084 36.0629 49.0118C35.3387 47.7083 34.687 46.3324 34.1077 44.9565C33.8904 44.3772 33.5283 43.7254 33.5283 43.0013C33.6007 42.2771 33.9628 41.553 34.3973 40.9012C36.3525 37.8598 39.6112 35.6873 42.5803 33.7321C42.7251 34.0217 42.8699 34.2389 43.0872 34.5286C41.0595 38.5839 39.5388 42.8564 38.525 47.2014C42.7251 47.2014 46.7804 46.6221 50.8357 45.7531C52.9358 48.2876 55.1082 50.7498 57.4256 53.0671Z" fill="#1A1F35"/>
</g>
<mask id="mask23_2370_15815" style="mask-type:luminance" maskUnits="userSpaceOnUse" x="0" y="1" width="130" height="115">
<path d="M129.842 1H3.8147e-06V115.634H129.842V1Z" fill="white"/>
</mask>
<g mask="url(#mask23_2370_15815)">
<path d="M68.2883 5.85177C70.0263 4.6207 72.1264 3.38962 74.2989 3.17238C75.53 3.02754 76.6886 3.60686 77.7748 4.11377C78.8611 4.62069 79.8749 5.12761 80.8887 5.70693C81.6129 6.14143 82.4095 6.57592 83.1336 7.08283C83.4957 7.37249 83.9302 7.58975 84.2198 7.95183C85.2337 9.40015 85.1613 11.283 84.944 12.9485C84.6543 15.5555 83.7129 18.0176 82.8439 20.5522V20.4798C82.4818 20.3349 82.1198 20.1901 81.7577 19.9729C80.9611 15.7003 79.73 11.5726 78.1369 7.51733C74.8058 9.90706 71.9091 12.6589 69.1573 15.6279C66.0434 14.8313 62.8571 14.1072 59.7432 13.6003C62.2778 10.8485 65.102 8.02425 68.2883 5.85177Z" fill="#1A1F35"/>
</g>
<mask id="mask24_2370_15815" style="mask-type:luminance" maskUnits="userSpaceOnUse" x="0" y="1" width="130" height="115">
<path d="M129.842 1H3.8147e-06V115.634H129.842V1Z" fill="white"/>
</mask>
<g mask="url(#mask24_2370_15815)">
<path d="M56.9189 57.9913C56.9914 58.1361 56.9913 58.2809 57.0637 58.4258C55.543 59.7293 53.9499 60.9603 52.2119 61.8293C51.3429 62.2638 50.2566 62.7707 49.2428 62.5535C48.8083 62.4811 48.5186 62.2638 48.1565 62.0466C47.2151 61.4672 46.2738 60.8879 45.4048 60.2362C43.7392 59.0051 42.0012 57.5568 40.915 55.8188C45.8392 57.0499 51.2704 56.2533 56.1223 55.3119C56.412 56.2533 56.6293 57.1223 56.9189 57.9913Z" fill="#1A1F35"/>
</g>
<mask id="mask25_2370_15815" style="mask-type:luminance" maskUnits="userSpaceOnUse" x="0" y="1" width="130" height="115">
<path d="M129.842 1H3.8147e-06V115.634H129.842V1Z" fill="white"/>
</mask>
<g mask="url(#mask25_2370_15815)">
<path d="M39.2497 21.4213C38.6703 19.3212 38.0185 16.7143 38.7427 14.5418C39.0324 13.6728 39.7566 13.021 40.3359 12.2969C41.1325 11.3555 41.9291 10.4865 42.7981 9.61748C43.8119 8.67607 44.8981 7.66224 46.1292 7.0105C47.4327 6.28634 49.2431 7.08294 50.4741 7.66226C53.1535 8.89333 55.5432 10.6313 57.7881 12.4417C57.5709 12.7314 57.3536 12.9486 57.0639 13.2383C52.719 12.6589 48.3741 12.5141 43.9567 12.8038C44.9705 15.9901 46.3464 19.104 47.9396 22.073C48.2292 22.5799 48.4465 23.0868 48.7361 23.5938C48.8085 23.6662 49.0258 23.9558 49.0258 24.0282C49.0258 24.1731 48.7361 24.5352 48.6637 24.6076C48.0844 25.549 47.5051 26.4904 46.9257 27.5042C45.9843 29.0974 45.0429 30.7629 44.2464 32.4285C43.3774 30.6181 42.2911 28.8801 41.4221 26.9973C40.5531 25.1869 39.829 23.3765 39.2497 21.4213Z" fill="#1A1F35"/>
</g>
<mask id="mask26_2370_15815" style="mask-type:luminance" maskUnits="userSpaceOnUse" x="0" y="1" width="130" height="115">
<path d="M129.842 1H3.8147e-06V115.634H129.842V1Z" fill="white"/>
</mask>
<g mask="url(#mask26_2370_15815)">
<path d="M52.3568 44.4496C52.2119 44.3048 53.0085 43.0013 53.0809 42.7841C53.443 42.0599 53.8051 41.3357 54.1672 40.684C55.0362 39.0908 55.8327 37.4253 56.8465 35.9045C60.757 41.2633 65.3916 46.1876 70.1711 50.6774C69.809 53.7912 69.3745 56.8327 68.5056 59.8018C62.3502 55.6741 56.9914 50.1705 52.3568 44.4496Z" fill="#1A1F35"/>
</g>
<mask id="mask27_2370_15815" style="mask-type:luminance" maskUnits="userSpaceOnUse" x="0" y="1" width="130" height="115">
<path d="M129.842 1H3.8147e-06V115.634H129.842V1Z" fill="white"/>
</mask>
<g mask="url(#mask27_2370_15815)">
<path d="M70.8228 48.5773C69.6642 47.4911 68.5056 46.3324 67.4193 45.1737C66.84 44.5944 66.333 44.0151 65.8261 43.4358C65.3916 42.9289 64.4502 41.915 64.4502 41.915C64.7399 41.8426 65.8985 41.4081 66.4779 41.1909C67.2744 40.9012 68.1435 40.5391 68.94 40.2495C70.4608 39.6701 71.9814 39.0184 73.5022 38.3667C75.2402 37.6425 76.9057 36.8459 78.5713 35.9769C79.3679 35.5424 80.2369 35.1804 81.0335 34.7459C81.6128 34.4562 82.6991 33.8044 82.6991 33.8044C85.4509 35.0355 88.3474 36.5563 90.882 38.2218C87.9854 40.5391 84.7991 42.4219 81.4679 44.1599C79.7299 45.1013 77.992 45.8979 76.1816 46.7669C75.1678 47.2014 74.2264 47.6359 73.2126 48.0704C72.6333 48.2876 72.0539 48.5773 71.4746 48.7945C71.0401 48.9394 71.1125 48.867 70.8228 48.5773Z" fill="#1A1F35"/>
</g>
<mask id="mask28_2370_15815" style="mask-type:luminance" maskUnits="userSpaceOnUse" x="0" y="1" width="130" height="115">
<path d="M129.842 1H3.8147e-06V115.634H129.842V1Z" fill="white"/>
</mask>
<g mask="url(#mask28_2370_15815)">
<path d="M70.7502 18.1626C70.6778 17.8005 70.6053 17.4385 70.5329 17.0764C71.4743 15.8453 72.633 14.8315 73.7192 13.7452C74.8779 12.659 76.0366 11.5728 77.2676 10.6313C79.8022 17.5109 80.8884 25.0421 81.2505 32.3561C78.4263 33.9493 75.5296 35.3252 72.633 36.6287C72.4882 30.4733 71.8364 24.2456 70.7502 18.1626Z" fill="#1A1F35"/>
</g>
<mask id="mask29_2370_15815" style="mask-type:luminance" maskUnits="userSpaceOnUse" x="0" y="1" width="130" height="115">
<path d="M129.842 1H3.8147e-06V115.634H129.842V1Z" fill="white"/>
</mask>
<g mask="url(#mask29_2370_15815)">
<path d="M96.8202 32.7183C97.8341 34.6012 97.1099 36.9909 96.7478 39.0185C96.603 40.0324 96.4581 41.0462 96.2409 42.06C96.096 42.6393 96.0237 43.5083 95.6616 44.0877C95.2995 45.3911 93.3442 45.898 92.1856 46.1877C89.1441 46.9119 85.9578 46.8395 82.9163 46.767C82.9163 46.405 82.9888 46.0429 82.9888 45.6808C84.2199 45.1015 85.3785 44.3049 86.5371 43.6532C87.6234 43.0014 88.6372 42.3497 89.651 41.6255C91.1718 40.6117 92.5477 39.453 93.9236 38.2944C92.5477 37.2806 91.1718 36.3392 89.7234 35.4702C87.551 34.2391 85.3061 33.2253 83.0612 32.0666C82.844 28.8803 82.5543 25.6216 82.0474 22.4353C84.7268 23.6664 87.3337 24.9699 89.7958 26.4906C92.4752 28.0113 95.3719 29.9665 96.8202 32.7183Z" fill="#1A1F35"/>
</g>
<mask id="mask30_2370_15815" style="mask-type:luminance" maskUnits="userSpaceOnUse" x="0" y="1" width="130" height="115">
<path d="M129.842 1H3.8147e-06V115.634H129.842V1Z" fill="white"/>
</mask>
<g mask="url(#mask30_2370_15815)">
<path d="M97.3271 30.0387C94.1408 26.1282 89.2165 23.4489 84.6543 21.3488C84.6543 21.3488 84.5819 21.3488 84.5819 21.2764C84.944 20.2626 85.3061 19.2487 85.5958 18.3073C87.551 18.0177 89.7235 18.0901 91.6787 18.3797C92.6201 18.5246 93.7787 18.8142 94.4305 19.5384C94.7201 19.9005 94.865 20.335 95.0098 20.7695C95.2995 21.566 95.5891 22.435 95.8064 23.304C96.096 24.3903 96.3857 25.5489 96.6753 26.6352C97.0374 27.7214 97.4719 28.8801 97.3271 30.0387Z" fill="#1A1F35"/>
</g>
<mask id="mask31_2370_15815" style="mask-type:luminance" maskUnits="userSpaceOnUse" x="0" y="1" width="130" height="115">
<path d="M129.842 1H3.8147e-06V115.634H129.842V1Z" fill="white"/>
</mask>
<g mask="url(#mask31_2370_15815)">
<path d="M85.8853 48.7222C87.1164 50.4602 87.9129 52.4154 87.9129 54.5879C87.9129 55.6017 87.6957 56.5431 87.3336 57.4845C87.044 58.1363 86.3922 58.5708 85.8128 59.0777C84.5093 60.0915 83.1335 61.0329 81.7576 61.9019C80.6713 62.626 79.6575 63.3502 78.354 63.495C79.223 62.0467 80.0196 60.526 80.4541 58.9328C81.0335 57.2673 81.4679 55.6017 81.83 53.9361C82.192 52.1982 82.4818 50.4602 82.699 48.6498C83.7852 48.7222 84.8715 48.7222 85.8853 48.7222Z" fill="#1A1F35"/>
</g>
<mask id="mask32_2370_15815" style="mask-type:luminance" maskUnits="userSpaceOnUse" x="0" y="1" width="130" height="115">
<path d="M129.842 1H3.8147e-06V115.634H129.842V1Z" fill="white"/>
</mask>
<g mask="url(#mask32_2370_15815)">
<path d="M78.7161 58.064C78.0644 60.0192 77.1954 62.1193 75.7471 63.64C74.2988 65.1608 72.1987 65.2332 70.3159 65.5953C68.4331 65.9573 66.4778 66.3194 64.595 66.247C63.2191 66.3194 62.1328 64.5814 61.5535 63.64C59.8879 60.9606 58.9466 57.9192 58.15 54.9501C58.5121 54.8777 58.8742 54.8053 59.1638 54.7329C62.4225 57.7743 65.8261 60.5262 69.6641 62.8435C70.9676 58.8606 71.8366 54.8053 72.1987 50.6052C75.2402 49.4465 78.1368 48.0706 81.0334 46.6947C80.5265 50.5327 80.0196 54.4432 78.7161 58.064Z" fill="#1A1F35"/>
</g>
<mask id="mask33_2370_15815" style="mask-type:luminance" maskUnits="userSpaceOnUse" x="0" y="1" width="130" height="115">
<path d="M129.842 1H3.8147e-06V115.634H129.842V1Z" fill="white"/>
</mask>
<g mask="url(#mask33_2370_15815)">
<path d="M57.064 9.47267C56.9192 9.32784 56.7744 9.25542 56.6295 9.11059C57.064 7.30019 57.5709 5.5622 58.295 3.89664C58.7295 3.02765 59.2365 2.01383 60.033 1.4345C60.54 1 61.0469 1 61.6986 1C63.0746 1 64.378 1 65.7539 1.07242C66.6953 1.07242 67.6368 1.14484 68.5782 1.14484C69.592 1.21726 70.5334 1.21724 71.4024 1.65174C66.6229 3.53455 62.5677 7.3726 59.0917 11.0658C58.44 10.4865 57.7882 9.97958 57.064 9.47267Z" fill="#1A1F35"/>
</g>
<mask id="mask34_2370_15815" style="mask-type:luminance" maskUnits="userSpaceOnUse" x="0" y="1" width="130" height="115">
<path d="M129.842 1H3.8147e-06V115.634H129.842V1Z" fill="white"/>
</mask>
<g mask="url(#mask34_2370_15815)">
<path d="M59.019 15.5557C62.2778 16.0626 68.6504 17.5833 68.6504 17.5833C68.7952 18.3799 68.9401 18.9592 69.0125 19.611C69.1573 20.4075 69.3021 21.2041 69.3746 22.0007C69.5918 23.7387 69.8091 25.4042 70.0263 27.1422C63.7261 25.3318 57.2811 23.8111 50.7637 23.0145C49.243 20.3351 47.7946 17.5109 46.7083 14.6142C50.836 14.5418 54.9638 14.9039 59.019 15.5557Z" fill="#1A1F35"/>
</g>
<mask id="mask35_2370_15815" style="mask-type:luminance" maskUnits="userSpaceOnUse" x="0" y="1" width="130" height="115">
<path d="M129.842 1H3.8147e-06V115.634H129.842V1Z" fill="white"/>
</mask>
<g mask="url(#mask35_2370_15815)">
<path d="M32.587 27.2145C33.0215 25.6214 33.3836 24.0282 33.963 22.5075C34.6147 20.8419 35.3388 18.8143 36.5699 17.4384C36.932 22.5799 39.3218 27.5766 41.7839 31.9939C40.7701 32.6457 39.9011 33.2974 39.0321 33.8768C33.8181 30.8353 32.2974 28.4456 32.587 27.2145Z" fill="#1A1F35"/>
</g>
<mask id="mask36_2370_15815" style="mask-type:luminance" maskUnits="userSpaceOnUse" x="0" y="1" width="130" height="115">
<path d="M129.842 1H3.8147e-06V115.634H129.842V1Z" fill="white"/>
</mask>
<g mask="url(#mask36_2370_15815)">
<path d="M47.3602 30.7628C48.4465 28.8076 49.6052 26.9248 50.7638 25.042C53.9501 25.4041 57.1364 25.9834 60.2503 26.7075C58.7296 28.9524 57.2089 31.1973 55.833 33.5146C55.4709 34.094 51.7052 40.9735 51.488 41.408C51.1259 42.1321 50.3293 43.7977 50.3293 43.7977C49.5327 44.015 48.7362 44.1598 48.012 44.2322C47.143 44.377 46.274 44.5219 45.405 44.6667C43.9567 44.8839 42.5084 45.1012 41.0601 45.1736C41.0601 44.6667 41.4221 43.9425 41.567 43.508C41.7842 42.8563 42.0015 42.2046 42.2187 41.5528C42.7256 40.2493 43.2325 38.9458 43.8118 37.7148C44.8981 35.3251 46.1292 33.0802 47.3602 30.7628Z" fill="#1A1F35"/>
</g>
</g>
</svg>
