<svg width="211" height="115" viewBox="0 0 211 115" fill="none" xmlns="http://www.w3.org/2000/svg">
<mask id="mask0_2370_15819" style="mask-type:luminance" maskUnits="userSpaceOnUse" x="0" y="33" width="211" height="50">
<path d="M210.351 33H0V82.6088H210.351V33Z" fill="white"/>
</mask>
<g mask="url(#mask0_2370_15819)">
<mask id="mask1_2370_15819" style="mask-type:luminance" maskUnits="userSpaceOnUse" x="0" y="33" width="211" height="50">
<path d="M210.351 33H0V82.6088H210.351V33Z" fill="white"/>
</mask>
<g mask="url(#mask1_2370_15819)">
<path fill-rule="evenodd" clip-rule="evenodd" d="M0.000181702 79.2042H25.8584C25.9394 79.2853 26.1016 79.3663 26.1826 79.5285L26.2637 79.6095C26.3447 79.6095 26.3447 79.6906 26.3447 79.6906C26.3447 79.6906 26.3447 79.6906 26.4258 79.7717C26.5068 79.8527 26.669 79.9338 26.75 80.0148C26.9121 80.0959 27.0742 80.258 27.2364 80.3391V81.2307H-0.5672V79.2042H0.000181702Z" fill="#1A1F35"/>
</g>
<mask id="mask2_2370_15819" style="mask-type:luminance" maskUnits="userSpaceOnUse" x="0" y="33" width="211" height="50">
<path d="M210.351 33H0V82.6088H210.351V33Z" fill="white"/>
</mask>
<g mask="url(#mask2_2370_15819)">
<path fill-rule="evenodd" clip-rule="evenodd" d="M56.7421 79.2042H209.54V81.4739H58.5254L56.7421 80.0959V79.2042Z" fill="#1A1F35"/>
</g>
<mask id="mask3_2370_15819" style="mask-type:luminance" maskUnits="userSpaceOnUse" x="0" y="33" width="211" height="50">
<path d="M210.351 33H0V82.6088H210.351V33Z" fill="white"/>
</mask>
<g mask="url(#mask3_2370_15819)">
<path fill-rule="evenodd" clip-rule="evenodd" d="M53.2566 33C48.0687 33 43.3673 34.5401 39.7196 37.4583C35.0991 41.106 32.5052 47.0234 32.5052 53.5893C32.5052 58.5339 34.0453 63.2354 36.9635 66.8021C40.6923 71.4225 46.6907 74.0975 53.1755 74.0975C59.0119 74.0975 64.2808 71.9899 68.0096 68.3422C71.7383 64.6135 73.7648 59.3446 73.7648 53.5082C73.7648 47.5908 71.8194 42.484 68.0096 38.7553C64.3619 34.9454 59.174 33 53.2566 33ZM39.7196 53.5893C39.7196 48.5635 41.4219 43.6999 44.4211 40.7007C46.7718 38.35 49.69 37.1341 53.0945 37.1341C57.3096 37.1341 60.8762 38.9174 63.308 42.3219C65.4156 45.2401 66.5504 49.212 66.5504 53.4272C66.5504 55.7779 66.1452 58.1286 65.4967 60.1551C63.4702 66.2347 58.9308 69.7203 53.0945 69.7203C48.3119 69.7203 44.1778 67.2074 41.8271 62.7491C40.5301 60.1552 39.7196 56.9127 39.7196 53.5893Z" fill="#1A1F35"/>
</g>
<mask id="mask4_2370_15819" style="mask-type:luminance" maskUnits="userSpaceOnUse" x="0" y="33" width="211" height="50">
<path d="M210.351 33H0V82.6088H210.351V33Z" fill="white"/>
</mask>
<g mask="url(#mask4_2370_15819)">
<path fill-rule="evenodd" clip-rule="evenodd" d="M92.2467 50.5089C91.8414 50.3467 91.355 50.1846 90.7875 49.9414C87.7073 48.8066 83.0057 47.1043 83.1679 42.7271C83.33 39.5657 85.9239 37.215 89.1663 37.215C92.3277 37.215 94.7595 38.9173 95.5701 41.6733V41.8354L95.7322 41.9165L96.2997 42.1597L96.5428 42.2407L96.6238 41.9975L98.8936 36.6476L98.9746 36.4854L98.8125 36.3233C96.5428 34.2158 93.6246 33.162 90.058 33.162C83.411 33.162 78.2232 36.8097 77.1694 42.2407C76.4399 45.8884 77.4126 49.293 79.7634 51.5626C81.5467 53.2649 83.8974 54.3187 86.2482 55.2914H86.3292C88.68 56.2641 92.0034 57.5611 93.7057 59.6686C94.6784 60.8845 95.0837 62.4247 94.8405 64.2891C94.4352 67.5315 91.9224 69.7201 88.599 69.8822C83.7353 70.0443 79.3581 67.2072 78.6285 63.3974V63.2353L78.4664 63.1542L77.7369 62.911L77.4937 62.83L77.4126 63.0732L75.7104 69.0716L75.6293 69.2338L75.7104 69.3148C78.3043 72.314 82.7626 73.9352 87.7884 73.8542C95.3269 73.611 101.001 68.18 101.001 61.2088C101.244 56.7505 98.2451 53.1028 92.2467 50.5089Z" fill="#1A1F35"/>
</g>
<mask id="mask5_2370_15819" style="mask-type:luminance" maskUnits="userSpaceOnUse" x="0" y="33" width="211" height="50">
<path d="M210.351 33H0V82.6088H210.351V33Z" fill="white"/>
</mask>
<g mask="url(#mask5_2370_15819)">
<path fill-rule="evenodd" clip-rule="evenodd" d="M210.351 33.6484H209.865H202.731H202.245L202.488 34.0537L203.704 35.9992V58.5339L181.494 33.7295L181.332 33.6484H181.251H174.441H173.955L174.198 34.0537L175.982 36.8098V70.9361L174.766 72.8816L174.523 73.2869H175.009H182.061H182.547L182.304 72.8816L181.413 70.9361V43.6999L208.649 73.6922L209.135 74.1785V73.449V36.1613L210.108 34.0537L210.351 33.6484Z" fill="#1A1F35"/>
</g>
<mask id="mask6_2370_15819" style="mask-type:luminance" maskUnits="userSpaceOnUse" x="0" y="33" width="211" height="50">
<path d="M210.351 33H0V82.6088H210.351V33Z" fill="white"/>
</mask>
<g mask="url(#mask6_2370_15819)">
<path fill-rule="evenodd" clip-rule="evenodd" d="M166.417 69.1528H153.366V55.1294H165.606H165.849L165.93 54.8862L167.227 51.3196L167.389 50.7521L166.822 50.9143L166.579 50.9953H153.366V37.7825H164.147L167.551 38.9173L167.876 38.9984L167.957 38.7552L169.578 34.0537L169.659 33.6484H169.335H145.746H145.341L145.503 34.0537L146.557 36.6477V70.5308L145.584 72.8816L145.503 73.2869H145.908H169.092H169.254L169.335 73.1247L170.956 68.3422L171.118 67.8558L170.632 68.0179L166.417 69.1528Z" fill="#1A1F35"/>
</g>
<mask id="mask7_2370_15819" style="mask-type:luminance" maskUnits="userSpaceOnUse" x="0" y="33" width="211" height="50">
<path d="M210.351 33H0V82.6088H210.351V33Z" fill="white"/>
</mask>
<g mask="url(#mask7_2370_15819)">
<path fill-rule="evenodd" clip-rule="evenodd" d="M141.126 34.0537L141.288 33.6484H140.883H132.533H131.966L132.29 34.0537L133.425 35.9992V50.9953H112.43V35.9992L113.403 34.0537L113.565 33.6484H113.16H104.811H104.243L104.568 34.0537L105.703 35.9992V70.9361L104.568 72.8816L104.243 73.2869H104.811H113.16H113.565L113.403 72.8816L112.43 70.9361V55.0483H133.425V70.9361L132.29 72.8816L131.966 73.2869H132.533H140.883H141.288L141.126 72.8816L140.153 70.9361V35.9992L141.126 34.0537Z" fill="#1A1F35"/>
</g>
<mask id="mask8_2370_15819" style="mask-type:luminance" maskUnits="userSpaceOnUse" x="0" y="33" width="211" height="50">
<path d="M210.351 33H0V82.6088H210.351V33Z" fill="white"/>
</mask>
<g mask="url(#mask8_2370_15819)">
<path fill-rule="evenodd" clip-rule="evenodd" d="M50.5004 80.096L50.4192 79.9338H50.2572C43.1239 80.4202 35.6663 75.7187 28.0467 66.1536C25.2096 62.587 21.9671 58.534 19.2111 55.2105C24.8042 54.2378 28.8573 49.7795 28.8573 44.3484C28.8573 41.5113 27.8845 38.9985 26.0202 37.1341C23.5073 34.6212 19.5354 33.3243 14.5907 33.4053L2.10742 33.5674H1.70212L1.8643 33.9727L2.99906 36.5667V70.8551L1.78316 72.8006L1.54004 73.2059H2.02638H10.3756H10.7809L10.6187 72.8006L9.72709 70.8551V37.2152C14.7528 36.8909 18.2384 37.5394 20.1839 39.2417C21.4808 40.3765 22.2103 41.9977 22.3725 44.1863C22.5346 46.3749 21.805 48.4014 20.427 49.9416C18.5626 52.0492 15.4823 53.184 11.5104 53.3461H11.3483L11.2673 53.5082L11.024 54.2378L10.943 54.3999L11.024 54.562L16.0498 60.7226L17.0225 62.0196C27.8846 75.8808 35.7474 85.8512 50.8245 81.2308L51.1488 81.1497L50.9867 80.8255L50.5004 80.096Z" fill="#1A1F35"/>
</g>
</g>
</svg>
