<svg width="100" height="116" viewBox="0 0 100 116" fill="none" xmlns="http://www.w3.org/2000/svg">
<mask id="mask0_2370_15828" style="mask-type:luminance" maskUnits="userSpaceOnUse" x="-1" y="1" width="101" height="115">
<path d="M99.4818 1H-0.000244141V115.135H99.4818V1Z" fill="white"/>
</mask>
<g mask="url(#mask0_2370_15828)">
<path d="M98.1891 108.096C97.0399 106.946 95.6033 106.659 94.1668 106.156C93.7358 106.084 93.1611 105.869 93.1611 105.151C93.1611 104.432 94.0231 104.217 94.7414 104.217C95.6751 104.217 96.8962 104.648 97.7582 105.223L98.7638 103.14C97.7582 102.493 96.4653 101.918 94.8132 101.918C93.0175 101.918 90.8627 102.637 90.8627 105.007C90.8627 106.156 91.15 106.875 91.7964 107.593C92.6584 108.455 94.0949 108.742 95.316 109.245C96.4652 109.676 96.9681 109.963 96.9681 110.825C96.9681 111.831 96.3216 112.405 94.8132 112.405C93.8076 112.405 92.4429 111.759 91.581 111.041L90.4317 113.339C91.4373 114.201 92.9457 114.56 94.6696 114.56C97.9018 114.56 99.3384 112.98 99.3384 110.538C99.2666 109.676 98.8356 108.742 98.1891 108.096ZM81.3095 101.99V111.184C81.2377 112.19 80.6631 112.621 79.011 112.621C78.2927 112.621 77.4308 112.549 76.928 112.118C76.8562 112.046 76.6407 111.687 76.6407 111.256V102.062H74.2703V111.4C74.2703 112.334 74.4858 112.98 74.7731 113.483C75.4196 114.848 76.7125 115.135 78.9392 115.135C79.8729 115.135 80.7349 115.063 81.3095 114.704H83.6799V101.99H81.3095ZM67.9495 101.99H65.4355V106.372C65.4355 106.587 65.3637 106.803 65.0045 106.803H60.623C60.3357 106.803 60.192 106.587 60.192 106.372V101.99H57.678V114.488H60.0484V109.389C60.0484 109.317 60.1202 109.101 60.4793 109.101H64.8609C65.0763 109.101 65.1481 109.173 65.1481 109.317V114.632H67.5185L67.9495 101.99ZM43.3842 108.383C43.3842 112.334 44.318 114.919 48.5558 114.919H51.8599V112.621C51.6444 112.621 48.8431 112.693 48.6277 112.693C46.0418 112.693 45.8264 110.825 45.8264 108.455C45.8264 106.085 46.1137 104.217 48.6277 104.217C48.8431 104.217 51.6444 104.217 51.8599 104.289V101.99C51.6444 101.99 48.8432 101.918 48.5558 101.918C44.4616 101.99 43.3842 104.504 43.3842 108.383ZM29.5214 108.383C29.5214 112.334 30.4551 114.919 34.693 114.919H37.9971V112.621C37.7816 112.621 34.9803 112.693 34.7648 112.693C32.179 112.693 31.9635 110.825 31.9635 108.455C31.9635 106.085 32.2508 104.217 34.7648 104.217C34.9803 104.217 37.7816 104.217 37.9971 104.289V101.99C37.7816 101.99 34.9803 101.918 34.693 101.918C30.527 101.99 29.5214 104.504 29.5214 108.383ZM17.8134 109.963C17.8134 109.748 17.8852 109.532 17.8852 109.46C18.1007 108.742 18.7472 106.731 19.0345 105.869C19.1063 105.582 19.3218 105.582 19.4654 105.582C19.6091 105.582 19.7527 105.582 19.8964 105.869C20.1837 106.803 20.8302 108.742 21.0457 109.46C21.0457 109.532 21.1175 109.748 21.2611 109.963H17.8134ZM17.8852 101.99L13.9346 114.632H16.5205L17.1669 112.477H21.8357L22.3386 114.632H24.9243L20.9738 101.99H17.8852ZM4.74064 112.334H2.37032V109.532H5.02797C5.74626 109.532 6.17721 110.035 6.17721 110.753C6.17721 111.759 5.81807 112.334 4.74064 112.334ZM4.30969 104.289C5.31529 104.289 5.88988 105.007 5.88988 105.725C5.88988 106.444 5.3871 107.162 4.74064 107.162H2.37032V104.145L4.30969 104.289ZM7.54196 108.239C7.54196 108.168 7.61377 108.024 7.61377 107.952C7.90108 107.306 8.26024 106.803 8.26024 106.013C8.26024 104.073 7.32646 102.206 4.74064 102.206H0V114.919H5.1716C7.68558 114.919 8.69119 113.052 8.69119 111.184C8.69119 110.035 8.26023 109.317 7.75744 108.67C7.54195 108.311 7.54196 108.311 7.54196 108.239ZM98.5483 44.6714C98.0455 43.8095 97.399 42.732 96.6089 41.5828C95.6033 40.218 93.8076 38.566 92.5865 37.3449C91.8682 36.6985 91.2218 36.6266 91.581 35.6929C91.7964 35.0464 90.8627 34.6873 90.1444 34.1126C88.9233 33.2507 89.1388 33.2507 89.2824 32.5324C89.7134 31.1677 88.8515 30.2339 87.9177 29.0847C86.3375 27.2171 84.3263 26.0679 82.4588 25.3496C81.5968 25.0623 80.8067 24.7031 80.0884 24.4877C78.2209 23.9849 78.6519 24.2003 78.2927 22.3328C78.0054 20.3934 77.6462 20.8963 78.7955 19.2442C79.6574 18.0231 80.1602 16.4429 80.3757 14.8627C80.5912 13.7134 80.3039 13.8571 78.58 13.8571C77.7181 13.8571 77.6463 12.9233 74.6295 12.9233C73.4802 12.9233 73.6957 12.7078 72.9774 11.7741C72.7619 11.4867 72.5465 11.1276 72.2592 10.8403C70.3916 8.75728 68.5241 9.8347 68.8114 6.88974C69.2424 2.86736 69.7452 3.08285 66.0101 3.65747C65.1481 3.7293 64.2144 3.87298 63.4243 3.9448C60.9103 4.23212 61.5567 4.37577 60.1202 2.72372C59.4019 1.86178 58.3245 1.78996 57.4626 1.78996C56.2415 1.71813 55.3077 2.29274 55.0922 1.86177C54.8049 0.856175 54.0866 0.99984 54.0866 0.928012C54.0148 0.928012 53.2247 0.856201 52.2191 0.856201C51.2853 0.856201 50.2797 0.928021 49.1305 1.07168C46.401 1.71813 45.6827 0.856201 42.8814 0.856201C41.5167 0.856201 40.2238 1.14351 39.1464 1.57448C37.9971 2.07728 37.3507 2.93919 36.9915 3.65747C35.9859 5.59684 36.5606 4.37577 34.8367 5.59684C33.2565 6.81792 32.2508 7.03339 30.4551 8.18264C27.9411 9.97835 29.8087 10.2657 26.2173 10.7685C24.3498 10.984 22.6977 11.6304 21.5485 12.1332C19.9682 12.7796 19.9682 12.5642 20.1837 14.2162C20.2555 14.719 20.3992 15.3655 20.6147 16.0119C21.0456 17.233 21.0457 16.8739 20.3274 18.095C19.1063 19.747 17.0233 17.0894 15.8022 17.0894C15.3712 17.0894 14.6529 18.6696 13.8628 19.6752C13.36 20.3934 12.7136 21.4709 12.2108 22.7638C11.708 24.1285 11.5643 25.6369 11.5643 27.0016C11.5643 29.5875 12.2826 29.3002 10.1278 30.7367C9.62496 31.024 9.19398 31.3832 8.90667 31.6705C8.40387 32.1014 7.97293 32.5324 7.54196 33.0352C6.68002 33.969 6.82366 33.969 7.61377 34.2563C8.33205 34.5436 7.68558 34.9027 6.9673 35.4055C5.1716 36.7703 3.01678 38.8533 1.2929 41.7983C0.359132 43.3785 0.0718107 43.4503 0.790093 45.0305C1.29289 46.2516 2.15484 47.329 3.0886 48.1191C4.52517 49.3402 4.95615 48.9811 4.66883 50.8486C4.597 51.4951 4.59698 52.0697 4.59698 52.7161C4.59698 53.9372 4.81247 55.2301 5.09978 56.2357C4.81247 57.6723 4.59697 58.5342 3.01675 59.2525C1.3647 60.1145 2.29848 61.6228 3.30408 62.3411C4.23785 62.9876 5.24343 63.3467 6.39268 63.7059C8.4757 64.4242 8.18841 64.1368 7.54196 66.0043C6.60819 69.093 8.97852 72.828 11.3488 74.6956C15.3712 78.9334 15.7304 82.0221 24.0624 79.8672V79.7954L25.068 81.4474H25.1399C28.013 85.1825 30.8143 87.05 35.8422 86.1162L36.8479 85.9008C37.4943 87.5528 38.4281 88.7739 39.5773 89.6358C44.4616 93.0836 51.7881 92.0062 55.0204 87.1218C59.5456 89.2767 66.4411 89.0612 71.1817 84.8233C71.2536 84.1769 71.469 84.3924 72.0437 84.1051C72.6901 83.6741 73.1929 83.0995 73.4802 82.5248C73.6957 82.022 73.983 79.7954 74.1985 79.7954C75.2041 79.3644 75.7787 78.8616 76.3534 77.9278C76.7843 77.2096 77.5744 75.6294 77.7181 74.4801C77.7899 73.6182 77.7899 73.1154 77.7181 72.5407C77.5026 70.4577 77.2153 71.1042 78.8674 71.5351C79.8011 71.7506 80.4476 71.607 80.4476 71.607C81.8123 70.2422 82.0278 68.1592 82.2433 66.148C82.3151 64.7833 82.1714 63.9932 83.8235 64.9269C84.9727 65.5734 86.4811 66.7945 88.2768 66.7226C89.4261 66.7226 90.1444 62.2693 90.3599 61.2637C91.0063 57.6723 89.8571 57.9596 93.5921 55.6611C95.6752 54.2964 97.3272 52.4288 98.1173 50.9204C99.5539 47.9036 100.057 47.6164 98.5483 44.6714ZM30.2397 11.4149C30.9579 9.97835 32.7536 8.61364 34.0465 8.61364C34.7648 8.61364 34.5494 8.68544 35.0522 8.18264L35.2676 7.96717L35.555 7.67988C36.2014 7.03343 37.1352 6.31514 37.9253 6.09965C38.859 5.88417 39.5773 6.09962 40.0801 6.38694C40.3674 6.60242 40.5829 6.88974 40.7266 7.24888C40.7984 7.5362 40.9421 7.96718 40.7984 8.2545C40.7266 9.61923 39.0027 10.3375 37.9253 9.83473C37.4225 9.61924 37.0633 9.18825 37.0633 8.46997C37.2788 7.03341 39.1463 7.10525 38.9308 8.03902C38.859 8.25451 38.6436 8.46996 38.2844 8.32631H38.2126C38.1407 8.32631 37.9971 8.54181 37.9971 8.61364C38.0689 9.61923 39.8647 9.0446 39.8647 8.11083C39.8647 7.89535 39.8646 7.67984 39.7928 7.46436C39.721 7.24888 39.5773 7.17707 39.5055 7.03341C39.29 6.7461 38.7872 6.60242 38.2844 6.74608C37.638 6.81791 36.9197 7.46438 36.4169 8.11083L36.2014 8.32631L35.555 9.33192C35.0522 10.2657 35.2676 10.1938 34.1902 10.2657C32.9691 10.6248 31.6044 11.1276 30.2397 11.4149ZM42.8814 57.7441C43.3842 57.7441 45.4672 58.4624 46.6883 58.7497C47.1911 58.8215 47.8375 58.9652 48.2685 59.1807C48.7713 59.3961 49.2023 59.8271 49.4896 59.8271C50.2079 59.8271 51.3571 58.9652 52.0036 59.1807C52.65 59.468 56.2415 57.6004 57.1034 57.385C56.6724 57.8159 55.7387 58.9652 55.164 59.8989C54.5176 60.9045 53.7275 61.7665 52.6501 62.1975C52.0036 62.4129 51.2135 62.1256 50.3515 62.1256C50.0642 62.1256 49.8487 62.1256 49.4896 62.1975C48.484 62.4848 47.5503 62.6285 46.6883 62.2693C44.749 61.6229 45.3954 60.0426 42.8814 57.7441ZM49.4178 56.5949C49.9206 56.5949 50.567 56.0921 51.0698 56.1639C51.5726 56.3794 54.8049 56.8104 55.595 56.5949C56.2415 56.3794 56.5288 56.8103 55.595 57.0258C54.6612 57.2413 53.2247 57.4568 53.2247 57.4568C52.7219 57.5286 51.3571 57.6723 51.0698 57.8878C50.4234 57.8878 49.9206 57.9596 48.915 57.816C47.9094 57.3132 44.2462 56.954 44.2462 56.954C44.2462 56.954 47.6939 56.3076 47.9812 56.2357C48.3404 56.3076 48.7713 56.5949 49.4178 56.5949ZM40.2238 55.4456C39.7928 56.1639 40.0083 55.5175 40.2238 54.5837C41.0857 51.7824 42.5223 52.4288 43.0969 50.5613C43.0969 51.926 44.1025 52.5006 44.749 52.8598C44.2462 54.7273 41.0857 53.7218 40.2238 55.4456ZM48.915 18.6696C46.7601 19.3879 44.2461 21.5427 43.7433 22.4765C43.2405 23.4102 43.7434 23.6975 42.0913 24.344C40.4393 24.9904 40.7266 23.4102 40.5111 22.5483C40.2956 21.6145 38.2126 24.6313 37.4943 24.2004C36.776 23.9131 40.2238 17.9513 48.915 18.6696ZM88.2768 36.6266C86.8403 36.3393 85.4755 36.1956 84.1108 36.1956C82.2433 36.2675 79.8729 36.8421 77.0716 37.9913C76.0661 38.6378 74.9886 39.3561 73.983 40.2899C74.6295 32.3888 82.6742 30.6649 90.6472 37.2731C89.7852 37.0576 89.0669 36.8421 88.2768 36.6266ZM36.776 79.4362C37.4225 84.7515 34.8367 85.829 29.3059 82.9558C33.4719 83.1713 34.9085 82.3812 36.776 79.4362ZM88.2768 57.3131C88.3487 59.8271 88.4923 62.6284 87.5585 64.8551C86.122 64.5678 85.26 64.2086 83.9671 63.4904C84.9727 62.3411 83.8953 59.9708 82.3151 58.3188C83.7517 56.7385 83.7516 57.0977 84.1826 55.0146C85.26 56.3075 86.8403 56.8104 88.2768 57.3131ZM74.1985 60.2581C75.8506 60.3299 76.1379 62.9876 77.4308 65.6452C77.359 65.5015 75.4914 64.065 74.1985 60.2581ZM59.9047 55.0865V57.1695C59.4019 56.7385 58.2527 55.3738 57.3189 55.0146C56.6006 54.7273 55.4513 54.5118 53.7993 54.5118C52.4346 54.5118 51.7163 53.8654 50.2079 54.5837C50.4952 54.3682 50.1361 54.1527 49.9924 53.8654C50.4234 53.6499 50.8544 53.2189 51.3572 52.7161L51.429 52.6443L52.1473 51.926C52.5782 51.926 52.8655 51.9261 53.2965 51.8542C53.7275 51.7824 54.0148 51.5669 54.3021 50.9923C54.5176 50.705 54.5176 50.274 54.0866 50.1303H54.0148C54.0148 49.9148 53.1528 50.2021 52.3627 50.5613C51.1417 50.9922 49.7769 50.9923 48.915 49.6275C48.2685 48.6938 48.6277 47.329 48.915 45.246L48.484 38.2787C48.5559 37.9914 48.6995 37.5604 48.5558 37.1294C48.3404 35.9802 48.3404 35.9084 46.401 35.6929C42.8814 35.2619 38.9309 34.4718 35.4113 34.8309C34.693 34.9028 34.0466 35.0464 33.6156 35.2619L33.6874 32.6761C33.7592 32.3888 33.9029 31.9578 33.9747 31.5268C34.9803 27.5763 36.9915 29.8748 42.4504 27.7199C43.887 29.372 47.9094 28.7255 47.9094 28.7255C47.9094 28.7255 48.4122 29.372 51.429 29.372C54.4458 29.3001 57.247 27.9354 57.247 27.9354C57.247 27.9354 58.6118 29.372 61.054 29.3002C63.4243 29.2283 63.9271 27.7199 63.9271 27.7199C63.9271 27.7199 64.9327 28.6537 65.5791 30.2339C66.0101 31.2395 66.5129 32.5324 66.7284 33.969C67.3748 34.8309 67.4467 44.7432 69.2424 42.5884C71.1817 40.0744 69.9607 29.4438 69.1705 28.5819C69.1705 28.5819 70.5353 29.8029 72.0437 30.7367C73.6239 31.6705 74.5576 31.3832 74.8449 31.5987C75.5632 29.2283 78.7955 29.4438 78.7955 29.4438C78.7955 29.4438 77.2153 28.51 75.4914 28.2227C73.6957 27.7918 71.7564 28.0072 71.6845 27.9354C67.9495 27.5044 67.1594 24.4158 67.1594 24.4158C67.1594 24.4158 67.5903 23.1948 67.6621 22.9793C68.5241 23.1948 71.8282 23.4821 70.8944 26.2834C71.9 25.5651 72.2592 24.1285 71.3254 23.1948C70.3916 22.3328 68.5959 21.6146 67.0875 21.3272C67.0157 22.1892 66.3692 22.3328 64.9327 22.1891C64.9327 22.1891 67.0875 26.5707 67.4467 27.6481C68.3804 30.9522 68.5959 33.1071 68.0931 35.5492C68.0931 34.1845 67.8058 31.9578 66.7284 29.5156C65.8664 27.0016 64.789 26.2834 64.789 26.2834C65.0045 22.261 62.1314 20.8244 61.7004 20.3934C61.7004 20.6089 59.3301 20.6089 58.8991 21.2554C61.6286 22.4046 65.7228 26.9298 62.1314 27.7918C60.2639 28.2227 59.2583 27.3608 58.8991 27.0735C59.7611 26.5707 59.761 25.6369 59.761 24.7031C59.761 23.7694 59.761 22.9074 57.1752 21.399C58.1808 20.4653 58.7554 19.5315 59.0427 18.095C60.2638 19.316 64.9327 21.1117 70.6789 21.1836C68.3086 20.2498 68.5241 19.8188 68.3086 19.5315C65.7946 20.0343 61.7722 17.5921 62.706 14.6472C61.9877 13.4979 60.7666 11.6304 60.7666 11.6304C60.2638 11.9177 58.2527 15.6528 57.5344 15.581C57.3189 15.8683 57.2471 16.2274 57.1034 16.7302C57.1752 17.1612 57.7498 17.5922 57.9653 17.7358C57.9653 18.4541 56.8161 20.8244 56.1696 21.5427C57.3189 22.0455 58.4681 22.9793 58.6836 24.0567C58.9709 25.0623 59.1864 26.427 55.0922 27.5044C55.595 26.4989 55.595 25.4214 54.5894 24.0567C53.4402 22.692 53.3683 21.1836 53.3683 21.1836C53.3683 21.1836 53.1528 21.9018 53.2965 22.8356C53.3683 24.0567 54.9486 27.0017 53.2247 27.7918C51.3571 28.6537 50.3515 28.4382 49.7051 27.3608C51.8599 25.2778 51.2853 21.9018 51.5726 21.2554C48.6995 21.6864 50.2079 24.1285 47.7658 27.289C47.1193 27.289 46.7602 27.289 45.6109 26.2834C44.6053 25.2778 44.4616 23.4821 47.1911 21.6145C48.5558 20.6808 50.4234 20.3935 51.1416 20.2498C51.7881 20.2498 52.3627 20.178 52.5064 20.178C52.5064 19.2442 51.1416 18.0231 49.7051 18.095H48.6995C46.0419 16.5147 41.8758 14.5036 37.9971 13.6416C34.9803 12.9952 32.179 13.2106 30.6706 14.3599C36.2732 13.6416 41.0139 14.8627 45.3954 17.5922C42.5941 16.8739 40.6547 19.2442 38.2126 20.1061C36.2732 20.7526 31.8199 21.2554 29.0186 20.0343C32.2508 19.8188 34.4775 18.6696 33.9747 18.1668C33.7592 17.9513 33.041 17.9513 32.179 17.9513C29.8087 18.0231 28.8749 18.0231 26.7201 16.802C25.2835 15.9401 23.7033 14.9345 21.9794 15.0063C22.0512 14.288 25.7863 13.3543 28.3003 13.067C30.8143 12.7797 33.2564 11.7023 35.0522 11.2713C38.4999 10.553 42.0913 13.067 44.6771 14.5754C47.9094 16.5147 48.6277 17.3767 52.1473 16.7302C54.6612 16.2274 55.164 18.8851 55.9541 20.5371C56.6724 19.6752 56.9598 18.5978 57.1034 17.7358C57.1752 16.8739 56.6006 14.9345 56.6006 14.9345C56.6006 14.9345 55.3795 15.8683 53.2965 15.15C51.6444 14.6472 51.1417 12.8515 51.2135 11.4149L51.2853 10.4812V10.4093C51.3571 10.3375 51.9318 9.40373 52.7219 9.04459C53.6556 8.75728 54.8767 9.11643 55.5232 9.5474C56.9598 10.4093 56.8879 13.1388 56.8879 13.1388C56.8879 13.1388 57.3907 11.4868 58.9709 10.7685C60.5512 10.0502 58.7554 8.82911 56.6724 8.11083C55.6668 7.67986 54.8049 7.17706 54.3021 6.5306C53.7993 6.02781 53.4401 5.38135 53.2965 4.7349C59.6174 3.51382 58.4681 5.38134 59.1864 6.38694C59.2582 6.38694 59.4019 6.45879 59.4737 6.45879C61.5568 6.96159 66.9438 6.45879 66.9438 6.45879L66.7284 9.04459C66.7284 9.04459 64.2144 9.33193 63.2806 8.39816C62.3469 7.4644 59.8329 7.24888 59.8329 7.24888C59.8329 7.24888 61.1976 9.76288 65.5073 10.2657C69.9606 10.9121 71.7563 14.4317 71.7563 14.4317C71.7563 14.4317 70.3916 14.2162 67.9495 13.5698C67.0875 13.3543 66.3692 13.067 65.8664 12.7079L65.7946 12.636C65.5791 12.5642 65.3636 12.4205 65.1481 12.205H65.22V12.0614C65.1482 11.7741 64.2862 11.3431 64.0707 11.1994C64.0707 11.1994 63.137 10.553 62.4905 11.2713C63.3525 14.1444 71.8282 14.8627 71.8282 14.8627C71.8282 14.8627 69.0269 16.6584 65.22 15.3655C67.9495 18.8132 72.9056 16.9457 74.5577 14.1444L76.497 14.4317L79.2983 15.4373C78.58 18.2386 78.0772 19.6033 75.3478 20.8962C73.2647 19.0287 72.6901 18.9569 69.9606 19.1005C71.3972 19.6033 72.8338 20.4653 74.1985 20.8962C74.1985 21.1836 74.414 23.4821 74.414 23.4821C74.414 23.4821 75.2759 23.1947 75.8506 23.0511C76.066 24.4158 74.9168 26.0679 74.9168 26.0679C74.9168 26.0679 80.3039 26.9298 83.3925 28.5819C86.1938 30.1621 86.9839 31.2395 86.9839 31.455C86.4811 31.3832 78.0054 29.8029 74.5577 34.0408C72.9056 32.6761 72.2592 31.2395 72.2592 31.2395C72.2592 31.2395 72.7619 33.1789 72.9774 35.4774C73.4084 38.3505 72.6901 41.08 73.1929 43.9531C79.5856 39.7153 85.6192 42.3729 91.2936 45.7488C93.8076 47.1854 96.0343 45.9643 96.0343 45.9643C88.5641 45.4615 84.6136 36.1238 75.2041 40.8645C77.7899 37.9913 82.4587 36.3393 87.1994 37.5604C86.3375 37.8477 85.1164 38.2787 83.9671 38.2787C85.3319 38.9251 88.1332 38.7815 89.8571 38.566C93.5921 40.4335 96.6807 43.9531 97.7582 46.8262C97.2554 48.2628 96.5371 49.6994 94.7414 50.7768C91.2936 51.0641 88.7078 47.2572 88.7078 47.2572C89.2106 50.274 90.1444 51.4233 91.7246 52.2134C92.5865 52.6443 93.8794 52.8598 93.8794 52.8598C93.8794 52.8598 91.3654 54.5118 88.9951 54.5118C86.4093 54.44 84.8291 52.9316 84.3263 52.4288C82.9615 51.2078 82.6742 49.6275 81.6686 48.8374C83.608 53.7936 82.8179 55.6611 82.3151 56.3075C80.8785 56.3794 75.276 54.2245 73.6239 53.4344C70.7508 51.9978 71.7564 49.9148 70.0325 47.329C70.3198 48.9811 70.8944 50.6331 70.9663 52.5006C71.2536 53.9372 71.9718 55.3738 73.0492 56.7385C73.3366 57.2413 73.7676 57.6723 74.1985 58.1751C74.4858 57.5286 73.9112 56.5949 75.0605 55.8766C75.9224 55.3738 76.928 55.3738 77.7899 55.4456C79.9448 55.7329 82.2433 57.8159 83.3925 60.5454C82.5306 60.5454 82.0278 60.5454 81.5968 60.7609C80.5912 61.2637 80.9503 61.4792 79.5138 61.4074C79.9447 62.413 80.1602 63.2749 80.0166 64.065C80.0166 65.5016 79.2983 66.2199 79.5138 67.6564C78.3645 67.01 77.1435 66.9381 75.9224 66.7226C74.9168 66.6508 74.1267 65.7889 73.1211 64.7833C72.9056 65.4298 72.8338 65.7889 72.4746 66.0043C71.8282 66.2198 70.6071 66.2917 69.8888 67.6564C69.6733 65.1424 68.3086 59.3962 71.0381 57.8878C71.2535 57.8159 71.5409 57.6723 71.7563 57.6005C72.6901 57.5286 73.1929 58.606 73.6957 58.606C72.6901 57.385 71.7564 56.0202 71.1099 54.6555C71.0381 55.5893 70.8944 56.523 70.4634 57.5286C67.3748 54.2245 66.4411 52.4288 67.9495 47.6882C69.3142 43.3066 67.303 40.1462 67.303 40.1462C67.303 40.649 67.303 41.1518 67.2312 41.7264C66.8002 43.8094 65.0763 45.677 63.7116 46.6107C61.3412 48.2628 58.6118 47.8318 55.8105 47.2572V47.329C55.595 47.329 55.5232 47.0417 55.8105 47.329C56.026 47.5445 56.026 47.5445 56.3133 48.3346C56.3851 48.7656 56.5288 48.9811 56.5288 49.2684C56.5288 49.7712 56.457 49.9867 56.9598 50.4177C57.0316 50.4895 57.2471 50.6331 57.4626 50.7049C57.9654 50.9204 58.4681 51.3514 58.8273 51.6387C59.0428 53.2189 59.5456 54.0091 59.9047 55.0865ZM56.026 39.6434C55.9542 39.9307 55.9541 40.1462 56.0978 40.3617C56.5288 40.649 56.8161 41.0081 57.5344 41.2236C58.6836 41.5109 60.1202 41.4391 61.054 41.0081C62.4187 40.2899 60.7667 41.4391 60.3357 41.5109C58.8991 42.0137 56.3133 41.4391 55.595 40.5772C54.8767 39.8589 54.6612 40.2899 53.7993 39.8589C52.1472 38.9251 52.3628 37.3449 54.2303 36.3393C57.1034 34.7591 63.3525 34.9746 66.4411 36.3393C65.5073 36.3393 58.8991 36.6266 62.275 38.135C63.4961 38.6378 63.4961 38.7815 65.0045 38.7815C64.3581 39.6434 64.1426 39.9307 63.568 40.218C62.8497 40.5054 62.706 40.5053 62.1314 40.1462L61.6286 39.8589C60.7666 39.3561 60.0484 38.997 59.2583 38.9251C58.3245 38.4942 56.457 38.566 56.026 39.6434ZM61.3413 41.5109C61.0539 42.4447 60.8385 42.732 59.6892 42.9475C58.7554 43.163 57.8935 42.8757 56.8161 42.5166C56.3133 42.2292 54.8767 41.2955 56.3133 41.6546C58.3963 42.3011 59.2582 42.8039 61.3413 41.5109ZM58.3963 37.6322C59.9765 37.4167 61.6286 37.6322 62.3469 39.2124C60.4793 38.4942 59.9765 38.2069 58.3963 38.2069C57.4626 38.2069 57.3907 37.8477 58.3963 37.6322ZM33.5437 36.1956C33.6156 36.1956 33.8311 36.1238 33.9747 36.1238C36.3451 35.4774 41.8758 36.5548 35.9141 37.7041C34.7648 37.9195 34.2621 36.8421 33.7593 39.0688C34.9085 39.1406 35.8423 40.0744 36.9915 39.9307C37.7098 40.3617 37.7098 40.7927 38.3562 41.1518C39.3618 41.7983 40.7266 41.8701 41.8758 41.8701C42.7378 41.8701 43.5279 41.6546 43.0969 41.3673C42.6659 40.9363 41.4449 41.2955 40.9421 41.2955C40.0083 41.2955 39.3619 41.08 38.7872 40.649C39.4337 40.7208 40.6547 40.9363 41.4448 40.649C41.2294 40.649 40.5111 40.5772 40.2238 40.5772C39.0027 40.3617 38.2844 40.1462 37.1351 39.3561L38.0689 38.8533C38.7872 38.4223 39.4337 38.3505 40.2238 38.2069C41.6604 38.135 42.7377 38.4942 43.9588 40.0026C44.0307 40.0744 43.6715 40.2899 43.7433 40.4335L44.9644 40.9363C44.9644 40.9363 46.6165 40.2899 47.5502 39.2843C47.3347 41.08 47.2629 42.732 46.9038 44.3841C44.8208 48.7656 41.0139 49.4839 37.1351 47.4727C35.9141 46.8262 35.1958 46.2516 34.6212 45.3897C32.8255 42.732 33.2564 39.5716 33.2564 36.483L33.5437 36.1956ZM37.7816 37.9913C38.4281 37.4885 38.7872 37.2731 39.6491 37.2731C40.1519 37.2731 40.5829 37.2731 41.0139 37.3449C41.5167 37.4167 40.9421 37.6322 40.5829 37.6322C39.9365 37.6322 39.3619 37.8477 38.7872 38.0632C38.4999 38.2787 37.7098 38.7096 37.7816 37.9913ZM61.6286 58.8215C63.9989 59.037 66.5129 61.1201 67.2312 62.8439C69.1705 67.0818 65.1482 69.093 64.8609 72.0379C64.8609 72.7562 65.2918 73.4745 66.2974 73.9773C65.1482 73.9055 64.2144 73.5463 63.2806 72.9717C60.9821 71.3915 59.9765 69.524 59.761 67.6564C59.6892 65.8607 60.6948 64.065 60.9821 62.2693C61.1976 61.3355 60.6948 60.4018 60.5512 59.468C60.8385 59.7553 61.4131 60.4018 61.4849 61.0482C62.1314 63.3467 61.1976 65.2861 61.5567 67.2973C61.844 68.5184 62.4187 69.093 63.4961 69.6676C63.0651 68.8057 62.8496 68.0874 62.7778 67.3691C62.706 66.6508 62.706 65.7889 62.706 64.8551C63.0651 62.4129 62.7778 60.9764 61.6286 58.8215ZM70.8226 83.2431C70.3916 83.8896 69.6015 83.9614 68.8832 83.5304C68.1649 83.0276 67.8776 82.1657 68.2368 81.4474C68.6678 80.801 69.4578 80.7291 70.1761 81.1601C70.9662 81.8066 71.2536 82.5967 70.8226 83.2431ZM65.2918 76.9941C65.3636 76.2758 66.2256 75.8448 67.0875 75.9885C68.0213 76.0603 68.6677 76.8504 68.5241 77.5687C68.4522 78.287 67.5903 78.7179 66.7284 78.5743C65.8664 78.3588 65.1481 77.7842 65.2918 76.9941ZM71.1817 74.121C71.2536 75.0547 70.4635 75.9885 69.3142 75.9885C68.165 76.0603 67.2312 75.2702 67.1594 74.3364C67.0875 73.3308 67.8776 72.5407 69.0269 72.4689C70.1043 72.3971 71.0381 73.1154 71.1817 74.121ZM68.8114 70.314C68.8114 69.3803 69.817 68.5183 71.1099 68.5183C72.331 68.5183 73.4084 69.3803 73.4084 70.314C73.4084 71.2478 72.4028 72.1097 71.1099 72.1097C69.817 72.0379 68.8114 71.2478 68.8114 70.314ZM72.1873 80.37C71.4691 81.0164 70.1043 80.801 69.386 79.8672C68.5241 78.9335 68.4523 77.7124 69.3142 77.0659C70.0325 76.4194 71.3972 76.6349 72.1155 77.5687C72.8338 78.3588 72.9056 79.7235 72.1873 80.37ZM75.8506 74.7674C75.5632 75.7012 74.414 76.1321 73.2648 75.7011C72.1155 75.2702 71.4691 74.3364 71.8282 73.4027C72.1155 72.4689 73.2647 72.0379 74.414 72.4689C75.4196 72.7562 76.066 73.8336 75.8506 74.7674ZM76.3534 71.2478C75.7069 71.6788 74.9168 71.4633 74.414 70.745C73.9112 70.0267 73.9112 69.093 74.4858 68.5902C74.9886 68.1592 75.9224 68.3747 76.4252 69.093C76.928 69.8113 76.8562 70.6732 76.3534 71.2478ZM67.303 82.3094C66.5847 82.8121 65.651 82.5967 65.0045 81.8065C64.3581 80.9446 64.5017 79.939 65.22 79.4362C65.9383 78.9334 66.8721 79.1489 67.5185 79.939C68.0931 80.7291 67.9494 81.8066 67.303 82.3094ZM63.4243 81.3038V81.3756C63.8553 82.3094 65.9383 85.1107 67.2312 84.1769C65.3636 87.4092 60.4075 85.9726 59.1146 83.6741C57.7499 81.3038 57.9654 77.9997 56.026 76.635C56.0978 77.3532 56.2415 78.7898 56.4569 80.37C56.9597 83.6741 58.0372 85.5416 61.6286 86.619C56.3133 88.4147 52.2909 80.2982 54.8049 75.5575C55.8105 73.6182 54.8049 69.3084 53.943 67.5846C53.2247 66.0044 53.0092 66.3635 53.2247 64.7114C59.2582 69.4521 61.1258 71.8943 63.2806 78.5743C63.5679 79.508 63.9271 80.37 64.5017 80.8728C64.1426 80.8728 63.9271 81.4474 63.4243 81.3038ZM53.3683 81.8784C51.5726 81.0165 50.3516 77.6405 49.9206 76.4194C49.4178 74.6237 50.2079 72.8999 50.9262 70.9605C51.429 69.7394 51.429 69.0211 51.6444 67.7282C52.8655 70.0267 53.7993 71.3197 53.2965 73.9773C53.0092 76.6349 52.0754 79.7236 53.3683 81.8784ZM53.7275 85.3261C53.2247 88.0556 49.2741 89.7077 45.5391 89.7795C41.5885 89.8513 38.5717 87.9838 38.5717 84.6079C38.5717 83.9614 38.0689 87.1219 38.5717 84.5361C38.6435 84.8234 39.2182 85.398 39.29 85.5416C39.9364 86.0444 41.373 86.4754 42.5223 86.4754C45.3236 86.4754 47.9094 83.8896 49.0587 82.2375C49.5614 81.5193 49.4896 82.1657 50.0642 82.6685C51.0698 83.3149 52.5064 84.8233 53.7275 85.3261ZM52.9373 75.9167C52.9373 75.7012 52.9373 75.7012 52.9373 75.9167ZM43.1687 69.7394C42.5223 66.6508 42.9532 64.1368 44.1025 64.8551C45.5391 68.4465 47.6221 75.4138 44.8208 78.9334C44.1743 79.7954 43.1687 80.2982 41.5167 80.7291C46.9756 81.9502 47.1193 75.2702 46.9038 72.3253C50.4234 76.7786 48.1249 86.8345 39.9365 83.0276C38.4999 82.3094 36.4887 79.508 39.2182 77.856C39.721 77.5687 40.3674 77.9279 40.2238 78.0715C39.2182 78.5743 40.152 79.2208 41.1575 78.7898C44.318 77.5687 43.887 73.4027 43.1687 69.7394ZM14.3656 61.6947C12.4981 61.2637 10.3432 59.6117 7.32644 60.4736C8.18838 60.4018 11.3488 60.7609 13.8628 62.5566C10.6306 62.1256 10.2714 63.2031 3.73503 61.4074C4.52514 59.1089 9.69681 55.5893 14.3656 61.6947ZM39.7928 60.7609C42.6659 64.7833 40.2956 73.4027 37.8534 76.9941L36.9915 75.8448C35.8423 79.7954 30.6706 84.0332 26.4328 79.6517C25.93 79.1489 25.4272 78.287 25.068 77.2814C27.582 77.3532 28.8031 77.3532 30.3833 75.4139L32.3227 74.0491L30.9579 74.5519H29.5932C30.2396 72.3971 31.3889 72.0379 33.041 70.5296C35.9141 67.9437 37.4943 64.9269 39.7928 60.7609ZM36.3451 59.3243C37.9253 68.3029 29.8087 69.8112 26.9356 68.5183C31.1734 61.551 32.5381 62.1256 35.124 59.1089C34.6212 62.5566 32.0354 65.6452 31.1734 66.2917C34.693 64.496 34.9803 61.2637 36.3451 59.3243ZM33.9029 75.5575C32.0353 77.3532 34.7648 76.4913 30.8861 78.6461C31.1016 78.4306 32.9691 75.773 34.6212 72.6125C36.776 68.5902 39.0027 63.7777 39.3618 62.9876C39.0745 66.5072 36.6324 69.5958 35.4113 72.8999C34.9803 74.3364 34.9085 74.5519 33.9029 75.5575ZM20.3274 76.4194C18.9626 75.2702 19.1063 74.3364 19.6809 73.1154C19.9682 72.6126 20.902 71.3196 22.2667 71.6788C23.6315 71.9661 24.0624 72.8999 23.7033 73.9773C23.416 74.9111 22.1231 75.773 21.1893 75.342C20.3274 74.911 21.1893 73.5463 21.1893 73.5463C21.1893 73.5463 21.4048 74.4801 22.0512 74.2646C22.554 74.0491 22.4822 72.6844 21.3329 73.1154C20.3273 73.5463 20.1119 75.1984 21.1175 75.7011C22.2667 76.1321 24.4216 74.9829 24.8525 73.1872C24.9244 72.2534 24.9243 71.0323 23.4878 69.9549C22.6258 69.4521 21.1893 69.524 20.1837 70.0267C20.1837 69.093 20.1119 68.0874 19.7528 67.1536C20.6865 66.6508 22.1231 66.5072 22.7695 66.6508C25.068 66.9381 26.0018 68.0874 26.7201 69.6676C27.7256 71.9661 26.7919 73.8336 24.9243 75.4857C23.4878 76.8504 21.6203 77.425 20.3274 76.4194ZM28.0848 63.634C27.2229 64.496 26.2173 64.7833 25.7145 65.7889C24.1343 64.4241 20.04 64.3523 18.388 65.1424C18.1725 64.927 18.1007 64.7115 17.8852 64.496C17.5979 64.2805 17.3824 64.065 17.0232 63.8495C16.7359 63.634 16.5205 63.4186 16.1613 63.3467C18.1007 63.7777 23.2005 64.2805 26.7201 59.8271C26.7919 60.0426 26.7201 60.6891 26.7201 61.4074C28.0848 62.0538 30.0242 60.9764 30.0242 60.9764C30.0242 60.9764 28.8749 62.8439 28.0848 63.634ZM17.5261 78.5743C13.7192 76.4194 16.8078 73.8336 16.5205 71.0323C15.1557 70.9605 15.8022 69.8831 15.8022 69.8831C15.8022 69.8831 15.0839 69.4521 14.7966 69.3803C14.0783 69.1648 13.2164 69.4521 13.0009 70.2422C12.7136 71.176 13.4318 71.607 13.9346 71.6788C14.3656 71.7506 14.8684 71.8943 15.1557 71.6788C15.6585 73.0435 14.2938 74.5519 12.2826 73.5463C10.1996 72.6125 10.6306 70.4577 10.846 69.7394C11.0615 69.2366 11.7798 67.4409 14.5811 67.6564C14.1501 67.5846 12.7854 67.1536 11.4925 67.6564C10.4869 68.0874 9.91229 69.093 9.69681 69.4521C9.05035 67.8719 8.6912 65.5015 10.6306 64.5678C9.6968 64.1368 9.194 63.2031 9.194 63.2031C9.194 63.2031 10.3433 62.5566 11.4925 62.5566C12.4263 62.5566 13.5755 62.6284 14.7248 63.2749C15.2276 63.5622 15.874 63.9214 16.3768 64.2805C16.6641 64.496 17.0233 64.7114 17.2388 64.9269C18.6753 66.0762 19.3218 68.662 19.0345 70.8168C19.0345 71.4633 18.819 72.0379 18.5317 72.6844C18.3162 73.1154 18.1007 73.5463 17.8852 73.8336C17.8134 74.1209 17.6697 74.4801 17.6697 74.7674V75.6293C17.8852 76.7786 18.819 78.4306 22.0512 77.7842C21.2611 78.7898 18.4598 79.0771 17.5261 78.5743ZM22.9132 58.4624C22.2667 58.4624 21.7639 58.0314 21.7639 57.5286C21.7639 57.0258 22.1949 56.5949 22.7695 56.5949C23.3441 56.5949 23.9188 57.0258 23.9188 57.4568C23.9188 58.1033 23.4878 58.4624 22.9132 58.4624ZM27.9411 31.6705C27.0792 32.3888 26.1455 33.6098 25.3553 34.6873C21.9076 36.2675 16.1613 49.6275 2.80127 44.0967C12.4263 47.5445 20.3992 38.2787 24.2779 33.969C21.4766 34.4718 18.0289 39.2843 15.1557 40.9363C12.4981 42.5884 9.55315 42.5884 7.9011 42.732C5.81808 42.8039 2.5858 43.163 2.5858 43.163C2.5858 43.163 3.73507 38.6378 12.9291 34.1845C10.5587 33.2507 9.69681 32.8197 9.69681 32.8197C9.69681 32.8197 11.0615 31.3832 14.0783 30.7367L20.6865 30.6649C21.4048 30.7367 22.2667 30.9522 23.2005 31.1677C22.1949 31.8141 17.5261 33.6817 14.5811 33.969H16.8796C16.5923 34.4 11.5643 36.7703 9.55314 38.4223C7.47012 40.0744 5.74626 41.7264 5.74626 41.7264C5.74626 41.7264 10.1277 38.6378 12.1389 37.4886C14.4374 36.2675 15.874 35.5492 18.388 34.2563C18.4598 34.9028 18.6753 36.4112 18.6753 36.4112C18.6753 36.4112 18.7471 34.0408 20.6147 33.3944C20.6147 33.3944 21.7639 33.1071 23.2005 32.4606C23.2005 32.4606 26.5046 31.024 27.4383 29.0128C28.4439 26.9298 29.0186 25.4214 29.5214 24.4877C30.0242 23.5539 29.0186 23.4821 28.5158 24.4158C24.9962 32.6761 10.4151 30.9522 15.9458 18.3104C18.2443 20.6808 18.4598 21.83 20.8302 22.9793C22.985 23.9849 24.7807 22.9074 27.0792 24.1285C24.9243 24.9904 19.1781 27.5763 16.305 20.8244C16.9514 26.6425 21.0456 27.5763 24.9243 26.2115C27.6538 25.2778 28.3721 23.6976 28.6594 22.7638C28.013 21.9019 26.8637 22.0455 25.6426 22.261C24.0624 22.4765 22.4104 22.692 21.1893 21.399C20.6865 20.8963 20.5428 20.178 20.7583 19.6033C20.8302 19.3879 20.9738 19.1724 21.0457 19.1005C21.1175 18.8851 21.333 18.8132 21.5485 18.6696C21.9794 18.4541 22.4104 18.5977 22.7695 18.8851C23.2005 19.1724 23.416 19.5315 23.416 19.8188C23.416 20.2498 23.3441 20.5371 22.9132 20.8244C22.6977 21.0399 22.4822 21.1117 22.2667 21.1117C23.2005 21.6145 24.3498 21.5427 25.499 21.3272C26.8637 21.1118 28.1566 21.0399 29.0186 21.83C29.7368 22.261 30.1678 22.8356 31.6044 22.4765C32.9691 21.9737 34.262 21.7582 34.262 21.7582C34.9085 22.1892 34.5493 23.1229 34.5493 23.1229C34.5493 23.1229 31.8199 23.1948 30.7425 24.2722C29.5932 25.2778 29.1622 28.7974 29.3059 29.4438C29.5214 30.0903 30.2396 29.5156 30.6706 28.4382C30.9579 27.4326 32.0353 25.7087 33.5437 24.9905C34.9803 24.2722 37.2788 24.775 36.0577 25.8524C34.8366 26.858 32.61 28.4382 31.6762 29.5875C30.8143 30.4494 29.3059 30.8085 28.0848 31.5268C28.9467 33.107 29.8805 34.6154 29.0186 36.9139C28.5158 38.7815 28.0848 40.4335 27.2229 42.2292C27.2947 42.0137 29.0904 39.3561 29.5214 37.3449C33.3283 34.4718 32.7536 42.5166 31.4607 43.594C30.9579 43.163 30.5988 42.3729 30.0242 42.0138C29.1622 43.594 27.6538 43.8813 26.2891 44.7432C26.2891 44.7432 26.2173 44.7432 26.2173 44.6714C25.93 42.8039 25.5708 42.301 25.5708 40.2899C24.6371 40.3617 24.5652 40.5772 23.2723 40.5772C23.7751 38.2787 24.9244 35.4055 27.6539 35.4055C27.9412 35.4055 28.3003 35.4774 28.5158 35.6929C28.5158 34.4718 28.5158 32.8916 27.9411 31.6705ZM27.6539 51.5669C26.7919 51.5669 26.0736 51.0641 26.0736 50.4177C26.0018 49.6994 26.5764 49.1966 27.4383 49.0529C28.3003 49.0529 28.8749 49.5557 29.0186 50.2021C29.0904 50.9204 28.5158 51.5669 27.6539 51.5669ZM25.2835 49.9867C26.2173 50.6331 26.5046 51.7824 26.0018 52.5725C25.499 53.4344 24.2061 53.9372 23.416 53.2908C22.4822 52.6443 22.1949 51.1359 22.6977 50.274C23.1287 49.4839 24.3497 49.3402 25.2835 49.9867ZM30.0242 48.0473C29.3059 48.3346 28.4439 47.9755 28.0848 47.1135C27.7975 46.2516 28.013 45.4615 28.7313 45.1742C29.4496 44.8869 30.3115 45.246 30.6706 46.108C30.9579 46.8981 30.7425 47.6882 30.0242 48.0473ZM26.4328 45.0305C27.4384 45.677 27.8693 46.9699 27.2947 47.9037C26.7919 48.8374 25.4272 49.3402 24.4216 48.7656C23.416 48.1191 22.985 46.3953 23.5596 45.4615C24.1343 44.5277 25.3553 44.3123 26.4328 45.0305ZM24.2061 56.3075C23.7033 55.8766 23.5596 55.0865 24.1343 54.44C24.6371 53.7936 25.5708 53.5781 26.0736 54.0091C26.7201 54.44 26.7201 55.2301 26.1454 55.8766C25.7145 56.5949 24.8525 56.8103 24.2061 56.3075ZM21.7639 61.0482C21.0457 61.0482 20.3274 60.5454 20.3274 59.8989C20.2555 59.2525 20.8302 58.6779 21.5485 58.6779C22.2667 58.6779 22.985 59.1089 22.985 59.8271C23.1287 60.4736 22.4822 61.0482 21.7639 61.0482ZM20.8302 58.606C20.1837 59.037 19.3936 58.8215 18.8908 58.1751C18.388 57.4568 18.4598 56.523 19.1063 56.0921C19.7527 55.6611 20.5429 55.8766 21.0457 56.5231C21.4048 57.1695 21.4048 58.1032 20.8302 58.606ZM22.985 56.2357C22.3386 56.6667 21.5485 56.4512 21.0457 55.7329C20.5429 55.0146 20.5428 54.0809 21.1175 53.5781C21.6203 53.1471 22.554 53.3626 23.0568 54.0809C23.4878 54.7273 23.4878 55.6611 22.985 56.2357ZM16.2332 51.1359C15.7304 50.705 15.5867 49.9148 16.1613 49.2684C16.6641 48.6219 17.526 48.5501 18.1007 48.8374C18.6035 49.2684 18.7472 50.0585 18.1725 50.7049C17.7416 51.4232 16.8796 51.5669 16.2332 51.1359ZM20.902 53.0753C20.1837 53.5781 19.2499 53.3626 18.6035 52.5725C17.957 51.7106 18.1007 50.7049 18.819 50.2021C19.5372 49.6993 20.471 49.9148 21.1175 50.7049C21.6203 51.5669 21.6203 52.5725 20.902 53.0753ZM21.0457 42.301C20.3274 42.0137 20.1119 41.1518 20.3992 40.4335C20.8302 39.5716 21.6203 39.2843 22.3386 39.4998C23.0568 39.7871 23.2723 40.649 22.985 41.4391C22.5541 42.2292 21.7639 42.6602 21.0457 42.301ZM19.2499 44.6714C18.819 44.9587 18.3162 44.8869 18.0289 44.4559C17.7415 44.0249 17.7415 43.5222 18.1007 43.2348C18.5316 42.9475 19.0344 43.0193 19.3218 43.4503C19.5372 43.8813 19.5373 44.3841 19.2499 44.6714ZM22.6977 45.9643C21.9794 46.4671 21.0456 46.2516 20.3992 45.4615C19.7527 44.5996 19.8964 43.594 20.6147 43.0912C21.3329 42.5884 22.2667 42.8039 22.9132 43.594C23.416 44.3841 23.2723 45.4615 22.6977 45.9643ZM17.5979 48.3346C16.4487 48.3346 15.5149 47.6882 15.5149 46.7544C15.443 45.8206 16.2332 44.9587 17.3106 44.9587C18.3162 44.8869 19.25 45.6052 19.3936 46.5389C19.4654 47.4727 18.6753 48.3346 17.5979 48.3346ZM23.2723 48.1191C23.3441 49.0529 22.554 49.9867 21.4048 49.9867C20.2555 50.0585 19.3218 49.2684 19.2499 48.3346C19.1781 47.329 19.9682 46.5389 21.1175 46.4671C22.2667 46.4671 23.2005 47.1854 23.2723 48.1191ZM10.6306 49.0529C11.1334 49.1247 11.7798 48.4065 12.2826 48.622C12.3544 48.6938 12.4981 48.9092 12.3544 49.6275C11.9234 52.2133 11.4206 54.5119 10.1996 56.3794C9.05032 53.5781 8.83487 53.0753 8.61938 50.7049C7.97293 52.8598 8.54754 54.009 9.76862 57.0258C7.39829 56.8103 6.24905 54.44 5.74626 52.357C5.53077 51.4232 5.09977 49.9867 5.53074 49.0529C5.60256 48.8374 5.74623 48.5501 6.03354 48.191C5.74623 49.3402 6.46453 49.6275 6.68001 49.6275C6.96733 48.4064 7.61377 47.329 8.33205 46.6107L8.61938 46.3234C9.26584 45.8925 9.98409 45.677 10.7024 45.8924C11.2052 45.9643 10.7024 46.1079 10.4869 46.1798C9.55313 46.7544 10.5587 48.4065 10.6306 49.0529ZM31.6762 55.6611C31.3889 56.6667 31.4608 57.5286 31.2453 58.3906C31.1734 59.037 30.8143 59.5398 30.527 60.1863C30.3115 59.5398 30.2397 58.9652 30.2397 58.9652C30.2397 58.9652 29.7368 59.899 28.3003 60.5454C28.3003 60.1144 28.3721 58.1751 28.7313 57.4568C27.7257 58.1751 26.4328 59.2525 25.8582 59.9708C25.8582 59.899 26.0736 59.468 26.1454 59.1089C26.6482 58.2469 27.5102 57.0259 28.2285 56.5231C29.2341 55.8048 30.9579 54.1527 31.1016 52.788C31.1734 52.0697 31.5326 51.4232 31.8199 50.9923C32.0354 51.9979 32.3227 53.1471 32.6818 54.2245C32.3227 54.7273 31.8917 55.1583 31.6762 55.6611ZM25.2835 57.8878C29.0186 53.0034 30.6706 49.1966 32.1072 43.6658C31.8199 44.815 32.179 45.6051 32.1072 46.9699C31.1734 51.3514 28.5876 56.0202 25.2835 57.8878ZM15.4431 50.4177C15.4431 51.6387 15.5149 52.788 15.6585 53.7217C16.0895 53.0753 17.0233 52.357 17.5979 52.357C18.0289 57.7441 16.5923 57.4568 20.1837 62.6285C16.5923 60.4736 15.5149 58.6779 14.0783 54.9428C14.7248 58.5342 15.9459 60.7609 19.3936 62.9157C13.2882 61.4792 10.7024 56.8822 12.6417 52.8598C12.8572 52.2852 15.4431 48.3346 15.4431 50.4177ZM48.9868 16.0119C47.1193 15.5091 46.1855 14.3599 44.8208 13.4979C43.2405 12.4924 41.2294 11.1994 39.0027 10.6966C39.8646 9.76286 43.0251 9.47557 45.97 10.2657C48.2685 11.2713 51.8599 8.82911 49.2741 7.03341C48.8432 6.81792 48.5559 6.96156 48.3404 7.10522C47.1193 7.96716 46.7602 8.11085 45.2518 8.03902C44.318 7.96719 43.3124 7.60803 42.9533 7.03341C42.7378 6.7461 42.5223 6.38696 42.4504 6.09965C41.804 4.87857 39.9365 5.81232 39.9365 5.81232C39.9365 5.81232 38.7872 4.59123 41.373 3.87295C43.7434 3.01101 46.1137 3.87296 47.6221 4.7349C47.9094 3.87296 48.9868 3.58567 49.9206 3.37019C50.9262 3.1547 52.4346 3.58566 52.4346 3.58566L51.9318 4.51942C51.9318 4.51942 51.429 5.88418 49.6333 6.60246C50.0642 6.67429 50.567 7.03339 50.8544 7.46436C51.0698 7.96716 50.8544 9.04459 50.8544 9.04459C50.567 10.1938 49.6333 12.4923 48.3404 13.7134C47.6221 14.2162 47.6939 15.2937 48.6277 15.581C48.915 15.6528 49.2741 15.7965 49.6333 15.7965L48.9868 16.0119Z" fill="#1A1F35"/>
</g>
</svg>
