<svg width="100" height="115" viewBox="0 0 100 115" fill="none" xmlns="http://www.w3.org/2000/svg">
<path d="M49.5384 8C22.2582 8 0 30.2582 0 57.5385C0 84.8187 22.2582 107.077 49.5384 107.077C76.8187 107.077 99.077 84.8187 99.077 57.5385C99.139 30.2582 76.8807 8 49.5384 8ZM49.5384 106.333C22.6302 106.333 0.743977 84.4467 0.743977 57.5385C0.743977 30.6922 22.6922 8.744 49.5384 8.744C76.4467 8.744 98.3329 30.6302 98.3329 57.5385C98.3329 84.4467 76.4467 106.333 49.5384 106.333Z" fill="#1A1F35"/>
<path d="M64.2939 16.68L62.9299 21.7021C63.4259 21.8261 63.9219 21.9501 64.4179 22.1361L66.4019 14.82C66.1539 14.758 65.9059 14.696 65.6579 14.572C64.0459 15.998 62.3098 17.3 60.5118 18.478L61.876 13.456C61.3179 13.332 60.8839 13.208 60.3259 13.022L58.3418 20.3381L59.0859 20.5861C60.8219 19.284 62.4959 17.92 64.2939 16.68Z" fill="#1A1F35"/>
<path d="M68.9439 21.2061C69.7499 21.6401 70.4939 21.6401 71.3619 21.5781L69.7499 24.8641C70.2459 25.0501 70.6799 25.2981 71.1139 25.6081L74.3379 18.8501C73.8419 18.6641 73.4079 18.4161 72.9739 18.1061L71.6719 20.7721C70.8039 20.8961 69.7498 20.8341 69.1918 20.0281C68.6958 19.3461 70.0599 17.3621 70.3699 16.6801C69.8739 16.494 69.44 16.246 69.006 15.936C68.262 17.7341 66.6499 19.9661 68.9439 21.2061Z" fill="#1A1F35"/>
<path d="M52.1427 15.936C53.1967 15.998 54.2508 16.06 55.3048 16.122L55.0568 19.7801C55.6148 19.7801 56.1108 19.8421 56.6068 19.9041L57.1027 12.34C56.5447 12.402 56.1107 12.34 55.5527 12.216L55.3668 15.192C54.3128 15.13 53.2588 15.068 52.2047 15.006L52.3908 12.03C51.8328 12.092 51.3368 12.03 50.8408 11.906L50.3447 19.4701C50.9027 19.4701 51.3987 19.5321 51.8947 19.5941L52.1427 15.936Z" fill="#1A1F35"/>
<path d="M73.2845 27.034L73.9666 27.592L75.4545 25.608L78.3685 21.578C77.9345 21.2679 77.5625 20.9579 77.1285 20.5859L72.7266 26.6L73.2845 27.034Z" fill="#1A1F35"/>
<path d="M42.9661 19.9041C44.0821 18.0441 45.322 16.122 46.5621 14.386L46.9341 19.5941C47.4301 19.5321 47.9881 19.4701 48.4841 19.4701L47.9881 11.906C47.7401 11.906 47.4301 11.968 47.1821 11.968C46.128 13.89 44.8882 15.75 43.5861 17.4861L43.2141 12.34C42.6561 12.464 42.2221 12.464 41.6641 12.464L42.1601 20.0281L42.9661 19.9041Z" fill="#1A1F35"/>
<path d="M30.753 24.306C31.001 24.12 31.2491 23.996 31.5591 23.934C31.4351 21.206 31.6211 18.23 31.8691 15.502C31.5591 15.688 31.2491 15.874 30.9391 15.936C30.9391 17.238 31.0011 18.726 30.8151 20.09C29.7611 19.222 28.583 18.478 27.529 17.548C26.971 17.858 26.413 18.168 25.793 18.354C27.405 19.594 29.265 20.648 30.753 22.074C30.877 22.818 30.877 23.562 30.753 24.306Z" fill="#1A1F35"/>
<path d="M25.9157 27.3442L24.1796 24.3681L27.8376 26.0421C28.3336 25.6701 28.8297 25.3601 29.3257 25.0501L24.6757 22.9421C24.7377 22.5081 25.5436 19.0361 25.4196 18.7261C25.1096 19.0361 24.8616 19.2221 24.4896 19.3461C24.3036 20.8341 24.1175 22.3221 23.9315 23.8101L22.1956 20.8961C21.7616 21.2681 21.3276 21.5161 20.8936 21.8261L24.6757 28.2122C24.9857 27.9022 25.4197 27.6542 25.9157 27.3442Z" fill="#1A1F35"/>
<path d="M36.2698 16.1221C37.3238 17.6722 38.4398 19.2222 39.3698 20.8962C39.9898 20.6482 40.4858 20.5242 41.1678 20.4002C39.6178 18.2302 38.0677 16.0602 36.6417 13.8901C36.5177 13.9521 36.3937 14.0141 36.2077 14.0761C36.0837 14.1381 35.8978 14.1381 35.7738 14.1381C35.5878 16.8662 35.2158 19.5322 34.8438 22.2602C35.1538 22.1362 35.4638 22.0122 35.7738 22.0122C35.7738 20.4002 35.9598 18.4782 36.2698 16.1221Z" fill="#1A1F35"/>
<path d="M41.045 101.683C40.983 101.683 40.983 101.683 40.921 101.683C40.859 101.683 40.797 101.683 40.735 101.683C40.673 101.683 40.611 101.683 40.549 101.621C40.425 101.559 40.239 101.435 40.115 101.311C39.991 101.125 39.929 100.877 39.929 100.567V91.5769C39.681 91.7009 39.4329 91.8869 39.1229 92.0109C38.8129 92.1969 38.5029 92.3209 38.1929 92.5069C38.1309 92.5069 38.069 92.5689 38.007 92.5689C37.945 92.5689 37.883 92.6309 37.821 92.6309C37.511 92.8169 37.201 92.9409 36.891 93.1269C36.581 93.2509 36.333 93.4369 36.085 93.5609L36.3329 94.1189C36.3949 94.1189 36.395 94.0569 36.457 94.0569C36.519 93.9949 36.5809 93.9949 36.6429 93.9329C36.7049 93.8709 36.705 93.8709 36.767 93.8709C36.829 93.8709 36.829 93.8089 36.891 93.8089C36.953 93.7469 37.0769 93.7469 37.1389 93.6849C37.2009 93.6849 37.325 93.6229 37.387 93.6229C37.449 93.6229 37.573 93.6849 37.635 93.7469C37.697 93.8089 37.7589 93.9329 37.7589 94.1809V100.381C37.7589 100.753 37.6969 101.063 37.5729 101.249C37.4489 101.435 37.325 101.559 37.201 101.621C37.139 101.621 37.139 101.683 37.077 101.683C37.015 101.683 37.0149 101.683 36.9529 101.683C36.8909 101.683 36.829 101.683 36.767 101.683C36.705 101.683 36.6429 101.683 36.6429 101.621C36.5809 101.621 36.5809 101.559 36.5189 101.559V102.241H41.169V101.621C41.107 101.621 41.107 101.621 41.045 101.621C41.107 101.683 41.045 101.683 41.045 101.683Z" fill="#1A1F35"/>
<path d="M54.8705 92.3208C54.7465 92.3208 54.6845 92.3208 54.5605 92.3208C54.4365 92.3208 54.3745 92.3208 54.2505 92.3208C54.1885 92.3208 54.1265 92.3208 54.0645 92.3828C54.0025 92.3828 54.0025 92.3828 53.8785 92.4448C53.1965 92.5688 52.6385 93.0028 52.2045 93.6228C51.7705 94.2428 51.4604 94.9248 51.3984 95.6068C51.3984 95.6688 51.3984 95.7308 51.3984 95.7928C51.3984 95.8548 51.3984 95.9788 51.3984 95.9788V96.0408V96.1028C51.3984 96.4748 51.5225 96.8468 51.6465 97.1568C51.7705 97.4668 52.0185 97.7769 52.2665 98.0249C52.4525 98.1489 52.5764 98.2729 52.7624 98.3969C52.8864 98.5209 53.0725 98.5828 53.2585 98.5828C53.3205 98.5828 53.3825 98.5829 53.4445 98.6449H53.6305C53.7545 98.6449 53.8165 98.6449 53.8785 98.6449C53.9405 98.6449 54.0646 98.5828 54.1266 98.5828C54.4366 98.5208 54.7466 98.3348 55.0566 98.1488C55.3666 97.9628 55.6144 97.7148 55.8625 97.4668C55.8625 97.5908 55.8625 97.7148 55.8625 97.8388C55.8625 97.9628 55.8005 98.0868 55.8005 98.2728C55.7385 98.8309 55.6146 99.3889 55.3666 99.8849C55.1186 100.381 54.8084 100.815 54.3124 101.187C54.1264 101.311 53.9405 101.435 53.7545 101.559C53.5685 101.621 53.3825 101.745 53.1345 101.745C53.0725 101.745 53.0105 101.745 52.9485 101.745C52.8865 101.745 52.8244 101.745 52.7624 101.745C52.7004 101.745 52.6385 101.745 52.5765 101.745C52.4525 101.745 52.3904 101.745 52.3284 101.683C52.2664 101.683 52.2044 101.683 52.1424 101.621C52.0804 101.621 52.0185 101.559 51.9565 101.559L51.7705 101.683C51.8325 101.745 51.8945 101.807 51.9565 101.869C52.0185 101.931 52.0804 101.993 52.1424 101.993C52.2044 102.055 52.2664 102.117 52.3284 102.117C52.3904 102.179 52.4525 102.179 52.5145 102.241C54.2505 102.241 55.5524 101.621 56.4825 100.381C57.4125 99.1409 57.8466 97.7149 57.8466 96.1648C57.8466 95.0488 57.5985 94.1188 57.1025 93.3748C56.6065 92.6928 55.8625 92.3208 54.8705 92.3208ZM55.9245 95.5448V95.6688C55.9245 95.7308 55.9245 95.7928 55.9245 95.7928C55.9245 96.1648 55.8005 96.4748 55.6145 96.7849C55.4285 97.0949 55.1806 97.2808 54.7466 97.2808H54.6845H54.6224H54.5605C54.1265 97.2808 53.8165 97.0949 53.6305 96.7849C53.3825 96.4748 53.2585 96.1028 53.1965 95.7308C53.1965 95.6688 53.1965 95.6068 53.1345 95.5448C53.1345 95.4828 53.1345 95.4208 53.1345 95.3588V95.2968C53.1345 95.2348 53.1345 95.2348 53.1345 95.1728V95.1108V95.0488C53.1345 94.9248 53.1345 94.8628 53.1345 94.7388C53.1345 94.6148 53.1345 94.4908 53.1965 94.3668C53.2585 93.9948 53.3825 93.6848 53.5685 93.3748C53.7545 93.0648 54.0026 92.9408 54.4366 92.8788H54.5605C54.9325 92.8788 55.1805 93.0028 55.4285 93.3128C55.6145 93.5608 55.8005 93.9328 55.8625 94.2428C55.9245 94.3668 55.9245 94.4908 55.9245 94.6148C55.9245 94.7388 55.9246 94.8628 55.9866 94.9868V95.5448H55.9245Z" fill="#1A1F35"/>
<path d="M64.9762 96.5988C64.4182 96.2268 63.7361 95.9788 63.0541 95.9788C62.9301 95.9788 62.806 95.9788 62.682 95.9788C62.558 95.9788 62.496 95.9789 62.372 96.0409C62.124 96.1029 61.9381 96.1029 61.6901 96.2269C61.4421 96.2889 61.2561 96.3509 61.0701 96.4749C61.0701 96.1029 61.07 95.6689 61.132 95.2968C61.132 94.8628 61.132 94.4908 61.132 94.1188H65.5341V93.8708C65.5341 93.8088 65.5341 93.6848 65.5341 93.6228C65.5341 93.5608 65.5341 93.4988 65.5341 93.3748C65.5341 93.3128 65.5341 93.1888 65.5341 93.1268C65.5341 93.0648 65.5341 93.0028 65.5341 92.9408C65.5341 92.8788 65.5341 92.8168 65.5341 92.7548C65.5341 92.6928 65.5341 92.6308 65.5341 92.5688V92.3828C65.3481 92.3828 65.1621 92.3828 65.0381 92.3828C64.8521 92.3828 64.6661 92.3828 64.4801 92.3828C64.3561 92.3828 64.2321 92.3828 64.1081 92.4448H63.7361C63.4881 92.4448 63.24 92.4448 62.992 92.5068H62.3101H61.8761C61.7521 92.5068 61.628 92.5068 61.442 92.5068C61.318 92.5068 61.132 92.5068 61.008 92.5068C60.884 92.5068 60.7601 92.5068 60.5741 92.5068L60.2641 92.9408C60.2641 93.1888 60.2641 93.4368 60.2641 93.6848C60.2641 93.9329 60.2641 94.1808 60.2641 94.4288C60.2641 94.6148 60.2641 94.8008 60.2641 94.9868V95.5449V96.2269C60.2641 96.4749 60.2641 96.7229 60.2641 96.9709C60.2641 97.1569 60.2641 97.3429 60.2641 97.5289C60.2641 97.7149 60.2641 97.9009 60.2641 98.0869L60.512 98.1489C60.636 98.0249 60.7601 97.9629 60.9461 97.9009C61.0701 97.8389 61.194 97.7769 61.318 97.7149C61.442 97.6529 61.628 97.6529 61.752 97.5909C61.876 97.5909 62.0001 97.5289 62.1241 97.5289C62.6201 97.5289 63.1161 97.7149 63.4881 98.0869C63.8601 98.4589 64.1081 98.9549 64.1081 99.5749V99.6989C64.1081 99.7609 64.1081 99.8229 64.1081 99.8229V100.009C64.1081 100.071 64.1082 100.133 64.0462 100.133C63.9841 100.567 63.7361 100.939 63.4261 101.249C63.1161 101.497 62.6821 101.683 62.3101 101.683C62.2481 101.683 62.124 101.683 62.062 101.683C62 101.683 61.8761 101.621 61.8141 101.621C61.7521 101.621 61.752 101.621 61.752 101.559H61.6901C61.2561 101.435 60.884 101.187 60.698 100.877C60.512 100.567 60.3881 100.133 60.3261 99.6989H59.892V100.319C59.892 100.505 59.892 100.691 59.892 100.877C59.892 101.063 59.892 101.311 59.892 101.497C59.892 101.683 59.8301 101.869 59.8301 102.117C60.0161 102.179 60.202 102.241 60.388 102.303C60.574 102.365 60.76 102.365 61.008 102.427C61.132 102.427 61.194 102.427 61.318 102.427C61.442 102.427 61.504 102.427 61.628 102.427H61.8141C61.8761 102.427 61.9381 102.427 62.0001 102.427C62.9921 102.365 63.9221 101.993 64.7281 101.311C65.5961 100.629 65.9681 99.7609 66.0301 98.7069V98.5829C65.8441 97.6529 65.5962 97.0329 64.9762 96.5988Z" fill="#1A1F35"/>
<path d="M46.4994 92.3208C46.3754 92.3208 46.3134 92.3208 46.1894 92.3208C46.0654 92.3208 46.0034 92.3208 45.8794 92.3208C45.8174 92.3208 45.7554 92.3208 45.6934 92.3828C45.6314 92.3828 45.5694 92.3828 45.5074 92.4448C44.8254 92.5688 44.2674 93.0028 43.8334 93.6228C43.3994 94.2428 43.0893 94.9248 43.0273 95.6068C43.0273 95.6688 43.0273 95.7308 43.0273 95.7928C43.0273 95.8548 43.0273 95.9788 43.0273 95.9788V96.0408V96.1028C43.0893 96.4748 43.1514 96.8468 43.2754 97.1568C43.3994 97.4668 43.6474 97.7769 43.8954 98.0249C44.0814 98.1489 44.2053 98.2729 44.3913 98.3969C44.5773 98.5209 44.7014 98.5828 44.8874 98.5828C44.9494 98.5828 45.0114 98.5829 45.0734 98.6449H45.2594C45.3834 98.6449 45.4454 98.6449 45.5074 98.6449C45.5694 98.6449 45.6935 98.5828 45.7555 98.5828C46.0655 98.5208 46.3755 98.3348 46.6855 98.1488C46.9955 97.9628 47.2434 97.7148 47.4914 97.4668C47.4914 97.5908 47.4914 97.7148 47.4914 97.8388C47.4914 97.9628 47.4914 98.0868 47.4294 98.2728C47.3674 98.8309 47.2435 99.3889 46.9955 99.8849C46.7475 100.381 46.4373 100.815 45.9413 101.187C45.7553 101.311 45.5694 101.435 45.3834 101.559C45.1974 101.621 44.9494 101.745 44.7634 101.745C44.7014 101.745 44.6394 101.745 44.5774 101.745C44.5154 101.745 44.4533 101.745 44.3913 101.745C44.3293 101.745 44.2674 101.745 44.2054 101.745C44.0814 101.745 44.0194 101.745 43.9574 101.683C43.8954 101.683 43.8333 101.683 43.7713 101.621C43.7093 101.621 43.6474 101.559 43.5854 101.559L43.4613 101.683C43.5233 101.745 43.5853 101.807 43.6473 101.869C43.7094 101.931 43.7714 101.993 43.8334 101.993C43.8954 102.055 43.9574 102.117 44.0194 102.117C44.0814 102.179 44.1434 102.179 44.2054 102.241C45.9415 102.241 47.2434 101.621 48.1734 100.381C49.1034 99.1409 49.5374 97.7149 49.5374 96.1648C49.5374 95.0488 49.2894 94.1188 48.7934 93.3748C48.2354 92.6928 47.4914 92.3208 46.4994 92.3208ZM47.4914 95.5448V95.6688C47.4914 95.7308 47.4914 95.7928 47.4914 95.7928C47.4294 96.1648 47.3674 96.4748 47.1814 96.7849C46.9954 97.0949 46.7474 97.2808 46.3134 97.2808H46.2513C46.2513 97.2808 46.2514 97.2808 46.1894 97.2808H46.1274C45.6934 97.2808 45.3835 97.0949 45.1355 96.7849C44.9495 96.4748 44.7633 96.1028 44.7013 95.7308C44.7013 95.6688 44.7014 95.6068 44.6394 95.5448C44.6394 95.4828 44.6394 95.4208 44.6394 95.3588V95.2968C44.6394 95.2348 44.6394 95.2348 44.6394 95.1728V95.1108V95.0488C44.6394 94.9248 44.6394 94.8628 44.6394 94.7388C44.6394 94.6148 44.6393 94.4908 44.7013 94.3668C44.7633 93.9948 44.8874 93.6848 45.0734 93.3748C45.2594 93.0648 45.5693 92.9408 45.9413 92.8788H46.0034C46.3754 92.8788 46.6233 93.0028 46.8714 93.3128C47.0574 93.5608 47.2435 93.9328 47.3055 94.2428C47.3675 94.3668 47.3674 94.4908 47.3674 94.6148C47.3674 94.7388 47.4294 94.8628 47.4294 94.9868V95.5448H47.4914Z" fill="#1A1F35"/>
<path d="M49.9722 43.2783C55.9243 43.2783 60.0783 42.4723 60.0783 41.7902C60.0783 41.0462 55.9243 40.2402 49.9722 40.2402C44.0201 40.2402 39.8662 41.0462 39.8662 41.7902C39.8662 42.4723 44.0201 43.2783 49.9722 43.2783Z" fill="#1A1F35"/>
<path d="M60.2023 41.0463L60.5123 37.8223C57.1023 37.1403 53.6924 36.7683 50.4064 36.7683C46.8103 36.7683 43.1522 37.2023 39.6182 38.0083L39.8042 41.1084C40.9822 40.1163 46.0043 39.8063 50.0343 39.8063C54.4983 39.7443 59.1483 40.1783 60.2023 41.0463ZM56.7923 37.5743L59.0864 39.0003L56.4204 39.4963L53.8164 38.1323L56.7923 37.5743ZM43.6482 39.6203L41.0442 39.1863L43.4003 37.5743L46.3143 38.3183L43.6482 39.6203ZM47.1822 38.1943L49.9103 37.2643L52.8243 38.1943L49.8483 39.3103L47.1822 38.1943Z" fill="#1A1F35"/>
<path d="M59.2104 36.2103C58.4044 36.2103 57.7223 35.1563 57.0403 32.9243C55.8623 34.5983 54.8083 35.4663 53.7543 35.4663C52.6383 35.4663 51.5842 34.5363 50.5922 32.5522C49.4762 34.4123 48.2983 35.3423 47.1202 35.3423C46.0042 35.3423 44.9501 34.5983 43.7721 32.9863C43.1521 35.0323 42.4082 36.0863 41.5402 36.0863C40.7962 36.0863 40.0521 35.4663 39.1221 34.1023L39.5562 37.4503C43.2762 36.5823 46.9961 36.1483 50.5922 36.1483C53.9402 36.1483 57.2883 36.5203 60.5123 37.2023L60.8843 34.7223C60.3263 35.7763 59.7064 36.2103 59.2104 36.2103Z" fill="#1A1F35"/>
<path d="M54.0647 33.2341C52.7007 33.2341 51.4607 32.1181 50.6547 30.134C49.9727 31.9941 48.6707 33.0481 47.1207 33.0481C45.7567 33.0481 44.5166 32.18 43.5246 30.692C43.2766 32.9241 42.5326 34.1641 41.5406 34.1641C40.8586 34.1641 40.1766 33.6061 39.5566 32.6141V33.6681C40.2386 34.7221 40.8587 35.2181 41.4167 35.2181C42.2227 35.2181 42.9666 34.1641 43.5246 32.2421L43.5867 32.0561L43.7107 32.1801C44.9507 33.7301 46.1286 34.4741 47.1826 34.4741C48.3606 34.4741 49.4767 33.5441 50.5307 31.684L50.5926 31.4981L50.6547 31.684C51.6467 33.5441 52.6387 34.4741 53.7547 34.4741C54.7467 34.4741 55.8627 33.6681 56.9787 32.1801L57.1027 32.0561L57.1648 32.2421C57.9088 34.4121 58.5908 35.4661 59.3348 35.4661C59.7688 35.4661 60.2028 35.0941 60.6369 34.3501L60.7608 33.1721C60.1408 33.8541 59.5828 34.1641 59.0248 34.1641C57.9708 34.1641 57.2887 32.8621 57.1027 30.63C56.3587 32.3041 55.2427 33.2341 54.0647 33.2341Z" fill="#1A1F35"/>
<path d="M39.2464 29.5762C38.9984 31.7462 39.6804 33.1102 41.4784 33.6062C42.7184 33.2962 43.2765 31.9322 43.2765 29.4521C42.7805 29.2041 42.4084 28.7082 42.2844 28.1501L41.9744 28.3361C42.5944 29.6382 42.0363 30.6922 41.9123 30.9402C41.6643 31.3742 41.2923 31.6222 40.9823 31.6222C40.7963 31.6222 40.6724 31.5602 40.5484 31.3742C40.2384 31.0022 40.2384 30.1342 40.5484 28.9561L39.2464 29.5762Z" fill="#1A1F35"/>
<path d="M48.4845 29.8861C48.2365 30.3821 47.6785 30.6301 46.9965 30.6301C46.3765 30.6301 45.7564 30.3201 45.5084 29.8241C45.2604 29.4521 45.1364 28.7701 45.6944 27.7781H43.9584C44.0204 28.3361 43.7724 28.8321 43.5244 29.3281C43.6484 31.3121 45.3845 32.4281 46.9965 32.4281C48.4225 32.4281 50.1585 31.4981 50.4065 29.0181C49.9725 28.6461 49.7245 28.2741 49.7245 27.7781H48.2984C48.8564 28.8321 48.7325 29.5141 48.4845 29.8861Z" fill="#1A1F35"/>
<path d="M51.5213 27.7161C51.5213 28.3981 51.2113 28.7081 50.7773 29.0181C51.1493 31.4361 52.7614 32.4901 54.1874 32.4901C55.4894 32.4901 56.9155 31.4981 57.0395 29.2661C56.7915 28.8941 56.6675 28.4601 56.7295 28.0261L54.9934 27.8401C55.6134 29.0181 55.4275 29.7001 55.1794 30.0721C54.9314 30.5061 54.4354 30.7541 53.9394 30.7541C53.3814 30.7541 52.8235 30.4441 52.5755 30.0101C52.2654 29.4521 52.3895 28.7081 52.8855 27.8401L51.5213 27.7161Z" fill="#1A1F35"/>
<path d="M58.3428 28.2122C58.2188 28.7082 57.8469 29.0802 57.3509 29.2662C57.2889 31.9322 57.909 33.4202 59.087 33.7302C59.521 33.7302 59.9549 33.4822 60.2649 33.1102C60.9469 32.3662 61.195 31.0022 61.071 29.6382L60.2029 29.2042C60.5129 30.6302 60.3269 31.2502 60.0789 31.5602C59.9549 31.7462 59.7689 31.8082 59.5828 31.8082C59.2108 31.8082 58.8389 31.5602 58.5909 31.0642C58.4049 30.7542 57.9088 29.7002 58.6528 28.3362L58.3428 28.2122Z" fill="#1A1F35"/>
<path d="M50.531 23.8101C49.477 25.2981 49.4769 26.7861 50.5929 28.3361C51.6469 26.7241 51.647 25.2361 50.531 23.8101Z" fill="#1A1F35"/>
<path d="M42.6571 25.1741C42.1611 26.7241 42.4091 27.8401 43.2771 28.7701C43.7731 27.3441 43.5251 26.1661 42.6571 25.1741Z" fill="#1A1F35"/>
<path d="M38.8751 30.258C39.0611 29.08 38.7511 28.088 38.0691 27.344C37.8211 28.398 37.8831 29.638 38.8751 30.258Z" fill="#1A1F35"/>
<path d="M61.4426 29.9482C62.2486 29.2662 62.4968 28.3362 62.1868 26.9102C61.3807 27.6542 61.1326 28.6462 61.4426 29.9482Z" fill="#1A1F35"/>
<path d="M58.3424 24.926C57.3504 25.918 57.0404 27.096 57.2884 28.5841C58.5284 27.716 58.8384 26.6 58.3424 24.926Z" fill="#1A1F35"/>
<path d="M49.2903 77.8128C49.5383 77.8128 49.8483 77.8128 50.0963 77.8128C55.3664 77.8128 59.4583 76.6968 59.4583 75.3327C59.4583 74.6507 58.4663 73.9687 56.7922 73.4107C56.2342 74.1547 55.7383 74.9607 55.3043 75.8287C55.1803 76.1387 54.8703 76.3248 54.5603 76.3248C54.3743 76.3248 54.1883 76.2627 54.1263 76.1387C54.0643 76.0147 54.0023 75.8288 54.0643 75.5808C54.4363 74.7127 54.8703 73.9687 55.4283 73.1627C54.9323 73.0387 54.3743 72.9147 53.9403 72.8527C53.3203 73.6587 52.8243 74.4647 52.3903 75.2708C52.2663 75.5188 51.9563 75.7048 51.6463 75.7048C51.4603 75.7048 51.2742 75.6427 51.2122 75.5187C51.1502 75.3947 51.0882 75.2087 51.2122 74.8987C51.5842 74.0927 52.0182 73.3487 52.4522 72.6667C51.7082 72.6047 50.9023 72.5427 50.2203 72.4187C49.7863 73.2247 49.3522 74.0307 49.0422 74.9607C48.9182 75.3328 48.5462 75.5187 48.2982 75.5187C48.1122 75.5187 47.9882 75.4567 47.8642 75.3327C47.8022 75.2087 47.7402 75.0848 47.8022 74.7748C48.1122 73.9687 48.4222 73.1627 48.7942 72.4807H47.6163C47.3683 72.4807 47.1202 72.4807 46.8721 72.4807C46.3141 73.4107 45.9422 74.2167 45.6942 75.0227C45.5702 75.3947 45.1982 75.5808 44.9502 75.5808C44.7642 75.5808 44.6402 75.5188 44.5162 75.3948C44.4542 75.2708 44.3922 75.1467 44.4542 74.8367C44.7022 74.0307 45.0121 73.3487 45.3221 72.6667C44.6401 72.7287 44.0202 72.7907 43.4002 72.9147C42.9042 73.7207 42.5942 74.5267 42.2842 75.3327C42.1602 75.7047 41.7882 75.8908 41.5402 75.8908C41.3542 75.8908 41.2302 75.8288 41.1062 75.7048C41.0442 75.6428 40.9821 75.4567 41.0442 75.1467C41.2302 74.5267 41.4781 73.9687 41.7881 73.3487C40.1141 73.7827 39.1221 74.4028 39.1221 75.0848C39.1221 76.3868 43.7722 77.6888 49.2903 77.8128Z" fill="#1A1F35"/>
<path d="M60.5746 76.3247C60.5126 76.0147 60.2646 75.7667 59.7686 75.5187C59.7686 75.7667 59.6447 76.0147 59.3967 76.2627C58.0326 77.6887 53.5065 78.1847 49.9724 78.1847C44.8884 78.1847 39.2463 77.1927 38.8123 75.0847C38.5023 75.2707 38.3164 75.4567 38.3164 75.7047C38.2544 76.0767 38.4403 76.5107 38.8123 76.9447C41.0443 78.3087 45.3225 79.1767 50.2205 79.1767C54.4366 79.1767 58.2186 78.5567 59.8306 77.6267C60.3886 77.0687 60.6366 76.6347 60.5746 76.3247Z" fill="#1A1F35"/>
<path d="M10.1062 74.7746C10.0442 73.9685 9.30006 73.9065 9.36206 74.8365C9.98207 82.5246 16.5541 90.2747 25.4822 95.2967L25.8543 94.4287C17.9182 89.8407 10.9742 81.8426 10.1062 74.7746Z" fill="#1A1F35"/>
<path d="M11.3462 66.8384C8.92822 68.0784 8.43216 70.7444 9.11416 73.2865C11.2222 71.9224 12.3383 69.5044 11.3462 66.8384Z" fill="#1A1F35"/>
<path d="M10.6646 62.0645C8.24658 63.3045 7.75051 65.9705 8.43252 68.5125C10.5405 67.1485 11.6566 64.7305 10.6646 62.0645Z" fill="#1A1F35"/>
<path d="M10.912 57.6626C8.30802 58.4066 7.25401 60.9486 7.50201 63.5527C9.79604 62.6846 11.3461 60.5146 10.912 57.6626Z" fill="#1A1F35"/>
<path d="M4.71109 69.3186C4.46309 72.1706 6.19915 74.2167 8.55518 74.8987C8.61718 72.2946 7.37712 69.8146 4.71109 69.3186Z" fill="#1A1F35"/>
<path d="M7.87444 70.3105C7.87444 67.7065 6.63446 65.2265 4.03043 64.7305C3.78243 67.5205 5.51842 69.5665 7.87444 70.3105Z" fill="#1A1F35"/>
<path d="M6.75764 65.4745C7.19165 62.8705 6.38567 60.2664 3.84365 59.3364C3.16164 62.0645 4.58762 64.3585 6.75764 65.4745Z" fill="#1A1F35"/>
<path d="M6.19997 60.5145C7.00598 58.0344 6.63392 55.3064 4.27789 54.0044C3.22388 56.6084 4.21595 59.0884 6.19997 60.5145Z" fill="#1A1F35"/>
<path d="M6.82058 55.8025C7.62659 53.3225 7.25452 50.5945 4.8985 49.2925C3.78249 51.8965 4.77456 54.3765 6.82058 55.8025Z" fill="#1A1F35"/>
<path d="M6.13841 43.8362C4.6504 46.2542 5.20843 48.8582 6.94445 50.5942C8.18446 48.2382 8.24643 45.5102 6.13841 43.8362Z" fill="#1A1F35"/>
<path d="M11.0357 39.5583C8.61772 41.0464 7.93559 43.6504 8.7416 45.9444C10.9116 44.3944 12.1518 41.9764 11.0357 39.5583Z" fill="#1A1F35"/>
<path d="M8.24609 49.1683C10.8501 48.6723 13.0201 47.0603 13.0201 44.3323C10.2301 44.6423 8.4941 46.7503 8.24609 49.1683Z" fill="#1A1F35"/>
<path d="M11.8417 48.6104C9.11371 49.4164 7.81182 51.7724 7.93582 54.1904C10.4158 53.3224 12.2757 51.2764 11.8417 48.6104Z" fill="#1A1F35"/>
<path d="M11.2843 53.3225C8.55625 54.1285 7.2542 56.4225 7.3782 58.9026C9.85823 58.0346 11.7183 55.9885 11.2843 53.3225Z" fill="#1A1F35"/>
<path d="M12.2761 38.8141C14.8182 34.226 18.0422 30.444 21.8862 27.468C22.3822 27.096 22.0721 26.414 21.4521 26.848C16.9881 30.072 13.8261 34.102 11.4701 38.5041C11.2841 39.1241 11.9661 39.4341 12.2761 38.8141Z" fill="#1A1F35"/>
<path d="M7.25393 42.7201C8.18394 39.6201 9.67195 36.8921 11.594 34.536C12.09 33.978 11.47 33.482 10.974 34.04C8.80395 36.6441 7.3779 39.4961 6.44789 42.4721C6.26189 43.3401 7.12993 43.3401 7.25393 42.7201Z" fill="#1A1F35"/>
<path d="M13.8258 42.6583C14.7558 39.9923 16.1817 37.6363 18.0418 35.6523C18.5998 35.0943 18.0419 34.6603 17.5459 35.0943C15.1898 37.2023 13.8878 39.7443 13.0198 42.4723C12.7718 43.2163 13.6398 43.4024 13.8258 42.6583Z" fill="#1A1F35"/>
<path d="M88.9713 74.0926C88.1653 81.1606 81.2212 89.1587 73.2852 93.7468L73.6572 94.6148C82.5853 89.5927 89.1574 81.8426 89.7774 74.0926C89.8394 73.2246 89.0953 73.2866 88.9713 74.0926Z" fill="#1A1F35"/>
<path d="M87.793 66.1567C86.801 68.8228 87.917 71.2408 90.025 72.6048C90.7071 70.0628 90.211 67.3968 87.793 66.1567Z" fill="#1A1F35"/>
<path d="M88.4746 61.3826C87.4826 64.0486 88.5987 66.4666 90.7067 67.8306C91.3887 65.2886 90.8926 62.6226 88.4746 61.3826Z" fill="#1A1F35"/>
<path d="M88.2272 56.9802C87.7932 59.7703 89.3432 61.9403 91.6372 62.8703C91.8232 60.2663 90.8312 57.7242 88.2272 56.9802Z" fill="#1A1F35"/>
<path d="M90.5215 74.2165C92.8775 73.4725 94.6135 71.4265 94.3655 68.6365C91.7615 69.1945 90.5215 71.6125 90.5215 74.2165Z" fill="#1A1F35"/>
<path d="M91.2649 69.6284C93.6209 68.9464 95.3569 66.8384 95.1089 64.0483C92.4429 64.5443 91.2029 67.0244 91.2649 69.6284Z" fill="#1A1F35"/>
<path d="M92.3815 64.7923C94.5515 63.6763 95.9775 61.3823 95.2955 58.6543C92.7535 59.5843 91.8855 62.2503 92.3815 64.7923Z" fill="#1A1F35"/>
<path d="M92.9387 59.8943C94.9227 58.4683 95.9148 55.9883 94.7987 53.3843C92.4427 54.6863 92.0707 57.4143 92.9387 59.8943Z" fill="#1A1F35"/>
<path d="M92.3186 55.1204C94.3026 53.6944 95.3567 51.2144 94.2406 48.6104C91.8846 49.9124 91.5126 52.6404 92.3186 55.1204Z" fill="#1A1F35"/>
<path d="M92.1328 49.9124C93.8689 48.1763 94.4269 45.5723 92.9389 43.1543C90.8929 44.8283 90.9548 47.5563 92.1328 49.9124Z" fill="#1A1F35"/>
<path d="M88.1022 38.8762C86.9862 41.3562 88.2883 43.7743 90.3963 45.2623C91.2023 42.9683 90.5202 40.3022 88.1022 38.8762Z" fill="#1A1F35"/>
<path d="M90.8935 48.4864C90.5835 46.0684 88.9096 43.9604 86.0576 43.6504C86.1196 46.3784 88.2895 48.0524 90.8935 48.4864Z" fill="#1A1F35"/>
<path d="M91.2024 53.5083C91.3884 51.0282 90.0245 48.7342 87.2965 47.9282C86.8625 50.5942 88.7224 52.6403 91.2024 53.5083Z" fill="#1A1F35"/>
<path d="M87.8551 52.6404C87.4211 55.3064 89.2811 57.2904 91.7611 58.2204C91.8851 55.8024 90.5831 53.4464 87.8551 52.6404Z" fill="#1A1F35"/>
<path d="M77.2521 26.8483C81.1581 29.8243 84.3201 33.6063 86.8621 38.1944C87.1722 38.8144 87.8542 38.5044 87.6682 37.9464C85.3122 33.4823 82.1502 29.5143 77.6862 26.2902C77.0042 25.7322 76.756 26.4762 77.2521 26.8483Z" fill="#1A1F35"/>
<path d="M91.8847 42.1002C92.0087 42.6582 92.8767 42.7202 92.6907 41.8522C91.8227 38.8762 90.3347 36.0242 88.1647 33.4201C87.6687 32.8001 87.0487 33.2961 87.5447 33.8541C89.4667 36.2722 90.8927 38.9382 91.8847 42.1002Z" fill="#1A1F35"/>
<path d="M86.119 41.7902C85.251 39.1242 83.9489 36.5822 81.5929 34.4121C81.0969 33.9781 80.539 34.4121 81.097 34.9702C83.019 36.9542 84.445 39.2482 85.375 41.9762C85.499 42.7822 86.367 42.5342 86.119 41.7902Z" fill="#1A1F35"/>
<path d="M36.7045 82.6487C36.8285 82.6487 36.9525 82.5867 37.1385 82.4007L37.2005 82.3387L37.2624 82.4007C37.4484 82.5247 37.5725 82.5867 37.7585 82.5867C38.1925 82.5867 38.4405 82.1527 38.5025 81.7187C38.5025 81.5327 38.5025 80.9126 37.6345 80.7886C35.8365 80.6646 34.9065 80.2307 34.6584 79.4247C34.1624 77.4406 34.2244 75.3326 34.3484 73.2866C34.4104 72.2946 34.4105 71.2406 34.4105 70.2485C33.7905 68.4505 32.2405 66.7145 29.5744 64.9165C29.0784 65.7225 28.9545 66.8385 28.8305 68.0165C28.7065 69.1945 28.5824 70.4346 28.0244 71.3646C29.3884 72.0466 29.8844 73.2866 29.3884 75.0226C31.0624 76.0766 31.7445 77.9986 31.4344 80.7886C31.1244 81.2847 31.0624 81.6567 31.1244 81.9047C31.2484 82.2147 31.6825 82.3387 32.0545 82.4627L36.3945 82.5247C36.5185 82.5867 36.5805 82.6487 36.7045 82.6487Z" fill="#1A1F35"/>
<path d="M29.3881 75.4568C29.5741 76.1388 29.5742 76.7588 29.3262 77.1928C29.4502 77.1308 29.5741 77.0688 29.6981 77.0688C29.8221 77.0688 29.9461 77.1308 30.0701 77.2548C30.2562 77.5028 30.2562 77.9988 30.0701 78.8668C30.2562 78.7428 30.3801 78.6808 30.5041 78.6808C30.5661 78.6808 30.6282 78.7428 30.6902 78.8048C30.8142 78.9908 30.7521 79.3008 30.6281 79.9208C30.6901 79.8588 30.8142 79.8588 30.8762 79.8588C31.0002 79.8588 31.1242 79.9208 31.1862 80.1068C31.3102 77.8748 30.6901 76.2008 29.3881 75.4568Z" fill="#1A1F35"/>
<path d="M35.1545 79.1767C35.2785 78.7427 35.4644 78.5567 35.7124 78.5567C35.8364 78.5567 36.0224 78.6187 36.2084 78.6807C35.4644 77.6267 35.2165 77.0066 35.3405 76.5726C35.4025 76.3866 35.6505 76.2626 35.9605 76.2006C35.3405 75.3946 35.0924 74.8366 35.2784 74.4646C35.3404 74.2166 35.5884 74.0926 35.8984 73.9686C35.3404 73.1006 35.0924 72.4186 35.2784 72.0466C35.3404 71.8606 35.5264 71.7366 35.7124 71.6126L34.7824 70.4966C34.8444 71.4266 34.7825 72.4806 34.7205 73.5346C34.6585 75.7046 34.5344 77.9367 35.1545 79.1767Z" fill="#1A1F35"/>
<path d="M20.9565 63.6146C20.3364 64.0486 19.8404 64.2966 19.4064 64.2966C18.5384 64.2966 17.9803 63.4906 17.6083 61.8785C17.2983 59.2745 17.7943 57.3525 18.2283 55.4925C18.4763 54.4385 18.7243 53.3225 18.8483 52.1445C19.0963 49.2305 18.7244 47.1224 17.6704 45.3864L17.6083 45.3244L17.6704 45.2624C18.0424 45.0764 17.9803 44.7044 17.7323 44.2084C17.5463 43.6504 17.2983 43.0304 17.7323 42.3484C17.0503 42.3484 16.7403 42.7824 16.6783 43.7124L16.4923 43.7744C16.2443 43.0924 15.9344 42.5344 15.5004 42.2244C15.5004 42.7204 15.6244 43.2164 15.8104 43.7744L15.8723 43.9604L15.6864 43.8984C15.5004 43.8364 15.3143 43.7744 15.1283 43.7744C14.8803 43.7744 14.5703 43.8364 14.3223 43.9604C14.9423 44.1464 15.1283 44.6424 15.3143 45.1384C15.5003 45.6344 15.6243 46.0064 16.2443 46.0064C16.3683 46.0064 16.5544 46.0064 16.7404 45.9444H16.8023L16.8644 46.0064C17.6704 47.4944 17.8563 49.4164 17.6083 52.0825C17.6703 53.8805 17.2984 55.4305 16.9264 56.9805C16.4304 59.0885 15.9343 61.1345 16.5543 63.5526C16.8644 64.1726 17.5464 64.6066 18.1664 65.0406C18.7864 65.4746 19.4063 65.9086 19.5923 66.5286C20.2743 68.7606 19.5304 70.3726 17.2364 71.4267C17.9804 71.4887 18.3524 71.6747 18.4144 71.9227C18.5384 72.4187 17.6703 73.1007 15.7483 74.1547C15.8103 74.1547 15.9344 74.1547 15.9964 74.1547C16.4924 74.1547 16.8024 74.2787 16.9264 74.5887C17.1744 75.0847 16.8024 75.9527 15.8104 77.3787C16.1204 77.2547 16.3683 77.1927 16.5543 77.1927C16.8024 77.1927 16.9264 77.2547 17.0504 77.4407C17.2984 77.8747 16.9264 78.7427 15.9343 80.3548C16.1203 80.2308 16.3683 80.1687 16.4923 80.1687C16.6783 80.1687 16.8024 80.2308 16.9264 80.3548C17.1124 80.5408 17.1744 80.8507 17.1744 81.2227C17.7944 79.4247 17.7944 77.0067 17.2364 74.0927C20.2124 71.0546 20.2744 68.9466 20.3364 66.8386C20.5224 65.7846 20.5224 64.7306 20.9565 63.6146Z" fill="#1A1F35"/>
<path d="M15.1908 58.7784C14.9427 58.7784 14.6327 58.7164 14.2607 58.5304L16.1208 62.8085C15.9968 61.1964 16.1208 59.5844 16.4308 58.0964C17.4228 54.9964 17.6708 52.0824 17.3608 49.1063L16.2447 48.4863C17.1747 50.5943 17.4227 51.7724 17.1747 52.1444C17.1127 52.2684 16.9887 52.3304 16.8027 52.3304C16.5547 52.3304 16.3067 52.2064 15.9347 52.0204C16.7407 53.5704 17.0508 54.5624 16.7408 54.9964C16.6168 55.1824 16.4307 55.2444 16.1827 55.2444C15.9347 55.2444 15.5627 55.1204 15.1287 54.9344C15.9347 56.7324 16.1827 57.7864 15.8727 58.2824C15.6867 58.7164 15.4388 58.7784 15.1908 58.7784Z" fill="#1A1F35"/>
<path d="M18.4763 63.0565C18.2283 61.1345 18.3522 59.7085 18.9722 58.5924L18.2282 58.8405V58.7165C18.4142 56.9804 18.7863 55.8024 19.5303 55.1204L19.0342 55.0584L19.0963 54.9344C19.2203 54.6244 19.2822 54.3144 19.3442 54.0044C19.4682 53.3844 19.5923 52.7024 20.0263 52.2684L19.5303 51.7724L19.7782 50.1604L19.3442 49.9744C19.4062 51.8964 19.0343 53.9424 18.6003 55.9264C18.0422 58.5925 17.4843 61.2585 18.4763 63.0565Z" fill="#1A1F35"/>
<path d="M33.6666 66.1567C33.5426 65.4127 33.1705 64.8547 32.6125 64.4827C32.4885 64.9787 32.5506 65.4127 32.6746 65.7847C32.9846 65.9707 33.2946 66.1567 33.6666 66.1567Z" fill="#1A1F35"/>
<path d="M33.7284 65.2887L34.3484 64.9167L34.1005 64.4827L33.4805 64.8547L33.7284 65.2267V65.2887Z" fill="#1A1F35"/>
<path d="M38.0685 62.4984C38.1305 62.6224 38.2546 62.6845 38.4406 62.6845C38.5026 62.6845 38.6265 62.6844 38.6885 62.6224C38.8125 62.5604 38.9365 62.4364 38.9985 62.3124C38.9985 62.2504 39.0605 62.1885 38.9985 62.0645C38.9365 61.9404 38.8126 61.8784 38.6266 61.8784C38.5646 61.8784 38.4405 61.8784 38.3785 61.9404C38.1305 62.1264 38.0065 62.3744 38.0685 62.4984Z" fill="#1A1F35"/>
<path d="M39.1226 65.5367L39.4947 65.3507C39.3087 64.5447 39.0607 63.8006 38.7507 63.0566C38.6887 63.0566 38.5646 63.0566 38.5026 63.0566C38.2546 63.0566 38.0067 62.9946 37.8207 62.8086C37.6967 62.4366 37.7586 62.1266 38.0686 61.8166C37.7586 61.3206 37.3866 60.7626 37.0146 60.3286C36.9526 60.2666 36.8906 60.2666 36.8286 60.2666C36.7666 60.2666 36.7046 60.2666 36.7046 60.3286C36.6426 60.3906 36.6426 60.4526 36.6426 60.5146C36.8906 62.5606 37.7586 64.2966 39.1226 65.5367Z" fill="#1A1F35"/>
<path d="M34.5347 44.4563C33.9767 44.3323 33.5427 44.2703 33.1707 44.2703C32.3647 44.2703 31.8686 44.5803 31.6826 45.2004C32.1786 44.8283 32.6747 44.7043 33.2947 44.7043C33.7287 44.7043 34.2247 44.7663 34.7207 44.9523C34.9067 45.0143 35.1547 45.0143 35.3407 45.0143C36.3328 45.0143 37.0767 44.4563 37.4487 43.3403C36.8907 44.1463 36.1467 44.6423 35.2787 44.6423C35.0927 44.5803 34.8447 44.5803 34.5347 44.4563Z" fill="#1A1F35"/>
<path d="M33.4181 62.2505L33.108 62.0645L32.4261 61.6925L31.7441 61.2585L31.062 60.8245L30.0701 60.0805L29.7601 59.8325L29.4501 59.5845L28.582 58.7785L28.024 58.2825L27.342 57.5384L27.1561 57.2905L26.97 57.0424L26.784 56.7945L26.474 56.3605L26.35 56.1745L26.2261 55.9884L26.164 55.8024L26.1019 55.6164L26.04 55.4924L26.1019 55.8024V55.9264L26.164 56.1745L26.2261 56.4224L26.288 56.5464V56.6705L26.35 56.7945V56.9184L26.474 57.4145V57.5384L26.5361 57.6625V57.7865L26.598 58.0345V58.1585V58.2825V58.5305V58.6545V58.9025V58.7165L26.784 58.5925L26.97 58.5305L27.1561 58.4685H27.342L27.528 58.5305L27.714 58.6545L27.838 58.7785L27.962 58.9645L28.0861 59.2125L28.148 59.3365L28.2101 59.5845L28.272 59.8945L28.334 60.2665V60.4525V60.6385L28.458 60.5145L28.644 60.3285L28.8301 60.2045L29.0161 60.1425L29.202 60.0805H29.388L29.512 60.1425L29.6361 60.2045L29.7601 60.3285L29.884 60.5145V60.6385L29.9461 60.8865L30.008 61.1965V61.5065V61.6925V61.8785L30.0701 61.8165L30.194 61.7545L30.442 61.6305L30.628 61.5685H30.752H30.8761H31.0001L31.1241 61.6305L31.248 61.6925L31.3101 61.7545L31.372 61.6925L31.4341 61.8165C31.9921 62.3745 32.2401 63.1185 32.4261 63.8005C32.6741 62.9325 32.984 62.4985 33.4181 62.2505Z" fill="#1A1F35"/>
<path d="M36.7047 62.1885L34.7207 60.8865C33.2947 59.0264 32.2407 57.2284 31.4347 55.4924H31.1247L30.7526 55.4304L30.5046 55.3684L30.1946 55.3064L30.5667 56.2364L30.1326 56.1744L29.2646 56.0504L29.0786 55.9884H28.8926L28.0246 55.8024L27.8386 55.7404L27.6526 55.6784L27.3426 55.6164L27.1567 55.5544L26.9706 55.4924L26.6606 55.4304L26.4746 55.3684L26.5367 55.5544L26.6606 55.7404L26.7226 55.9264L26.9706 56.2984L27.2806 56.7324L27.4667 56.9804L27.9007 57.4764L28.3967 57.9724L28.8926 58.4684L29.4507 58.9644L29.7607 59.2124L30.3807 59.7084L31.3107 60.4524L31.6207 60.7005L31.9307 60.8865L32.6126 61.3205L32.9226 61.5065L33.6047 61.8784L33.7287 62.0025H33.8526L34.1626 62.0645L34.0387 62.1885L33.9147 62.2505C33.9767 63.9865 34.4107 64.9165 35.2168 65.1025L37.6968 64.6685C37.1388 63.9865 36.7047 63.1185 36.7047 62.1885Z" fill="#1A1F35"/>
<path d="M31.0617 61.8163L30.9998 61.7544H30.8758L30.7517 61.8163L30.6277 61.8783L30.4417 62.0023L30.3177 62.0644L30.1938 62.1883L29.8217 62.6223V62.0023V61.8163V61.5063L29.7598 61.3203V61.1963L29.6358 60.7003L29.5738 60.5143L29.5117 60.3903L29.3877 60.3283H29.2638L29.1398 60.3903L29.0158 60.5143L28.8917 60.6383L28.8298 60.7623L28.7058 60.8244L28.6437 60.9483L28.2717 61.4444V60.7623L28.2098 60.5763V60.3903L28.1477 60.0183L28.0858 59.7083L28.0237 59.4603L27.9617 59.3363V59.2123L27.8998 59.0263L27.8377 58.9023L27.7137 58.7783L27.5898 58.7163H27.4658H27.3417L27.0937 58.8403L26.5977 59.3363L26.5358 58.4683L26.4117 57.8483L26.3498 57.7243V57.6003L26.2877 57.4763L26.2258 57.2283V57.1043L26.1637 56.9803V56.8563L26.1017 56.7323V56.6083L26.0398 56.4843V56.3603L25.9777 56.2363V56.1123L25.9158 55.9883V55.8643V55.7403V55.6163V55.4923L25.8537 55.2443V55.1203L25.5437 54.9963L25.3577 54.8723L25.2337 55.8643L24.8616 55.6163L24.6137 55.4303L24.4277 55.3063L23.8077 54.8103L23.6837 54.6863L23.4358 54.5003L23.3116 54.3763L23.1877 54.2523L23.0637 54.1283L22.9397 54.0043L22.8157 53.8803L22.6297 53.6323L22.5057 53.5082L22.3816 53.3843C23.5596 56.3603 23.3117 59.5223 21.5137 63.3044C21.0177 65.1024 20.9557 66.4044 20.9557 67.5204C20.8937 69.6904 20.8317 71.2404 17.7936 73.9685C18.5996 76.8825 18.4136 80.6025 17.4836 81.9665C17.0496 82.4626 16.8637 82.8966 16.9257 83.2066C16.9877 83.5166 17.3597 83.7646 17.9797 83.8886C18.5997 84.1366 19.5297 84.2606 20.9557 84.2606C21.6377 84.2606 22.4436 84.2606 23.6216 84.1986C23.8076 84.0126 23.8078 83.7026 23.7458 83.2685L23.9316 83.2066C24.1176 83.5166 24.1177 83.8886 23.9937 84.2606C24.0557 84.2606 24.1796 84.3226 24.2416 84.3226C24.4896 84.3226 24.6137 84.2606 24.7377 84.1366C24.7997 83.9506 24.7997 83.7026 24.7377 83.4546L24.9237 83.3926C25.1097 83.6406 25.1097 83.8886 25.0477 84.1366C25.1097 84.1366 25.1097 84.1366 25.1717 84.1366C25.3577 84.1366 25.4818 84.0746 25.6058 84.0746C25.6058 83.2066 25.4817 82.5866 25.1097 82.2766C24.9237 82.0905 24.6136 81.9665 24.2416 81.9665L21.5137 81.7806V81.7185C21.2037 78.6185 22.2577 75.9525 24.6758 73.7825C27.3418 72.3564 28.5198 70.2484 28.3958 67.0864C28.6438 65.6604 29.3877 62.8704 31.0617 61.8163Z" fill="#1A1F35"/>
<path d="M28.3964 37.5121H28.3343V37.4501C28.2103 36.7681 27.9623 36.1481 27.6523 35.5901V35.6521C27.4043 36.9541 27.2804 37.9461 27.1564 38.9381H26.9703C26.9703 37.7601 26.9703 36.7061 27.2803 35.5901L27.6523 35.5281C27.6523 35.4661 27.5903 35.4041 27.5903 35.4041C27.0323 35.7761 26.5983 36.3341 26.1643 37.1401C25.9783 37.1401 25.7303 37.1401 25.5443 37.1401C23.7463 37.1401 22.2583 37.8221 21.0803 39.1241L21.8863 39.6821L21.7003 39.7441C20.6463 40.1781 19.8403 41.2321 19.2203 42.8441L19.9642 42.9681V43.1541V43.2161C19.2202 44.3321 19.1582 45.8202 19.1582 47.1842L19.9022 47.1222V47.2462C19.8402 49.0442 20.2742 50.7802 21.1422 52.5162L21.4522 52.0202L21.5763 51.8962L21.6382 52.0202H21.7003L21.7622 52.1442L21.8243 52.2682L21.8863 52.3922L21.9482 52.5162L22.0103 52.6402L22.1343 52.8882L22.2582 53.0122L22.3822 53.1362L22.5063 53.2602L22.5682 53.3842L22.9403 53.8182L23.0643 53.9422L23.2503 54.1282L23.3743 54.2522L23.4982 54.3762L23.8703 54.6862L23.9943 54.8103L24.1183 54.9343L24.3663 55.1203L24.4903 55.2443L24.9243 55.5543L25.0483 54.6243L25.4203 54.8103L25.7303 54.9343L26.0403 55.0582L26.1643 55.1203L26.2883 55.1822L26.4122 55.2443L27.0323 55.4303L27.1564 55.4922L27.7764 55.6782L27.9004 55.7403L28.8923 55.9263H29.0783L29.2643 55.9882L30.0083 56.1123L29.5743 54.9963L30.0704 55.1822L30.1943 55.2443L30.3183 55.3063L30.4423 55.3682L30.8143 55.4303H31.0623H31.2483L31.1864 55.3682H31.3723C31.5583 55.3682 31.7443 55.3682 31.9923 55.3682C32.9223 55.3682 33.9143 55.2443 34.9684 54.9963L33.7283 54.1903L33.9764 54.1282C36.0225 53.7562 37.4484 52.7642 38.4405 51.1522C37.7584 51.2142 37.2004 51.2142 36.5804 51.2142C35.7744 51.2142 35.0305 51.1522 34.2864 51.0902L34.1004 51.2142L33.6044 51.4622L33.4804 51.5242L33.2944 51.5862L33.1704 51.6482L32.8604 51.7722L32.2404 51.9582L31.9923 52.0202L31.7444 52.0822H31.6204L31.3723 52.1442H31.3104L31.9304 52.8262L31.5583 52.8882H31.3723H31.1244L30.7523 52.8262L30.2564 52.7022L30.0083 52.5782L29.8843 52.5162L29.6364 52.3922L29.3264 52.2062L29.2023 52.1442L28.8923 51.9582L28.7064 51.8342L29.0783 53.3842L28.6443 53.2602L28.4583 53.1982L28.1483 53.0742L27.6523 52.8882L27.3423 52.7642L26.9083 52.5782L26.5983 52.3922L26.4743 52.3302L26.2264 52.2062L25.9783 52.0202L25.8543 51.9582L25.7303 51.8962L25.4822 51.7102L25.3583 51.5862L25.1103 51.4002L24.6763 50.9662L24.1803 52.2062L23.9322 51.8342L23.8082 51.7102L23.6222 51.4002L23.4363 51.0902L23.2503 50.7802L23.0643 50.2842L22.8782 49.7882L22.7543 49.2922V49.1682L22.6922 49.0442V48.9202L22.6303 48.7342V48.6102L22.5682 48.3622V48.2382L21.6382 49.0442L21.5143 48.6722L21.4522 48.5482L21.3903 48.3002L21.3282 48.1762V48.0522V47.9282L21.2663 47.8042V47.6802V47.1842V46.9362L21.3282 46.5022L21.3903 46.3782V46.2542L21.4522 46.1302L21.5143 45.8822L21.5763 45.7582L21.7003 45.5102L21.8243 45.2002L21.2663 45.4482L21.2043 45.0141V44.8902V44.7041V44.5802V44.4561L21.3282 44.0221L21.5143 43.6501L21.6382 43.4641L21.7003 43.3401L21.8863 43.1541L22.0722 42.9681L22.5682 42.5341L22.6922 42.4101L23.1263 42.1001L23.3122 41.9761L23.8082 41.7281L24.1183 42.0381L23.8703 42.1001L23.4982 42.2861L23.3122 42.4101L23.1263 42.4721L22.8163 42.6581L22.6922 42.7821L22.5682 42.9061L22.3822 43.0921L22.2582 43.2161L22.1343 43.3401L22.0722 43.4021L21.7622 43.7741L21.5763 44.0841L21.4522 44.3941L21.3903 44.7661V45.0141L22.5682 44.4561L22.0103 45.3242L21.7622 45.8202L21.5763 46.3162L21.5143 46.5642V46.6882V46.8122V46.9362V47.0602V47.3082V47.6802V47.9282L21.5763 48.0522V48.1762V48.3002V48.4242L21.6382 48.6722L22.8163 47.6182L22.9403 47.7422L22.6303 48.2382V48.5482V48.6722L22.6922 48.7962V48.9202L22.8782 49.6022L22.9403 49.9122L23.0022 50.0982L23.1263 50.4082L23.1882 50.5942L23.3122 50.9042L23.3743 51.0282L23.4363 51.1522L23.6843 51.5862L23.8082 51.7722L24.2422 50.5942L24.5522 50.9042L24.8622 51.2142L25.2964 51.6482L25.7303 52.0202L25.8543 52.0822L26.0403 52.2682L26.1643 52.3302L26.4122 52.5162L26.6603 52.6402L26.9083 52.7642L27.2183 52.8882L27.5283 53.0122L27.7143 53.0742L27.8383 53.1362L28.0243 53.1982L28.2723 53.2602L27.7764 51.2762L28.2104 51.6482L28.4583 51.8342L28.5823 51.9582L28.8304 52.1442L29.1404 52.3302L29.4504 52.5162L29.5743 52.5782L29.6983 52.6402L29.9464 52.7022L30.0704 52.7642L30.2564 52.8262L30.5043 52.8882H30.6904H30.8143L30.1943 52.1442H30.6283H30.7523H30.8764H31.0004H31.1864L31.4344 52.0822L31.9923 51.9582L32.3023 51.8342L32.4883 51.7722L32.9223 51.5862L33.1704 51.4622C32.6124 51.3382 32.1164 51.2762 31.6204 51.1522C31.2484 51.0902 30.9384 51.0282 30.5664 50.9042V50.9662L30.5043 51.0282L30.0083 51.0902H29.3264H28.7064L28.1483 51.0282L27.7143 50.9662L27.3423 50.8422L27.1564 50.7802L26.9703 50.7182L26.8464 50.6562L26.5983 50.4702L26.4743 50.3462L26.2264 50.0982L26.1022 49.9122L25.9783 49.7262L25.8543 49.4782L25.7303 49.3542L25.4203 50.2842L25.1103 49.9122L25.0483 49.7882L24.9864 49.6642L24.8003 49.2922L24.6763 48.9202L24.6143 48.6722L24.5522 48.4242L24.4903 48.3002V48.1762V48.0522L24.4283 47.5562V47.4322V46.9982L23.6843 47.3082L23.5603 47.0602L23.4982 46.8742V46.6882V46.5022V46.3782L23.5603 46.1922L23.6222 46.0062L23.6843 45.8202L23.7463 45.6342L23.8703 45.3242L24.0563 44.9521L24.3043 44.5802L24.4283 44.3941L23.8703 44.2702L24.1803 43.7741L24.3663 43.5261L24.5522 43.3401L24.7383 43.2161L24.9243 43.0921L25.0483 43.0301L25.1103 42.9061L25.1722 42.7821L25.4203 43.0301V43.1541L25.2964 43.2781L25.1722 43.3401L25.0483 43.4021L24.8003 43.5881L24.6143 43.7741L24.5522 43.8981L24.4903 44.0221L24.4283 44.0841L25.0483 44.2081L24.7383 44.5802L24.6763 44.6421L24.3663 45.1382L24.1183 45.6342L24.0563 45.8202L23.9943 46.0062L23.9322 46.1922L23.8703 46.3782V46.5642V46.8742L25.0483 46.3782L24.7383 46.8122V46.9362V47.2462V47.6182V47.7422V47.8662V47.9902V48.1142V48.2382L24.8003 48.3622V48.4862V48.6102L24.8622 48.7342L24.9243 48.8582L25.0483 49.2302L25.1103 49.3542L25.1722 49.4162L25.2343 49.4782L25.4822 48.5482L25.7303 48.8582L25.9164 49.1062L26.0403 49.2922L26.2264 49.5402L26.3503 49.7262L26.5364 49.9742L26.7222 50.0982L26.8464 50.1602L27.0943 50.2842L27.2803 50.3462L27.4043 50.4082L27.5903 50.4702L27.9623 50.5322L28.2104 50.5942L28.7064 50.6562H29.3264H29.5743C29.3883 50.5942 29.2023 50.5942 28.9543 50.5942C28.8303 50.4702 28.7063 50.4082 28.6443 50.2842V50.3462C27.2803 49.9122 26.4123 49.1682 26.0403 48.2382C25.6063 47.2462 25.8543 45.8822 26.6603 44.4561C24.9863 42.4721 24.9862 40.6121 25.1722 39.2481H25.2964C25.2344 38.9381 25.2343 38.5661 25.3583 38.1321L25.5443 38.1941C25.4823 38.7521 25.5443 39.1861 25.7303 39.4341C25.9163 39.6201 26.1643 39.7441 26.4743 39.8061C26.9703 39.6201 27.3423 39.1861 27.6523 38.5041L27.8383 38.5661C27.7143 39.1861 27.3424 39.6821 26.5364 40.1781C25.9784 40.0541 25.6682 39.8681 25.4822 39.5581C25.4822 39.5581 25.4823 39.4961 25.4203 39.4961C25.4203 41.5421 25.9164 43.0921 27.1564 44.4561C26.4124 45.8202 26.2264 46.9362 26.5364 47.8662C26.7844 48.7342 27.4663 49.4162 28.5204 50.0362C28.1484 49.4782 28.0864 48.9822 28.2104 48.6722C28.3344 48.2382 28.7684 47.9902 29.3264 47.9902C29.6984 47.9902 30.1324 48.1142 30.5664 48.3002C31.1864 48.4242 31.7444 48.4862 32.2404 48.4862C33.1704 48.4862 33.9144 48.3002 34.2864 47.8662C34.5964 47.5562 34.7824 47.0602 34.7204 46.4402C33.9144 46.6882 33.2324 46.8122 32.5504 46.8122C31.4964 46.8122 30.5664 46.5022 29.7604 45.9442L29.6983 45.8822V45.8202C30.0083 44.8902 30.8764 44.3941 32.1164 44.3941C32.9224 44.3941 33.9763 44.5801 35.0923 44.9521C35.2783 44.8901 35.4645 44.6422 35.5265 44.2702C35.5885 43.6501 35.4023 42.7821 34.7823 42.4721C32.9223 42.1001 32.1784 41.1701 31.4344 40.2401C31.1864 38.4421 30.4424 37.5741 28.3964 37.5121ZM29.0783 38.7521C29.2023 38.7521 29.3264 38.7521 29.4504 38.7521C30.3184 38.7521 31.0004 39.2481 31.3104 40.1781L31.1244 40.3021C31.0004 40.1161 30.6903 40.1161 30.3183 40.0541C29.7603 39.9301 29.0163 39.8061 28.9543 38.9381V38.8761L29.0783 38.7521ZM33.7904 42.9061L33.7283 43.0921C33.1703 42.9681 32.6124 42.9061 32.1164 42.9061C30.3804 42.9061 29.0164 43.5261 28.0864 44.7661L27.9004 44.6421C28.3964 43.5261 28.3343 42.8441 27.7143 42.4721L27.4664 42.3481L27.7143 42.2861C27.7763 42.2861 27.8383 42.2861 27.9004 42.2861C28.1484 42.2861 28.3964 42.3481 28.5204 42.5341C28.7064 42.7201 28.7683 43.0301 28.7683 43.4641C29.4503 42.7821 30.3183 42.4101 31.3723 42.4101C32.0543 42.4101 32.8604 42.5961 33.7904 42.9061Z" fill="#1A1F35"/>
<path d="M38.5018 61.6307C38.9359 61.6307 39.2459 61.7547 39.3079 62.0647C39.3699 62.3127 39.3079 62.6227 39.0599 62.8707L39.3079 63.3667L45.5079 59.1506L44.144 57.6626L38.2539 61.0726L38.5018 61.6307ZM44.33 58.4066L44.5779 58.7166L39.4939 61.9407L39.1839 61.5686L44.33 58.4066Z" fill="#1A1F35"/>
<path d="M41.2927 51.2764C39.2467 53.3844 38.6267 56.4224 39.6187 59.7084L42.3468 58.2204C41.8508 56.1124 42.2228 54.3764 43.5248 52.8884L41.2927 51.2764Z" fill="#1A1F35"/>
<path d="M49.2285 63.4904C46.9965 63.1184 45.2605 62.1884 43.9585 60.8244L41.3545 62.5604C42.8425 64.6065 45.2605 65.9085 48.7946 66.4045C48.9806 66.4045 49.1666 66.4045 49.2906 66.4045C51.0886 66.4045 52.4526 65.4745 53.3206 63.6764C53.4446 62.9944 53.6927 60.7004 52.8867 59.7084C52.6387 59.4604 52.3906 59.2744 52.0806 59.2744C51.1506 59.7084 50.2206 60.3904 50.4066 61.8784C50.6546 62.3124 50.7166 62.6844 50.5306 62.9324C50.4686 63.2424 50.0345 63.4284 49.2285 63.4904Z" fill="#1A1F35"/>
<path d="M58.7772 54.9964C58.5912 54.0664 58.0952 53.3224 57.2272 52.7024L53.6312 54.9344C53.6932 54.9344 53.7552 54.9344 53.8172 54.9344H54.2512C54.6852 54.9344 55.1191 54.9964 55.2431 55.6164C54.8711 56.2364 53.5691 56.6084 52.2051 56.9805C51.5851 57.1665 50.9031 57.3524 50.3451 57.5384C48.9811 57.9724 47.4931 58.6544 46.8111 60.6385C46.6871 61.8165 47.4311 62.6225 49.1671 63.0565C49.2291 63.0565 49.3531 63.0565 49.4151 63.0565C49.7251 63.0565 49.9732 62.9945 50.0972 62.8085C50.2212 62.6225 50.2212 62.3125 50.0972 61.8785C50.0352 61.0725 50.2831 60.2665 50.9651 59.5845C51.9571 58.9025 53.3211 58.4065 54.6851 57.9105C56.8552 57.1665 58.9012 56.4844 58.7772 54.9964Z" fill="#1A1F35"/>
<path d="M44.7023 53.5703C44.0823 54.5623 43.9584 55.6783 44.3304 56.7323C44.7024 57.8483 45.5703 58.7784 46.8723 59.3364L48.4844 57.7244C47.6164 57.1044 47.2444 56.2983 47.4304 55.3683L44.7023 53.5703Z" fill="#1A1F35"/>
<path d="M52.2047 56.5464C52.7628 56.3604 53.3828 56.1744 53.9408 56.1124L52.8868 55.4304L50.3447 56.7324L50.5308 56.9804C51.0268 56.9184 51.6467 56.7324 52.2047 56.5464Z" fill="#1A1F35"/>
<path d="M47.7412 55.3685C47.6172 56.2365 47.9272 56.8565 48.7332 57.2285L60.6374 50.2845L62.7454 47.8665L58.9633 48.6725L47.7412 55.3685ZM60.7614 49.1065L48.0512 56.6705V56.4846L48.1132 56.1746L60.5133 48.7965L60.7614 49.1065Z" fill="#1A1F35"/>
<path d="M53.4443 51.4623C52.8243 51.2763 52.1423 51.2144 51.3983 51.2144C50.4063 51.2144 49.3523 51.3383 48.2363 51.6483L50.4683 53.2604L53.4443 51.4623Z" fill="#1A1F35"/>
<path d="M41.23 50.7184L47.5541 54.9965L49.972 53.4464L43.152 48.7964L38.75 47.4324L41.23 50.7184ZM48.608 53.8805V54.3145L40.486 48.9204L40.6719 48.5484L48.608 53.8805Z" fill="#1A1F35"/>
<path d="M51.2747 49.4163C52.6387 49.4163 54.0647 49.6643 55.4907 50.0983L58.0947 48.5483C56.1107 47.4943 53.6927 46.9363 51.2747 46.9363C48.6086 46.9363 46.1286 47.6183 44.2686 48.8583L46.5625 50.3463C48.0506 49.7883 49.6626 49.4163 51.2747 49.4163Z" fill="#1A1F35"/>
<path d="M56.6067 61.5684C55.8007 61.9404 54.9947 62.2504 54.1267 62.4364C54.1267 63.6764 53.6307 64.7304 52.5146 65.7224C55.3047 65.5984 57.7227 64.9164 59.7687 63.6144L56.6067 61.5684Z" fill="#1A1F35"/>
<path d="M69.8128 64.5444C67.1468 66.4045 65.5969 68.0785 64.9769 69.8765C64.9149 70.8685 64.9768 71.9225 65.0388 72.9145C65.1008 74.9605 65.2248 77.0685 64.7288 79.0526C64.5428 79.8586 63.5507 80.3546 61.7527 80.4166C60.8847 80.5406 60.8848 81.1606 60.8848 81.3466C60.8848 81.7806 61.1947 82.2146 61.6287 82.2146C61.8147 82.2146 61.9388 82.1526 62.1248 82.0286L62.1868 81.9666L62.2487 82.0286C62.4348 82.2146 62.5587 82.2766 62.6827 82.2766C62.7447 82.2766 62.8688 82.2146 63.0548 82.0906H67.3328C67.7048 82.0286 68.1388 81.8426 68.2628 81.5326C68.3868 81.2846 68.2628 80.9126 67.9528 80.3546C67.6428 77.5646 68.3248 75.6425 69.9988 74.6505C69.5648 72.8525 69.9988 71.6125 71.3628 70.9305C70.8048 70.0005 70.6809 68.7605 70.5569 67.5824C70.4329 66.4664 70.3088 65.3504 69.8128 64.5444Z" fill="#1A1F35"/>
<path d="M69.9989 75.1465C68.6969 75.8905 68.0769 77.5025 68.2629 79.7965C68.3249 79.6725 68.3869 79.5485 68.5729 79.5485C68.6349 79.5485 68.6969 79.5485 68.8209 79.6105C68.6349 78.8045 68.6349 78.6185 68.7589 78.4945C68.8209 78.4325 68.8829 78.4325 68.9449 78.4325C69.0689 78.4325 69.193 78.4945 69.317 78.6185C69.131 77.7505 69.131 77.1925 69.317 76.9445C69.379 76.8205 69.503 76.7585 69.627 76.7585C69.751 76.7585 69.8749 76.8205 69.9989 76.8825C69.8129 76.4485 69.8129 75.8285 69.9989 75.1465Z" fill="#1A1F35"/>
<path d="M63.6742 78.2466C63.9842 78.2466 64.1701 78.4326 64.2321 78.8666C64.7901 77.6266 64.7282 75.3326 64.6662 73.1625C64.6042 72.1705 64.6042 71.1165 64.6042 70.1865L63.6742 71.3025C63.9222 71.3645 64.0461 71.5505 64.1081 71.7365C64.2321 72.1705 64.0461 72.7906 63.4881 73.7206C63.7981 73.7826 64.0461 73.9686 64.1081 74.2166C64.2321 74.5886 64.0462 75.2086 63.3642 75.9526C63.6742 76.0146 63.8602 76.1386 63.9842 76.3246C64.1702 76.7586 63.9222 77.3786 63.1162 78.4326C63.3642 78.3086 63.5502 78.2466 63.6742 78.2466Z" fill="#1A1F35"/>
<path d="M83.2673 73.7824C83.3293 73.7824 83.3912 73.7824 83.5152 73.7824C81.0352 72.4184 80.7872 71.9224 80.8492 71.5504C80.9112 71.2404 81.2833 71.1164 82.0273 71.0544C79.7952 70.0004 78.9892 68.3883 79.6712 66.1563C79.8572 65.5363 80.4773 65.1023 81.0973 64.6683C81.7173 64.2343 82.3372 63.8003 82.7092 63.1803C83.3912 60.7623 82.8953 58.7162 82.3373 56.6082C81.9653 55.0582 81.5932 53.4462 81.6552 51.7102C81.3452 49.0441 81.5932 47.1221 82.3992 45.6341L82.4612 45.5721H82.5232C82.7092 45.6341 82.8952 45.6341 83.0192 45.6341C83.6392 45.6341 83.7632 45.2621 83.9492 44.7661C84.1352 44.3321 84.3213 43.8361 84.9413 43.5881C84.6313 43.4641 84.3832 43.4021 84.1352 43.4021C83.9492 43.4021 83.7633 43.4641 83.5773 43.5261L83.3913 43.6501L83.4532 43.4641C83.6392 42.9061 83.7632 42.4101 83.7632 41.9141C83.3912 42.2241 83.0812 42.7201 82.7712 43.4641H82.5852C82.5232 42.5341 82.2132 42.1001 81.5312 42.0381C82.0272 42.6581 81.7792 43.3401 81.5312 43.8981C81.3452 44.4561 81.2211 44.7661 81.5931 44.9521L81.7173 45.0141L81.6552 45.0761C80.6012 46.7501 80.2292 48.9202 80.4773 51.8342C80.6013 53.0742 80.8493 54.1902 81.0973 55.2442C81.5313 57.1042 82.0273 58.9642 81.7173 61.6303C81.4073 63.2423 80.7872 64.0483 79.9192 64.0483C79.4852 64.0483 78.9891 63.8623 78.3691 63.3663C78.8031 64.4823 78.8032 65.5363 78.8652 66.6523C78.9272 68.6983 78.9892 70.8683 82.0273 73.9684C81.4073 76.7584 81.4692 79.1765 82.0892 80.9745C82.0892 80.5405 82.1513 80.2305 82.3373 80.0445C82.4613 79.9205 82.5852 79.8584 82.7712 79.8584C82.9572 79.8584 83.1432 79.9205 83.3292 80.0445C82.3372 78.3704 82.0271 77.5024 82.2131 77.0684C82.2751 76.8824 82.4612 76.8204 82.7092 76.8204C82.8952 76.8204 83.1432 76.8824 83.4532 77.0064C82.4612 75.6424 82.0892 74.7124 82.2752 74.2164C82.4612 73.9064 82.7713 73.7824 83.2673 73.7824Z" fill="#1A1F35"/>
<path d="M84.1973 58.5307C83.8873 58.5307 83.7013 58.4067 83.5773 58.2207C83.2672 57.7247 83.5152 56.6086 84.3212 54.8726C83.8872 55.0586 83.5153 55.1826 83.2672 55.1826C83.0192 55.1826 82.8332 55.1206 82.7092 54.9346C82.4611 54.5006 82.7092 53.5086 83.5152 51.9586C83.1432 52.1446 82.8332 52.2686 82.6472 52.2686C82.4612 52.2686 82.3372 52.2066 82.2752 52.0826C81.9652 51.6486 82.2752 50.5326 83.2052 48.3625L82.1512 48.9206C81.7792 51.8966 82.0892 54.8726 83.0812 57.9726C83.3912 59.5227 83.5152 61.0727 83.3912 62.6847L85.2512 58.4067C84.7552 58.4067 84.4453 58.5307 84.1973 58.5307Z" fill="#1A1F35"/>
<path d="M80.1054 53.6326C80.1674 53.9426 80.2293 54.2526 80.3533 54.5626L80.4154 54.6866L79.9193 54.7486C80.6633 55.4306 81.0354 56.6086 81.2214 58.3446V58.4686L80.4774 58.2206C81.0974 59.3986 81.2213 60.7626 80.9733 62.6847C81.9653 60.8866 81.4073 58.2826 80.8493 55.4926C80.4153 53.5086 80.0434 51.4625 80.1054 49.5405L79.6714 49.7265L79.9193 51.4005L79.4854 51.8346C79.8574 52.2686 79.9814 52.9505 80.1054 53.6326Z" fill="#1A1F35"/>
<path d="M66.6507 65.4746C66.8367 64.9786 66.8367 64.5446 66.7747 64.1726C66.1547 64.5446 65.8447 65.1026 65.7207 65.8466C66.0927 65.8466 66.4027 65.6606 66.6507 65.4746Z" fill="#1A1F35"/>
<path d="M65.9062 64.5446L65.2862 64.1726L65.0381 64.6066L65.6581 64.9786L65.9062 64.5446Z" fill="#1A1F35"/>
<path d="M60.7599 61.9404C60.5739 61.9404 60.4499 62.0024 60.3879 62.1264C60.3259 62.3124 60.4499 62.5604 60.6979 62.6844C60.7599 62.7464 60.884 62.7464 60.946 62.7464C61.132 62.7464 61.2559 62.6844 61.3179 62.5604C61.3799 62.4984 61.3179 62.3744 61.3179 62.3124C61.2559 62.1884 61.1319 62.0644 61.0079 62.0024C60.9459 61.9404 60.8839 61.9404 60.7599 61.9404Z" fill="#1A1F35"/>
<path d="M62.7441 60.4523C62.7441 60.3903 62.744 60.3283 62.682 60.2663C62.62 60.2043 62.62 60.2043 62.558 60.2043C62.496 60.2043 62.434 60.2043 62.372 60.2663C62 60.7003 61.628 61.2583 61.318 61.8163C61.628 62.0643 61.7521 62.3743 61.5661 62.8083C61.3801 62.9943 61.1321 63.0564 60.8841 63.0564C60.8221 63.0564 60.6981 63.0564 60.5741 62.9944C60.2641 63.6764 60.0161 64.4204 59.8301 65.2884L60.2641 65.4744C61.6901 64.2964 62.4961 62.5603 62.7441 60.4523Z" fill="#1A1F35"/>
<path d="M64.0466 44.7043C64.2326 44.7043 64.4806 44.7043 64.6666 44.6423C65.2246 44.4563 65.6585 44.3943 66.0925 44.3943C66.7125 44.3943 67.2086 44.5803 67.7046 44.9523C67.5186 44.3323 67.0226 44.0223 66.2166 44.0223C65.8446 44.0223 65.3485 44.0843 64.8525 44.2083C64.6045 44.2703 64.2946 44.3323 64.0466 44.3323C63.2406 44.3323 62.4965 43.8983 61.9385 43.0923C62.3105 44.0843 63.0546 44.7043 64.0466 44.7043Z" fill="#1A1F35"/>
<path d="M77.8727 81.4705V81.5325L75.1447 81.7185C74.7727 81.7185 74.5248 81.8425 74.2768 82.0285C73.9668 82.3385 73.7807 82.9586 73.7807 83.7646C73.9047 83.8266 74.0907 83.8885 74.2147 83.8885C74.2767 83.8885 74.3387 83.8885 74.3387 83.8885C74.2767 83.6405 74.3387 83.3926 74.4627 83.1446L74.6487 83.2066C74.5867 83.4546 74.5868 83.7026 74.5868 83.8266C74.7728 84.0126 74.9587 84.0746 75.1447 84.0746C75.2067 84.0746 75.3307 84.0746 75.3927 84.0746C75.2067 83.7026 75.2687 83.3306 75.4547 83.0206L75.6408 83.0825C75.5168 83.5166 75.5787 83.8266 75.7027 83.9506C76.8187 84.0126 77.6867 84.0746 78.3687 84.0746C79.7947 84.0746 80.7868 83.9506 81.3448 83.7026C81.9648 83.5166 82.3368 83.2686 82.3988 83.0206C82.4608 82.7106 82.3368 82.2766 81.8408 81.7805C80.9108 80.4165 80.7247 76.7585 81.5927 73.9065C78.5547 71.1164 78.4928 69.5664 78.4308 67.3964C78.3688 66.2184 78.3687 64.9164 77.8727 63.1804C76.0747 59.3363 75.8267 56.1743 77.0047 53.1982L76.8808 53.3223L76.7568 53.4463L76.6327 53.5703L76.5087 53.6943L76.3227 53.9423L75.8268 54.3763L75.0827 54.9963L74.6487 55.3063L74.5247 55.4303L74.1527 55.6783L74.0287 54.6863L73.6568 54.8723L73.5326 54.9343V55.0583V55.1823V55.3063V55.4303V55.5543L73.4707 55.6783V55.8023V55.9263L73.4087 56.1743V56.2983L73.3468 56.4223V56.5463L73.2847 56.6703V56.7943L73.2226 56.9183V57.0423L73.1607 57.1663L73.0987 57.5383L73.0368 57.6623V57.7863V57.9103L72.9747 58.2823V58.4063V58.5303L72.9126 59.1503L72.4787 58.7163L72.3547 58.5923L72.2307 58.5303L72.0447 58.4683H71.9207L71.7968 58.5303L71.7347 58.5923L71.6726 58.7163L71.6107 58.9023L71.4867 59.2743V59.3983L71.4247 59.5223L71.3626 59.8323V60.0183V60.2043V61.0723L70.9287 60.5763L70.8667 60.4523L70.7426 60.3283L70.6807 60.2663L70.4326 60.0803L70.3086 60.0183L70.1847 59.9563L70.0607 60.0183L69.9367 60.1423L69.8747 60.2663L69.7507 60.5763V60.7003L69.6886 60.8243L69.6267 61.1344V61.4444V62.2504L69.2547 61.8163L69.0686 61.6303L68.8207 61.4444L68.6347 61.3823H68.5107H68.3867C69.8747 62.3743 70.7427 64.9164 70.9907 66.7764C70.8667 69.8764 72.0447 72.0464 74.7108 73.4725C77.1288 75.7045 78.1827 78.3085 77.8727 81.4705Z" fill="#1A1F35"/>
<path d="M63.3645 43.1543C63.4265 43.5263 63.6125 43.8363 63.7365 43.8983C64.9145 43.5263 65.9685 43.3403 66.7745 43.3403C68.0765 43.3403 68.8825 43.8363 69.1925 44.7663V44.8283L69.1305 44.8903C68.3245 45.4483 67.3945 45.7583 66.3405 45.7583C65.6585 45.7583 64.9144 45.6343 64.1084 45.3863C64.1084 46.0063 64.2325 46.5023 64.6045 46.8123C64.9765 47.2463 65.7205 47.4323 66.6505 47.4323C67.1465 47.4323 67.7045 47.3703 68.3245 47.2463C68.7585 47.0603 69.1925 46.9363 69.5645 46.9363C70.1225 46.9363 70.5566 47.1843 70.6806 47.6183C70.8046 48.0523 70.6805 48.5483 70.3085 49.0443C71.4245 48.4243 72.0445 47.7423 72.3546 46.8743C72.6646 45.9443 72.4166 44.7663 71.7345 43.3403C72.9126 42.0383 73.4706 40.4883 73.4706 38.4422L73.4085 38.5042C73.2225 38.8142 72.9125 39.0002 72.2925 39.1242C71.5485 38.6282 71.1765 38.1322 71.0525 37.5122L71.2385 37.4502C71.5485 38.1322 71.9205 38.5662 72.3546 38.7522C72.7266 38.6902 72.9746 38.5663 73.1606 38.3802C73.3466 38.1322 73.4086 37.6982 73.2846 37.1402L73.4706 37.0782C73.5946 37.5742 73.6565 37.8842 73.5325 38.1942H73.6566C73.8426 39.5582 73.7805 41.4183 72.1685 43.2783C72.9745 44.8903 73.2225 46.1923 72.7885 47.1843C72.4165 48.1143 71.5485 48.7964 70.1845 49.2304V49.1684C70.0605 49.2924 69.9365 49.4164 69.8125 49.5404C69.6265 49.5404 69.4405 49.6023 69.2545 49.6023H69.5025H70.1225L70.6185 49.5404L70.8666 49.4784L71.0525 49.4164L71.2385 49.3543L71.4245 49.2923L71.8585 49.1063L72.1066 48.9823L72.3546 48.7343L72.4166 48.6723L72.6025 48.4243L72.7266 48.2383L72.7885 48.1763L72.9125 47.9903L72.9746 47.9283L73.3466 47.4323L73.6566 48.3623L73.7806 48.0523L73.8425 47.8043L73.9046 47.6803L73.9666 47.5563L74.0285 47.3083V47.1843V47.0603V46.9363L74.0906 46.8123V46.6883V46.5643L74.1525 46.3163V45.9443V45.7583V45.6343L73.9046 45.2003L75.0206 45.6963L75.0825 45.4483V45.2623V45.0763L74.9585 44.6423L74.8346 44.3323L74.7106 44.1463L74.5246 43.7743L74.4006 43.5883L74.2766 43.4643L74.1525 43.2783L73.9666 42.9683L74.5866 42.8443L74.4006 42.5343L74.0906 42.2243L73.8425 42.0383L73.7806 41.9763L73.5946 41.7903L73.9046 41.4803L73.9666 41.6043L74.0906 41.6663L74.3385 41.8523L74.4006 41.9143L74.6485 42.2243L74.7725 42.3483L74.8966 42.4723L74.9585 42.5963L75.2066 42.9683L74.6485 43.0923L74.8966 43.4643L75.0206 43.6503L75.1446 43.8363L75.2066 43.8983L75.3925 44.3323L75.5166 44.7043L75.5786 44.8903L75.6406 45.2623V45.3863V45.5723L75.5786 45.7583L75.5166 46.0683L74.7725 45.7583V46.3163V46.5643V46.8123V46.9363V47.0603L74.6485 47.4323L74.5866 47.5563V47.6803L74.5246 47.8043L74.4625 48.0523L74.4006 48.1763L74.2766 48.4243L74.1525 48.6723L73.9046 49.0443L73.5946 48.1143L73.5325 48.2383L73.3466 48.6104L73.1606 48.9204L73.0985 48.9823L73.0366 49.1063L72.8506 49.2923L72.7266 49.3543L72.6025 49.4164L72.2925 49.5404L72.1066 49.6023L71.7345 49.7264L71.3006 49.7884L70.8045 49.8504H70.1845L69.0066 49.7884H68.8825V49.6643C68.5105 49.7263 68.2005 49.7883 67.8285 49.9123C67.3325 50.0363 66.8365 50.1604 66.2785 50.2224L66.3405 50.2844L66.6505 50.4704L66.7745 50.5324L67.0224 50.6564L67.5805 50.8424L67.8285 50.9044L68.0145 50.9664L68.2625 51.0284H68.3866H68.5105H68.6345H68.7585L69.1925 51.0904L68.5725 51.8344H68.6966L69.1305 51.7724L69.3785 51.7104L69.5025 51.6484H69.6266L69.8745 51.5244L69.9985 51.4624L70.5566 51.2144L70.9285 50.9664L71.1145 50.8424L71.2385 50.7184L71.3625 50.6564L71.7966 50.2844L71.3006 52.2684L71.4866 52.2064L71.6725 52.1444L71.8585 52.0824L72.1685 51.9584L72.4785 51.8344L72.7266 51.7104L72.9746 51.5864L73.0985 51.5244L73.2225 51.4624L73.4706 51.3384L73.5946 51.2764L73.8425 51.0904L74.1525 50.8424L74.4625 50.5324L74.5866 50.4084L74.7106 50.3464L74.8346 50.2224L74.9585 50.0984L75.3925 49.6643L75.8266 50.8424L75.9506 50.6564L76.0125 50.5324L76.1986 50.2224L76.4467 49.7264L76.5706 49.4164L76.7567 48.7963L76.8186 48.6723V48.4863L76.8806 48.2383L76.9425 47.9903L77.0046 47.5563V47.3703V47.2463L76.7567 46.8123L76.8806 46.6883L78.1206 47.7423L78.1825 47.6183V47.4943L78.2446 47.3703V47.2463V47.1223V46.9983V46.8743V46.7503V46.6263V46.3783V46.2543L78.1825 46.0063V45.8823L78.1206 45.5103L78.0586 45.3863L77.9346 45.1383V45.0143L77.8106 44.7663L77.7486 44.6423L77.6246 44.3943L77.5625 44.2703L77.5006 44.1463L77.0667 43.5263L78.2446 44.0843V43.8363L78.1825 43.5263L78.1206 43.3403L78.0586 43.1543L77.9967 43.0303L77.9346 42.8443L77.8106 42.6583L77.5625 42.3483L77.4386 42.2243L77.2525 42.0383L77.1286 41.9143L77.0046 41.7903L76.8186 41.6663L76.6946 41.6043L76.1986 41.2943L75.8886 41.1083L75.5786 41.0463L75.8266 40.7983L75.8886 40.7363L75.9506 40.7983L76.3225 40.9843L76.4467 41.1083L76.6325 41.2323L77.0667 41.5423L77.1906 41.6663L77.4386 41.8523L77.6867 42.1003L77.8725 42.2863L77.9346 42.4103L77.9967 42.5343L78.0586 42.6583L78.1825 42.9063L78.2446 43.0303L78.3067 43.1543L78.4306 43.4643L78.4926 43.7123V43.9603V44.2703L78.4306 44.6423L77.8725 44.3943L77.9346 44.5803L77.9967 44.7043L78.1206 44.9523L78.1825 45.0763L78.2446 45.2623V45.3863L78.3686 45.7583V45.8823V46.0063L78.4306 46.4403V46.6883V46.8123V46.9363V47.0603L78.3686 47.4323V47.5563L78.3067 47.6803L78.2446 47.9283L78.1206 48.3003L77.1906 47.4943V47.6183V47.7423L77.1286 47.9903V48.1143V48.2383L77.0667 48.5483L77.0046 48.7343L76.9425 49.0443L76.8186 49.3543L76.7567 49.5404L76.6946 49.7264L76.6325 49.9123L76.5706 50.0984L76.3846 50.4084L76.1366 50.9044L76.0125 51.0284L75.8886 51.1524L75.5786 51.5244L75.1446 50.2844L74.8966 50.5324L74.6485 50.7184L74.2146 51.0904L73.7185 51.4624L73.4706 51.6484L72.9125 51.9584L72.6025 52.0824L72.4785 52.1444L71.8585 52.3924L71.3625 52.5784L71.1766 52.6404L70.7425 52.7644L71.1145 51.1524L70.8045 51.3384L70.6185 51.4624L70.4945 51.5244L70.3706 51.5864L70.1225 51.7104L69.9985 51.7724L69.8745 51.8344L69.7506 51.8964L69.5025 51.9584L69.3785 52.0204L69.2545 52.0824H69.1305L69.0066 52.1444L68.7585 52.2064H68.6345H68.2625L67.7666 52.0824L68.3866 51.4004H68.2625H68.1385H68.0145L67.7666 51.3384L67.5185 51.2764L67.3324 51.2144L67.0845 51.1524L66.5885 50.9664L66.4024 50.9044L66.2166 50.8424L66.0305 50.7804L65.7205 50.6564L65.5965 50.5324C64.8525 50.6564 64.1084 50.7184 63.3024 50.7184C62.7444 50.7184 62.1244 50.7184 61.4424 50.6564C62.4344 52.2064 63.9225 53.1984 65.9065 53.6324L66.1545 53.6944L64.9145 54.5004C65.9685 54.7484 66.9605 54.8724 67.8905 54.8724C68.0765 54.8724 68.2625 54.8724 68.5105 54.8724H68.6345V54.9344H68.7585L69.1305 54.8724L69.5025 54.8104L69.8745 54.6864L70.3706 54.5004L69.9366 55.6164H70.1845L70.3706 55.5544L70.7425 55.4924L71.4245 55.3684L71.7345 55.3064H71.9206L72.1066 55.2444L72.2925 55.1824H72.4166L73.0366 54.9964L73.2225 54.9344L73.3466 54.8724L73.7806 54.6864H73.9046L73.9666 54.5624H74.0906L74.6485 54.3144L75.0206 54.1284L75.0825 54.9964L75.2686 54.8724L75.7646 54.4384L75.8886 54.3764L76.0125 54.2524L76.5086 53.8184L76.8186 53.5084L77.4386 52.8884L77.5006 52.7644L77.6867 52.5164L77.7486 52.3924L77.9346 52.1444L78.1206 51.9584L78.3067 51.6484V51.4624L78.4306 51.5864L78.4926 51.5244L78.8646 52.0824C79.7326 50.3464 80.1666 48.6723 80.1046 46.8123V46.6883L80.8486 46.7503C80.8486 45.3863 80.8486 43.8983 80.0426 42.7823V42.6583V42.5343L80.7246 42.4103C80.1666 40.7983 79.2986 39.7443 78.2446 39.3103L78.0586 39.2483L78.8646 38.6903C77.6866 37.3882 76.1986 36.7062 74.4006 36.7062C74.2146 36.7062 73.9666 36.7062 73.7806 36.7062H73.7185V36.6442C73.4085 35.9002 72.9746 35.3422 72.4166 34.9702C72.3546 35.0322 72.3546 35.0942 72.3546 35.0942H72.4785L72.7885 35.2182C73.0365 36.3962 73.0366 37.5122 73.0366 38.5042H72.8506C72.7266 37.2022 72.5406 36.2102 72.3546 35.2182V35.1562C72.0445 35.7762 71.7965 36.3342 71.6725 37.0162V37.0782H71.6106C69.5646 37.1402 68.8206 38.0702 68.0766 39.0003C67.3326 39.9303 66.5885 40.8603 64.7905 41.2323C63.4885 41.6663 63.3025 42.5343 63.3645 43.1543ZM69.9366 38.4422C70.0606 38.4422 70.1845 38.4422 70.3085 38.4422H70.3706V38.5042C70.3086 39.3722 69.5646 39.4963 69.0066 39.6203C68.6966 39.6823 68.3865 39.7443 68.2005 39.8683L68.0145 39.7443C68.3865 38.9382 69.0066 38.4422 69.9366 38.4422ZM68.0766 42.1003C69.1306 42.1003 69.9986 42.4723 70.6806 43.1543C70.6806 42.7203 70.7426 42.4103 70.8666 42.2243C70.9906 42.0383 71.2386 41.9763 71.4866 41.9763C71.5486 41.9763 71.6105 41.9763 71.6725 41.9763L71.9206 42.0383L71.6725 42.1623C70.9905 42.5963 70.9286 43.2783 71.4866 44.3323L71.3006 44.4563C70.3086 43.2163 68.9445 42.5963 67.2085 42.5963C66.7125 42.5963 66.1546 42.6583 65.5965 42.7823L65.5345 42.5963C66.5265 42.2863 67.3326 42.1003 68.0766 42.1003Z" fill="#1A1F35"/>
<path d="M65.1624 61.8784L65.3484 61.8164H65.4105V61.6924L65.5344 61.7544L65.7824 61.6304L66.0924 61.4444L66.7745 61.0724L67.7665 60.4524L68.0765 60.2044L68.6965 59.7083L69.3165 59.2123L69.8745 58.7163L70.6805 57.9723L71.4245 57.2283L71.6724 56.9803L71.8585 56.7323L72.2305 56.2983L72.6645 55.6783L72.8505 55.3063L72.9125 55.1203L72.7266 55.1823L72.6024 55.2443L72.4166 55.3063L72.1066 55.3683H71.9205L71.6105 55.4923H71.4245L70.7424 55.6163L70.2465 55.6783L69.9365 55.7403L68.9445 55.8643L69.3165 54.9343L69.0065 54.9963L68.7584 55.0583H68.3245H68.2005L68.1384 54.9963C67.3324 56.8563 66.2165 58.6544 64.7905 60.5144L62.8684 61.6924C62.8064 62.7464 62.4344 63.6144 61.6904 64.3584L64.1084 64.7924C64.9764 64.6064 65.4104 63.6764 65.4724 62.0024L65.1624 61.8784Z" fill="#1A1F35"/>
<path d="M67.8908 61.3205L67.9527 61.2584H68.0147L68.0768 61.1965L68.2008 61.1345L68.3248 61.0724H68.5108H68.6348L68.7587 61.1345L68.8827 61.1965L69.1308 61.3205L69.2548 61.4445V61.0724L69.3168 60.8865V60.7624V60.6384V60.5145L69.4408 60.2045L69.5027 60.0805L69.6268 59.8945L69.7508 59.7704L69.9368 59.7084H70.1227L70.3087 59.7704L70.4327 59.8324L70.6187 59.9564L70.6808 60.0184L70.8668 60.2045L70.9908 60.3284V60.1424L71.0527 59.7704L71.1148 59.5845L71.1768 59.4604V59.2745L71.2387 59.0264L71.3627 58.7164L71.4868 58.5304L71.6108 58.4064L71.7348 58.2824L71.8588 58.2204H72.0448L72.2308 58.2824L72.3548 58.3444L72.5408 58.4064L72.6648 58.4684V58.2824V58.1584V58.0344V57.9104V57.7864L72.7269 57.2904L72.7888 57.0424V56.9184L72.8508 56.6704V56.5464V56.4224L72.9127 56.2984V56.1744L72.9748 56.0504L73.0369 55.8024L73.0988 55.5544V55.4304L73.1608 55.3064L73.0369 55.5544L72.9748 55.7404L72.8508 55.9264L72.5408 56.3604L72.3548 56.6084L71.7968 57.2904L71.3627 57.7864L70.8668 58.2824L70.6187 58.5304L70.3708 58.7784L70.0608 59.0264L69.7508 59.2745L68.8208 60.0184L68.5108 60.2664L68.2008 60.5145L67.8908 60.7624L67.2087 61.1965L66.5268 61.6305L66.1547 61.8165L65.8447 61.9405C66.2787 62.1885 66.5887 62.6845 66.7747 63.3045C67.0847 62.6225 67.3328 61.8785 67.8908 61.3205Z" fill="#1A1F35"/>
<path d="M60.388 62.8705C60.14 62.6225 60.0161 62.3125 60.1401 62.0645C60.2641 61.8165 60.512 61.6925 60.822 61.6925C60.884 61.6925 60.8841 61.6925 60.9461 61.6925L61.194 61.1965L56.1719 58.0964L55.304 58.5924L59.954 61.6305L59.892 62.0645L54.87 58.8405L53.8779 59.2124L60.078 63.3665L60.388 62.8705Z" fill="#1A1F35"/>
<path d="M61.4417 60.8864L62.4338 59.5844H63.1778C63.9218 57.4144 63.7358 55.4304 62.6817 53.3844C61.5037 52.7644 60.5738 52.0824 59.8298 51.2144L58.4658 52.0823C60.8838 54.4384 61.1938 56.9184 59.3958 59.4604L61.4417 60.8864Z" fill="#1A1F35"/>
</svg>
