<svg width="130" height="115" viewBox="0 0 130 115" fill="none" xmlns="http://www.w3.org/2000/svg">
<path d="M127.825 11.1005V51.1582C127.825 81.014 101.945 105.319 70.0634 105.319H2.02535V65.261C2.02535 35.4052 27.9053 11.1005 59.7865 11.1005H127.825ZM130 9.00012H127.9H59.8615C26.8551 9.00012 0 34.205 0 65.261V105.319V107.419H2.10035H70.1385C103.145 107.419 130 82.2142 130 51.1582V11.1005V9.00012Z" fill="#1A1F35"/>
<path d="M58.5118 37.4309V40.2065H42.9838V80.3392H35.7824V40.2065H20.1794V37.4309H58.5118ZM75.015 48.8332V50.8585H58.4368V62.1107H69.5389V64.1361H58.4368V78.2388H75.015V80.2642H53.1857V48.8332H75.015ZM94.8188 81.0144C93.1685 81.0144 91.6682 80.7893 90.1679 80.4142C88.6676 80.0392 87.3174 79.4391 86.0421 78.764C84.7669 78.0138 83.5667 77.1886 82.5165 76.1384C81.4663 75.0882 80.566 73.963 79.8159 72.7628C79.0657 71.5626 78.5407 70.2123 78.0906 68.787C77.7155 67.3617 77.4904 65.9364 77.4904 64.3611C77.4904 62.8608 77.7155 61.4356 78.0906 60.0103C78.4657 58.6601 79.0657 57.3098 79.8159 56.1095C80.566 54.9093 81.4663 53.7841 82.5165 52.8089C83.5667 51.8337 84.7669 51.0086 86.0421 50.2585C87.3174 49.5833 88.6676 48.9832 90.1679 48.6081C91.6682 48.233 93.2435 48.008 94.8188 48.008C96.4691 48.008 97.9694 48.233 99.4697 48.6081C100.97 48.9832 102.32 49.5083 103.596 50.2585C104.871 50.9336 106.071 51.8337 107.121 52.8089C108.171 53.7841 109.072 54.9093 109.822 56.1095C110.572 57.3098 111.097 58.5851 111.547 60.0103C111.922 61.3606 112.147 62.8608 112.147 64.3611C112.147 65.8614 111.922 67.3617 111.547 68.787C111.172 70.2123 110.572 71.5626 109.822 72.7628C109.072 73.963 108.171 75.0882 107.121 76.1384C106.071 77.1886 104.871 78.0138 103.596 78.764C102.32 79.5141 100.97 80.0392 99.4697 80.4142C97.9694 80.7893 96.3941 81.0144 94.8188 81.0144ZM94.8188 79.439C96.6191 79.439 98.1945 79.0639 99.5447 78.3138C100.895 77.5636 102.095 76.5135 102.995 75.1632C103.971 73.813 104.646 72.2376 105.171 70.3623C105.696 68.4869 105.921 66.5365 105.921 64.3611C105.921 62.1857 105.696 60.2353 105.171 58.435C104.646 56.6346 103.971 55.0593 102.995 53.7841C102.02 52.5089 100.895 51.4586 99.5447 50.7835C98.1945 50.0334 96.5441 49.7333 94.8188 49.7333C93.0184 49.7333 91.3681 50.1084 89.9428 50.7835C88.5176 51.5337 87.3924 52.5089 86.4922 53.7841C85.592 55.0593 84.8419 56.6346 84.3918 58.435C83.9417 60.2353 83.7167 62.1857 83.7167 64.3611C83.7167 66.5365 83.9417 68.5619 84.3918 70.3623C84.8419 72.2376 85.592 73.813 86.4922 75.1632C87.3924 76.5135 88.5926 77.5636 89.9428 78.3138C91.3681 79.0639 92.9434 79.439 94.8188 79.439Z" fill="#1A1F35"/>
</svg>
