<svg width="137" height="115" viewBox="0 0 137 115" fill="none" xmlns="http://www.w3.org/2000/svg">
<mask id="mask0_2370_15830" style="mask-type:luminance" maskUnits="userSpaceOnUse" x="0" y="17" width="137" height="83">
<path d="M136.763 17H0V99.1709H136.763V17Z" fill="white"/>
</mask>
<g mask="url(#mask0_2370_15830)">
<path fill-rule="evenodd" clip-rule="evenodd" d="M-0.000610352 96.8324C-0.000610352 98.1226 0.967055 98.8483 2.01536 98.8483C3.06366 98.8483 3.87009 98.1226 3.87009 96.8324V85.4623L13.6274 97.8C14.5144 98.6064 14.9982 98.8483 16.0465 98.8483C16.7723 98.6064 17.5787 98.1226 17.5787 96.8324V80.2208C17.5787 79.2531 16.5304 78.2048 15.4821 78.2048C14.5144 78.2048 13.6274 79.2531 13.6274 80.2208V91.6715L3.87009 79.495C3.0637 78.7693 2.82181 78.4467 1.7735 78.4467C0.241365 78.4467 -0.000610352 79.4951 -0.000610352 80.5434V96.8324ZM37.6578 92.1553C38.6254 93.4455 39.9962 93.4455 41.0445 92.1553L45.9635 85.9461V96.8324C45.9635 98.1226 46.7699 98.8483 47.8182 98.8483C48.7859 98.8483 49.5922 98.1226 49.5922 96.8324V80.2208C49.5922 78.2048 47.1731 77.721 46.2054 78.9306L39.5124 87.9621L33.0613 79.2531C32.5775 78.6887 32.0937 78.2048 31.2067 78.2048C30.7228 78.2048 29.4325 78.6887 29.4325 80.2208V96.8324C29.4325 98.1226 30.239 98.8483 31.2067 98.8483C32.255 98.8483 33.3032 98.1226 33.3032 96.8324V85.9461L37.6578 92.1553ZM66.5264 98.8483C69.4294 98.8483 69.1875 94.9777 66.5264 94.9777H57.5755V90.5426H64.9943C67.5748 90.5426 67.5748 86.6719 64.9943 86.6719H57.5755V82.2368H66.0426C68.7036 82.2368 68.7843 78.4467 66.0426 78.4467H55.4789C54.4306 78.4467 53.6242 79.2531 53.6242 80.3014V97.0743C53.6242 98.1226 54.4306 98.929 55.4789 98.929H66.5264V98.8483ZM80.5575 82.0755C88.8633 82.0755 88.5408 95.3003 80.5575 95.3003H75.6386V82.0755H80.5575ZM80.8801 98.8483C93.7823 98.8483 94.1048 78.4467 80.6382 78.4467H73.8646C72.8969 78.4467 71.8486 79.2531 71.8486 80.3014V97.0743C71.8486 98.3645 72.8969 98.929 73.8646 98.929H80.8801V98.8483ZM114.91 88.6073C114.91 81.5917 109.507 78.0436 104.346 77.8016C98.8625 77.8016 93.2179 81.3498 93.2179 88.6073C93.2179 95.8647 98.8625 99.4128 104.346 99.1709C109.588 99.1709 114.91 95.5422 114.91 88.6073ZM111.12 88.6073C111.12 93.2037 107.491 95.6228 104.104 95.6228C100.798 95.6228 97.2498 93.2843 97.2498 88.6073C97.2498 83.9302 100.879 81.5917 104.104 81.5917C107.491 81.5917 111.12 83.9302 111.12 88.6073ZM129.102 97.5581L136.601 81.1078C137.569 78.6886 134.182 77.2371 132.973 79.495L130.392 85.3817L127.086 93.123L123.699 85.3817L121.119 79.495C119.829 77.0759 116.361 78.9306 117.49 81.2691L125.231 97.5581C126.28 99.8967 128.376 99.4128 129.102 97.5581Z" fill="#1A1F35"/>
</g>
<mask id="mask1_2370_15830" style="mask-type:luminance" maskUnits="userSpaceOnUse" x="0" y="17" width="137" height="83">
<path d="M136.763 17H0V99.1709H136.763V17Z" fill="white"/>
</mask>
<g mask="url(#mask1_2370_15830)">
<path fill-rule="evenodd" clip-rule="evenodd" d="M20.6432 79.4951C19.5949 81.2691 22.6591 82.8819 23.6268 81.1885L26.1266 76.6727C27.0136 75.06 24.03 73.3666 23.143 74.9793L20.6432 79.4951Z" fill="#1A1F35"/>
</g>
<mask id="mask2_2370_15830" style="mask-type:luminance" maskUnits="userSpaceOnUse" x="0" y="17" width="137" height="83">
<path d="M136.763 17H0V99.1709H136.763V17Z" fill="white"/>
</mask>
<g mask="url(#mask2_2370_15830)">
<path d="M91.5241 27.725C81.7668 40.7884 78.3799 60.4643 49.5919 60.4643H39.0282C35.964 64.093 32.4159 67.3992 27.9001 69.6571H72.2515C109.668 69.6571 104.184 36.2726 125.634 27.6443C119.425 27.6443 103.62 27.725 91.5241 27.725Z" fill="#1A1F35"/>
</g>
<mask id="mask3_2370_15830" style="mask-type:luminance" maskUnits="userSpaceOnUse" x="0" y="17" width="137" height="83">
<path d="M136.763 17H0V99.1709H136.763V17Z" fill="white"/>
</mask>
<g mask="url(#mask3_2370_15830)">
<path d="M101.443 17C92.4118 17 83.3802 17.0807 74.3487 17.0807C44.6736 16.9194 44.4317 48.1266 23.3043 59.0128H48.1411C85.6381 59.0128 80.074 25.6283 101.443 17Z" fill="#1A1F35"/>
</g>
</svg>
