<svg width="250" height="115" viewBox="0 0 250 115" fill="none" xmlns="http://www.w3.org/2000/svg">
<mask id="mask0_2370_15817" style="mask-type:luminance" maskUnits="userSpaceOnUse" x="0" y="30" width="250" height="56">
<path d="M250 30H0V85.7H250V30Z" fill="white"/>
</mask>
<g mask="url(#mask0_2370_15817)">
<mask id="mask1_2370_15817" style="mask-type:luminance" maskUnits="userSpaceOnUse" x="0" y="30" width="251" height="56">
<path d="M250.1 30H0.0999756V85.7H250.1V30Z" fill="white"/>
</mask>
<g mask="url(#mask1_2370_15817)">
<path d="M25 30C24.5 30.4 21.6 33.5 19.3 37.5C17.7 40.3 16.7 42.9 16 45.6C14.1 44.2 11.9 43 9.39998 42C5.09998 40.2 0.800002 39.6 0.300002 39.6C0.200002 40.2 -0.200047 44.5 0.499953 49C0.799953 51.3 1.29993 53.3 2.09993 55.3C3.79993 54.9 5.5 54.8 7.3 54.8C14.1 54.8 20.3999 57.3 25.0999 61.5C29.8999 57.3 36.1 54.8 42.9 54.8C44.7 54.8 46.3999 55 48.0999 55.3C48.7999 53.4 49.2999 51.3 49.6999 49C50.2999 44.5 50 40.1 49.8 39.6C49.2 39.6 44.8999 40.2 40.6999 42C38.1999 43 36.0999 44.2 34.0999 45.6C33.4999 42.9 32.4 40.2 30.8 37.5C28.4 33.5 25.5 30.4 25 30Z" fill="#1A1F35"/>
</g>
<mask id="mask2_2370_15817" style="mask-type:luminance" maskUnits="userSpaceOnUse" x="0" y="30" width="251" height="56">
<path d="M250.1 30H0.0999756V85.7H250.1V30Z" fill="white"/>
</mask>
<g mask="url(#mask2_2370_15817)">
<path d="M2.5 58.5C3 67.1 8.39998 74.5 16.1 77.7C16.9 72.3 19.3 67.5 22.8 63.8C18.5 60.2 13.1 58.1 7.19995 58.1C5.59995 58 4 58.2 2.5 58.5Z" fill="#1A1F35"/>
</g>
<mask id="mask3_2370_15817" style="mask-type:luminance" maskUnits="userSpaceOnUse" x="0" y="30" width="251" height="56">
<path d="M250.1 30H0.0999756V85.7H250.1V30Z" fill="white"/>
</mask>
<g mask="url(#mask3_2370_15817)">
<path d="M18.4 85L19.9 85.7C20.7 83.6 21.7 81.4 22.9 79.4C23.6 79.5 24.3 79.5 25 79.5C37.1 79.5 47 70.2 47.5 58.4C46 58.1 44.5 57.9 42.8 57.9C30.6 57.9 20.5 67 19 78.7H19.1C23.8 71.9 30.3 66.7 37.7 63.9C37.9 63.8 38 63.8 38.2 63.7C30.9 67.9 25.7 73.2 21.8 79.1C20.6 81.1 19.5 83 18.4 85Z" fill="#1A1F35"/>
</g>
<mask id="mask4_2370_15817" style="mask-type:luminance" maskUnits="userSpaceOnUse" x="0" y="30" width="251" height="56">
<path d="M250.1 30H0.0999756V85.7H250.1V30Z" fill="white"/>
</mask>
<g mask="url(#mask4_2370_15817)">
<path d="M163 54.5H152.6V46.6H162.5C166.8 46.6 168 48.3 168 50.6C168.1 53.2 166.2 54.5 163 54.5ZM178.3 70.4L169.2 60.5C173.7 58.7 177.3 55.9 177.3 50.6C177.3 43.9 172.5 40.4 165.3 40.4H141.7V40.6C142.4 40.7 143.3 42.8 143.3 45.5V67.8C143.3 70.5 146.7 72.7 148.8 72.7H154.3V72.5C153.3 72.4 152.4 71.4 152.4 69.6V60.6H159.4C160.7 62.2 167 70 167.7 70.9C167.7 70.9 169.2 72.8 172.6 72.8H181.2V72.5C180.5 72.5 179.3 71.3 178.3 70.4Z" fill="#1A1F35"/>
</g>
<mask id="mask5_2370_15817" style="mask-type:luminance" maskUnits="userSpaceOnUse" x="0" y="30" width="251" height="56">
<path d="M250.1 30H0.0999756V85.7H250.1V30Z" fill="white"/>
</mask>
<g mask="url(#mask5_2370_15817)">
<path d="M202.8 40.4V40.6C203.3 40.7 204 42.7 204 45.5V60.9C204 64.6 201 66.1 196.7 66.1C192.4 66.1 189.4 64.6 189.4 60.9V45.6C189.4 42.8 190.2 40.8 190.6 40.7V40.5H177.5V40.7C178.7 40.8 179.6 42.4 179.6 45.6V59.2C179.6 67 183.9 73.5 196.7 73.5C209.5 73.5 213.8 66.9 213.8 59.2V45.6C213.8 42.4 214.7 40.8 215.9 40.7V40.5H202.8V40.4Z" fill="#1A1F35"/>
</g>
<mask id="mask6_2370_15817" style="mask-type:luminance" maskUnits="userSpaceOnUse" x="0" y="30" width="251" height="56">
<path d="M250.1 30H0.0999756V85.7H250.1V30Z" fill="white"/>
</mask>
<g mask="url(#mask6_2370_15817)">
<path d="M97.5 40.4V40.6C97.8 40.6 98.4 41.6 98.1 42.6C97.9 43.3 96.7 45.6 96.3 46.9L92.9 54.1L87.7 64.9L82.5 54.1L79.1 46.9C78.5 45.6 77.4 43.4 77.3 42.6C77 41.6 77.7 40.6 77.9 40.6V40.4H65.7V40.6C66.4 40.6 66.9 41.4 67.2 42C70.8 49.7 80.1 69.5 80.4 70.4C80.8 71.5 80.5 72.5 79.8 72.5V72.7H87.7H95.6V72.5C94.9 72.4 94.6 71.5 95 70.4C95.3 69.6 104.6 49.8 108.2 42C108.5 41.4 108.9 40.6 109.7 40.6V40.4H97.5Z" fill="#1A1F35"/>
</g>
<mask id="mask7_2370_15817" style="mask-type:luminance" maskUnits="userSpaceOnUse" x="0" y="30" width="251" height="56">
<path d="M250.1 30H0.0999756V85.7H250.1V30Z" fill="white"/>
</mask>
<g mask="url(#mask7_2370_15817)">
<path d="M250 62.5C249.5 49.8 225.7 55.1 225.6 49.8C225.5 46.6 232.1 46.6 233.9 46.6C238.7 46.6 243 47.6 245.2 50.4L249 41.8L248.7 41.7C248.3 41.8 247.9 42 246.9 41.9C245.3 41.8 239.2 40 232.2 40C220.2 40 216.1 46.4 216.2 50.9C216.6 63.3 240.4 57.6 240.6 63.4C240.7 66.3 235.9 66.5 234 66.5C229.1 66.5 222.3 65.1 219.9 63.5C219.8 63.5 219.8 63.4 219.7 63.4C219.6 63.3 219.6 63.3 219.5 63.2C218.8 62.6 218.3 62.1 218.3 62.1L216 70.4L216.3 70.5C216.9 70.2 217.5 70.2 218.3 70.3C218.9 70.4 227.2 73 234.3 73C245.5 73.2 250.2 68.3 250 62.5Z" fill="#1A1F35"/>
</g>
<mask id="mask8_2370_15817" style="mask-type:luminance" maskUnits="userSpaceOnUse" x="0" y="30" width="251" height="56">
<path d="M250.1 30H0.0999756V85.7H250.1V30Z" fill="white"/>
</mask>
<g mask="url(#mask8_2370_15817)">
<path d="M120.8 59.0001L115.5 58.9001L120.7 48.1001L125.9 58.9001L120.8 59.0001ZM143.3 72.5001C142.7 72.5001 141.6 71.8 140.9 70.3C137.2 62.4 129.1 45.0001 128.3 43.1001C127.6 41.5001 128 40.6001 128.8 40.5001V40.3H112.8V40.5001C113.5 40.6001 114 41.5001 113.3 43.1001C112.5 44.9001 104.3 62.4 100.7 70.3C100.1 71.8 98.9 72.5001 98.3 72.5001V72.7H109.1C110 70.6 111.7 67.1001 112.1 66.1001H112.3H120.7H120.8H129.2H129.4C129.9 67.0001 131.5 70.5 132.4 72.7H143.2V72.5001H143.3Z" fill="#1A1F35"/>
</g>
</g>
</svg>
