<svg width="243" height="115" viewBox="0 0 243 115" fill="none" xmlns="http://www.w3.org/2000/svg">
<mask id="mask0_2370_15821" style="mask-type:luminance" maskUnits="userSpaceOnUse" x="0" y="36" width="243" height="44">
<path d="M243 36.9999H0V79.1548H243V36.9999Z" fill="white"/>
</mask>
<g mask="url(#mask0_2370_15821)">
<path d="M71.1013 60.513L78.9702 60.6066H79.8133V59.6698V59.3888L71.1013 59.2952V60.513Z" fill="#1A1F35"/>
</g>
<mask id="mask1_2370_15821" style="mask-type:luminance" maskUnits="userSpaceOnUse" x="0" y="36" width="243" height="44">
<path d="M243 36.9999H0V79.1548H243V36.9999Z" fill="white"/>
</mask>
<g mask="url(#mask1_2370_15821)">
<mask id="mask2_2370_15821" style="mask-type:luminance" maskUnits="userSpaceOnUse" x="0" y="36" width="243" height="44">
<path d="M243 36.9999H0V79.1548H243V36.9999Z" fill="white"/>
</mask>
<g mask="url(#mask2_2370_15821)">
<path d="M59.017 39.8101H57.6118L58.2675 41.1215C58.2675 41.1215 59.2043 42.9014 59.2043 44.8686V72.6909C59.2043 74.5645 58.2675 76.157 58.2675 76.157L57.6118 77.4685H59.1107H60.5158H61.0779H82.5301H83.4669V76.5317V76.2507H62.3894H61.8273H60.4221H58.9233L59.298 75.5949L59.5791 75.0329C59.5791 75.0329 60.4222 73.4404 60.5158 71.4731V43.6509C60.5158 41.6836 59.5791 39.9037 59.5791 39.9037H59.017V39.8101Z" fill="#1A1F35"/>
</g>
<mask id="mask3_2370_15821" style="mask-type:luminance" maskUnits="userSpaceOnUse" x="0" y="36" width="243" height="44">
<path d="M243 36.9999H0V79.1548H243V36.9999Z" fill="white"/>
</mask>
<g mask="url(#mask3_2370_15821)">
<path d="M83.0921 47.398V45.6181V45.2434L82.9047 45.1497C82.9047 45.1497 81.8743 44.4003 80.0007 44.3066H71.1013V45.5245H78.7829C80.5628 45.5245 81.6869 46.3676 81.6869 46.3676L83.0921 47.398Z" fill="#1A1F35"/>
</g>
<mask id="mask4_2370_15821" style="mask-type:luminance" maskUnits="userSpaceOnUse" x="0" y="36" width="243" height="44">
<path d="M243 36.9999H0V79.1548H243V36.9999Z" fill="white"/>
</mask>
<g mask="url(#mask4_2370_15821)">
<path d="M92.3663 39.81H90.8674L91.5232 41.1215C91.5232 41.1215 92.4599 42.714 92.4599 44.6812C92.4599 44.7749 92.4599 44.7749 92.4599 44.7749V71.192V72.0351C92.4599 72.5035 92.46 72.9719 92.3663 73.4403C92.2726 73.815 92.2726 74.1897 92.1789 74.5644C91.8979 75.5012 91.6168 76.0633 91.6168 76.0633L90.8674 77.3748H92.3663H93.7714H94.4272H110.446C111.851 77.3748 113.256 77.2811 114.568 77C115.879 76.8127 117.191 76.438 118.409 75.9696C119.626 75.5012 120.844 74.9392 121.968 74.2834C123.093 73.6277 124.123 72.8782 125.06 72.0351C125.528 71.6604 125.903 71.192 126.278 70.8173C125.341 71.6604 124.31 72.4098 123.186 73.0656C122.062 73.7213 120.938 74.2834 119.626 74.7518C118.409 75.2202 117.097 75.5012 115.786 75.7822C114.474 75.9696 113.069 76.157 111.664 76.157H95.645H94.9892H93.5841H92.0852L92.8347 74.8455C93.3031 74.096 93.5841 72.7846 93.6778 71.9415C93.6778 71.5668 93.6778 71.2857 93.6778 70.911V43.4634V43.3697C93.6778 41.4025 92.741 39.81 92.741 39.81V39.7163H92.3663V39.81Z" fill="#1A1F35"/>
</g>
<mask id="mask5_2370_15821" style="mask-type:luminance" maskUnits="userSpaceOnUse" x="0" y="36" width="243" height="44">
<path d="M243 36.9999H0V79.1548H243V36.9999Z" fill="white"/>
</mask>
<g mask="url(#mask5_2370_15821)">
<path d="M219.019 39.9037L218.55 39.8101H217.052L217.707 41.1215C217.707 41.1215 218.55 42.7141 218.644 44.6813V72.6909C218.644 74.5645 217.707 76.2507 217.707 76.2507L217.052 77.5622H218.55H228.48H229.417V76.6254V76.2507H219.862H218.363L218.738 75.5949L219.019 75.0329C219.019 75.0329 219.862 73.4404 219.956 71.4731V43.4635C219.862 41.4963 219.019 39.9037 219.019 39.9037Z" fill="#1A1F35"/>
</g>
<mask id="mask6_2370_15821" style="mask-type:luminance" maskUnits="userSpaceOnUse" x="0" y="36" width="243" height="44">
<path d="M243 36.9999H0V79.1548H243V36.9999Z" fill="white"/>
</mask>
<g mask="url(#mask6_2370_15821)">
<path d="M186.606 39.8101H185.107L185.763 41.1215C185.763 41.1215 186.606 42.7141 186.7 44.6813V72.6909C186.7 74.5645 185.763 76.157 185.763 76.157L185.107 77.4685H186.606H196.536H197.473V76.5317V76.2507H187.918H186.419L186.793 75.5949L187.075 74.9392C187.075 74.9392 187.918 73.3467 188.011 71.3794V43.4635C188.011 41.4963 187.075 39.9037 187.075 39.9037V39.8101H186.606Z" fill="#1A1F35"/>
</g>
<mask id="mask7_2370_15821" style="mask-type:luminance" maskUnits="userSpaceOnUse" x="0" y="36" width="243" height="44">
<path d="M243 36.9999H0V79.1548H243V36.9999Z" fill="white"/>
</mask>
<g mask="url(#mask7_2370_15821)">
<path d="M40.7497 37.4681H40.1877L40.0003 37.9365L25.1992 63.4169L25.3866 63.8852L40.7497 37.4681Z" fill="#1A1F35"/>
</g>
<mask id="mask8_2370_15821" style="mask-type:luminance" maskUnits="userSpaceOnUse" x="0" y="36" width="243" height="44">
<path d="M243 36.9999H0V79.1548H243V36.9999Z" fill="white"/>
</mask>
<g mask="url(#mask8_2370_15821)">
<path d="M1.87349 37.3744H1.4051H-6.6559e-05L0.561991 38.6859C0.561991 38.6859 1.49877 40.5594 1.49877 42.5267C1.49877 42.6203 1.49877 42.6204 1.49877 42.714C1.49877 45.4307 1.49877 51.2387 1.49877 57.4214C1.49877 63.6042 1.49877 70.1616 1.49877 74.1897C1.49877 76.157 0.561991 77.8432 0.561991 77.8432L-0.09375 79.1546H1.31142H1.4051H2.34188H6.37001H7.30678H7.40047H8.80563L8.24356 77.9368H7.68149H3.65336H2.71658H1.31142L1.87349 76.9064L1.96716 76.6254C1.96716 76.6254 2.90393 74.9392 2.90393 72.9719C2.90393 68.9438 2.90393 62.3863 2.90393 56.2036C2.90393 50.0209 2.90393 44.2129 2.90393 41.4962C2.90393 41.4025 2.90393 41.4025 2.90393 41.3089C2.81026 39.248 1.87349 37.3744 1.87349 37.3744Z" fill="#1A1F35"/>
</g>
<mask id="mask9_2370_15821" style="mask-type:luminance" maskUnits="userSpaceOnUse" x="0" y="36" width="243" height="44">
<path d="M243 36.9999H0V79.1548H243V36.9999Z" fill="white"/>
</mask>
<g mask="url(#mask9_2370_15821)">
<path d="M22.7639 77.9369H22.2955L22.0145 77.5622L8.61853 56.11V59.2951L20.7966 78.78L21.0777 79.1547H21.5461H22.6702H23.1386L23.4196 78.78L23.888 77.9369H22.7639Z" fill="#1A1F35"/>
</g>
<mask id="mask10_2370_15821" style="mask-type:luminance" maskUnits="userSpaceOnUse" x="0" y="36" width="243" height="44">
<path d="M243 36.9999H0V79.1548H243V36.9999Z" fill="white"/>
</mask>
<g mask="url(#mask10_2370_15821)">
<path d="M239.44 60.6066V59.6698V59.3888L230.635 59.2952V60.513L238.504 60.6066H239.44Z" fill="#1A1F35"/>
</g>
<mask id="mask11_2370_15821" style="mask-type:luminance" maskUnits="userSpaceOnUse" x="0" y="36" width="243" height="44">
<path d="M243 36.9999H0V79.1548H243V36.9999Z" fill="white"/>
</mask>
<g mask="url(#mask11_2370_15821)">
<path d="M45.9957 79.1548H47.4009H48.8997L48.244 77.937H47.2135H40.094H39.1572H37.752H36.2532L36.909 76.6256C36.909 76.6256 37.7521 75.033 37.8457 73.0658V54.8923L36.6279 57.0469V74.3773C36.6279 76.2508 35.6912 77.937 35.6912 77.937L35.0354 79.2485H36.5342H37.9394H38.8762L45.9957 79.1548Z" fill="#1A1F35"/>
</g>
<mask id="mask12_2370_15821" style="mask-type:luminance" maskUnits="userSpaceOnUse" x="0" y="36" width="243" height="44">
<path d="M243 36.9999H0V79.1548H243V36.9999Z" fill="white"/>
</mask>
<g mask="url(#mask12_2370_15821)">
<path d="M242.719 47.398V45.6181V45.2434L242.531 45.1497C242.531 45.1497 241.501 44.4003 239.627 44.3066H230.728V45.5245H238.41C240.189 45.5245 241.314 46.3676 241.314 46.3676L242.719 47.398Z" fill="#1A1F35"/>
</g>
<mask id="mask13_2370_15821" style="mask-type:luminance" maskUnits="userSpaceOnUse" x="0" y="36" width="243" height="44">
<path d="M243 36.9999H0V79.1548H243V36.9999Z" fill="white"/>
</mask>
<g mask="url(#mask13_2370_15821)">
<path d="M162.812 44.8688C163.468 45.1498 164.03 45.5246 164.592 45.993C165.154 46.4613 165.622 46.9297 166.091 47.4918C166.559 48.0538 166.934 48.7096 167.309 49.459C167.683 50.2085 167.964 50.9579 168.245 51.801C168.526 52.6441 168.714 53.5808 168.807 54.5176C168.901 55.4544 168.995 56.4848 168.995 57.609C168.995 59.0141 168.901 60.3256 168.807 61.4498C168.62 62.6676 168.433 63.698 168.152 64.7285C167.871 65.759 167.496 66.602 167.121 67.4451C166.747 68.2882 166.278 68.944 165.81 69.5997C165.716 69.6934 165.622 69.7871 165.529 69.8808C166.091 69.4124 166.559 68.944 167.028 68.2882C167.496 67.6325 167.964 66.9768 168.339 66.1337C168.714 65.2906 169.088 64.4474 169.369 63.417C169.651 62.3865 169.932 61.3561 170.025 60.1383C170.213 58.9205 170.213 57.7027 170.213 56.2975C170.213 55.1734 170.119 54.1429 170.025 53.2061C169.932 52.2694 169.651 51.3326 169.463 50.4895C169.182 49.6464 168.901 48.897 168.526 48.1475C168.152 47.3981 167.777 46.7424 167.309 46.1803C166.84 45.6182 166.372 45.0562 165.81 44.6814C165.248 44.2131 164.686 43.8384 164.03 43.5573C163.374 43.2763 162.718 42.9952 161.969 42.9016C161.313 42.7142 160.564 42.7142 159.721 42.7142C158.878 42.7142 158.128 42.8079 157.472 42.9953C156.723 43.1826 156.067 43.4636 155.412 43.8383C154.756 44.2131 154.194 44.6814 153.632 45.2435C153.351 45.5245 153.163 45.7119 152.882 45.993C153.257 45.6182 153.725 45.3372 154.1 45.0562C154.756 44.6815 155.412 44.4004 156.161 44.2131C156.91 44.0257 157.66 43.932 158.409 43.932C159.159 43.932 159.908 44.0257 160.657 44.1194C161.501 44.3068 162.156 44.4941 162.812 44.8688Z" fill="#1A1F35"/>
</g>
<mask id="mask14_2370_15821" style="mask-type:luminance" maskUnits="userSpaceOnUse" x="0" y="36" width="243" height="44">
<path d="M243 36.9999H0V79.1548H243V36.9999Z" fill="white"/>
</mask>
<g mask="url(#mask14_2370_15821)">
<path d="M210.775 47.398V45.6181V45.2434L210.588 45.1497C210.588 45.1497 209.557 44.4003 207.684 44.3066H198.784V45.5245H206.466C208.246 45.5245 209.37 46.3676 209.37 46.3676L210.775 47.398Z" fill="#1A1F35"/>
</g>
<mask id="mask15_2370_15821" style="mask-type:luminance" maskUnits="userSpaceOnUse" x="0" y="36" width="243" height="44">
<path d="M243 36.9999H0V79.1548H243V36.9999Z" fill="white"/>
</mask>
<g mask="url(#mask15_2370_15821)">
<path d="M198.691 59.2952V60.513L206.559 60.6066H207.496V59.6698V59.3888L198.691 59.2952Z" fill="#1A1F35"/>
</g>
<mask id="mask16_2370_15821" style="mask-type:luminance" maskUnits="userSpaceOnUse" x="0" y="36" width="243" height="44">
<path d="M243 36.9999H0V79.1548H243V36.9999Z" fill="white"/>
</mask>
<g mask="url(#mask16_2370_15821)">
<path d="M166.933 76.7191C168.245 76.157 169.65 75.5949 170.868 74.8455C171.992 74.1898 173.023 73.4403 173.866 72.5972C174.147 72.3162 174.521 71.9415 174.802 71.6604C173.959 72.4099 173.116 73.0656 172.086 73.6277C170.868 74.3771 169.463 75.0329 168.151 75.5013C166.84 75.9697 165.528 76.3444 164.123 76.6254C162.718 76.9064 161.313 77.0001 159.72 77.0001C158.315 77.0001 156.91 76.9064 155.598 76.7191C154.287 76.5317 152.976 76.2507 151.758 75.9697C150.446 75.5949 149.135 75.1265 147.917 74.4708C146.793 73.9087 145.762 73.253 144.826 72.5036C143.889 71.6605 143.046 70.8173 142.296 69.7869C141.547 68.7564 140.891 67.6323 140.329 66.4145C139.767 65.1967 139.392 63.7916 139.111 62.3864C138.83 60.8875 138.737 59.3887 138.737 57.7025C138.737 56.391 138.83 55.0795 139.111 53.768C139.392 52.5502 139.767 51.2387 140.235 50.1146C140.704 48.8968 141.359 47.7727 142.015 46.7422C142.484 45.9928 143.046 45.337 143.701 44.6813C143.514 44.8686 143.42 44.9623 143.233 45.1497C142.296 46.0864 141.547 47.0233 140.797 48.0537C140.048 49.0842 139.486 50.2083 139.018 51.4261C138.549 52.6439 138.174 53.8617 137.893 55.0795C137.612 56.391 137.519 57.6088 137.519 59.014C137.519 60.7002 137.612 62.2927 137.893 63.6978C138.174 65.1967 138.549 66.5082 139.111 67.726C139.673 68.9438 140.329 70.0679 141.078 71.0984C141.828 72.1289 142.671 73.0657 143.608 73.8151C144.545 74.5645 145.575 75.2202 146.699 75.7823C147.917 76.438 149.228 76.9064 150.54 77.2811C151.758 77.6558 153.069 77.9369 154.381 78.0306C155.692 78.2179 157.097 78.3116 158.502 78.3116C160.001 78.3116 161.5 78.2179 162.905 77.9369C164.311 77.5622 165.622 77.1875 166.933 76.7191Z" fill="#1A1F35"/>
</g>
<mask id="mask17_2370_15821" style="mask-type:luminance" maskUnits="userSpaceOnUse" x="0" y="36" width="243" height="44">
<path d="M243 36.9999H0V79.1548H243V36.9999Z" fill="white"/>
</mask>
<g mask="url(#mask17_2370_15821)">
<path d="M110.821 44.775C111.664 44.9624 112.507 45.1498 113.163 45.4308C113.912 45.7118 114.568 46.0865 115.224 46.5549C115.879 47.0233 116.441 47.4917 117.003 48.0538C117.565 48.6159 118.034 49.2716 118.409 49.9273C118.783 50.5831 119.158 51.3325 119.439 52.1756C119.72 53.0187 120.001 53.8618 120.095 54.7049C120.282 55.6417 120.282 56.5784 120.282 57.6089C120.282 60.2318 120.001 62.4802 119.345 64.4474C118.783 66.1336 118.034 67.6324 117.097 68.7565C117.378 68.4755 117.659 68.1945 118.034 67.9134C119.158 66.6956 120.095 65.1031 120.657 63.2295C121.219 61.2623 121.594 59.014 121.594 56.3911C121.594 55.3606 121.5 54.3302 121.406 53.4871C121.219 52.5503 121.032 51.7072 120.751 50.9578C120.47 50.1147 120.095 49.4589 119.72 48.7095C119.345 48.0537 118.877 47.398 118.315 46.836C117.753 46.2739 117.191 45.8055 116.535 45.3371C115.879 44.8687 115.224 44.5877 114.474 44.213C113.725 43.9319 112.975 43.6509 112.132 43.5572C111.289 43.3699 110.352 43.3699 109.416 43.3699C107.542 43.3699 105.481 43.3699 104.357 43.3699V44.5877C105.387 44.5877 106.605 44.5877 108.104 44.5877C109.041 44.5877 109.978 44.6814 110.821 44.775Z" fill="#1A1F35"/>
</g>
<mask id="mask18_2370_15821" style="mask-type:luminance" maskUnits="userSpaceOnUse" x="0" y="36" width="243" height="44">
<path d="M243 36.9999H0V79.1548H243V36.9999Z" fill="white"/>
</mask>
<g mask="url(#mask18_2370_15821)">
<path d="M125.153 42.9952C123.186 41.6837 121.125 40.8406 118.409 40.2785C115.692 39.7165 112.413 39.4354 109.134 39.4354H94.8954H94.5207H93.5839C93.5839 39.4354 94.6144 41.2153 94.6144 43.4636V43.5573V71.2859V71.3795C94.6144 73.5341 93.5839 75.314 93.5839 75.314H94.9891H111.664C114.38 75.314 116.91 74.8456 119.345 74.0025C121.781 73.1594 123.842 71.8479 125.622 70.2554C127.402 68.5692 128.9 66.602 129.931 64.26C130.961 61.9181 131.523 59.2951 131.523 56.3911C131.523 53.1124 130.68 50.3021 129.65 48.1475C128.619 45.9929 127.121 44.3067 125.153 42.9952ZM118.69 68.4755C116.16 71.1922 112.694 72.5037 108.385 72.5037C107.167 72.5037 103.42 72.5037 103.42 72.5037V42.4331C103.42 42.4331 107.917 42.4331 109.322 42.4331C111.289 42.4331 113.069 42.7142 114.755 43.3699C116.348 44.0256 117.753 44.9624 118.877 46.1802C120.001 47.398 120.938 48.8032 121.5 50.4894C122.156 52.1756 122.437 54.1429 122.437 56.2974C122.53 61.7307 121.219 65.8526 118.69 68.4755ZM174.428 43.3699C172.648 41.8711 170.212 40.6533 167.777 39.9038C165.341 39.1544 162.812 38.7797 160.001 38.7797C157.004 38.7797 154.193 39.2481 151.758 40.2785C149.322 41.2153 146.887 42.6205 145.107 44.3067C143.327 45.9929 142.015 47.9601 141.079 50.302C140.142 52.5503 139.673 54.9859 139.673 57.5152C139.673 60.794 140.235 63.6043 141.266 65.9462C142.296 68.2882 143.702 70.2554 145.481 71.7543C147.261 73.2531 149.697 74.3772 152.133 75.033C154.568 75.6887 157.097 76.0634 159.908 76.0634C162.812 76.0634 165.528 75.595 167.964 74.6582C170.4 73.7215 172.835 72.41 174.615 70.7238C176.395 69.0376 177.707 67.0704 178.737 64.8221C179.767 62.5738 180.236 60.1382 180.236 57.5152C180.236 54.4239 179.674 51.6136 178.737 49.2716C177.613 46.836 176.208 44.9624 174.428 43.3699ZM170.212 63.7917C169.557 65.8526 168.713 67.6324 167.683 68.9439C166.653 70.2554 165.341 71.2859 163.936 71.9416C162.531 72.5974 161.032 72.9721 159.439 72.9721C157.941 72.9721 156.629 72.691 155.224 72.2226C153.912 71.6606 152.695 70.8175 151.758 69.6933C150.727 68.5692 149.978 66.9767 149.322 65.1031C148.76 63.2296 148.385 60.8876 148.385 58.0773C148.385 55.829 148.666 53.7682 149.135 51.8009C149.603 49.8337 150.353 48.1475 151.383 46.6486C152.32 45.1498 153.538 44.0257 154.943 43.1826C156.348 42.3395 157.941 41.871 159.72 41.871C161.407 41.871 162.905 42.2458 164.311 42.9015C165.716 43.5573 166.934 44.5877 167.87 45.8055C168.901 47.0233 169.65 48.6159 170.212 50.3958C170.774 52.1756 171.055 54.2365 171.055 56.4848C171.243 59.2015 170.868 61.6371 170.212 63.7917ZM47.6819 41.4963C47.6819 43.932 47.6819 64.6348 47.6819 73.1594C47.6819 75.2203 48.7123 77.0939 48.7123 77.0939H47.3072H39.2509H37.8457C37.8457 77.0939 38.7825 75.314 38.8762 73.1594V51.7072L24.0751 77.0939H22.9509L7.86883 53.0187V73.2531C7.9625 75.314 8.89929 77.0939 8.89929 77.0939H7.96251H3.65333H2.71655C2.71655 77.0939 3.74701 75.2203 3.74701 73.0657V72.9721C3.74701 64.9158 3.74701 46.7423 3.74701 41.4027V41.309C3.74701 39.1544 2.71655 37.0935 2.71655 37.0935H8.33722C9.83606 39.9975 25.3866 65.6652 25.3866 65.6652L41.9675 37.0935H48.6186C48.6186 37.0935 47.6819 39.2481 47.6819 41.4963ZM61.6398 39.4354H83.4668V42.9015V43.3699V44.4004C83.4668 44.4004 82.1553 43.4636 80.0944 43.3699H70.2582V54.7986H76.8156C79.0639 54.7986 80.188 53.9555 80.188 53.9555V54.7986V58.5457L70.1645 58.452V71.6605H80.2817C82.4363 71.6605 83.6541 70.6301 83.6541 70.6301V71.5669V75.4077H61.6398H60.2347C60.2347 75.4077 61.1714 73.6278 61.2651 71.4732V43.6509C61.2651 41.4964 60.2347 39.5291 60.2347 39.5291H61.2651H61.6398V39.4354ZM189.323 39.4354H211.149V42.9015V43.3699V44.4004C211.149 44.4004 209.838 43.4636 207.777 43.3699H197.941V54.7049H204.498C206.747 54.7049 207.964 53.8618 207.964 53.8618V54.7049V58.452L198.035 58.3584V75.314H188.105C188.105 75.314 189.042 73.5341 189.135 71.3795V43.4636C189.135 41.309 188.105 39.5291 188.105 39.5291H189.135H189.323V39.4354ZM221.267 39.4354H243.094V42.9015V43.3699V44.4004C243.094 44.4004 241.782 43.4636 239.721 43.3699H229.885V54.7049H236.442C238.691 54.7049 239.909 53.8618 239.909 53.8618V54.7049V58.452L229.885 58.3584V75.314H219.955C219.955 75.314 220.892 73.5341 220.986 71.3795V43.4636C220.986 41.309 219.955 39.5291 219.955 39.5291H220.986H221.267V39.4354Z" fill="#1A1F35"/>
</g>
</g>
</svg>
