<svg width="160" height="115" viewBox="0 0 160 115" fill="none" xmlns="http://www.w3.org/2000/svg">
<path d="M80.4391 92.2194C89.5513 92.1387 99.3893 91.3323 109.066 89.3164C118.904 87.3004 128.419 84.2361 137.128 79.2365C142.208 76.3335 146.886 72.8661 150.272 67.9471C153.901 62.7862 154.949 57.2221 152.53 51.1742C150.998 47.3842 148.418 44.3199 145.434 41.6588C141.16 37.8688 136.241 35.0464 131.08 32.7079C124.065 29.4824 116.807 27.3051 109.308 25.773C101.567 24.1602 93.6639 23.2732 85.8419 23.0313C70.198 22.4668 54.8766 23.9183 39.8778 28.5147C33.9912 30.2888 28.2658 32.6273 22.863 35.6916C17.4603 38.7559 12.6219 42.3846 9.07384 47.6261C6.33212 51.7387 5.12254 56.2545 6.25148 61.1734C7.29979 65.7698 9.88021 69.3986 13.1864 72.5435C17.7022 76.898 23.0244 79.9623 28.6691 82.5427C38.0232 86.8166 47.861 89.2357 58.0215 90.7678C65.279 91.7355 72.4559 92.1387 80.4391 92.2194ZM82.6971 98.1059C69.7949 98.1059 59.7151 97.2189 49.8771 95.2029C41.4101 93.5095 33.1043 91.0098 25.2823 87.3004C18.9118 84.3168 13.0252 80.688 8.10621 75.5271C3.83236 71.0919 0.768065 65.9311 0.122955 59.6413C-0.360877 55.2061 0.606768 50.9323 2.62274 46.981C4.88062 42.5459 8.18677 38.9977 12.0574 35.8528C19.1536 30.1275 27.2176 26.4181 35.7653 23.5958C43.5067 21.0153 51.4898 19.2412 59.6343 18.2735C71.3269 16.822 83.1002 16.5802 94.9541 17.7091C101.405 18.3542 107.856 19.3219 114.146 20.7734C122.129 22.6281 129.79 25.2085 137.048 28.9985C142.934 32.0628 148.418 35.6915 152.853 40.7718C156.159 44.4812 158.497 48.6744 159.384 53.5934C160.513 60.1251 158.82 66.0117 155.111 71.3339C151.079 77.1399 145.515 81.3331 139.386 84.7199C132.532 88.5906 125.274 91.2517 117.694 93.3483C105.276 96.6545 92.6963 98.0253 82.6971 98.1059Z" fill="#1A1F35"/>
<path d="M117.372 57.1414C121.565 61.0121 124.549 65.8504 128.177 70.1243C128.742 70.7694 129.226 71.4145 129.71 72.1402C130.274 72.9466 130.032 73.4304 129.064 73.5111C127.21 73.5111 125.274 73.5917 123.42 73.5111C122.936 73.5111 122.371 73.1079 122.049 72.7047C120.275 70.5274 118.581 68.2696 116.807 66.0117C115.678 64.5602 114.63 63.1893 113.501 61.7378C112.695 60.6895 111.566 60.125 110.195 60.125C108.663 60.0444 107.05 60.0444 105.518 60.0444C104.712 60.0444 104.712 60.5283 104.712 61.0928C104.712 64.5602 104.712 68.1083 104.712 71.6564C104.712 73.4305 104.55 73.5918 102.776 73.5918C101.728 73.5918 100.599 73.5918 99.4701 73.5918C97.9379 73.5918 97.6958 73.4304 97.6958 71.8983C97.6958 64.3182 97.6958 56.7382 97.6958 49.1582C97.6958 48.755 97.6153 48.4324 97.6153 48.1098C97.5347 48.1098 97.4539 48.0292 97.2927 48.0292C96.8895 48.755 96.4864 49.5614 96.0026 50.2872C92.2932 57.1414 88.503 63.9151 84.7936 70.7694C83.7453 72.7854 82.0521 73.753 79.7136 73.6724C78.9072 73.5918 78.1813 73.6724 77.3749 73.6724C75.3589 73.6724 73.8269 72.7854 72.8593 70.9307C71.1659 67.8664 69.4724 64.8827 67.779 61.8184C65.4405 57.5446 63.0213 53.2708 60.6827 48.997C60.3602 48.3518 59.8763 48.1098 59.2312 48.1098C52.4575 48.1098 45.6033 48.1098 38.749 48.1098C37.1363 48.1098 36.4105 48.8356 36.3299 50.4484C36.3299 51.1741 36.3299 51.8999 36.3299 52.7063C36.4105 53.9965 37.1363 54.6416 38.3458 54.7223C38.749 54.7223 39.2328 54.7223 39.7167 54.7223C45.1195 54.7223 50.6028 54.7223 56.0056 54.7223C57.6184 54.7223 59.2312 54.9642 60.6827 55.8512C62.5374 56.9802 63.505 58.7542 63.6663 60.9314C63.8276 63.028 63.8276 65.2053 63.6663 67.3825C63.4244 70.7694 61.086 73.1079 57.6991 73.5111C56.6508 73.5917 55.6025 73.6724 54.4736 73.6724C46.7323 73.6724 38.9103 73.6724 31.0883 73.6724C29.4756 73.6724 29.3143 73.5111 29.3143 71.8983C29.3143 70.7693 29.3143 69.6404 29.3143 68.5115C29.3143 67.7051 29.7174 67.3019 30.4432 67.3019C30.7658 67.3019 31.0883 67.3019 31.4108 67.3019C38.9102 67.3019 46.4097 67.3019 53.9092 67.3019C55.9251 67.3019 56.6509 66.6568 56.7315 64.5602C56.7315 63.9151 56.7315 63.2699 56.7315 62.6248C56.6509 61.1733 55.925 60.367 54.3929 60.367C48.7482 60.367 43.184 60.367 37.62 60.2864C36.491 60.2864 35.2816 60.2057 34.1527 59.8832C31.7335 59.2381 29.9594 57.6253 29.7175 55.1255C29.395 52.3838 29.3143 49.6421 29.6368 46.981C30.04 43.9167 32.4592 42.062 35.6847 41.8201C36.733 41.7394 37.7813 41.7395 38.9103 41.7395C46.9741 41.7395 54.9574 41.7395 62.9407 41.7395C63.989 41.7395 64.5533 42.1426 65.0371 43.0297C69.2304 50.8516 73.5043 58.6736 77.7781 66.4955C77.9394 66.7374 78.3426 67.1406 78.5845 67.06C78.9071 66.9793 79.391 66.7375 79.4716 66.4149C81.5682 62.5442 83.6649 58.593 85.7615 54.6417C87.8581 50.6904 90.0352 46.739 92.1319 42.7877C92.535 41.9813 93.0996 41.7395 93.9866 41.7395C96.9702 41.8201 99.8732 41.7395 102.857 41.7395C104.308 41.7395 104.47 41.9007 104.47 43.3522C104.47 46.8197 104.47 50.2065 104.47 53.6739C104.47 54.4803 104.711 54.8835 105.598 54.8029C106.808 54.7223 108.098 54.7223 109.308 54.7223C110.84 54.7223 111.969 54.0771 112.856 52.8676C115.436 49.4001 118.097 45.9326 120.678 42.4651C121.081 41.9007 121.565 41.5781 122.291 41.6587C124.065 41.6587 125.758 41.6587 127.532 41.6587C127.855 41.6587 128.419 41.82 128.5 42.0619C128.581 42.3039 128.419 42.7877 128.177 43.0297C124.549 47.7067 120.839 52.3031 117.211 56.9801C117.372 56.9801 117.372 57.0608 117.372 57.1414Z" fill="#1A1F35"/>
</svg>
