<svg width="194" height="115" viewBox="0 0 194 115" fill="none" xmlns="http://www.w3.org/2000/svg">
<path d="M13.3161 46.4424H9.01031V43.8112H26.3132V46.4424H22.0074L32.2137 86.0717H36.0411V88.703H19.3761V86.0717H23.6022L19.4558 69.8054C18.499 74.6693 16.9042 78.9752 14.6716 82.8025C12.0403 87.3475 9.16978 89.5802 6.21952 89.5802C4.38557 89.5802 2.95029 89.0219 1.91371 87.8259C0.637915 86.4704 0 84.4769 0 81.9253C0 79.6927 0.47846 77.1411 1.4353 74.2706C2.23267 71.8785 3.34896 69.0877 4.9437 65.978C6.06002 63.7453 7.57503 60.9546 9.48871 57.7651C10.2861 56.4096 11.0835 55.1338 11.8011 53.6986C12.9174 51.7051 13.4756 49.7914 13.4756 48.117C13.3958 47.4791 13.3958 46.9208 13.3161 46.4424ZM17.7016 63.8251L15.15 53.858C13.8742 55.7717 12.8376 57.6056 11.9605 59.2003C11.3226 60.3166 10.605 61.6722 9.8874 63.267C8.93055 65.1807 8.2129 66.8551 7.57501 68.4499C6.61816 70.9217 6.06002 73.1543 5.90055 75.1477V76.7424C6.06002 77.8588 6.37899 78.6561 7.01689 79.1346C7.57505 79.613 8.29266 79.8522 9.09003 79.8522C11.0835 79.8522 13.0769 77.7791 14.9108 73.7125C16.4258 70.2838 17.3827 66.9348 17.7016 63.8251ZM71.3645 74.1909C71.2051 75.9451 71.0456 77.3803 70.8064 78.7359C70.4875 80.5698 70.1685 82.2444 69.7698 83.5999C69.2914 85.4338 68.3345 86.7893 66.979 87.7462C65.6235 88.6233 63.7098 89.1017 61.238 89.1017L38.513 88.9422V86.3109H43.0579V63.1075V49.3927C43.0579 47.5588 44.573 46.1235 47.6827 45.2464C50.1546 44.5287 53.1845 44.1301 56.7727 44.1301C60.8393 44.1301 64.3477 45.6451 67.1385 48.6751C69.5306 51.2267 70.8064 54.0175 71.0456 57.0475C71.1254 58.3233 71.2848 60.1572 71.4443 62.4696C71.6038 64.782 71.6835 66.8551 71.6835 68.6093C71.6835 69.8054 71.6835 71.0811 71.6835 72.2772C71.524 72.9151 71.4443 73.7125 71.3645 74.1909ZM63.4706 74.8288C63.4706 72.357 63.3909 69.4067 63.2314 66.0578C63.0719 62.7088 62.9922 59.4396 62.8327 56.1704C62.8327 54.0972 62.2746 52.1037 61.0785 50.0306C59.723 47.6385 58.1282 46.4424 56.2943 46.4424C54.2211 46.4424 52.7858 47.8777 52.2277 50.8279C51.9087 52.2632 51.7493 55.2136 51.7493 59.6788V86.0717H58.6066C60.4406 86.0717 61.7164 84.9554 62.5138 82.8025C63.1517 81.0483 63.4706 78.417 63.4706 74.8288ZM107.246 46.4424H102.94V43.8112H120.243V46.4424H115.937L126.144 86.0717H130.051V88.703H113.386V86.0717H117.612L113.466 69.8054C112.509 74.6693 110.914 78.9752 108.761 82.8025C106.13 87.3475 103.259 89.5802 100.309 89.5802C98.4751 89.5802 97.0398 89.0219 96.0033 87.8259C94.7275 86.4704 94.0896 84.4769 94.0896 81.9253C94.0896 79.6927 94.568 77.1411 95.5249 74.2706C96.3222 71.8785 97.4385 69.0877 99.0333 65.978C100.15 63.7453 101.665 60.9546 103.578 57.7651C104.376 56.4096 105.173 55.1338 105.891 53.6986C107.007 51.7051 107.565 49.7914 107.565 48.117C107.326 47.4791 107.326 46.9208 107.246 46.4424ZM111.632 63.8251L109.08 53.858C107.804 55.7717 106.768 57.6056 105.891 59.2003C105.253 60.3166 104.535 61.6722 103.817 63.267C102.861 65.1807 102.143 66.8551 101.505 68.4499C100.548 70.9217 99.9901 73.1543 99.8306 75.1477V76.7424C99.9901 77.8588 100.389 78.6561 100.947 79.1346C101.505 79.613 102.223 79.8522 103.02 79.8522C105.014 79.8522 107.007 77.7791 108.841 73.7125C110.356 70.2838 111.313 66.9348 111.632 63.8251ZM169.042 88.7828H154.69V86.1514H156.843C156.843 79.2941 155.646 74.1909 153.175 70.9217C151.181 68.2107 148.55 66.8551 145.201 66.8551V86.1514H147.992V88.7828H132.044V86.1514H136.589V47.3993H132.044V44.768H157.082C160.191 44.768 162.265 45.0072 163.301 45.4856C164.896 46.2032 165.614 47.8777 165.614 50.4293C165.614 53.8579 164.418 56.888 161.946 59.4396C159.075 62.4696 154.769 64.463 149.028 65.2604V66.2172C153.653 66.2172 157.56 67.7323 160.829 70.842C164.577 74.4302 166.411 79.613 166.411 86.2312H168.963V88.7828H169.042ZM155.965 51.1469C155.965 49.4724 155.407 48.4359 154.291 47.798C153.653 47.4791 152.776 47.2398 151.66 47.2398H145.281V62.0709C148.311 62.0709 150.862 60.8749 153.015 58.5625C154.929 56.4893 155.965 54.0174 155.965 51.1469ZM177.574 86.0717V47.3196H172.87V44.6882H190.81V47.3196H186.186V86.0717H190.81V88.703H172.87V86.0717H177.574Z" fill="#1A1F35"/>
<path d="M97.9969 24.7542C97.9172 24.9136 97.8374 25.0731 97.678 25.3123L87.9501 37.3526C87.6312 37.6716 87.2324 37.831 86.9135 37.831H85.7972C85.4782 37.831 85.1593 37.7513 84.9998 37.6715C84.8403 37.512 84.8403 37.2729 85.0795 36.7147L91.618 25.7908L92.4951 24.5947C93.2127 23.9568 93.8506 23.4783 94.3291 23.3189C94.8075 23.0797 95.5251 23 96.4022 23C97.0401 23 97.5185 23.1595 97.678 23.3987C97.9172 23.6379 97.9969 23.877 97.9969 24.1162C98.0767 24.4352 97.9969 24.5947 97.9969 24.7542Z" fill="#1A1F35"/>
<path d="M92.7344 47.3197V44.6884H74.7936V47.3197H79.498V66.297L79.4183 83.0418C79.4183 84.1581 79.0994 85.3542 78.0628 86.0718C77.4249 86.5503 75.0328 86.0718 75.0328 86.0718C74.7138 85.9921 74.4746 85.8326 74.2354 85.6731L73.2786 92.6899C74.7936 93.0089 76.4681 93.1684 78.2223 93.1684C81.4117 93.1684 83.8836 93.0887 85.877 91.2547C87.9501 89.2613 88.1096 85.9921 88.1096 85.9921C88.3488 84.8758 88.1894 66.2173 88.1894 66.2173V47.2399H92.7344V47.3197Z" fill="#1A1F35"/>
<path d="M114.98 83.0419H113.146V84.4772H115.379L114.98 83.0419Z" fill="#1A1F35"/>
<path d="M127.34 84.4771H135.074V83.0418H128.855L119.924 48.1171H118.011L127.34 84.4771Z" fill="#1A1F35"/>
<path d="M109.957 83.6001C109 85.2746 107.964 86.6301 106.927 87.8261C108.522 86.5503 110.037 84.7164 111.552 82.1648C112.349 80.8093 113.067 79.2943 113.705 77.7793L113.306 76.2643C112.429 78.8956 111.313 81.3675 109.957 83.6001Z" fill="#1A1F35"/>
<path d="M192.484 47.4793H193.999V41.5787H172.789V43.014H192.484V47.4793Z" fill="#1A1F35"/>
<path d="M164.019 43.8911C165.534 44.6088 167.288 46.2832 167.288 50.2701C167.288 54.0975 165.933 57.4464 163.301 60.2372C163.78 59.8385 164.258 59.3601 164.737 58.9614C167.448 56.0909 168.803 52.6621 168.803 48.8348C168.803 44.8479 167.049 43.1735 165.534 42.4558C164.258 41.8179 162.105 41.5787 158.597 41.5787H131.965V43.014H157.082C160.59 43.014 162.743 43.333 164.019 43.8911Z" fill="#1A1F35"/>
<path d="M175.979 83.0419H172.789V84.4772H175.979V83.0419Z" fill="#1A1F35"/>
<path d="M146.875 84.477H149.666V88.9423H151.181V83.0417H148.39V69.0081C147.911 68.7689 147.433 68.6891 146.875 68.5297V84.477Z" fill="#1A1F35"/>
<path d="M187.86 48.9144V84.4771H192.485V88.9423H194V83.0418H189.375V48.9144H187.86Z" fill="#1A1F35"/>
<path d="M94.4085 47.4793H95.9235V41.5787H74.7932V43.014H94.4085V47.4793Z" fill="#1A1F35"/>
<path d="M151.978 57.3665C150.942 58.1639 149.746 58.722 148.47 58.9613V48.9144H146.955V60.3965C148.789 60.0775 150.384 59.1207 151.819 57.526C151.819 57.526 151.899 57.4463 151.978 57.3665Z" fill="#1A1F35"/>
<path d="M172.232 84.4772V83.0419H169.6C169.281 76.7427 167.288 71.7193 163.54 68.1311C161.786 66.4566 159.872 65.1808 157.719 64.3834C156.922 64.7821 156.045 65.1011 155.168 65.42C157.719 66.2174 159.952 67.6526 162.025 69.5663C165.773 73.1545 167.766 78.178 168.085 84.4772H170.717V88.9424H171.354V84.4772H172.232Z" fill="#1A1F35"/>
<path d="M155.168 83.0419H154.609V84.4772H155.247C155.247 83.9988 155.168 83.5203 155.168 83.0419Z" fill="#1A1F35"/>
<path d="M103.099 69.0083C102.222 71.3206 101.744 73.3937 101.584 75.148V76.5833C101.664 77.2212 101.824 77.6198 102.063 77.859C102.222 78.0185 102.541 78.178 103.099 78.178C103.817 78.178 104.614 77.5401 105.412 76.5035C105.173 76.663 104.854 76.7427 104.614 76.7427C104.056 76.7427 103.737 76.5833 103.578 76.4238C103.339 76.2644 103.179 75.7859 103.099 75.148V73.7128C103.259 71.8788 103.737 69.8056 104.614 67.573C105.173 66.058 105.89 64.3835 106.847 62.5496C107.565 61.1143 108.203 59.8385 108.761 58.8019L108.522 57.9248C108.123 58.6424 107.724 59.2803 107.405 59.9182C106.767 60.9548 106.129 62.3103 105.332 63.9051C104.375 65.8188 103.658 67.4933 103.099 69.0083Z" fill="#1A1F35"/>
<path d="M121.838 46.6818H123.353V40.7015H102.861V42.1368H121.838V46.6818Z" fill="#1A1F35"/>
<path d="M16.0271 83.6001C15.0702 85.2746 14.0337 86.6301 12.9971 87.8261C14.5918 86.5503 16.1068 84.7164 17.6218 82.1648C18.4192 80.8093 19.1368 79.2943 19.7747 77.7793L19.376 76.2643C18.4989 78.8956 17.3826 81.3675 16.0271 83.6001Z" fill="#1A1F35"/>
<path d="M21.0504 83.0419H19.2164V84.4772H21.4491L21.0504 83.0419Z" fill="#1A1F35"/>
<path d="M27.9074 46.6818H29.4225V40.7015H8.93005V42.1368H27.9074V46.6818Z" fill="#1A1F35"/>
<path d="M9.16951 69.0083C8.29241 71.3206 7.81401 73.3937 7.65454 75.148V76.5833C7.73428 77.2212 7.89373 77.6198 8.13294 77.859C8.29242 78.0185 8.61135 78.178 9.16951 78.178C9.88715 78.178 10.6845 77.5401 11.4819 76.5035C11.2427 76.663 10.9237 76.7427 10.6845 76.7427C10.1264 76.7427 9.80744 76.5833 9.64796 76.4238C9.40875 76.2644 9.24925 75.7859 9.16951 75.148V73.7128C9.32899 71.8788 9.80743 69.8056 10.6845 67.573C11.2427 66.058 11.9603 64.3835 12.9172 62.5496C13.6348 61.1143 14.2727 59.8385 14.8309 58.8019L14.5917 57.9248C14.193 58.6424 13.7943 59.2803 13.4753 59.9182C12.8374 60.9548 12.1996 62.3103 11.4022 63.9051C10.4453 65.8188 9.72767 67.4933 9.16951 69.0083Z" fill="#1A1F35"/>
<path d="M74.155 55.1339C73.9157 51.7849 72.4007 48.5955 69.7694 45.8047C66.6597 42.4558 62.7526 40.7015 58.2076 40.7015C54.5397 40.7015 51.2705 41.1002 48.6391 41.8976C46.3268 42.6152 44.6523 43.572 43.7752 44.8478C44.6523 44.2099 45.7686 43.7316 47.1242 43.3329C49.7555 42.5355 52.945 42.1368 56.6926 42.1368C61.2376 42.1368 65.1447 43.891 68.2544 47.2399C70.8858 50.0307 72.321 53.2203 72.64 56.5692C72.7197 57.845 72.8792 59.5991 73.0387 61.9913C73.1981 64.3834 73.2779 66.4566 73.2779 68.2108V71.9584V72.0382C73.1981 72.995 73.1184 73.7923 73.0387 74.2708C72.8792 76.025 72.7197 77.6197 72.4805 78.8955C72.1615 80.8092 71.7628 82.4836 71.3642 83.9189C70.9655 85.2744 70.4074 86.3908 69.61 87.3476C71.2047 86.2313 72.321 84.6366 72.8792 82.4837C73.2779 81.0484 73.6766 79.3739 73.9955 77.4602C74.155 76.5831 74.2347 75.6263 74.3942 74.51C74.155 72.5166 74.3144 56.33 74.155 55.1339Z" fill="#1A1F35"/>
<path d="M33.4093 84.4771H41.383V83.0418H34.9243L25.9938 48.1171H24.0801L33.4093 84.4771Z" fill="#1A1F35"/>
<path d="M60.6797 82.9621C60.4405 83.0418 60.2811 83.0418 60.1216 83.0418H54.859V58.2436C54.859 52.9012 55.0982 50.6686 55.2576 49.7915C55.4171 49.0739 55.5766 48.5955 55.736 48.1968C55.0982 48.2765 54.2211 48.8346 53.6629 51.2267C53.5034 52.1836 53.2642 54.3365 53.2642 59.6789V84.4771H58.5268C59.085 84.4771 59.9621 84.4771 60.6797 82.9621Z" fill="#1A1F35"/>
<path d="M100.548 23.3987C100.309 23.1595 99.9101 23 99.2722 23C98.9532 23 98.6343 23 98.3951 23.0797C98.714 23.1595 99.033 23.2392 99.1925 23.3987C99.4317 23.6379 99.5114 23.877 99.5114 24.1162C99.5114 24.3554 99.5114 24.5947 99.4317 24.7542C99.3519 24.9136 99.2722 25.0731 99.1127 25.3123L89.3848 37.3526C89.0659 37.5919 88.7469 37.7513 88.428 37.7513C88.5077 37.7513 88.5874 37.7513 88.6672 37.7513H89.7835C90.1025 37.7513 90.5011 37.5918 90.8201 37.2728L100.548 25.2326C100.707 24.9934 100.787 24.8339 100.867 24.6745C100.947 24.515 100.947 24.2757 100.947 24.0365C100.947 23.9568 100.787 23.7176 100.548 23.3987Z" fill="#1A1F35"/>
<path d="M89.5449 67.7323C89.5449 67.7323 89.7841 86.3907 89.4652 87.507C89.4652 87.507 89.3057 89.9788 87.9502 91.8925C88.1894 91.7331 88.4286 91.5736 88.6678 91.3344C90.741 89.341 90.9004 86.0718 90.9004 86.0718C91.1396 84.9555 90.9802 66.297 90.9802 66.297V48.7549H89.5449V67.7323Z" fill="#1A1F35"/>
</svg>
