<svg width="192" height="115" viewBox="0 0 192 115" fill="none" xmlns="http://www.w3.org/2000/svg">
<path d="M174.77 93.7207H20.2397C14.965 93.7207 10.7321 90.2693 8.97388 84.5387C7.47611 79.7849 6.17375 70.2774 6.17375 70.2122L5.91326 67.8679C5.32717 63.2444 4.74106 58.4906 4.41546 53.7368L4.28525 52.1739C4.02477 48.8528 3.69918 45.4014 4.54575 42.0803C5.78303 37.1963 10.081 33.5495 17.6349 30.9447C22.9097 29.1214 28.9008 27.8189 35.8035 26.9072C40.6875 26.256 45.7017 25.6699 50.6509 25.2141C58.4653 24.4327 66.41 23.8466 74.2896 23.4559C76.8944 23.3256 84.5135 23.1954 90.5697 23.1303C93.6303 23.0652 96.3003 23.0651 97.6027 23C98.9702 23 101.705 23.0652 104.766 23.1303C110.822 23.1954 118.376 23.3256 120.981 23.4559C128.795 23.8466 136.74 24.4327 144.62 25.2141C149.504 25.6699 154.453 26.256 159.467 26.9072C166.37 27.8189 172.296 29.1214 177.636 30.9447C185.189 33.4844 189.487 37.1311 190.725 42.0803C191.571 45.4665 191.246 48.9831 190.985 52.4344L190.855 53.802C190.464 58.5557 189.878 63.3746 189.357 67.9981L189.097 70.2774C189.097 70.3425 187.729 79.85 186.297 84.6038C184.278 90.3344 180.045 93.7207 174.77 93.7207ZM97.4724 24.8885C96.17 24.8885 93.5001 24.9536 90.4395 25.0187C84.3833 25.0838 76.8293 25.2141 74.2245 25.3443C66.4101 25.735 58.4654 26.3212 50.7161 27.0375C45.7669 27.4934 40.8177 28.0794 35.9337 28.7306C29.1612 29.6423 23.3004 30.8796 18.0907 32.7029C11.188 35.0473 7.2808 38.2382 6.17375 42.5361C5.39231 45.5316 5.71788 48.8528 5.97836 52.0437L6.10865 53.6717C6.49937 58.3603 7.08541 63.1142 7.60637 67.7377L7.86687 70.082C7.86687 70.1472 9.23436 79.5245 10.6019 84.0829C12.1648 89.0972 15.6162 91.9625 20.1095 91.9625H174.64C179.133 91.9625 182.65 89.0972 184.148 84.0829C185.58 79.5245 186.883 70.1472 186.883 70.082L187.143 67.8028C187.729 63.1793 188.315 58.4254 188.641 53.6717L188.771 52.3042C189.032 49.0481 189.357 45.6619 188.576 42.6012C187.469 38.3684 183.627 35.1124 176.724 32.7681C171.514 31.0098 165.653 29.7074 158.881 28.7957C153.932 28.1445 148.983 27.5585 144.099 27.1026C136.284 26.3212 128.339 25.735 120.59 25.3443C117.985 25.2141 110.497 25.149 104.44 25.0187C101.51 24.9536 98.7748 24.9536 97.4724 24.8885Z" fill="#1A1F35"/>
<path d="M55.665 44.4244H48.632C48.0459 44.4244 47.4598 44.6198 47.004 45.0756C46.5482 45.4664 46.2877 46.0525 46.2877 46.6385V56.7973C46.2877 56.9275 46.2225 57.0578 46.0923 57.188C45.9621 57.3182 45.8318 57.3183 45.7016 57.3183H37.4964C37.3662 57.3183 37.236 57.2531 37.1057 57.188C36.9755 57.0578 36.9103 56.9275 36.9103 56.7973V46.6385C36.9103 46.0525 36.6499 45.4664 36.194 45.0756C35.7382 44.6849 35.1521 44.4244 34.566 44.4244H27.6633C27.0772 44.4244 26.4911 44.6198 26.0353 45.0756C25.5794 45.4664 25.319 46.0525 25.319 46.6385V77.1148C25.319 77.7009 25.5794 78.287 26.0353 78.6777C26.4911 79.0684 27.0772 79.3289 27.6633 79.3289H34.566C35.1521 79.3289 35.7382 79.1336 36.194 78.6777C36.6499 78.287 36.9103 77.7009 36.9103 77.1148V67.4771C36.9103 67.3468 36.9755 67.2166 37.1057 67.0863C37.236 66.9561 37.3662 66.9561 37.4964 66.9561H45.7016C45.8318 66.9561 45.9621 67.0212 46.0923 67.0863C46.2225 67.2166 46.2877 67.3468 46.2877 67.4771V77.1148C46.2877 77.7009 46.5482 78.287 47.004 78.6777C47.4598 79.0684 48.0459 79.3289 48.632 79.3289H55.5999C56.186 79.3289 56.7721 79.1336 57.2279 78.6777C57.6838 78.287 57.9442 77.7009 57.9442 77.1148V46.6385C57.9442 46.0525 57.6838 45.4664 57.2279 45.0756C56.7721 44.6849 56.2511 44.4244 55.665 44.4244Z" fill="#1A1F35"/>
<path d="M85.8806 69.6912H74.745C74.6147 69.6912 74.4845 69.626 74.3543 69.5609C74.224 69.4306 74.159 69.3004 74.159 69.1702V46.6385C74.159 46.0525 73.8984 45.4664 73.4426 45.0756C72.9867 44.6849 72.4006 44.4244 71.8146 44.4244H64.9118C64.3257 44.4244 63.7397 44.6198 63.2838 45.0756C62.828 45.4664 62.5675 46.0525 62.5675 46.6385V77.1148C62.5675 77.7009 62.828 78.287 63.2838 78.6777C63.7397 79.0684 64.3257 79.3289 64.9118 79.3289H85.8806C86.4667 79.3289 87.0528 79.1336 87.5086 78.6777C87.9645 78.287 88.2249 77.7009 88.2249 77.1148V71.9052C88.2249 71.3191 87.9645 70.7331 87.5086 70.3424C87.0528 69.8865 86.4667 69.6912 85.8806 69.6912Z" fill="#1A1F35"/>
<path d="M101.965 44.4244H94.737C94.1509 44.4244 93.5649 44.6198 93.109 45.0756C92.6532 45.4664 92.3927 46.0525 92.3927 46.6385V77.1148C92.3927 77.7009 92.6532 78.287 93.109 78.6777C93.5649 79.0684 94.1509 79.3289 94.737 79.3289H101.965C102.551 79.3289 103.138 79.1336 103.593 78.6777C104.049 78.287 104.31 77.7009 104.31 77.1148V46.6385C104.31 46.0525 104.049 45.4664 103.593 45.0756C103.138 44.6198 102.551 44.4244 101.965 44.4244Z" fill="#1A1F35"/>
<path d="M168.779 47.8759C167.281 46.4433 165.523 45.4013 163.504 44.7501C161.485 44.0989 159.336 43.7733 157.187 43.7733C155.038 43.7733 152.955 44.0989 150.936 44.7501C148.852 45.4013 146.898 46.4433 145.27 47.8759C143.512 49.4388 142.079 51.3273 141.103 53.4763C139.996 55.7555 139.475 58.6208 139.475 61.9419C139.475 67.8679 140.972 72.296 143.903 75.3567C146.898 78.4173 151.001 79.9151 156.276 79.9151C158.685 79.9151 161.095 79.5243 163.309 78.7429C165.392 78.0266 167.216 76.8544 168.779 75.3567C170.342 73.7938 171.514 71.8402 172.295 69.7563C173.142 67.4771 173.533 64.8723 173.533 61.9419C173.533 58.6208 173.077 55.8206 172.23 53.4763C171.579 51.3924 170.342 49.4388 168.779 47.8759ZM161.616 65.3932C161.485 66.37 161.225 67.3469 160.834 68.2585C160.509 69.04 159.988 69.7563 159.271 70.2773C158.555 70.7982 157.643 71.0588 156.797 70.9936C155.755 71.0588 154.778 70.7331 153.996 70.0819C153.28 69.4307 152.694 68.6493 152.368 67.8027C151.978 66.8259 151.717 65.784 151.587 64.6769C151.457 63.635 151.392 62.5279 151.392 61.486C151.392 60.379 151.522 59.337 151.652 58.23C151.782 57.2532 152.108 56.3415 152.499 55.495C152.889 54.7135 153.41 54.0623 154.062 53.6065C154.778 53.0855 155.624 52.825 156.471 52.8902C157.448 52.825 158.49 53.1507 159.271 53.8019C159.988 54.4531 160.574 55.2345 160.899 56.0811C161.29 57.0579 161.55 58.0998 161.681 59.1417C161.811 60.1185 161.876 61.1604 161.876 62.1372C161.876 63.1791 161.811 64.2862 161.616 65.3932Z" fill="#1A1F35"/>
<path d="M132.181 60.7045C132.116 60.6394 131.986 60.6394 131.921 60.5091C131.856 60.444 131.79 60.3138 131.79 60.2487C131.79 60.1836 131.79 60.0533 131.856 59.9882C131.921 59.9231 131.986 59.7928 132.051 59.7928C132.897 59.1416 133.679 58.3602 134.265 57.4485C135.112 56.2112 135.763 54.3878 135.763 52.6947C135.828 51.3272 135.437 50.0248 134.721 48.8527C134.07 47.7456 133.093 46.8339 131.986 46.2478C130.814 45.5315 129.511 45.0756 128.209 44.8803C126.776 44.6198 125.278 44.4244 123.781 44.4896H111.408C110.822 44.4896 110.236 44.6849 109.78 45.1408C109.324 45.5315 109.063 46.1176 109.063 46.7037V77.18C109.063 77.7661 109.324 78.3521 109.78 78.7428C110.236 79.1335 110.822 79.394 111.408 79.394H122.804C127.883 79.394 130.879 78.4172 133.549 76.4636C136.284 74.51 137.586 72.1006 137.586 68.5841C137.521 66.6956 136.935 64.9373 135.763 63.4396C135.046 62.2674 133.809 61.3557 132.181 60.7045ZM125.93 68.2585C125.93 69.4306 125.604 70.3424 125.018 70.9936C124.367 71.6448 122.804 71.9704 121.306 71.9704H119.483C119.418 71.9704 119.287 71.9703 119.222 71.9052C119.157 71.9052 119.092 71.8401 119.027 71.775C118.962 71.7099 118.897 71.6447 118.897 71.5796C118.832 71.5145 118.832 71.3843 118.832 71.3192V65.6537C118.832 65.5885 118.832 65.4583 118.897 65.3932C118.962 65.328 118.962 65.263 119.027 65.1978C119.092 65.1327 119.157 65.0676 119.222 65.0676C119.287 65.0676 119.418 65.0025 119.483 65.0025H121.306C122.608 65.0025 124.171 65.2629 124.888 65.7188C125.213 65.9792 125.539 66.3049 125.669 66.7608C125.865 67.1515 125.93 67.6073 125.93 68.0632V68.2585ZM124.953 56.9927C124.302 57.6439 122.739 57.9695 121.241 57.9695H119.418C119.353 57.9695 119.222 57.9694 119.157 57.9043C119.092 57.9043 119.027 57.8392 118.962 57.7741C118.897 57.709 118.832 57.6438 118.832 57.5787C118.766 57.5136 118.766 57.3834 118.766 57.3183V51.6528C118.766 51.5877 118.766 51.4574 118.832 51.3923C118.897 51.3272 118.897 51.2621 118.962 51.197C119.027 51.1319 119.092 51.0667 119.157 51.0667C119.222 51.0667 119.353 51.0016 119.418 51.0016H121.241C122.543 51.0016 124.106 51.262 124.823 51.7179C125.539 52.1737 125.864 53.0203 125.864 54.1925C125.93 55.4298 125.604 56.3415 124.953 56.9927Z" fill="#1A1F35"/>
</svg>
