<svg width="125" height="115" viewBox="0 0 125 115" fill="none" xmlns="http://www.w3.org/2000/svg">
<mask id="mask0_2370_15832" style="mask-type:luminance" maskUnits="userSpaceOnUse" x="0" y="6" width="126" height="105">
<path d="M125 6.00012H0.000488281V110.119H125V6.00012Z" fill="white"/>
</mask>
<g mask="url(#mask0_2370_15832)">
<path d="M60.8607 71.4217C54.5893 71.3504 48.3179 71.3504 42.1178 71.6355C45.2535 74.6999 47.8903 78.1919 51.2398 81.0425C54.7318 78.1206 58.0813 74.9849 60.8607 71.4217Z" fill="#1A1F35"/>
</g>
<mask id="mask1_2370_15832" style="mask-type:luminance" maskUnits="userSpaceOnUse" x="0" y="6" width="126" height="105">
<path d="M125 6.00012H0.000488281V110.119H125V6.00012Z" fill="white"/>
</mask>
<g mask="url(#mask1_2370_15832)">
<path d="M47.1064 58.38C46.5363 59.5915 46.0374 60.8031 45.4673 62.0146C47.3915 61.1595 49.2443 62.2284 51.5961 64.0813C55.8008 67.3595 56.7985 61.2306 60.9319 61.2306C62.7848 61.2306 64.6377 61.7295 66.063 62.941C66.7757 63.5824 67.4171 64.4377 68.2723 64.9365C68.8424 65.2216 70.2677 63.1549 70.7666 62.7273C73.9736 60.0905 76.6816 61.3019 79.5323 63.2974C78.8196 61.7295 78.107 60.1617 77.3943 58.5939C67.3458 58.3801 57.1548 57.311 47.1064 58.38Z" fill="#1A1F35"/>
</g>
<mask id="mask2_2370_15832" style="mask-type:luminance" maskUnits="userSpaceOnUse" x="0" y="6" width="126" height="105">
<path d="M125 6.00012H0.000488281V110.119H125V6.00012Z" fill="white"/>
</mask>
<g mask="url(#mask2_2370_15832)">
<path d="M55.4449 44.127C56.7277 46.1937 57.7967 48.4029 59.0082 50.5408C59.9347 52.0374 60.8611 53.6052 62.0726 54.8168C62.2864 55.0306 62.5002 55.3156 62.7853 55.5294C65.4221 51.8236 67.275 47.9753 69.8406 44.2695C65.4934 46.55 59.9347 46.1224 55.4449 44.127Z" fill="#1A1F35"/>
</g>
<mask id="mask3_2370_15832" style="mask-type:luminance" maskUnits="userSpaceOnUse" x="0" y="6" width="126" height="105">
<path d="M125 6.00012H0.000488281V110.119H125V6.00012Z" fill="white"/>
</mask>
<g mask="url(#mask3_2370_15832)">
<path d="M78.962 65.7917C77.8218 64.9365 76.3965 63.5825 75.0424 63.1549C73.2608 62.5848 72.1205 64.5089 71.1228 65.4354C70.1964 66.2906 69.2699 66.7894 67.9871 66.8607C64.994 67.0032 62.856 60.9456 59.5778 63.6537C57.6536 65.2216 56.3708 67.2883 53.6627 67.3596C52.4512 67.3596 51.0971 66.7894 50.1707 66.0768C48.6028 64.8653 47.2488 62.4423 45.1821 64.9366C44.897 65.2929 43.828 66.5043 43.4005 66.5756C43.1867 67.0745 43.4717 66.5044 43.2579 67.0033C42.7591 68.0723 42.2602 69.1412 41.7614 70.2815C41.9039 70.2815 41.9751 70.2102 42.1177 70.2102C55.7294 69.5688 69.3412 70.139 82.8817 70.2102C82.169 68.7136 81.9552 67.9297 81.2425 66.5044C80.6011 66.6469 79.3896 66.148 78.962 65.7917Z" fill="#1A1F35"/>
</g>
<mask id="mask4_2370_15832" style="mask-type:luminance" maskUnits="userSpaceOnUse" x="0" y="6" width="126" height="105">
<path d="M125 6.00012H0.000488281V110.119H125V6.00012Z" fill="white"/>
</mask>
<g mask="url(#mask4_2370_15832)">
<path d="M81.7423 71.6357C76.1123 71.6357 70.4823 71.4931 64.8523 71.4219C67.9167 74.6288 70.9812 77.8358 74.2594 80.9002C77.11 78.1209 79.1054 74.6289 81.7423 71.6357Z" fill="#1A1F35"/>
</g>
<mask id="mask5_2370_15832" style="mask-type:luminance" maskUnits="userSpaceOnUse" x="0" y="6" width="126" height="105">
<path d="M125 6.00012H0.000488281V110.119H125V6.00012Z" fill="white"/>
</mask>
<g mask="url(#mask5_2370_15832)">
<path d="M49.7436 83.0381C46.109 80.1875 43.4009 76.5529 40.1227 73.2747C38.7687 76.1253 37.3434 78.9759 35.8468 81.7553C35.7755 82.1116 35.7755 82.1116 35.8468 82.3967C35.9893 82.8243 36.4881 82.8955 36.4881 82.8955C37.1295 82.8955 37.6997 82.8955 38.3411 82.9668C39.8377 82.9668 41.4055 83.0381 42.9021 83.0381C45.1826 83.0381 47.4631 83.0381 49.7436 83.0381ZM40.8354 81.3277C40.1227 81.3277 39.4101 81.0427 39.4101 80.2587C39.4813 78.4058 42.9733 77.8357 43.0446 79.8312C43.1159 80.1162 42.9733 80.5438 42.7595 80.7576C42.0469 81.3989 41.6906 81.399 40.8354 81.3277Z" fill="#1A1F35"/>
</g>
<mask id="mask6_2370_15832" style="mask-type:luminance" maskUnits="userSpaceOnUse" x="0" y="6" width="126" height="105">
<path d="M125 6.00012H0.000488281V110.119H125V6.00012Z" fill="white"/>
</mask>
<g mask="url(#mask6_2370_15832)">
<path d="M72.8335 83.038C69.2703 79.7598 65.9208 76.2678 62.5713 72.7758C59.5069 76.6241 55.8011 79.9736 51.8815 83.038C58.8655 83.1093 65.9208 83.1805 72.9761 83.1093C72.9048 83.1805 72.8335 83.1093 72.8335 83.038ZM64.2104 80.2587C63.8541 81.1851 63.0702 81.3276 62.1437 81.3276C61.431 81.3276 60.7184 80.9713 60.7184 80.1874C60.7184 78.9759 61.7161 78.2632 62.9276 78.2632C63.8541 78.1919 64.3529 78.8333 64.4242 79.6885C64.2817 79.9023 64.2104 80.0449 64.2104 80.2587Z" fill="#1A1F35"/>
</g>
<mask id="mask7_2370_15832" style="mask-type:luminance" maskUnits="userSpaceOnUse" x="0" y="6" width="126" height="105">
<path d="M125 6.00012H0.000488281V110.119H125V6.00012Z" fill="white"/>
</mask>
<g mask="url(#mask7_2370_15832)">
<path d="M88.8689 82.6816C89.0827 82.3965 88.9402 82.1827 88.9402 82.0402C87.1585 78.9045 85.4481 75.6975 83.8803 72.4193C80.8159 75.9113 78.5354 79.9735 74.9008 83.0379C74.8296 83.0379 74.8296 83.1092 74.7583 83.1092C79.3193 83.1092 83.8803 83.0379 88.37 82.8953C88.5126 82.8953 88.7264 82.9666 88.8689 82.6816ZM85.0918 80.116C84.7355 80.8999 83.9516 81.185 83.0964 81.1137C82.3837 81.1137 81.7423 80.8286 81.7423 80.0447C81.8136 78.2631 85.0918 77.693 85.1631 79.6171C85.1631 79.9022 85.0918 80.0447 85.0918 80.116Z" fill="#1A1F35"/>
</g>
<mask id="mask8_2370_15832" style="mask-type:luminance" maskUnits="userSpaceOnUse" x="0" y="6" width="126" height="105">
<path d="M125 6.00012H0.000488281V110.119H125V6.00012Z" fill="white"/>
</mask>
<g mask="url(#mask8_2370_15832)">
<path d="M105.759 34.007C105.759 34.007 105.331 33.7219 104.832 33.3656C105.83 32.5817 105.046 30.5863 103.621 31.1564C103.621 30.8713 103.621 30.5862 103.621 30.3012C103.621 30.1587 103.621 29.5885 103.621 29.446C103.549 29.0184 103.193 28.6621 102.623 28.8759C100.485 29.7311 98.9885 32.2966 96.4229 31.869C93.4297 31.3702 93.4297 27.3793 92.5745 25.2413C91.6481 23.0321 88.94 22.3194 87.4434 24.1011C85.9468 23.8873 84.5928 24.0298 83.8089 25.5977C83.5951 26.0253 83.7376 26.7379 84.3077 26.8092C86.3032 27.2368 85.9468 31.0138 86.3032 32.6529C86.802 34.8622 88.1561 36.5726 89.9377 37.8554C90.009 37.9266 90.1515 37.9979 90.2228 38.0692C87.3009 37.9266 84.1652 38.568 82.3836 39.2807C77.8226 41.2049 74.5443 45.1957 73.3328 49.6855C72.6914 48.3314 72.05 46.9774 71.3374 45.6233C70.1971 47.405 69.1994 49.3291 68.0591 51.1108C67.0614 52.7499 65.9924 55.0304 64.4958 56.4557C68.558 56.5982 72.6201 56.7407 76.611 56.8833C76.4685 56.5982 76.326 56.3132 76.1834 56.0281V55.9569C74.5443 48.1176 79.7467 38.9956 88.7975 39.8508C92.5033 40.2071 95.924 42.1313 94.9263 46.1222C94.2849 48.759 89.8664 49.6854 89.0113 46.9061C88.7975 46.3359 89.0112 45.4095 89.4388 44.9819C90.1515 44.3405 89.6526 44.6969 89.9377 45.0532C90.1515 45.3382 90.5078 45.9084 91.5056 45.7658C92.3607 45.6233 92.7171 44.4118 92.3608 44.1267C90.0803 41.6324 84.7353 45.7659 86.802 48.474C90.2228 52.8924 97.5631 49.1866 97.5631 44.0554C97.5631 42.4876 96.4229 40.706 95.4964 39.8508C99.0597 39.8508 103.264 38.2117 105.901 35.6461C106.543 35.2185 106.329 34.3633 105.759 34.007ZM89.5101 27.5931C88.2273 27.5931 88.2273 25.5977 89.5101 25.5977C90.7929 25.5977 90.7929 27.5931 89.5101 27.5931Z" fill="#1A1F35"/>
</g>
<mask id="mask9_2370_15832" style="mask-type:luminance" maskUnits="userSpaceOnUse" x="0" y="6" width="126" height="105">
<path d="M125 6.00012H0.000488281V110.119H125V6.00012Z" fill="white"/>
</mask>
<g mask="url(#mask9_2370_15832)">
<path d="M37.629 48.5454C39.6958 45.8373 34.2795 41.7039 32.0703 44.1982C31.7852 44.5545 32.0703 45.6947 32.9255 45.8373C33.9232 45.9798 34.2795 45.4097 34.4933 45.1246C34.7784 44.7683 34.2796 44.412 34.9922 45.0534C35.4198 45.4097 35.6336 46.4074 35.4198 46.9775C34.5646 49.6856 30.1461 48.7592 29.5047 46.1936C28.507 42.2027 31.9278 40.2786 35.6336 39.9222C44.3993 39.067 49.6017 47.6902 48.3189 55.3869C48.1051 55.8858 47.82 56.3846 47.6062 56.8122C49.1028 56.6697 48.604 56.6696 50.1005 56.5984C52.6661 56.4558 57.2984 56.3134 59.9352 56.3846C57.2271 54.0329 54.5903 48.5454 53.0224 45.6235C52.381 46.9063 51.7396 48.2604 51.0982 49.5431C49.8867 45.1247 46.6085 41.2763 42.0475 39.3521C40.2658 38.5682 37.2014 37.9981 34.2083 38.1406C34.2795 38.0693 34.4221 37.9981 34.4933 37.9268C36.275 36.5728 37.629 34.9337 38.1279 32.7244C38.4842 31.0853 38.1279 27.3082 40.1233 26.8806C40.6935 26.7381 40.836 26.0967 40.6222 25.6691C39.8382 24.1013 38.4842 24.03 36.9876 24.1725C35.4911 22.3909 32.783 23.0323 31.8565 25.3128C31.0013 27.3795 31.0013 31.4416 28.0082 31.9405C25.4426 32.3681 23.946 29.8738 21.8081 28.9473C21.3092 28.7335 20.8816 29.0899 20.8103 29.5175C20.8103 29.66 20.8103 30.2301 20.8103 30.3727C20.8103 30.5865 20.8103 30.8715 20.8103 31.1566C19.385 30.5864 18.6011 32.5819 19.5988 33.3658C19.0999 33.7221 18.6724 34.0072 18.6724 34.0072C18.1022 34.3635 17.8884 35.1475 18.4586 35.7176C21.0954 38.2831 24.9437 39.9222 28.507 39.9222C27.5806 40.7774 26.8679 42.9154 26.8679 44.4833C26.9392 49.6144 34.2796 52.9639 37.629 48.5454ZM34.9922 25.5978C36.275 25.5978 36.275 27.5933 34.9922 27.5933C33.7094 27.5933 33.7807 25.5978 34.9922 25.5978Z" fill="#1A1F35"/>
</g>
<mask id="mask10_2370_15832" style="mask-type:luminance" maskUnits="userSpaceOnUse" x="0" y="6" width="126" height="105">
<path d="M125 6.00012H0.000488281V110.119H125V6.00012Z" fill="white"/>
</mask>
<g mask="url(#mask10_2370_15832)">
<path d="M68.6286 9.34935C68.8424 9.06428 68.9136 8.70793 68.8423 8.20907C68.5573 6.71249 66.2768 6.64123 65.8492 7.99528C65.8492 7.99528 65.7066 8.28035 65.7066 8.49415C65.6354 9.91946 67.8446 10.3471 68.6286 9.34935Z" fill="#1A1F35"/>
</g>
<mask id="mask11_2370_15832" style="mask-type:luminance" maskUnits="userSpaceOnUse" x="0" y="6" width="126" height="105">
<path d="M125 6.00012H0.000488281V110.119H125V6.00012Z" fill="white"/>
</mask>
<g mask="url(#mask11_2370_15832)">
<path d="M72.477 11.2024C72.6908 10.9886 72.8333 10.6322 72.9046 10.2046C72.9758 8.7793 71.0517 8.35172 70.4103 9.42071C70.4103 9.42071 70.2677 9.70575 70.1964 9.84829C69.7689 11.1311 71.6218 11.9863 72.477 11.2024Z" fill="#1A1F35"/>
</g>
<mask id="mask12_2370_15832" style="mask-type:luminance" maskUnits="userSpaceOnUse" x="0" y="6" width="126" height="105">
<path d="M125 6.00012H0.000488281V110.119H125V6.00012Z" fill="white"/>
</mask>
<g mask="url(#mask12_2370_15832)">
<path d="M58.9369 8.56535C58.9369 8.35156 58.8657 7.99524 58.8657 7.99524C58.5094 6.64119 56.3001 6.71246 55.9438 8.13778C55.8012 8.63664 55.8725 8.99295 56.0863 9.27801C56.6564 10.347 58.8657 9.9194 58.9369 8.56535Z" fill="#1A1F35"/>
</g>
<mask id="mask13_2370_15832" style="mask-type:luminance" maskUnits="userSpaceOnUse" x="0" y="6" width="126" height="105">
<path d="M125 6.00012H0.000488281V110.119H125V6.00012Z" fill="white"/>
</mask>
<g mask="url(#mask13_2370_15832)">
<path d="M54.5182 9.77698C54.4469 9.56319 54.3044 9.34941 54.3044 9.34941C53.5917 8.28042 51.525 8.99305 51.6675 10.3471C51.7388 10.7747 51.8814 11.131 52.0952 11.2735C53.0216 11.9862 54.9458 10.9885 54.5182 9.77698Z" fill="#1A1F35"/>
</g>
<mask id="mask14_2370_15832" style="mask-type:luminance" maskUnits="userSpaceOnUse" x="0" y="6" width="126" height="105">
<path d="M125 6.00012H0.000488281V110.119H125V6.00012Z" fill="white"/>
</mask>
<g mask="url(#mask14_2370_15832)">
<path d="M63.9251 8.20892C63.9964 7.85259 64.0677 7.42501 63.8539 6.92615C63.2125 5.3583 60.7894 5.85715 60.5756 7.35373C60.5756 7.35373 60.5044 7.71009 60.5756 7.92389C60.8607 9.49173 63.4975 9.7055 63.9251 8.20892Z" fill="#1A1F35"/>
</g>
<mask id="mask15_2370_15832" style="mask-type:luminance" maskUnits="userSpaceOnUse" x="0" y="6" width="126" height="105">
<path d="M125 6.00012H0.000488281V110.119H125V6.00012Z" fill="white"/>
</mask>
<g mask="url(#mask15_2370_15832)">
<path d="M49.0312 15.6918C48.2473 13.9814 45.5392 14.2665 45.6817 16.2619C45.753 17.4021 46.6082 16.6182 46.6794 16.9033C47.107 18.6849 44.3989 18.1148 43.9001 17.1884C43.2587 16.0481 43.4012 15.3354 43.7575 14.4802C44.2564 13.1975 46.1093 12.271 47.3208 12.4136C51.0979 12.8412 50.9554 16.4757 50.7416 19.6114C50.7416 19.6114 50.5278 22.0344 50.5278 22.462C50.4565 23.2459 50.4565 23.9586 50.5278 24.6713C50.4565 26.1679 52.1669 33.8645 58.1532 35.8599C57.1555 37.7129 55.8014 40.421 55.1601 41.7037C55.3026 41.7037 55.4451 41.775 55.5164 41.8463C59.3647 44.6256 65.6361 45.1245 69.627 41.9888C68.9143 40.5635 67.8453 37.9267 66.9901 35.9312C72.6914 33.9358 74.4018 26.2391 74.3305 24.7425C74.4018 24.0299 74.4018 23.3172 74.3305 22.5333C74.3305 22.1057 74.1167 19.6827 74.1167 19.6827C73.9029 16.6183 73.7604 12.9124 77.5375 12.4848C78.749 12.3423 80.5307 13.34 81.1008 14.5515C81.4571 15.4067 81.5996 16.1194 80.9582 17.2596C80.4594 18.1148 77.7513 18.7562 78.1789 16.9745C78.2501 16.6895 79.0341 17.4734 79.1766 16.3332C79.3191 14.409 76.611 14.124 75.8271 15.7631C74.4018 19.8252 79.818 20.8942 81.9559 18.8275C84.379 16.4757 82.8111 12.4135 79.9605 11.6296C76.8248 10.7744 72.5489 11.7722 72.1926 16.9745C72.1926 17.2596 72.1926 17.4734 72.1926 17.6872C64.9947 13.2687 58.7234 14.0527 52.5945 17.5447C52.5945 17.4022 52.5945 17.1883 52.5945 16.9745C52.2382 11.7722 47.891 10.7744 44.8265 11.6296C41.9759 12.4135 40.4081 16.4757 42.8311 18.8275C44.9691 20.8229 50.4565 19.7539 49.0312 15.6918ZM57.4406 41.6325C56.4428 41.6325 56.4428 40.0646 57.4406 40.0646C58.4383 40.0646 58.4383 41.6325 57.4406 41.6325ZM59.9349 42.5589C58.9371 42.5589 58.9371 40.9911 59.9349 40.9911C60.9326 40.9198 60.9326 42.5589 59.9349 42.5589ZM62.5717 42.9865C61.574 42.9865 61.574 41.4187 62.5717 41.4187C63.5694 41.3474 63.5694 42.9865 62.5717 42.9865ZM65.351 42.844C64.3533 42.844 64.3533 41.2762 65.351 41.2762C66.3488 41.2762 66.3488 42.844 65.351 42.844ZM67.6315 40.421C68.6293 40.421 68.6293 41.9888 67.6315 41.9888C66.6338 42.0601 66.6338 40.421 67.6315 40.421ZM62.7855 33.8645C62.7142 33.8645 62.5717 33.8645 62.4292 33.8645C62.2866 33.8645 62.1441 33.8645 62.0728 33.8645C57.7256 33.6507 53.5209 31.6553 52.737 24.6C53.0933 22.462 58.2957 20.6804 62.2866 20.7517C66.8476 20.8229 71.5512 21.8206 72.1926 24.6713C71.3374 31.6553 67.1327 33.6507 62.7855 33.8645ZM70.981 18.8275C72.4776 18.8275 72.4776 21.1792 70.981 21.1792C69.4132 21.2505 69.4132 18.8275 70.981 18.8275ZM67.0614 17.5447C68.6293 17.5447 68.6293 19.8965 67.0614 19.8965C65.4936 19.8965 65.5649 17.5447 67.0614 17.5447ZM62.2866 16.7608C63.997 16.7608 63.997 19.4688 62.2866 19.4688C60.5762 19.4688 60.5762 16.7608 62.2866 16.7608ZM57.5118 17.616C59.0084 17.616 59.0084 19.9677 57.5118 19.9677C55.944 20.039 55.944 17.616 57.5118 17.616ZM53.3784 18.97C54.875 18.97 54.875 21.3218 53.3784 21.3218C51.8106 21.3218 51.8106 18.97 53.3784 18.97Z" fill="#1A1F35"/>
</g>
<mask id="mask16_2370_15832" style="mask-type:luminance" maskUnits="userSpaceOnUse" x="0" y="6" width="126" height="105">
<path d="M125 6.00012H0.000488281V110.119H125V6.00012Z" fill="white"/>
</mask>
<g mask="url(#mask16_2370_15832)">
<path d="M70.696 12.7701C70.1971 12.5563 66.8477 10.7747 62.2154 10.846C57.7257 10.9172 53.9486 12.8414 53.9486 12.8414C52.5945 13.3402 52.8083 15.6208 54.8038 14.7656C55.5164 14.4805 58.082 12.8414 62.4292 12.8414C67.204 12.9126 68.7718 14.0529 70.3397 14.6943C71.6225 15.3357 72.7627 13.5541 70.696 12.7701Z" fill="#1A1F35"/>
</g>
<mask id="mask17_2370_15832" style="mask-type:luminance" maskUnits="userSpaceOnUse" x="0" y="6" width="126" height="105">
<path d="M125 6.00012H0.000488281V110.119H125V6.00012Z" fill="white"/>
</mask>
<g mask="url(#mask17_2370_15832)">
<path d="M9.90654 95.866C9.83528 95.7947 9.83529 95.6521 9.83529 95.6521C9.83529 95.2958 11.6169 94.2269 11.8307 91.9464C11.6882 89.0245 8.90884 87.8842 6.27201 87.8842C4.49037 87.8842 2.70872 88.383 1.4972 89.3095C1.21214 89.5233 1.06958 89.9509 1.06958 90.236C1.06958 90.8773 1.56845 91.59 2.28111 91.59C2.63744 91.59 2.92251 91.4474 3.1363 91.1624C3.7777 90.4497 5.27427 89.8084 6.55705 89.8084C7.34097 89.8084 7.91111 90.0221 8.26744 90.4497C8.90883 91.1624 9.12264 91.6612 9.12264 92.1601C9.12264 92.8728 8.62376 93.5854 7.76857 94.3693C7.26971 94.8682 6.91338 95.3671 6.91338 95.9372C6.91338 96.7211 7.48353 97.2912 8.05365 97.9326C9.47897 99.2866 10.0491 99.7143 10.1916 100.926C10.1916 100.997 10.1916 101.14 10.1916 101.211C10.1916 102.636 8.40997 103.634 6.4858 103.634C4.84669 103.634 2.99377 102.992 2.42365 101.496C2.20985 100.997 1.78224 100.855 1.42591 100.855C0.78452 100.855 -0.426988 101.353 -0.213191 102.351C0.713263 105.202 3.56391 105.701 5.77314 105.701C6.12947 105.701 6.4858 105.701 6.84213 105.629C9.76402 105.416 12.6859 103.705 12.6859 100.498C12.8285 97.9327 11.2606 97.2913 9.90654 95.866Z" fill="#1A1F35"/>
</g>
<mask id="mask18_2370_15832" style="mask-type:luminance" maskUnits="userSpaceOnUse" x="0" y="6" width="126" height="105">
<path d="M125 6.00012H0.000488281V110.119H125V6.00012Z" fill="white"/>
</mask>
<g mask="url(#mask18_2370_15832)">
<path d="M24.3729 102.422C24.1591 102.422 23.9453 102.493 23.7315 102.565C22.8763 102.992 21.9499 103.206 21.0947 103.206C19.8832 103.206 18.8855 102.778 18.2441 101.709C19.9544 101.139 21.8074 100.498 23.3752 99.5715C24.2304 99.0727 24.7292 98.5026 24.7292 97.6474C24.7292 97.3623 24.6579 97.006 24.5867 96.6497C24.0878 95.0105 22.52 94.2979 20.8096 94.2979C17.0325 94.2979 15.3934 97.7186 15.3934 100.641C15.3934 103.919 17.7452 105.344 20.4533 105.344C21.8073 105.344 23.0901 105.059 24.2304 104.489C24.7292 104.204 25.0855 103.705 25.0855 103.206C25.1568 102.921 24.943 102.422 24.3729 102.422ZM20.382 96.5071C20.7384 96.5071 21.0947 96.5783 21.5936 96.8634C21.9499 97.0772 22.4487 97.7186 22.4487 98.075C22.4487 98.1462 22.4487 98.1462 22.3775 98.1462C21.7361 98.5738 20.9522 98.8589 20.1682 99.144C19.3843 99.429 18.6717 99.714 17.8877 99.9991C18.0303 98.2175 19.028 96.5071 20.382 96.5071Z" fill="#1A1F35"/>
</g>
<mask id="mask19_2370_15832" style="mask-type:luminance" maskUnits="userSpaceOnUse" x="0" y="6" width="126" height="105">
<path d="M125 6.00012H0.000488281V110.119H125V6.00012Z" fill="white"/>
</mask>
<g mask="url(#mask19_2370_15832)">
<path d="M33.7088 94.3693C28.7915 94.3693 27.6512 98.859 27.6512 102.921C27.6512 105.344 28.0076 107.696 28.3639 109.335C28.4352 109.834 28.934 110.048 29.2903 110.048C29.9317 110.048 30.9294 109.549 30.9294 108.694C30.9294 108.622 30.9294 108.551 30.9294 108.48C30.7157 107.411 30.5019 106.199 30.3593 104.988C33.2812 104.346 35.7755 102.707 36.9158 99.928C37.2008 99.2866 37.3434 98.6452 37.3434 97.9325C37.2721 96.0796 36.2031 94.3693 33.7088 94.3693ZM34.7065 99.2154C34.2077 101.282 32.426 102.565 30.2168 102.992C30.2168 102.921 30.2168 102.779 30.2168 102.636C30.2168 100.926 30.4306 99.2866 30.9294 97.8613C31.2858 96.8636 31.9272 96.5786 32.5686 96.5786C33.5663 96.5786 34.7065 97.4337 34.7065 98.6452C34.7065 98.859 34.7065 99.0016 34.7065 99.2154Z" fill="#1A1F35"/>
</g>
<mask id="mask20_2370_15832" style="mask-type:luminance" maskUnits="userSpaceOnUse" x="0" y="6" width="126" height="105">
<path d="M125 6.00012H0.000488281V110.119H125V6.00012Z" fill="white"/>
</mask>
<g mask="url(#mask20_2370_15832)">
<path d="M51.2408 103.349C51.027 103.349 50.8132 103.349 50.5994 103.349C50.5281 103.349 50.3856 103.349 50.1718 103.277C50.1718 103.135 50.1718 102.921 50.1718 102.707C50.1718 102.422 50.1718 102.208 50.1718 101.995C50.1718 101.567 50.1718 101.139 50.1718 100.783C50.1718 98.9302 50.3856 97.006 50.3856 95.0818C50.3856 94.5117 49.8867 94.2267 49.4591 94.2267C48.889 94.2267 47.9625 94.6542 47.8913 95.4382C47.82 96.5072 47.7487 97.5049 47.7487 98.7165H43.4728C43.5441 98.1463 43.5441 97.4336 43.5441 96.8635C43.5441 96.7209 43.6153 96.3647 43.6153 96.0083C43.6153 95.652 43.6153 95.0818 43.259 94.7255C42.9027 94.3692 42.3326 94.2979 41.8337 94.2979C41.3348 94.2979 40.836 94.3692 40.6222 94.3692C39.9095 94.3692 39.1256 95.0819 39.1256 95.7232C39.1256 96.2221 39.5532 96.4359 40.0521 96.5072C40.4084 96.5072 40.7647 96.5072 41.121 96.5072C41.121 96.6497 41.121 96.8635 41.121 97.0773C41.121 97.5762 41.0498 98.1463 41.0498 98.7165C40.9785 99.9992 40.9073 101.282 40.9073 102.636C40.9073 103.349 40.9785 104.061 41.0498 104.774C41.1211 105.273 41.5487 105.487 41.905 105.487C42.5464 105.487 43.4728 104.988 43.4728 104.204C43.4728 103.42 43.3303 102.636 43.3303 101.995C43.3303 101.638 43.3303 101.353 43.3303 100.997H47.6775C47.6775 101.211 47.6775 101.496 47.6775 101.71C47.6775 102.28 47.6775 102.85 47.7487 103.42C47.82 105.273 48.6752 105.629 50.1005 105.629C50.3143 105.629 50.5281 105.629 50.7419 105.629C51.4546 105.629 52.2385 104.845 52.2385 104.204C52.096 103.634 51.6684 103.349 51.2408 103.349Z" fill="#1A1F35"/>
</g>
<mask id="mask21_2370_15832" style="mask-type:luminance" maskUnits="userSpaceOnUse" x="0" y="6" width="126" height="105">
<path d="M125 6.00012H0.000488281V110.119H125V6.00012Z" fill="white"/>
</mask>
<g mask="url(#mask21_2370_15832)">
<path d="M75.399 96.9347C75.7553 96.5071 76.0404 95.8657 76.0404 95.2955C76.0404 94.6541 75.7553 94.0128 75.1139 93.4426C74.2587 92.73 73.1185 92.3737 72.0495 92.3737C70.3391 92.3737 68.5575 93.1576 67.9874 94.868C67.5598 96.0795 67.4172 97.5048 67.4172 98.8588C67.4172 100.07 67.4885 101.211 67.631 102.208C67.8448 103.99 68.7713 105.415 70.7667 105.415C70.9805 105.415 71.1943 105.415 71.4794 105.344C73.8312 105.059 75.8266 103.705 76.9668 101.852C77.3944 101.211 77.6082 100.569 77.6082 99.9278C77.537 98.645 76.6105 97.6473 75.399 96.9347ZM70.2679 95.153C70.3391 94.7254 70.6242 94.5116 71.1943 94.5116C72.2633 94.5116 73.4035 95.153 73.4035 95.6519C73.4035 96.3645 71.6219 97.5048 69.9115 98.2174C69.9828 97.291 70.1253 96.222 70.2679 95.153ZM74.1875 101.923C73.4748 102.636 72.4058 103.206 71.4081 103.206C71.1943 103.206 70.9805 103.206 70.7667 103.135C70.1253 102.992 69.9115 101.709 69.9115 100.355C70.838 99.9278 72.1207 99.3577 73.4035 98.5737C74.0449 98.8588 74.6151 99.2864 74.9714 99.8566C75.0426 99.9991 75.1139 100.142 75.1139 100.355C75.1139 100.783 74.6151 101.424 74.1875 101.923Z" fill="#1A1F35"/>
</g>
<mask id="mask22_2370_15832" style="mask-type:luminance" maskUnits="userSpaceOnUse" x="0" y="6" width="126" height="105">
<path d="M125 6.00012H0.000488281V110.119H125V6.00012Z" fill="white"/>
</mask>
<g mask="url(#mask22_2370_15832)">
<path d="M91.7908 103.42C91.577 103.42 91.3632 103.42 91.1494 103.42C91.0782 103.42 90.9356 103.42 90.7218 103.349C90.7218 103.206 90.6505 102.992 90.6505 102.778C90.6505 102.493 90.6505 102.28 90.6505 102.066C90.6505 101.638 90.6505 101.211 90.6505 100.854C90.6505 99.0014 90.8643 97.0773 90.8643 95.1531C90.8643 94.583 90.3655 94.2979 89.9379 94.2979C89.3678 94.2979 88.8689 94.5829 88.5839 95.0105C87.016 97.0772 85.4482 99.144 83.8803 101.282C83.9516 99.9279 84.0941 98.36 84.0941 96.9347C84.0941 96.7209 84.0941 96.4358 84.0941 96.0795C84.0941 95.6519 84.0941 95.1531 83.7378 94.7968C83.3814 94.3692 82.8113 94.3691 82.3125 94.3691C81.8136 94.3691 81.3148 94.4404 81.101 94.4404C80.3883 94.4404 79.6044 95.153 79.6044 95.7944C79.6044 96.2933 80.032 96.5071 80.5308 96.5784C80.8871 96.5784 81.2435 96.5784 81.5998 96.5784C81.5998 96.7209 81.5998 96.9347 81.5998 97.1485C81.5998 97.6473 81.5286 98.2175 81.5286 98.7876C81.4573 99.9991 81.386 101.353 81.386 102.707C81.386 103.42 81.4573 104.133 81.5286 104.774C81.5998 105.273 82.0274 105.487 82.3837 105.487C82.9539 105.487 83.5952 105.13 83.8803 104.56C85.3056 102.707 86.731 100.783 88.2275 98.8589C88.2275 99.7141 88.1563 100.64 88.1563 101.496C88.1563 102.137 88.1563 102.779 88.2275 103.42C88.2988 105.273 89.154 105.7 90.5793 105.7C90.7931 105.7 91.0069 105.7 91.2207 105.7C91.9333 105.7 92.7173 104.916 92.7173 104.275C92.646 103.705 92.2184 103.42 91.7908 103.42Z" fill="#1A1F35"/>
</g>
<mask id="mask23_2370_15832" style="mask-type:luminance" maskUnits="userSpaceOnUse" x="0" y="6" width="126" height="105">
<path d="M125 6.00012H0.000488281V110.119H125V6.00012Z" fill="white"/>
</mask>
<g mask="url(#mask23_2370_15832)">
<path d="M104.831 94.2979H96.1371C95.4244 94.2979 94.6405 94.868 94.6405 95.7232C94.6405 96.3646 94.6405 97.006 94.6405 97.6474C94.6405 98.1462 95.0681 98.4313 95.4244 98.4313C96.0658 98.4313 96.9923 97.8612 96.9923 97.006C96.9923 96.7922 96.9923 96.6496 96.9923 96.4358H98.7739C98.7739 96.7921 98.8452 97.2911 98.8452 97.6474C98.8452 99.2865 98.7026 100.926 98.7026 102.565C98.7026 103.277 98.7026 103.99 98.8452 104.631C98.9164 105.201 99.4865 105.344 99.7716 105.344C100.128 105.344 100.484 105.344 100.841 105.344C100.983 105.344 101.197 105.344 101.339 105.344C102.123 105.344 102.907 104.56 102.907 103.919C102.907 103.42 102.48 103.135 101.981 103.135H101.696C101.553 103.135 101.482 103.135 101.268 103.135C101.268 102.707 101.197 102.208 101.197 101.781C101.197 100.213 101.339 98.6451 101.339 97.0772C101.339 96.8634 101.339 96.6496 101.339 96.3646H103.335C103.335 96.6496 103.335 97.1485 103.335 97.5048C103.335 98.1462 103.834 98.4313 104.261 98.4313C104.831 98.4313 105.687 98.0036 105.687 97.2197C105.687 96.5783 105.758 95.8657 105.758 95.2243C105.758 94.7967 105.402 94.2979 104.831 94.2979Z" fill="#1A1F35"/>
</g>
<mask id="mask24_2370_15832" style="mask-type:luminance" maskUnits="userSpaceOnUse" x="0" y="6" width="126" height="105">
<path d="M125 6.00012H0.000488281V110.119H125V6.00012Z" fill="white"/>
</mask>
<g mask="url(#mask24_2370_15832)">
<path d="M124.074 103.064C123.576 103.064 123.219 103.135 122.934 103.135C122.578 103.135 122.578 103.135 122.507 102.921C121.438 99.5004 120.511 96.0085 119.086 92.659C118.088 90.3785 116.378 87.1002 113.385 87.1002C112.886 87.1002 110.605 87.314 110.605 88.668C110.605 89.2382 111.104 89.5945 111.674 89.5945C112.173 89.5945 112.672 89.2382 113.028 89.2382C113.527 89.2382 114.026 89.5233 114.667 90.2359C112.244 94.4406 109.75 99.643 108.325 104.275C108.325 104.346 108.253 104.489 108.253 104.56C108.253 105.13 108.824 105.344 109.109 105.344C109.536 105.344 109.964 105.202 110.32 104.917C110.676 104.774 118.587 101.425 119.228 101.425C119.228 101.425 119.228 101.425 119.3 101.425C119.585 102.28 119.87 103.206 120.155 104.061C120.511 105.202 121.651 105.344 122.507 105.344C122.863 105.344 123.219 105.344 123.504 105.344C124.288 105.344 125.072 104.56 125.072 103.848C125.001 103.349 124.502 103.064 124.074 103.064ZM111.888 101.353C113.028 98.3602 114.525 95.2245 116.093 92.3026C117.304 94.7969 118.231 98.1464 118.587 99.0729C118.658 99.2154 118.658 99.2867 118.729 99.4292C116.449 99.7855 113.741 100.356 111.888 101.353Z" fill="#1A1F35"/>
</g>
<mask id="mask25_2370_15832" style="mask-type:luminance" maskUnits="userSpaceOnUse" x="0" y="6" width="126" height="105">
<path d="M125 6.00012H0.000488281V110.119H125V6.00012Z" fill="white"/>
</mask>
<g mask="url(#mask25_2370_15832)">
<path d="M60.0768 94.4406C59.6492 94.3693 58.5089 94.298 57.5112 94.5831C54.8031 95.2957 53.6628 97.7901 53.6628 100.142C53.6628 100.926 53.8054 101.71 54.0192 102.422C54.6606 104.418 56.3709 105.487 58.3664 105.487C59.3641 105.487 60.2905 105.202 61.217 104.703C63.0699 103.491 63.9251 101.353 63.9251 99.2866C63.9251 96.5072 62.3573 94.7969 60.0768 94.4406ZM60.5756 102.565C60.148 103.135 59.5779 103.349 59.0078 103.349C58.0813 103.349 57.0836 102.779 56.5847 101.923C56.2284 101.353 56.0146 100.498 56.0146 99.7142C56.0146 98.4314 56.4422 97.2912 57.5112 96.7923C58.1526 96.3647 59.5779 96.5785 60.0768 97.0061C60.8607 97.6475 61.4308 98.6452 61.4308 99.928C61.502 100.854 61.1457 101.781 60.5756 102.565Z" fill="#1A1F35"/>
</g>
<mask id="mask26_2370_15832" style="mask-type:luminance" maskUnits="userSpaceOnUse" x="0" y="6" width="126" height="105">
<path d="M125 6.00012H0.000488281V110.119H125V6.00012Z" fill="white"/>
</mask>
<g mask="url(#mask26_2370_15832)">
<path d="M58.8655 98.1462C58.2953 98.0037 57.654 99.0014 57.5827 99.5003C57.4402 100.213 57.4401 100.783 58.0815 101.211C58.1528 101.282 58.2953 101.353 58.4378 101.353C59.008 101.496 59.5781 101.211 59.7207 100.498C59.8632 99.6429 59.7919 98.2888 58.8655 98.1462Z" fill="#1A1F35"/>
</g>
</svg>
