<svg width="126" height="115" viewBox="0 0 126 115" fill="none" xmlns="http://www.w3.org/2000/svg">
<mask id="mask0_2370_15829" style="mask-type:luminance" maskUnits="userSpaceOnUse" x="-1" y="12" width="127" height="93">
<path d="M125.234 12H-0.000488281V104.024H125.234V12Z" fill="white"/>
</mask>
<g mask="url(#mask0_2370_15829)">
<path d="M13.5829 74.821V79.1676H4.88981V85.8232H13.1075V90.1697H4.88981V103.345H0V75.8398V74.821H1.01872H13.5829Z" fill="#1A1F35"/>
</g>
<mask id="mask1_2370_15829" style="mask-type:luminance" maskUnits="userSpaceOnUse" x="-1" y="12" width="127" height="93">
<path d="M125.234 12H-0.000488281V104.024H125.234V12Z" fill="white"/>
</mask>
<g mask="url(#mask1_2370_15829)">
<path d="M20.5097 74.821H15.6199V103.345H20.5097V74.821Z" fill="#1A1F35"/>
</g>
<mask id="mask2_2370_15829" style="mask-type:luminance" maskUnits="userSpaceOnUse" x="-1" y="12" width="127" height="93">
<path d="M125.234 12H-0.000488281V104.024H125.234V12Z" fill="white"/>
</mask>
<g mask="url(#mask2_2370_15829)">
<path d="M33.8204 84.8042V83.5138C33.8204 79.9143 33.0054 78.6919 30.9001 78.6919C28.7947 78.6919 27.9118 79.9143 27.9118 83.5138V94.7876C27.9118 98.5229 28.7947 99.7454 30.8322 99.7454C32.8017 99.7454 33.7525 98.455 33.7525 94.7876V92.3427H38.6423V94.4481C38.6423 99.6096 36.9445 104.024 30.8322 104.024C24.3803 104.024 22.8182 99.5416 22.8182 94.516V84.125C22.8182 77.4694 25.5348 74.3453 30.9001 74.3453C35.9258 74.3453 38.6423 77.4694 38.6423 82.6989V84.8042H33.8204Z" fill="#1A1F35"/>
</g>
<mask id="mask3_2370_15829" style="mask-type:luminance" maskUnits="userSpaceOnUse" x="-1" y="12" width="127" height="93">
<path d="M125.234 12H-0.000488281V104.024H125.234V12Z" fill="white"/>
</mask>
<g mask="url(#mask3_2370_15829)">
<path d="M45.9104 83.4459V95.1272C45.9104 98.1154 46.997 99.7454 49.3061 99.7454C51.4115 99.7454 52.6339 98.1834 52.6339 95.1272V83.5817C52.6339 80.5256 51.4794 78.6919 49.3061 78.6919C46.9291 78.6919 45.9104 80.3897 45.9104 83.4459ZM49.3061 74.3453C54.2639 74.3453 57.6596 76.8582 57.6596 84.125V94.4481C57.6596 101.715 54.3318 104.024 49.3061 104.024C44.4163 104.024 40.8847 101.647 40.8847 94.4481V84.125C40.8847 76.9261 44.3484 74.3453 49.3061 74.3453Z" fill="#1A1F35"/>
</g>
<mask id="mask4_2370_15829" style="mask-type:luminance" maskUnits="userSpaceOnUse" x="-1" y="12" width="127" height="93">
<path d="M125.234 12H-0.000488281V104.024H125.234V12Z" fill="white"/>
</mask>
<g mask="url(#mask4_2370_15829)">
<path d="M70.3585 83.8538V83.5142C70.3585 80.0506 69.204 78.6244 67.3024 78.6244C65.8762 78.6244 64.6537 79.4394 64.6537 81.0014C64.6537 82.6993 65.2649 83.5142 66.2836 84.2613L71.3093 87.9287C74.0259 89.9661 75.7238 91.664 75.7238 95.9426C75.7238 100.968 72.9392 103.957 67.7777 103.957C62.2766 103.957 59.4922 100.425 59.4922 94.5843V93.4977H64.1783V94.5843C64.1783 98.5913 65.8761 99.61 67.7777 99.61C69.6114 99.61 70.6981 98.1838 70.6981 96.418C70.6981 94.5843 69.8152 93.4297 67.9815 92.1394L63.635 88.9474C61.0542 87.1137 59.7639 84.6688 59.7639 81.6126C59.7639 76.9265 62.8879 74.21 67.4382 74.21C72.328 74.21 75.1125 77.1303 75.1125 82.8351V83.718H70.3585V83.8538Z" fill="#1A1F35"/>
</g>
<mask id="mask5_2370_15829" style="mask-type:luminance" maskUnits="userSpaceOnUse" x="-1" y="12" width="127" height="93">
<path d="M125.234 12H-0.000488281V104.024H125.234V12Z" fill="white"/>
</mask>
<g mask="url(#mask5_2370_15829)">
<path d="M82.4477 83.4459V95.1272C82.4477 98.1154 83.5344 99.7454 85.8434 99.7454C87.9488 99.7454 89.1712 98.1834 89.1712 95.1272V83.5817C89.1712 80.5256 88.0167 78.6919 85.8434 78.6919C83.5344 78.6919 82.4477 80.3897 82.4477 83.4459ZM85.9113 74.3453C90.8691 74.3453 94.2648 76.8582 94.2648 84.125V94.4481C94.2648 101.715 90.937 104.024 85.9113 104.024C81.0215 104.024 77.4899 101.647 77.4899 94.4481V84.125C77.4899 76.9261 80.9536 74.3453 85.9113 74.3453Z" fill="#1A1F35"/>
</g>
<mask id="mask6_2370_15829" style="mask-type:luminance" maskUnits="userSpaceOnUse" x="-1" y="12" width="127" height="93">
<path d="M125.234 12H-0.000488281V104.024H125.234V12Z" fill="white"/>
</mask>
<g mask="url(#mask6_2370_15829)">
<path d="M104.656 103.345H99.7657V79.1676H94.8079V74.821H109.613V79.1676H104.656V103.345Z" fill="#1A1F35"/>
</g>
<mask id="mask7_2370_15829" style="mask-type:luminance" maskUnits="userSpaceOnUse" x="-1" y="12" width="127" height="93">
<path d="M125.234 12H-0.000488281V104.024H125.234V12Z" fill="white"/>
</mask>
<g mask="url(#mask7_2370_15829)">
<path d="M118.103 92.0713L116.133 78.4205L113.824 92.0713H118.103ZM112.873 74.821H119.461L125.234 103.345H119.937L118.714 96.2821H113.145L111.583 103.345H106.286L112.873 74.821Z" fill="#1A1F35"/>
</g>
<mask id="mask8_2370_15829" style="mask-type:luminance" maskUnits="userSpaceOnUse" x="-1" y="12" width="127" height="93">
<path d="M125.234 12H-0.000488281V104.024H125.234V12Z" fill="white"/>
</mask>
<g mask="url(#mask8_2370_15829)">
<path d="M89.5109 30.9484C84.2136 16.0751 67.9142 8.33288 53.0409 13.6302C38.1676 18.9275 30.4253 35.227 35.7227 50.0324C41.02 64.9056 57.3195 72.6479 72.1927 67.3506C86.9981 62.1212 94.8083 45.8217 89.5109 30.9484ZM56.3687 64.4982C56.0291 64.5661 55.6896 64.3623 55.2821 63.2757C54.3992 60.9666 52.7692 56.3484 52.158 50.9153C51.8863 48.2666 51.8863 45.2783 52.158 42.4259C53.5842 26.1944 63.0243 17.6372 65.4013 15.7355C64.1788 17.4334 64.2468 19.1992 64.4506 20.3537C64.5185 20.6933 64.6543 21.1008 64.7901 21.4404C64.858 21.5762 64.858 21.6441 64.858 21.6441C64.858 21.6441 64.858 17.9767 67.3708 16.8222C69.8837 15.5997 71.7853 18.1805 72.1248 19.4029C72.804 21.78 71.5136 24.2249 69.0687 26.6698C66.5559 29.5901 64.6543 30.7447 61.5302 35.1591C55.4858 43.6484 54.9425 52.6132 56.0291 59.9479C56.2329 61.1704 56.4366 62.3928 56.7083 63.5474C56.912 63.819 56.912 64.3623 56.3687 64.4982ZM75.181 37.5361C74.7735 40.6602 69.8837 42.358 66.6917 44.5992C61.666 48.1308 59.7644 53.4281 59.7644 53.4281C59.7644 53.4281 59.5607 53.8356 59.2211 53.6998C59.1532 53.6319 59.0174 53.5639 59.0174 53.2244C59.0174 52.1377 60.036 47.3158 62.6847 42.9693C66.7596 36.4495 71.242 34.8874 71.242 34.8874C72.5324 34.3441 73.7548 34.4799 74.3661 35.2949C74.7735 35.6345 75.3168 36.5174 75.181 37.5361Z" fill="#1A1F35"/>
</g>
</svg>
