<svg width="110" height="115" viewBox="0 0 110 115" fill="none" xmlns="http://www.w3.org/2000/svg">
<path d="M109.649 38.2984C109.35 38.7459 109.201 38.8951 109.052 39.0443C106.367 41.7296 103.682 44.4148 100.996 47.1001C100.4 47.6968 99.8028 47.9952 98.9077 47.9952C92.7912 47.9952 86.6747 47.9952 80.7075 47.9952C80.2599 47.9952 79.9615 47.9952 79.514 48.1444C79.514 48.4428 79.3648 48.7411 79.3648 48.8903C79.3648 55.0068 79.3648 60.9741 79.3648 67.0905C79.3648 68.5824 79.514 68.7316 81.0058 68.7316C84.437 68.7316 88.0174 68.7316 91.4486 68.5824C93.8355 68.5824 95.1781 66.3446 93.9847 64.4053C93.5371 63.5102 92.642 63.2118 91.7469 63.2118C88.9125 63.2118 86.078 63.2118 83.2435 63.2118C82.796 63.2118 82.3485 63.2118 81.9009 63.0626C81.9009 62.6151 81.7517 62.3167 81.7517 62.0184C81.7517 59.6314 81.7517 57.2445 81.7517 54.8576C81.7517 53.6641 81.9009 53.515 83.0944 53.515C87.1223 53.515 91.1502 53.515 95.1781 53.515C96.5208 53.515 97.5651 53.9625 98.6093 54.5592C100.996 56.0511 102.786 58.2888 103.532 61.1233C104.577 64.8528 104.427 68.5824 102.786 72.1627C101.444 74.9972 99.3552 76.7874 96.5208 77.8317C96.2224 77.9809 95.7749 77.9809 95.3273 77.9809C86.9731 77.9809 78.7681 77.9809 70.4139 77.9809C70.2647 77.9809 70.1155 77.9809 69.8171 77.8317C69.8171 77.3841 69.668 77.0858 69.668 76.6382C69.668 67.3889 69.668 57.9904 69.668 48.7411C69.668 47.9952 69.8172 47.3985 70.4139 46.9509C73.0992 44.2657 75.7844 41.7296 78.4697 39.0443C79.2156 38.2984 79.9615 38 80.8566 38C90.1059 38 99.5044 38 108.754 38C108.903 38.2984 109.052 38.2984 109.649 38.2984Z" fill="#1A1F35"/>
<path d="M0 77.9808C0 77.6824 0 77.3841 0 76.9365C0 73.3562 0 69.7758 0 66.1954C0 65.4495 0.298365 64.8528 0.745912 64.4052C9.39849 56.051 18.2002 47.846 26.8528 39.4918C27.5987 38.895 28.1955 38.5967 29.2397 38.5967C31.925 38.5967 34.6103 38.5967 37.4448 38.5967C37.4448 39.0442 37.594 39.4918 37.594 39.9393C37.594 47.2493 37.5939 54.41 37.7431 61.7199C37.7431 66.643 37.7431 71.7152 37.7431 76.6382C37.7431 76.9365 37.7431 77.2349 37.7431 77.3841C37.7431 78.2792 37.594 78.4284 36.6989 78.4284C34.9087 78.4284 32.9693 78.4284 31.1791 78.4284C30.284 78.4284 29.5381 78.4284 28.643 78.4284C27.7479 78.4284 27.5987 78.2792 27.5987 77.3841C27.5987 76.3398 27.5987 75.1463 27.5987 74.1021C27.5987 72.7594 27.4495 72.6102 26.1069 72.6102C21.1839 72.6102 16.2609 72.6102 11.3379 72.7594C11.0395 72.7594 10.8903 72.7594 10.4428 72.6102C10.5919 72.3119 10.7411 72.0135 10.8903 71.8643C13.5756 69.3282 16.2609 66.643 19.0953 64.1069C19.6921 63.5101 20.2888 63.2118 21.1839 63.3609C22.9741 63.3609 24.7643 63.3609 26.4053 63.3609C27.4496 63.3609 27.7479 63.0626 27.7479 62.0183C27.7479 59.333 27.7479 56.6477 27.7479 53.9625C27.7479 53.8133 27.7479 53.6641 27.5987 53.2165C27.1512 53.3657 26.8528 53.5149 26.5545 53.8133C18.6478 61.2724 10.5919 68.7315 2.68529 76.1906C1.93937 76.9365 1.19346 77.5333 0.447551 78.2792C0.149187 78.13 0 78.13 0 77.9808Z" fill="#1A1F35"/>
<path d="M39.9805 48.1443C39.9805 47.1001 39.9805 46.205 39.9805 45.3099C39.9805 43.5197 39.9805 41.7295 39.9805 40.0885C39.9805 38.7459 40.1297 38.7459 41.3231 38.7459C45.9478 38.7459 50.5724 38.7459 55.0479 38.7459C61.6119 38.7459 68.1759 38.5967 74.7399 38.5967C74.8891 38.5967 75.0383 38.5967 75.4859 38.7459C75.1875 39.0442 75.0383 39.3426 74.8891 39.641C72.2039 42.3262 69.5186 45.0115 66.8333 47.846C66.3857 48.2935 65.789 48.4427 65.1923 48.4427C63.7005 48.4427 62.2086 48.4427 60.7168 48.4427C59.0758 48.4427 59.0758 48.5919 59.0758 50.0837C59.0758 58.7363 59.225 67.538 59.225 76.3398C59.225 76.7874 59.225 77.0857 59.225 77.5333C59.225 78.4284 59.0758 78.5775 58.0315 78.7267C55.3463 78.7267 52.5118 78.7267 49.8265 78.7267C49.0806 78.7267 48.9314 78.5775 48.9314 77.6824C48.9314 75.1463 48.9314 72.6102 48.9314 70.0741C48.9314 63.3609 48.7822 56.7969 48.7822 50.0837C48.7822 48.7411 48.6331 48.5919 47.2904 48.5919C45.351 48.5919 43.4117 48.5919 41.4723 48.5919C40.8756 48.1443 40.5772 48.1443 39.9805 48.1443Z" fill="#1A1F35"/>
</svg>
