<svg width="124" height="115" viewBox="0 0 124 115" fill="none" xmlns="http://www.w3.org/2000/svg">
<path d="M66.0977 102.122C65.2845 102.122 64.4087 101.935 63.6581 101.497C60.4051 99.8076 53.8993 96.6798 46.7053 95.0533C34.8197 92.3634 26.0618 89.611 19.9313 86.5457C8.29592 80.7906 0.664063 68.467 0.0385024 54.4544C-0.899839 33.1854 15.4273 15.0441 36.5087 14.0432C51.2094 13.3551 64.6589 20.9244 71.7278 33.9361C76.9825 28.9941 83.9262 26.054 91.1827 25.7412C99.5027 25.3033 107.51 28.1809 113.64 33.8109C119.896 39.5035 123.587 47.3231 123.962 55.8932C124.4 65.089 121.022 73.7843 114.829 79.7896C106.384 87.8594 96.9379 90.7995 87.8047 93.552C85.8655 94.115 83.9888 94.7406 82.0495 95.3661C75.8565 97.4305 71.1648 99.9953 68.9128 101.371C67.9744 101.872 67.0361 102.122 66.0977 102.122ZM38.3854 15.7948C37.7598 15.7948 37.1968 15.7948 36.5713 15.8574C16.4908 16.8583 0.914299 34.1237 1.79008 54.4544C2.41565 67.8414 9.60958 79.602 20.682 85.0444C26.6874 88.0471 35.3201 90.737 47.0807 93.3644C54.4623 95.0534 61.1558 98.2437 64.4713 99.9953C65.5347 100.558 66.7859 100.558 67.8493 99.9328C70.1639 98.5565 74.9807 95.8666 81.3614 93.8022C83.3007 93.1767 85.2399 92.5511 87.1791 91.9881C96.5626 89.1105 105.383 86.4206 113.515 78.6011C119.396 72.971 122.523 64.7762 122.148 56.0809C121.773 48.0111 118.332 40.6296 112.452 35.2497C106.634 29.9325 99.1274 27.2425 91.2453 27.6179C84.4267 27.9306 77.8583 30.6831 72.7287 35.3748C72.3533 35.7502 71.8529 35.8753 71.3524 35.8128C70.852 35.7502 70.4141 35.4374 70.1639 34.937C63.7206 22.9262 51.6473 15.7948 38.3854 15.7948Z" fill="#1A1F35"/>
<path d="M76.7949 55.7056C74.7931 55.7056 73.0416 56.206 71.4777 57.332C71.3525 57.3945 71.1023 57.5822 70.8521 57.8325V53.4535C70.8521 51.8896 70.164 50.3883 69.038 49.3874C68.4124 48.887 67.6617 48.5742 66.9111 48.4491H66.8485C65.7851 48.2614 64.7841 49.1372 64.7841 50.2007V71.5948C64.7841 73.7217 65.7225 75.7861 67.4115 77.0998C69.1631 78.476 71.853 79.7896 75.8566 79.7896C79.7976 79.7896 82.1122 78.6636 83.9889 76.4116C85.9281 74.2221 86.8665 71.2195 86.8665 67.5287C86.8665 63.963 85.9281 61.1479 84.0514 58.8959C82.0496 56.8315 79.6725 55.7056 76.7949 55.7056ZM79.047 73.4715C78.1086 74.9103 76.8575 75.661 75.231 75.661H75.1685C72.7288 75.661 70.7895 73.5966 70.7895 71.157V64.6511C70.7895 62.2114 72.6037 60.0845 75.0434 59.8969C75.1685 59.8969 75.2936 59.8969 75.4187 59.8969C78.7342 59.8969 80.3606 62.5867 80.3606 67.904C80.4232 70.2186 79.9853 72.0953 79.047 73.4715Z" fill="#1A1F35"/>
<path d="M107.385 72.8461C104.883 74.6602 102.756 75.536 100.879 75.536C98.0016 75.536 96.25 73.9721 95.5619 70.8443C96.813 71.0945 98.0642 71.2196 99.1902 71.2196C102.756 71.2196 105.508 70.5315 107.51 69.2178C109.574 67.8416 110.575 65.8398 110.575 63.2124C110.575 61.0855 109.7 59.3339 107.885 57.8952C106.071 56.4564 103.694 55.7057 100.879 55.7057C97.4386 55.7057 94.6236 56.8317 92.4341 59.1463C90.1821 61.4608 89.0561 64.401 89.0561 68.0918C89.0561 71.595 90.1195 74.4725 92.2465 76.5369C94.3734 78.7264 97.1884 79.7898 100.692 79.7898C104.57 79.7898 107.573 78.7264 109.825 76.4744C110.763 75.536 110.826 74.4725 109.95 73.4716C109.137 72.4707 108.198 72.2205 107.385 72.8461ZM97.1884 61.7111C98.1893 60.4599 99.4404 59.8344 101.004 59.8344C102.193 59.8344 103.069 60.1472 103.757 60.7102C104.445 61.2732 104.82 62.0864 104.82 63.0873C104.82 65.5896 102.881 66.8407 99.0025 66.8407C97.8765 66.8407 96.6879 66.7156 95.4368 66.4654C95.6245 64.4636 96.25 62.8996 97.1884 61.7111Z" fill="#1A1F35"/>
<path d="M28.3139 55.7056C26.3121 55.7056 24.5605 56.206 22.9966 57.332C22.8715 57.3945 22.6213 57.5822 22.371 57.8325V53.4535C22.371 51.8896 21.6829 50.3883 20.5569 49.3874C19.9314 48.887 19.1807 48.5742 18.43 48.4491H18.3675C17.304 48.2614 16.3031 49.1372 16.3031 50.2007V71.5948C16.3031 73.7217 17.2414 75.7861 18.9305 77.0998C20.682 78.476 23.3719 79.7896 27.3755 79.7896C31.3166 79.7896 33.6311 78.6636 35.5078 76.4116C37.4471 74.2221 38.3854 71.2195 38.3854 67.5287C38.3854 63.963 37.4471 61.1479 35.5704 58.8959C33.5686 56.8315 31.1915 55.7056 28.3139 55.7056ZM30.5659 73.4715C29.6276 74.9103 28.3764 75.661 26.75 75.661H26.6874C24.2477 75.661 22.3085 73.5966 22.3085 71.157V64.6511C22.3085 62.2114 24.1226 60.0845 26.5623 59.8969C26.6874 59.8969 26.8125 59.8969 26.9376 59.8969C30.2531 59.8969 31.8796 62.5867 31.8796 67.904C31.9421 70.2186 31.5042 72.0953 30.5659 73.4715Z" fill="#1A1F35"/>
<path d="M58.904 72.8461C56.4018 74.6602 54.2749 75.536 52.3982 75.536C49.5206 75.536 47.769 73.9721 47.0809 70.8443C48.332 71.0945 49.5831 71.2196 50.7091 71.2196C54.2748 71.2196 57.0273 70.5315 59.0291 69.2178C61.0935 67.8416 62.0944 65.8398 62.0944 63.2124C62.0944 61.0855 61.2186 59.3339 59.4045 57.8952C57.5903 56.4564 55.2132 55.7057 52.3982 55.7057C48.9576 55.7057 46.1426 56.8317 43.9531 59.1463C41.7011 61.4608 40.5751 64.401 40.5751 68.0918C40.5751 71.595 41.6385 74.4725 43.7654 76.5369C45.8923 78.7264 48.7074 79.7898 52.2105 79.7898C56.089 79.7898 59.0917 78.7264 61.3437 76.4744C62.282 75.536 62.3446 74.4725 61.4688 73.4716C60.593 72.4707 59.7172 72.2205 58.904 72.8461ZM48.7074 61.7111C49.7083 60.4599 50.9594 59.8344 52.5233 59.8344C53.7119 59.8344 54.5876 60.1472 55.2758 60.7102C55.9639 61.2732 56.3392 62.0864 56.3392 63.0873C56.3392 65.5896 54.4 66.8407 50.5215 66.8407C49.3955 66.8407 48.2069 66.7156 46.9558 66.4654C47.1435 64.4636 47.769 62.8996 48.7074 61.7111Z" fill="#1A1F35"/>
<path d="M22.8095 34.4989H27.4387V48.3864C27.4387 48.5741 27.5638 48.8242 27.9391 48.8868C28.2519 49.0119 28.6272 49.0745 29.1277 49.0745C29.6281 49.0745 30.0035 49.0119 30.3162 48.8868C30.6916 48.7617 30.8167 48.5741 30.8167 48.3864V34.4989H35.571C35.8212 34.4989 36.0714 34.3738 36.1965 34.1861C36.3216 33.9985 36.3842 33.6857 36.3842 33.3729C36.3842 33.0602 36.3216 32.8099 36.1965 32.5597C36.0714 32.3095 35.8212 32.1843 35.571 32.2469H22.8095C22.5593 32.2469 22.3091 32.372 22.184 32.5597C22.0588 32.7473 21.9963 33.0602 21.9963 33.3729C21.9963 33.6857 22.0588 33.9359 22.184 34.1861C22.3091 34.4363 22.4967 34.4989 22.8095 34.4989Z" fill="#1A1F35"/>
<path d="M45.767 45.9469C45.204 45.3839 44.7036 45.2588 44.2031 45.6341C42.7643 46.5725 41.5132 47.0729 40.3872 47.0729C38.6982 47.0729 37.6973 46.2597 37.3219 44.5707C38.0726 44.6958 38.7607 44.7583 39.4488 44.7583C41.5132 44.7583 43.1397 44.383 44.2657 43.6949C45.4542 42.9442 46.0798 41.8808 46.0798 40.5045C46.0798 39.3785 45.5793 38.4402 44.5159 37.6895C43.4524 36.9388 42.0762 36.5635 40.4497 36.5635C38.4479 36.5635 36.8215 37.1891 35.5704 38.3776C34.2567 39.6287 33.6311 41.1926 33.6311 43.0693C33.6311 44.946 34.2567 46.4473 35.5078 47.5733C36.7589 48.6993 38.3854 49.3249 40.3872 49.3249C42.6392 49.3249 44.3908 48.7619 45.7045 47.5733C46.2675 47.0729 46.33 46.5099 45.767 45.9469ZM38.3228 39.7538C38.8858 39.1283 39.6365 38.7529 40.5123 38.7529C41.2004 38.7529 41.7009 38.8781 42.1388 39.2534C42.5767 39.6288 42.7643 40.0041 42.7643 40.5045C42.7643 41.8182 41.6383 42.5063 39.3863 42.5063C38.7607 42.5063 38.0101 42.4437 37.3219 42.3186C37.4471 41.1926 37.7598 40.3794 38.3228 39.7538Z" fill="#1A1F35"/>
<path d="M49.5829 47.5107C50.8966 48.6993 52.523 49.2623 54.4623 49.2623C56.4641 49.2623 58.0906 48.6993 59.3417 47.5107C60.5928 46.3221 61.2184 44.6957 61.2184 42.6939C61.2184 40.8172 60.5928 39.2533 59.3417 38.1273C58.0906 37.0013 56.4641 36.5009 54.5248 36.5009C52.5856 36.5009 50.8966 37.0638 49.5829 38.1898C48.2692 39.3158 47.5811 40.8172 47.5811 42.6939C47.6437 44.7583 48.2692 46.3221 49.5829 47.5107ZM52.0852 39.8163C52.7107 39.0656 53.5239 38.6903 54.4623 38.6903C55.4006 38.6903 56.2139 39.0656 56.8394 39.8163C57.465 40.567 57.7152 41.5679 57.7152 42.8815C57.7152 44.1327 57.4024 45.1961 56.8394 45.9468C56.2139 46.76 55.4006 47.1354 54.4623 47.1354C53.5239 47.1354 52.7107 46.76 52.0852 45.9468C51.4596 45.1961 51.2094 44.1952 51.2094 42.8815C51.2094 41.693 51.5222 40.6295 52.0852 39.8163Z" fill="#1A1F35"/>
</svg>
