<svg width="110" height="115" viewBox="0 0 110 115" fill="none" xmlns="http://www.w3.org/2000/svg">
<mask id="mask0_2370_15827" style="mask-type:luminance" maskUnits="userSpaceOnUse" x="0" y="1" width="110" height="114">
<path d="M109.284 1.00024H0V114.518H109.284V1.00024Z" fill="white"/>
</mask>
<g mask="url(#mask0_2370_15827)">
<path fill-rule="evenodd" clip-rule="evenodd" d="M81.616 1C63.8036 1.43801 45.8451 5.89113 27.6677 14.2863C28.3247 16.7684 28.9817 19.3235 29.7117 21.8055C45.3341 13.8483 61.9055 9.24922 79.645 8.4462C80.229 5.96413 80.886 3.48206 81.616 1Z" fill="#1A1F35"/>
</g>
<mask id="mask1_2370_15827" style="mask-type:luminance" maskUnits="userSpaceOnUse" x="0" y="1" width="110" height="114">
<path d="M109.284 1.00024H0V114.518H109.284V1.00024Z" fill="white"/>
</mask>
<g mask="url(#mask1_2370_15827)">
<path fill-rule="evenodd" clip-rule="evenodd" d="M78.0387 15.1625C60.2262 15.6005 49.495 19.3236 31.3905 27.7918L33.4345 35.311C49.0569 27.3538 58.4012 23.4117 76.0676 22.6087C76.6516 20.1266 77.3087 17.6445 78.0387 15.1625Z" fill="#1A1F35"/>
</g>
<mask id="mask2_2370_15827" style="mask-type:luminance" maskUnits="userSpaceOnUse" x="0" y="1" width="110" height="114">
<path d="M109.284 1.00024H0V114.518H109.284V1.00024Z" fill="white"/>
</mask>
<g mask="url(#mask2_2370_15827)">
<path fill-rule="evenodd" clip-rule="evenodd" d="M74.9727 28.4486C58.0363 30.2007 48.6191 34.2158 34.6757 41.2239L36.7198 48.7431C49.6411 42.0999 53.8752 38.6688 73.0017 35.8948C73.6587 33.4127 74.3157 30.9307 74.9727 28.4486Z" fill="#1A1F35"/>
</g>
<mask id="mask3_2370_15827" style="mask-type:luminance" maskUnits="userSpaceOnUse" x="0" y="1" width="110" height="114">
<path d="M109.284 1.00024H0V114.518H109.284V1.00024Z" fill="white"/>
</mask>
<g mask="url(#mask3_2370_15827)">
<path fill-rule="evenodd" clip-rule="evenodd" d="M71.1763 43.1218C61.0291 44.1439 54.4589 46.6259 47.8157 49.984H69.3513L71.1763 43.1218Z" fill="#1A1F35"/>
</g>
<mask id="mask4_2370_15827" style="mask-type:luminance" maskUnits="userSpaceOnUse" x="0" y="1" width="110" height="114">
<path d="M109.284 1.00024H0V114.518H109.284V1.00024Z" fill="white"/>
</mask>
<g mask="url(#mask4_2370_15827)">
<path d="M2.11662 85.0979H-0.000427246V107.801H2.11662V85.0979ZM7.22675 91.8871H5.54772V107.801H7.59176V95.9752C10.2198 94.0772 11.6069 93.2741 13.4319 93.2741C15.33 93.2741 16.279 94.1501 16.279 96.4132V107.874H18.25V96.1212C20.8051 94.2231 22.2651 93.3471 24.0902 93.3471C26.0612 93.3471 26.8642 94.2961 26.9372 96.4862V107.947H28.9813V95.9752C28.9813 93.1281 27.5213 91.5951 24.7472 91.5951C22.5571 91.5951 20.3671 92.6171 18.104 94.5882C17.666 92.6171 16.279 91.5951 14.0889 91.5951C11.8259 91.5951 9.70882 92.6171 7.37276 94.6611L7.22675 91.8871ZM33.6534 91.8871H31.9744V114.518H34.0184V109.7C34.0184 108.532 34.0184 107.656 33.9454 106.56C35.9895 107.656 38.0335 108.24 40.0776 108.24C44.1657 108.24 45.9907 106.049 45.9907 99.9173C45.9907 94.1501 44.3847 91.4491 40.3696 91.4491C38.1065 91.4491 35.6975 92.5441 33.7994 94.5152L33.6534 91.8871ZM34.0184 96.0482C36.3545 94.2231 38.0335 93.3471 39.8586 93.3471C42.7787 93.3471 43.8737 95.0262 43.8737 99.9173C43.8737 104.954 42.7056 106.414 39.6396 106.414C37.8145 106.414 36.2815 105.976 34.0184 105.246V96.0482ZM50.5168 84.7329H48.4728V104.224C48.4728 106.706 49.9328 108.021 52.1959 108.021C52.9259 108.021 54.3129 107.875 54.824 107.656L54.6049 106.049H52.9259C51.3929 106.049 50.5898 105.246 50.5898 103.713V84.7329H50.5168ZM55.335 93.7121C57.744 93.4201 60.5181 93.2741 62.4161 93.2741C65.0442 93.2741 65.7742 94.3692 65.7742 96.3402V98.0193H58.62C55.919 98.0193 54.4589 99.4063 54.4589 101.888V103.713C54.4589 106.487 56.211 108.021 58.985 108.021C61.9781 108.021 64.6792 106.268 65.9932 104.954L66.2852 107.728H67.9643V96.2672C67.9643 92.6171 66.1392 91.3761 62.8542 91.3761C60.1531 91.3761 57.379 91.7411 55.189 92.1061L55.335 93.7121ZM56.649 102.18C56.649 100.647 57.379 99.7713 59.0581 99.6983H65.8472V103.494C63.9492 105.173 61.3211 106.195 59.4231 106.195C57.525 106.195 56.649 105.319 56.649 103.494V102.18ZM72.6364 91.8871H70.8844V107.801H73.0014V96.0482C75.7025 94.2962 77.5275 93.2741 79.6446 93.2741C81.6156 93.2741 82.4186 94.1501 82.4186 96.4132V107.874H84.4627V95.9022C84.4627 93.0551 83.0026 91.5221 80.1556 91.5221C77.7465 91.5221 75.3375 92.6171 72.7824 94.5882L72.6364 91.8871ZM95.559 106.195H92.9309C91.3249 106.195 90.5949 105.538 90.5949 103.859V93.4931H95.997V91.8141H90.5949V86.9959H88.5508V91.8141L85.6307 91.9601V93.4201H88.5508V104.005C88.5508 106.56 89.8648 108.021 92.4929 108.021C93.1499 108.021 94.8289 107.875 95.851 107.656L95.559 106.195ZM104.611 101.085C106.144 101.377 107.239 101.815 107.239 103.713C107.239 106.049 105.998 106.414 102.275 106.414C100.231 106.414 98.479 106.414 96.727 106.195L96.581 107.728C99.2091 108.093 101.326 108.166 102.64 108.166C107.02 108.166 109.283 107.583 109.283 103.64C109.283 100.939 108.042 99.8443 105.56 99.3333L100.669 98.3843C99.0631 98.0193 98.26 97.6542 98.26 95.6832C98.26 93.2011 99.4281 93.1281 102.64 93.1281C104.611 93.1281 106.728 93.2011 108.699 93.3471L108.918 91.8141C106.947 91.5221 104.392 91.3761 102.421 91.3031C98.26 91.3031 96.289 91.8141 96.289 95.6832C96.289 98.3843 97.384 99.5523 99.8661 100.063L104.611 101.085Z" fill="#1A1F35"/>
</g>
<mask id="mask5_2370_15827" style="mask-type:luminance" maskUnits="userSpaceOnUse" x="0" y="1" width="110" height="114">
<path d="M109.284 1.00024H0V114.518H109.284V1.00024Z" fill="white"/>
</mask>
<g mask="url(#mask5_2370_15827)">
<path d="M83.1489 62.6135H82.4918C80.2288 62.6135 77.8927 63.7816 75.4107 65.6796L75.1917 63.0515H73.5856V78.9659H75.7027V67.0666C78.4038 65.4606 80.1558 64.5846 82.1268 64.5846H82.9299L83.1489 62.6135ZM59.7883 70.3517C59.8613 65.8256 61.1753 64.3655 64.8254 64.3655C67.8915 64.3655 69.2055 65.3146 69.2785 67.5776C69.3515 69.1837 68.9135 70.3517 67.2345 70.3517H59.7883ZM67.8185 72.0307C70.4465 72.0307 71.4686 70.4247 71.4686 67.5776C71.4686 64.2926 69.4245 62.6135 64.8254 62.6135C59.7153 62.6135 57.6712 64.7306 57.6712 70.9357C57.6712 77.0679 59.7153 79.404 65.1174 79.404C66.9425 79.404 69.7895 79.1119 71.1766 78.6009L70.9576 77.2139C69.4245 77.4329 67.3075 77.5789 65.4824 77.5789C61.8323 77.5789 60.2263 76.4108 59.9343 72.0307H67.8185ZM55.3352 62.9785H53.2911V74.8778C50.736 76.5569 49.057 77.5059 47.159 77.5059C45.1149 77.5059 44.2389 76.6299 44.2389 74.4398V62.9785H42.1948V74.9508C42.1948 77.7979 43.6549 79.3309 46.5019 79.3309C48.838 79.3309 51.1011 78.3819 53.5831 76.4108L53.7291 78.8929H55.4082V62.9785H55.3352ZM27.8865 73.3448C27.8865 71.8118 28.6165 70.9357 30.2955 70.8627H37.0847V74.6588C35.1866 76.3379 32.5586 77.3599 30.6605 77.3599C28.7625 77.3599 27.8865 76.4839 27.8865 74.6588V73.3448ZM26.6454 64.8766C29.0545 64.5846 31.8286 64.4386 33.7266 64.4386C36.3547 64.4386 37.0847 65.5336 37.0847 67.5047V69.1837H29.9305C27.2295 69.1837 25.7694 70.5707 25.7694 73.0528V74.8778C25.7694 77.6519 27.5215 79.185 30.2955 79.185C33.2886 79.185 35.9897 77.4329 37.3037 76.1189L37.5957 78.8929H39.2748V67.4316C39.2748 63.7815 37.4497 62.5405 34.1646 62.5405C31.4636 62.5405 28.6895 62.9055 26.4994 63.2705L26.6454 64.8766ZM11.169 68.0156H16.5712C20.6593 68.0886 22.0463 69.1107 22.0463 72.9798C22.0463 76.5569 20.7323 77.3599 16.7902 77.3599C14.5271 77.3599 12.5561 77.3599 11.169 77.2869V68.0156ZM11.169 66.3366V57.8684C12.4101 57.8684 14.0161 57.8684 15.9872 57.8684C20.0023 57.8684 21.3893 58.6714 21.3893 62.1755C21.3893 65.5336 20.0753 66.3366 16.4982 66.4096H11.169V66.3366ZM19.7103 67.0666C22.4113 66.7746 23.5794 65.0956 23.5794 61.8835C23.5794 57.2114 21.6083 55.9703 16.1332 55.9703C12.9211 55.9703 11.3151 55.9704 9.125 56.2624V78.9659C11.6071 79.1849 13.4321 79.2579 17.1552 79.2579C22.3383 79.2579 24.3094 78.0169 24.3094 73.3448C24.3094 69.6947 23.1414 67.5776 19.7833 67.2856V67.0666H19.7103Z" fill="#1A1F35"/>
</g>
<mask id="mask6_2370_15827" style="mask-type:luminance" maskUnits="userSpaceOnUse" x="0" y="1" width="110" height="114">
<path d="M109.284 1.00024H0V114.518H109.284V1.00024Z" fill="white"/>
</mask>
<g mask="url(#mask6_2370_15827)">
<path d="M95.4864 72.1766C97.0195 72.4686 98.1145 72.9067 98.1145 74.8047C98.1145 77.1408 96.8735 77.5058 93.1504 77.5058C91.1064 77.5058 89.3543 77.5058 87.6023 77.2868L87.4562 78.8198C90.0843 79.1848 92.2014 79.2578 93.5154 79.2578C97.8955 79.2578 100.159 78.6738 100.159 74.7317C100.159 72.0306 98.9175 70.9356 96.4355 70.4246L91.5444 69.4756C89.9383 69.1105 89.1353 68.7456 89.1353 66.7745C89.1353 64.2925 90.3033 64.2195 93.5154 64.2195C95.4865 64.2195 97.6035 64.2924 99.5746 64.4385L99.7936 62.9054C97.8225 62.6134 95.2674 62.4674 93.2964 62.3944C89.1353 62.3944 87.1642 62.9054 87.1642 66.7745C87.1642 69.4756 88.2593 70.6436 90.7413 71.1546L95.4864 72.1766Z" fill="#1A1F35"/>
</g>
<mask id="mask7_2370_15827" style="mask-type:luminance" maskUnits="userSpaceOnUse" x="0" y="1" width="110" height="114">
<path d="M109.284 1.00024H0V114.518H109.284V1.00024Z" fill="white"/>
</mask>
<g mask="url(#mask7_2370_15827)">
<path d="M85.7031 64.8035H84.3891L86.3601 61.4454H87.3092L85.7031 64.8035Z" fill="#1A1F35"/>
</g>
</svg>
