<svg width="296" height="317" viewBox="0 0 296 317" fill="none" xmlns="http://www.w3.org/2000/svg">
<path d="M170.493 104.236C169.26 111.754 168.521 116.438 161.988 121.861C155.333 127.284 144.118 129.625 135.614 126.174C129.821 123.833 125.877 119.272 124.028 114.466C122.919 111.385 122.549 108.057 122.18 104.853" stroke="black" stroke-width="2" stroke-miterlimit="9.999" stroke-linecap="round" stroke-linejoin="round"/>
<path d="M191.073 172.885C189.471 187.181 189.225 206.038 190.457 220.335" stroke="black" stroke-width="2" stroke-miterlimit="9.999" stroke-linecap="round" stroke-linejoin="round"/>
<path d="M104.431 168.941C103.445 184.224 102.828 199.507 102.705 214.913" stroke="black" stroke-width="2" stroke-miterlimit="9.999" stroke-linecap="round" stroke-linejoin="round"/>
<path d="M104.432 216.391C134.257 213.926 159.77 212.2 189.719 213.186" stroke="black" stroke-width="2" stroke-miterlimit="9.999" stroke-linecap="round" stroke-linejoin="round"/>
<path d="M77.0703 210.229C100.61 214.049 133.024 225.018 152.374 234.878" stroke="black" stroke-width="2" stroke-miterlimit="9.999" stroke-linecap="round" stroke-linejoin="round"/>
<path d="M167.287 229.332C179.365 224.525 191.197 219.349 204.261 216.268C217.325 213.31 232.115 212.817 244.193 217.5C256.271 222.184 264.529 233.029 260.708 242.766C258.49 248.189 253.067 252.626 246.658 255.707C240.249 258.788 232.977 260.76 225.829 262.732C177.516 275.919 129.327 288.86 81.1371 301.924C82.2463 301.555 80.5209 279.74 80.5209 277.521C80.6441 272.099 78.3024 261.869 82.9858 257.186C86.9297 253.365 97.7754 251.886 103.445 250.284C113.551 247.326 123.657 244.368 133.64 241.164C145.102 237.466 156.318 233.522 167.287 229.332Z" stroke="black" stroke-width="2" stroke-miterlimit="9.999" stroke-linecap="round" stroke-linejoin="round"/>
<path d="M56.8575 215.898C50.9417 218.24 45.2723 221.075 41.2052 225.388C37.138 229.579 34.9196 235.248 36.2753 240.548C37.631 245.601 42.3144 249.668 47.614 252.38C52.9136 254.968 58.9527 256.323 64.9918 257.679C71.2774 259.035 74.3586 259.774 80.6442 261.253" stroke="black" stroke-width="2" stroke-miterlimit="9.999" stroke-linecap="round" stroke-linejoin="round"/>
<path d="M162.727 280.11C189.101 285.779 212.888 291.695 238.77 298.966C237.784 298.597 255.778 278.754 264.775 270.496C253.56 265.443 246.658 263.594 233.47 260.76" stroke="black" stroke-width="2" stroke-miterlimit="9.999" stroke-linecap="round" stroke-linejoin="round"/>
<path d="M79.5348 264.703C72.633 265.689 65.8544 266.798 58.9526 267.784C56.6109 268.154 54.1459 268.524 52.2972 269.879C49.0928 272.221 49.0928 276.165 49.4626 279.739C49.9555 285.532 50.3253 291.324 50.8183 297.117C50.9415 299.089 51.188 301.061 52.0507 302.91C52.9135 304.758 54.7622 306.361 57.1039 306.607C59.4456 306.977 61.7873 305.868 63.5127 304.389C65.1149 302.91 66.2242 301.061 67.5799 299.459C70.661 295.638 75.2212 292.557 80.2743 290.831" stroke="black" stroke-width="2" stroke-miterlimit="9.999" stroke-linecap="round" stroke-linejoin="round"/>
<path d="M261.078 274.809L267.611 277.15C269.829 277.89 272.294 278.753 273.773 280.478C276.484 283.313 275.745 287.257 274.759 290.707C273.28 296.254 271.678 301.923 270.199 307.469C269.706 309.318 269.09 311.29 267.857 312.892C266.625 314.494 264.529 315.727 262.188 315.603C259.846 315.48 257.628 314.001 256.272 312.152C254.916 310.427 254.177 308.455 253.191 306.483C250.849 302.169 246.289 297.486 241.605 294.775" stroke="black" stroke-width="2" stroke-miterlimit="9.999" stroke-linecap="round" stroke-linejoin="round"/>
<path d="M79.7823 86.7351C67.9505 85.3794 56.1188 84.0237 44.2871 82.668" stroke="black" stroke-width="2" stroke-miterlimit="9.999" stroke-linecap="round" stroke-linejoin="round"/>
<path d="M19.2672 144.908C14.8303 143.799 9.0377 142.073 5.71003 138.745C5.0938 138.252 4.60081 137.39 5.0938 136.65C5.34029 136.281 5.71003 136.157 6.20302 136.157C6.57276 136.157 7.06575 136.28 7.43549 136.404C11.9956 137.883 16.8023 138.869 21.1159 140.841C20.4997 138.745 21.1159 136.404 22.4716 134.678C24.0738 132.583 26.4155 131.967 29.0037 131.967C30.2362 131.967 31.4687 132.09 32.5779 132.706C33.1941 133.076 33.8103 133.816 33.5639 134.432C33.4406 134.802 32.9476 135.171 32.5779 135.295C32.0849 135.418 31.7152 135.418 31.2222 135.418C29.8664 135.541 28.5107 136.28 27.7712 137.39C26.4155 139.362 26.7853 142.196 28.5107 143.799C29.8664 145.031 31.9616 145.401 33.8104 144.785C36.0288 144.045 37.631 142.073 37.8775 139.855C38.0007 138.869 37.8775 137.759 37.3845 136.897C37.2613 136.527 37.138 136.157 36.8915 135.911C36.5218 135.541 36.152 135.418 35.7823 135.048C35.4126 134.555 35.4126 133.939 35.7823 133.569C36.152 133.199 36.7683 133.199 37.3845 133.199C40.0959 133.692 42.3144 135.664 43.4236 138.129C44.7793 141.334 44.1631 144.908 43.4236 148.235C42.5609 151.563 41.4517 154.891 41.8214 158.342C42.1911 162.655 44.7793 166.476 47.2443 170.05L60.1852 188.66C60.8014 189.523 61.5409 190.509 62.6501 190.632C64.2524 190.879 65.4848 189.03 66.1011 187.551C75.9608 166.846 92.9689 149.838 113.305 139.238C118.358 136.527 123.657 134.309 129.204 132.46C134.133 130.858 139.926 128.886 145.102 128.269C157.797 126.667 171.847 131.351 182.939 137.02C187.869 139.608 192.552 142.566 196.989 145.894C212.272 157.725 224.104 173.501 234.087 190.016C236.798 184.84 240.865 180.403 244.809 175.966C248.753 171.529 252.574 166.846 254.669 161.423C256.271 157.356 257.504 151.686 255.532 147.496C255.162 146.633 254.546 145.771 254.422 144.908C254.299 143.799 254.792 142.566 255.532 141.703C256.271 140.841 257.257 140.471 257.997 139.731C258.613 139.115 259.106 138.499 259.845 137.883C261.694 136.65 263.913 136.034 266.131 136.034C266.624 136.034 267.24 136.157 267.61 136.527C268.226 137.143 267.856 138.376 267.24 138.869C266.501 139.485 265.638 139.731 264.898 140.348C264.159 140.841 263.296 142.073 263.42 143.059C263.543 144.045 264.775 144.785 265.638 145.278C267.733 146.51 270.814 146.14 272.293 143.922C273.403 142.196 273.033 139.485 271.307 138.252C270.938 137.883 270.321 137.636 270.075 137.143C269.828 136.65 270.075 135.911 270.445 135.541C270.938 135.171 271.554 135.048 272.17 135.048C273.156 135.171 274.019 135.664 274.882 136.034C275.744 136.404 276.607 136.897 277.223 137.636C279.565 140.101 279.688 144.292 277.716 146.88C281.66 144.415 286.22 144.785 290.904 144.661C292.013 144.661 293.122 144.661 293.985 145.154C294.848 145.647 295.34 147.003 294.724 147.866" stroke="black" stroke-width="2" stroke-miterlimit="9.999" stroke-linecap="round" stroke-linejoin="round"/>
<path d="M5.21745 139.977C4.97096 138.868 2.999 139.238 2.75251 140.47C2.50602 141.58 3.36874 142.689 4.23147 143.428C7.68239 146.509 11.8728 148.605 15.9399 150.577C11.503 150.33 6.94291 149.96 2.50602 149.714C2.13627 149.714 1.64329 149.714 1.27355 149.96C0.410814 150.7 1.76653 151.932 2.87576 152.179C10.6403 154.274 19.3909 155.876 24.3207 162.162C27.2787 165.983 28.3879 170.789 29.8668 175.473C32.5783 184.593 36.6454 193.467 41.9451 201.478C44.6565 205.668 47.7377 209.735 51.8048 212.57C55.872 215.528 60.9251 217.253 65.855 216.514C72.7568 215.405 77.9332 209.858 82.4933 204.559C89.5184 196.548 96.5435 188.413 103.445 180.402" stroke="black" stroke-width="2" stroke-miterlimit="9.999" stroke-linecap="round" stroke-linejoin="round"/>
<path d="M278.827 152.672C283.017 150.7 287.454 149.344 292.014 148.728C293.123 148.605 294.356 148.605 294.849 149.591C295.219 150.207 294.849 151.07 294.356 151.563C293.863 152.056 293.123 152.302 292.384 152.549C288.563 153.904 284.743 155.26 280.799 156.616C284.743 155.383 289.179 156.369 292.261 159.081C285.975 160.56 279.689 161.915 273.404 163.394C271.432 163.887 269.337 164.38 267.734 165.489C265.516 167.092 264.407 169.68 263.174 172.145C258.491 182.251 253.068 191.988 246.906 201.231C244.687 204.436 242.099 207.393 239.757 210.475C238.895 211.584 237.909 212.816 236.676 213.433C235.074 214.295 233.102 214.295 231.253 213.926C227.802 213.309 224.598 211.461 221.887 209.365C215.724 204.435 210.301 198.273 204.755 192.604C198.593 186.441 197.114 184.839 190.705 178.923" stroke="black" stroke-width="2" stroke-miterlimit="9.999" stroke-linecap="round" stroke-linejoin="round"/>
<path d="M207.096 45.0772C207.096 46.1864 206.233 46.9259 205.247 46.9259C204.261 46.9259 203.398 46.0632 203.398 45.0772C203.398 43.968 204.261 43.2285 205.247 43.2285C206.233 43.2285 207.096 44.0912 207.096 45.0772Z" fill="black"/>
<path d="M134.873 22.6465C134.873 23.2628 134.38 23.879 133.641 23.879C133.024 23.879 132.408 23.386 132.408 22.6465C132.408 22.0303 132.901 21.4141 133.641 21.4141C134.257 21.4141 134.873 22.0303 134.873 22.6465Z" fill="black"/>
<path d="M125.506 20.1817C125.506 20.7979 125.013 21.4142 124.273 21.4142C123.657 21.4142 123.041 20.9212 123.041 20.1817C123.041 19.5655 123.534 18.9492 124.273 18.9492C125.013 19.0725 125.506 19.5655 125.506 20.1817Z" fill="black"/>
<path d="M45.8888 32.0137C45.8888 32.63 45.3958 33.2463 44.6563 33.2463C44.0401 33.2463 43.4238 32.7532 43.4238 32.0137C43.4238 31.3975 43.9168 30.7812 44.6563 30.7812C45.3958 30.7812 45.8888 31.3975 45.8888 32.0137Z" fill="black"/>
<path d="M130.066 100.539C130.929 101.648 132.162 102.388 133.517 102.511C134.873 102.634 136.352 102.141 137.215 101.155" stroke="black" stroke-width="2" stroke-miterlimit="9.999" stroke-linecap="round" stroke-linejoin="round"/>
<path d="M154.346 100.539C155.208 101.648 156.441 102.388 157.797 102.511C159.152 102.634 160.631 102.141 161.494 101.155" stroke="black" stroke-width="2" stroke-miterlimit="9.999" stroke-linecap="round" stroke-linejoin="round"/>
<path d="M228.296 71.5755C221.27 71.5755 215.478 65.7829 215.478 58.7578C215.478 65.7829 209.685 71.5755 202.66 71.5755C209.685 71.5755 215.478 77.3681 215.478 84.3932C215.478 77.3681 221.147 71.5755 228.296 71.5755Z" fill="black"/>
<path d="M28.019 82.6687C23.8286 82.6687 20.3776 79.2177 20.3776 75.0273C20.3776 79.2177 16.9267 82.6687 12.7363 82.6687C16.9267 82.6687 20.3776 86.1196 20.3776 90.31C20.5009 86.1196 23.8286 82.6687 28.019 82.6687Z" fill="black"/>
<path d="M14.2152 77.6135C11.5038 77.6135 9.28535 75.395 9.28535 72.6836C9.28535 75.395 7.0669 77.6135 4.35547 77.6135C7.0669 77.6135 9.28535 79.8319 9.28535 82.5434C9.28535 79.8319 11.5038 77.6135 14.2152 77.6135Z" fill="black"/>
<path d="M230.266 40.2719L239.016 35.2188" stroke="black" stroke-width="2" stroke-miterlimit="9.999" stroke-linecap="round" stroke-linejoin="round"/>
<path d="M215.477 38.668L231.868 18.209" stroke="black" stroke-width="2" stroke-miterlimit="9.999" stroke-linecap="round" stroke-linejoin="round"/>
<path d="M221.516 97.7045L292.629 93.2676" stroke="black" stroke-width="2" stroke-miterlimit="9.999" stroke-linecap="round" stroke-linejoin="round"/>
<path d="M80.7669 99.5527L58.3359 101.278" stroke="black" stroke-width="2" stroke-miterlimit="9.999" stroke-linecap="round" stroke-linejoin="round"/>
<path d="M119.96 54.9361L93.832 31.7656" stroke="black" stroke-width="2" stroke-miterlimit="9.999" stroke-linecap="round" stroke-linejoin="round"/>
<path d="M100.734 19.9355L114.661 36.8204" stroke="black" stroke-width="2" stroke-miterlimit="9.999" stroke-linecap="round" stroke-linejoin="round"/>
<path d="M284.741 50.377L283.632 58.6345C287.329 57.5253 291.026 56.909 294.847 56.7858C291.766 58.5113 288.561 60.2367 285.604 62.0854C287.822 63.3179 289.794 64.7969 291.766 66.3991C289.301 66.1526 286.466 66.0293 284.125 65.2898C284.371 66.5223 283.015 70.836 282.769 72.0684C281.906 69.7267 281.043 68.371 280.181 65.7828C278.085 67.385 274.881 68.371 272.539 70.4662C275.374 66.5223 275.621 65.1666 277.346 62.8249C274.881 62.3319 272.416 61.8389 269.951 61.3459C272.786 60.4832 275.621 59.6205 278.455 58.7577C276.853 56.5393 275.497 54.1976 274.142 51.8559C274.265 52.1024 275.128 52.3489 275.374 52.4721C275.744 52.7186 276.237 52.9651 276.607 53.2116C277.469 53.7046 278.209 54.3209 278.948 54.9371C279.318 55.1836 279.688 55.5533 280.057 55.7998C280.427 56.1696 280.674 56.5393 281.043 56.1696C281.413 55.9231 281.66 55.1836 281.783 54.8138C282.029 54.3209 282.276 53.8279 282.522 53.4581C283.508 52.4722 284.125 51.3629 284.741 50.377Z" fill="black"/>
<path d="M229.773 60.4837C227.924 58.142 227.801 54.1981 229.403 51.6099C231.128 49.0217 234.456 48.0358 237.044 49.5147C239.632 50.8704 241.111 54.4446 240.372 57.5258C238.893 59.0047 236.305 57.2793 236.058 55.0608C235.812 52.8424 237.168 50.7472 238.77 49.3915C242.344 46.4335 247.027 45.9406 251.464 46.4335C255.901 46.9265 260.215 48.159 264.652 48.2822C269.088 48.2822 273.895 46.8033 276.607 42.8594" stroke="black" stroke-width="2" stroke-miterlimit="9.999" stroke-linecap="round" stroke-linejoin="round" stroke-dasharray="80.39 80.39"/>
<path d="M44.7798 54.3213C46.382 54.198 47.7377 55.8002 47.7377 57.4024C47.7377 59.0046 46.6285 60.3604 45.2728 61.0998C43.7938 61.5928 42.0684 61.5928 40.5894 61.3463C37.5082 60.7301 34.5503 58.5117 34.3038 55.4305C34.1806 54.198 35.0433 52.5958 36.2758 52.8423C37.385 53.0888 37.7547 54.691 37.1385 55.5537C36.5223 56.5397 35.2898 56.7862 34.1806 57.0327C27.6485 58.1419 20.7466 55.3072 16.8027 50.1309" stroke="black" stroke-width="2" stroke-miterlimit="9.999" stroke-linecap="round" stroke-linejoin="round"/>
<path d="M29.0039 171.53C34.55 172.023 40.3426 169.681 43.7935 165.244" stroke="black" stroke-width="2" stroke-miterlimit="9.999" stroke-linecap="round" stroke-linejoin="round"/>
<path d="M251.588 166.598C254.299 170.295 259.106 172.39 263.666 171.897" stroke="black" stroke-width="2" stroke-miterlimit="9.999" stroke-linecap="round" stroke-linejoin="round"/>
<path d="M81.3849 65.167C81.2616 65.167 81.1384 65.167 81.0151 65.2903C80.0291 65.66 79.2896 64.7973 79.0432 64.1811C78.9199 63.9346 78.7967 63.6881 78.6734 63.4416C78.5502 63.3183 78.4269 63.1951 78.3037 63.1951C77.5642 63.1951 76.948 63.1951 76.2085 63.0718C75.962 63.0718 75.8387 63.0718 75.8387 63.3183C75.5922 63.6881 75.469 63.9346 75.2225 64.1811C74.7295 64.9206 73.7435 65.167 72.8808 64.6741C72.2646 64.3043 71.6483 64.0578 71.0321 63.8113C70.4159 63.5648 70.0461 62.8254 70.1694 62.2091C70.1694 61.7161 70.4159 61.2231 70.6624 60.7302C70.7856 60.4837 70.7856 60.3604 70.5391 60.2372C70.0461 59.7442 69.5531 59.2512 69.1834 58.635C69.0602 58.5117 69.0602 58.5117 68.8137 58.5117C68.3207 58.635 67.8277 58.635 67.4579 58.7582C66.7185 58.8815 66.1022 58.5117 65.8557 57.8955C65.486 57.0327 65.2395 56.17 64.993 55.3073C64.8698 54.6911 65.1162 54.1981 65.486 53.8283C65.8557 53.5818 66.2255 53.4586 66.5952 53.2121C66.7185 53.0888 66.965 53.0888 67.0882 52.9656C67.2114 52.9656 67.2114 52.8423 67.2114 52.7191C67.2114 52.1029 67.3347 51.3634 67.3347 50.7471C67.3347 50.5007 67.3347 50.3774 67.0882 50.2542C66.7185 50.0077 66.3487 49.8844 66.1022 49.6379C65.3627 49.1449 65.1162 48.2822 65.486 47.5427C65.8557 46.8032 66.2255 46.187 66.5952 45.4475C66.9649 44.8313 67.5812 44.4615 68.3207 44.708C68.6904 44.8313 69.1834 44.9545 69.5531 45.0778C69.9229 45.201 70.0461 45.201 70.4159 44.9545C70.7856 44.5848 71.1554 44.2151 71.6483 43.9686C71.8948 43.8453 71.8948 43.5988 71.8948 43.3523C71.8948 42.8593 71.6483 42.2431 71.6483 41.7501C71.6483 41.1339 72.1413 40.5176 72.7576 40.3944C73.3738 40.1479 74.1133 39.9014 74.7295 39.7782C75.469 39.5317 76.2085 39.6549 76.7015 40.5176C76.948 40.8874 77.0712 41.3804 77.3177 41.7501C77.3177 41.8734 77.4409 41.8734 77.5642 41.8734C78.1804 41.8734 78.7967 41.8734 79.4129 41.9966C79.7826 42.1199 80.0291 41.9966 80.1524 41.6269C80.3989 41.2571 80.5221 40.8874 80.8919 40.6409C81.2616 40.2712 81.7546 40.1479 82.2476 40.1479C82.4941 40.1479 82.7406 40.2712 82.9871 40.3944C83.3568 40.6409 83.7265 40.7641 84.0963 40.8874C84.466 41.0106 84.7125 41.2571 84.959 41.3804C85.452 41.7501 85.5753 42.2431 85.5753 42.7361C85.5753 43.2291 85.3288 43.5988 85.0823 44.0918C84.959 44.3383 84.959 44.4616 85.2055 44.5848C85.8217 45.0778 86.3147 45.694 86.6845 46.3103C86.8077 46.4335 86.931 46.5568 87.0542 46.4335C87.3007 46.3103 87.5472 46.3103 87.7937 46.3103C88.7797 46.0638 89.7656 46.5567 90.0121 47.5427C90.2586 48.2822 90.5051 49.1449 90.7516 49.8844C90.8749 50.3774 90.6284 50.7471 90.2586 51.1169C90.0121 51.3634 89.5192 51.6099 89.1494 51.7331C88.6564 51.9796 88.6564 51.9796 88.6564 52.5959C88.6564 53.2121 88.5332 53.9516 88.4099 54.5678C88.4099 54.6911 88.4099 54.8143 88.5332 54.9375C88.9029 55.184 89.2727 55.4305 89.6424 55.8003C90.1354 56.17 90.2586 57.0327 89.8889 57.5257C89.5192 58.142 89.1494 58.8814 88.9029 59.4977C88.5332 60.3604 87.5472 60.6069 86.8077 60.3604C86.438 60.2372 86.1915 60.1139 85.8217 59.9907C85.6985 59.9907 85.5753 59.9907 85.452 60.1139C84.959 60.6069 84.466 61.0999 83.8498 61.4696C83.7265 61.5929 83.7265 61.5929 83.7265 61.8394C83.8498 62.2091 83.8498 62.4556 83.973 62.8254C84.2195 63.5648 83.8498 64.5508 82.9871 64.7973C82.6173 64.9206 82.3708 65.0438 82.0011 65.167C82.1243 64.9206 81.7546 65.0438 81.3849 65.167ZM77.1945 47.7892C74.6063 48.4055 73.1273 50.8704 73.7435 53.3353C74.3598 56.0468 76.8247 57.5257 79.5361 56.7862C81.8778 56.17 83.48 53.8283 82.7406 51.2401C82.1243 48.7752 79.7826 47.173 77.1945 47.7892Z" fill="black"/>
<path d="M53.5296 43.9685C53.4064 43.5987 53.5296 43.229 53.6529 42.8593C54.0226 42.1198 54.0226 42.1198 53.5296 41.5035C53.2831 41.2571 53.1599 40.8873 52.9134 40.5176C52.7902 40.3943 52.6669 40.2711 52.5437 40.3943C52.1739 40.3943 51.9274 40.5176 51.5577 40.5176C50.9415 40.5176 50.4485 40.1478 50.202 39.6548C49.8322 38.9154 49.8322 38.1759 49.709 37.5596C49.709 36.9434 50.0787 36.3272 50.8182 36.0807C51.0647 35.9574 51.3112 35.8342 51.5577 35.7109C51.6809 35.7109 51.6809 35.5877 51.6809 35.4644C51.6809 34.9715 51.8042 34.4785 51.9274 33.9855C51.9274 33.739 51.9274 33.6157 51.8042 33.4925C51.5577 33.3692 51.3112 33.1227 51.1879 32.8763C50.695 32.3833 50.5717 31.6438 50.9415 31.0276C51.1879 30.5346 51.5577 30.0416 51.9274 29.5486C52.4204 28.9324 53.1599 28.8091 53.7761 29.1788C54.0226 29.3021 54.2691 29.4253 54.5156 29.5486C54.6389 29.5486 54.6389 29.5486 54.7621 29.5486C55.2551 29.1788 55.6248 28.9324 56.1178 28.5626C56.2411 28.4394 56.2411 28.1929 56.2411 28.0696C56.2411 27.6999 56.1178 27.3301 56.2411 26.9604C56.3643 26.3442 56.7341 25.9744 57.227 25.8512C57.72 25.7279 58.3363 25.4814 58.8293 25.4814C59.5687 25.3582 60.0617 25.6047 60.4315 26.3442C60.5547 26.5907 60.678 26.8372 60.8012 27.0836C60.8012 27.2069 60.9245 27.3301 61.0477 27.3301C61.6639 27.4534 62.1569 27.4534 62.7732 27.5766C62.8964 27.5766 63.0197 27.5766 63.1429 27.4534C63.2662 27.2069 63.5126 26.9604 63.8824 26.7139C64.3754 26.3442 64.8684 26.2209 65.4846 26.4674C66.1008 26.7139 66.5938 27.0836 67.0868 27.4534C67.8263 28.0696 67.703 28.5626 67.4566 29.3021C67.4566 29.5486 67.3333 29.6718 67.2101 29.7951C67.0868 29.9183 67.0868 30.0416 67.2101 30.1648C67.5798 30.6578 67.9495 31.1508 68.3193 31.6438C68.3193 31.767 68.4425 31.767 68.5658 31.767C68.9355 31.767 69.3053 31.767 69.5518 31.767C70.0447 31.767 70.661 32.26 70.7842 32.753C70.9075 33.246 71.0307 33.8622 71.154 34.3552C71.2772 34.9715 71.0307 35.5877 70.4145 35.9574C70.168 36.0807 69.7982 36.2039 69.5518 36.3272C69.4285 36.3272 69.3053 36.4504 69.3053 36.5737C69.182 37.1899 69.182 37.8061 68.9355 38.4224C68.9355 38.5456 68.9355 38.6689 69.0588 38.6689C69.182 38.7921 69.3053 38.9154 69.4285 39.0386C70.0447 39.6548 70.2912 40.2711 69.9215 41.0106C69.675 41.5035 69.3053 41.9965 68.9355 42.4895C68.3193 43.1058 67.703 43.229 66.9636 42.8593C66.5938 42.6128 66.2241 42.6128 65.8543 42.9825C65.6078 43.229 65.2381 43.4755 64.8684 43.722C64.7451 43.8452 64.6219 43.9685 64.6219 44.215C64.7451 44.5847 64.7451 45.0777 64.6219 45.4475C64.4986 45.9404 64.1289 46.4334 63.5126 46.5567C63.0197 46.6799 62.5267 46.8032 62.0337 46.9264C61.0477 47.0497 60.3082 46.5567 60.0617 45.6939C59.9385 45.0777 59.9385 45.0777 59.3222 44.9545C58.8293 44.9545 58.4595 44.8312 58.0898 44.708C57.9665 44.708 57.8433 44.708 57.72 44.8312C57.3503 45.201 57.227 45.5707 56.7341 45.8172C56.3643 46.0637 55.9946 46.0637 55.7481 45.9404C55.0086 45.6939 54.2691 45.201 53.6529 44.708C53.6529 44.4615 53.5296 44.215 53.5296 43.9685ZM64.2521 35.3412C63.8824 33.246 61.5407 32.0135 59.692 32.5065C57.72 32.9995 56.3643 34.9715 56.9806 37.1899C57.4735 39.1619 59.5687 40.2711 61.4174 39.7781C63.5126 39.2851 64.7451 37.3131 64.2521 35.3412Z" fill="black"/>
<path d="M164.752 119.969C164.799 119.722 164.783 119.49 164.876 119.305C165.452 118.224 166.043 117.143 166.619 116.078C166.992 115.398 167.381 114.719 167.708 114.009C168.159 113.005 168.533 111.986 168.937 110.967C169.093 110.565 169.326 110.179 169.388 109.762C169.653 108.218 169.824 106.658 170.089 105.114C170.151 104.728 170.384 104.389 170.493 104.141C171.333 104.141 172.127 104.203 172.92 104.126C173.667 104.064 174.258 103.539 174.678 102.983C175.628 101.717 175.596 99.6634 174.881 98.7215C173.652 97.1001 171.971 96.8839 170.089 97.4244C170.057 97.2699 170.026 97.1155 170.011 96.9611C169.902 95.139 169.855 93.3169 169.668 91.5102C169.466 89.5182 168.439 87.9278 166.961 86.5843C166.043 85.7505 165.079 85.1483 163.912 84.6696C163.009 84.299 162.185 84.3299 161.344 84.3916C160.691 84.4534 160.069 84.8858 159.415 85.1637C158.606 85.5189 157.719 85.7659 156.988 86.2446C155.588 87.1402 153.97 87.48 152.476 88.1131C150.002 89.1631 147.482 88.8079 144.977 88.7307C143.81 88.6998 142.658 88.1285 141.491 87.8042C141.149 87.7116 140.807 87.6498 140.464 87.5417C139.562 87.2483 138.613 87.0167 137.773 86.6152C135.454 85.5034 132.996 85.8277 130.585 85.874C129.744 85.8895 128.873 85.9976 128.095 86.2755C127.364 86.538 126.726 87.0476 126.088 87.5263C125.606 87.8969 125.108 88.2984 124.812 88.8079C124.221 89.8116 123.754 90.8926 123.241 91.9426C123.21 92.0043 123.21 92.097 123.194 92.1742C123.054 93.811 122.494 95.4015 122.712 97.0692C122.743 97.3163 122.681 97.5633 122.65 97.8567C122.432 97.7177 122.276 97.5325 122.089 97.517C120.767 97.3935 119.476 97.3935 118.34 98.2582C117.266 99.0921 117.079 100.482 117.982 101.887C118.822 103.2 120.58 103.91 122.105 103.261C122.261 103.2 122.447 103.215 122.634 103.184C122.712 104.018 122.152 104.682 121.358 104.744C120.907 104.775 120.456 104.867 120.02 104.805C118.9 104.62 118.075 103.864 117.282 103.169C116.504 102.505 115.804 101.733 115.181 100.914C114.621 100.173 114.03 99.3546 113.765 98.4744C113.376 97.1464 112.723 95.9574 112.178 94.7221C111.665 93.5639 111.26 92.3595 110.747 91.2014C110.265 90.0896 109.705 89.0087 109.176 87.9123C108.366 86.2446 107.246 84.8086 106.002 83.4343C105.037 82.3688 103.854 81.5349 102.781 80.593C102.127 80.0371 101.692 79.1878 101.303 78.3848C100.805 77.3503 100.463 76.2385 100.058 75.1575C100.042 75.1112 100.027 75.0495 100.027 75.0031C100.027 72.8413 99.9491 70.6795 100.058 68.5331C100.105 67.6066 100.4 66.6338 100.805 65.7845C101.645 64.0087 102.205 62.063 103.699 60.627C104.212 60.1328 104.477 59.3762 105.052 59.0056C106.064 58.3416 107.184 57.8629 108.289 57.3379C109.658 56.6739 111.105 56.1335 112.427 55.3923C113.75 54.6665 115.057 53.8635 116.239 52.9216C117.826 51.6708 119.351 50.312 120.829 48.9222C121.903 47.9031 122.93 46.8222 123.863 45.6795C124.454 44.9537 124.874 44.089 125.326 43.2552C125.995 42.0198 126.695 40.7999 127.286 39.5337C127.613 38.8234 127.753 38.0359 127.986 37.2947C128.375 36.013 128.811 34.7468 129.184 33.4806C129.355 32.9093 129.355 32.2607 129.573 31.7203C129.947 30.8246 130.445 29.9908 130.911 29.1415C131.207 28.6165 131.565 28.1224 131.86 27.5819C132.358 26.6863 132.778 25.7289 133.323 24.8642C133.883 23.9994 134.552 23.2119 135.174 22.3935C135.672 21.7295 136.155 21.0501 136.684 20.417C137.322 19.6604 137.991 18.9346 138.675 18.2243C139.391 17.4831 140.107 16.7573 140.885 16.0779C141.491 15.5529 142.129 15.0588 142.829 14.6573C143.825 14.0859 144.883 13.5918 145.926 13.1131C146.268 12.9587 146.657 12.9124 147.03 12.8352C147.964 12.619 148.897 12.4028 149.831 12.2329C150.515 12.1094 151.216 11.9859 151.9 12.0013C153.534 12.0476 155.168 12.0785 156.77 12.3101C158.373 12.5418 159.991 12.866 161.516 13.3911C162.605 13.7617 163.554 14.5337 164.55 15.1514C165.405 15.6764 166.23 16.2169 167.07 16.7419C168.502 17.6221 170.089 18.1471 171.676 18.6875C172.811 19.0736 173.9 19.3052 175.067 19.3978C175.596 19.4442 176.125 19.7684 176.608 19.7067C178.117 19.5368 179.642 19.3052 181.12 18.9655C182.178 18.7184 183.22 18.3478 184.216 17.9C185.492 17.3287 186.69 16.6184 187.95 16.0007C188.495 15.7382 189.086 15.5683 189.631 15.3367C190.595 14.9507 191.56 14.5029 192.54 14.1477C193.038 13.9624 193.598 13.808 194.111 13.8234C195.807 13.8697 197.566 13.7462 199.184 14.1477C201.082 14.6264 203.011 15.3521 204.443 16.7728C205.672 17.9927 206.901 19.228 207.585 20.9111C207.912 21.7141 208.146 22.4862 208.254 23.32C208.426 24.4781 208.301 25.7289 208.675 26.8098C209.095 28.0143 209.032 29.1724 208.97 30.3614C208.939 31.3033 208.69 32.2453 208.488 33.1872C208.363 33.8358 208.099 34.4534 208.006 35.102C207.834 36.2601 207.15 37.1866 206.776 38.2366C206.154 39.9506 205.547 41.6492 205.189 43.4713C204.8 45.4787 204.723 47.4553 204.832 49.4472C204.878 50.3274 205.158 51.2076 205.361 52.0878C205.532 52.8598 205.703 53.6165 205.874 54.3731C206.154 55.6085 206.372 56.8747 206.73 58.0946C207.119 59.4071 207.648 60.6733 208.099 61.9704C208.27 62.4645 208.379 62.9895 208.488 63.5146C208.784 64.9043 209.079 66.3095 209.359 67.6992C209.577 68.7802 209.935 69.8611 209.966 70.942C210.044 73.8141 209.966 76.6863 209.95 79.5584C209.95 79.7128 209.873 79.8518 209.841 80.0062C209.561 81.4886 209.328 82.971 208.97 84.438C208.69 85.5961 208.317 86.7233 207.912 87.8351C207.445 89.1168 206.916 90.3984 206.341 91.6492C205.765 92.9154 205.236 94.2125 204.458 95.3552C203.447 96.8376 202.342 98.2582 200.817 99.3082C200.055 99.8333 199.433 100.559 198.686 101.146C197.97 101.702 197.192 102.196 196.461 102.721C195.605 103.338 194.749 103.956 193.878 104.574C193.831 104.605 193.8 104.636 193.754 104.666C192.478 105.346 191.233 106.072 189.942 106.72C188.961 107.214 187.95 107.616 186.939 108.033C185.663 108.558 184.309 108.959 183.08 109.592C181.882 110.21 180.56 110.272 179.315 110.642C178.148 110.982 176.997 111.368 175.861 111.801C174.678 112.233 173.512 112.681 172.376 113.221C170.882 113.916 169.653 114.951 168.564 116.186C167.412 117.483 166.199 118.734 165.016 120C165.063 119.985 164.985 119.954 164.752 119.969Z" fill="black"/>
</svg>
