<svg width="349" height="347" viewBox="0 0 349 347" fill="none" xmlns="http://www.w3.org/2000/svg">
<g clip-path="url(#clip0_2113_1457)">
<path d="M162.397 240.75C176.21 238.254 188.218 240.569 207.161 235.643C220.362 232.266 236.34 218.935 245.977 209.468C255.65 199.909 263.01 188.37 268.929 176.154C272.79 178.003 276.557 179.815 280.38 181.757C281.773 179.864 283.574 178.558 285.262 176.995C285.722 176.646 289.185 171.96 289.093 171.923C289.795 172.308 290.388 172.968 290.63 173.702C291.191 175.518 289.796 176.879 288.843 178.202C282.8 187.499 276.85 196.834 270.806 206.131C264.343 216.219 257.787 226.269 249.901 235.367C242.013 244.465 232.832 252.517 221.925 257.654C205.113 265.551 191.896 273.812 173.4 275.727C154.904 277.642 136.038 274.84 118.922 267.629" stroke="black" stroke-width="2" stroke-miterlimit="10" stroke-linecap="round" stroke-linejoin="round"/>
<path d="M268.167 97.4484L287.511 110.81C287.511 110.81 280.036 108.378 275.408 116.535C270.871 124.729 281.255 130.865 281.255 130.865C281.255 130.865 292.285 137.258 297.317 128.623C302.349 119.988 296.23 115.755 296.23 115.755L317.082 130.506L304.17 149.836C304.17 149.836 309.645 145.736 314.692 149.437C319.776 153.047 320.081 160.079 316.343 165.187C312.605 170.295 307.387 174.286 301.533 171.54C295.809 168.739 296.305 159.687 296.305 159.687L284.18 177.841L280.381 181.757L268.931 176.153L231.344 151.125" stroke="black" stroke-width="2" stroke-miterlimit="10" stroke-linecap="round" stroke-linejoin="round"/>
<path d="M267.973 97.323L252.877 119.189C252.877 119.189 259.001 115.877 264.121 119.395C269.205 123.005 270.079 129.411 266.231 134.795C262.384 140.18 256.263 144.024 251.424 141.681C246.585 139.337 246.12 129.479 246.12 129.479L231.172 150.978" stroke="black" stroke-width="2" stroke-miterlimit="10" stroke-linecap="round" stroke-linejoin="round"/>
<path d="M261.795 188.739C265.391 193.672 271.247 196.95 277.331 197.237" stroke="black" stroke-width="2" stroke-miterlimit="10" stroke-linecap="round" stroke-linejoin="round"/>
<path d="M70.1966 204.965C65.0752 168.744 80.1902 130.36 108.561 107.072C118.313 99.077 129.67 92.6476 137.516 82.6928C142.322 76.6204 145.824 69.1764 152.337 64.9657C151.192 69.8186 150.747 74.9615 151.192 79.8985C153.37 79.2854 155.446 78.2781 157.32 76.9761C158.109 76.4747 159.196 75.8718 159.685 75.0766C160.272 74.1819 160.363 73.3904 161.553 73.1818C162.157 73.9668 161.869 75.0564 161.58 75.9485C161.001 77.634 160.821 79.5133 160.041 81.1015C159.363 82.7877 158.385 84.2791 157.306 85.6726C155.051 88.658 152.297 91.2529 149.238 93.3563C142.533 98.1617 134.723 101.693 129.222 107.771C119.985 117.739 110.475 140.259 109.515 153.807C108.551 166.86 108.76 178.124 113.15 190.437" stroke="black" stroke-width="2" stroke-miterlimit="10" stroke-linecap="round" stroke-linejoin="round"/>
<path d="M125.617 94.4642C127.996 94.1458 130.395 95.7048 131.707 97.7681C133.018 99.8312 133.439 102.298 133.859 104.666" stroke="black" stroke-width="2" stroke-miterlimit="10" stroke-linecap="round" stroke-linejoin="round"/>
<path d="M147.662 94.5579L143.879 113.863L203.242 125.942M151.211 71.6972L156.145 48.3295L179.435 53.7475C177.123 50.9029 174.906 47.5636 174.87 43.9074C174.945 41.4361 176.014 39.0546 177.584 37.1624C180.923 33.2776 186.667 31.7422 191.448 33.2792C196.23 34.915 199.95 39.5254 200.297 44.5622C200.745 49.6969 197.815 54.7638 193.271 57.0787L217.029 62.3346" stroke="black" stroke-width="2" stroke-miterlimit="10" stroke-linecap="round" stroke-linejoin="round"/>
<path d="M217.253 62.3919L211.55 88.3362C211.55 88.3362 215.965 82.9588 222.036 84.2863C228.107 85.7127 231.339 91.3158 229.814 97.7534C228.289 104.191 224.076 110.06 218.71 109.714C213.344 109.369 209.186 100.414 209.186 100.414L203.478 125.963" stroke="black" stroke-width="2" stroke-miterlimit="10" stroke-linecap="round" stroke-linejoin="round"/>
<path d="M93.4415 104.348L104.353 93.0803" stroke="black" stroke-width="2" stroke-miterlimit="10" stroke-linecap="round" stroke-linejoin="round" stroke-dasharray="17.43 17.43"/>
<path d="M65.7071 162.118C66.9597 148.073 73.3822 134.673 83.414 124.798" stroke="black" stroke-width="2" stroke-miterlimit="10" stroke-linecap="round" stroke-linejoin="round" stroke-dasharray="46.88 46.88"/>
<path d="M176.049 137.829L167.237 145.105" stroke="black" stroke-width="2" stroke-miterlimit="10" stroke-linecap="round" stroke-linejoin="round" stroke-dasharray="12.7 12.7"/>
<path d="M223.779 151.87L222.761 164.638" stroke="black" stroke-width="2" stroke-miterlimit="10" stroke-linecap="round" stroke-linejoin="round" stroke-dasharray="14.24 14.24"/>
<path d="M153.942 56.6541C156.817 57.7547 159.576 59.2825 162.082 61.2453" stroke="black" stroke-width="2" stroke-miterlimit="10" stroke-linecap="round" stroke-linejoin="round" stroke-dasharray="10.42 10.42"/>
<path d="M306.408 114.612C306.114 114.558 305.99 114.134 306.044 113.842C306.097 113.551 306.346 113.295 306.497 113.021C307.679 111.53 308.862 110.039 309.947 108.531" stroke="black" stroke-width="2" stroke-miterlimit="10" stroke-linecap="round" stroke-linejoin="round" stroke-dasharray="8.38 8.38"/>
<path d="M304.21 154.094C305.966 156.626 308.069 158.921 310.572 160.686" stroke="black" stroke-width="2" stroke-miterlimit="10" stroke-linecap="round" stroke-linejoin="round" stroke-dasharray="10.23 10.23"/>
<path d="M150.688 172.03C155.86 169.161 162.094 168.196 167.75 169.837C173.405 171.477 178.366 175.803 180.289 181.28C182.193 186.854 180.883 193.444 176.688 197.598" stroke="black" stroke-width="2" stroke-miterlimit="10" stroke-linecap="round" stroke-linejoin="round"/>
<path d="M178.821 195.879C179.663 197.339 180.408 198.782 180.824 200.365C181.241 201.948 181.115 203.734 180.244 205.181C179.826 205.808 179.213 206.398 178.378 206.547C177.56 206.598 176.752 206.047 176.682 205.331" stroke="black" stroke-width="2" stroke-miterlimit="10" stroke-linecap="round" stroke-linejoin="round"/>
<path d="M152.84 170.214C150.791 167.628 147.337 166.09 143.972 166.276C143.252 166.344 142.418 166.493 141.92 167.004C140.942 167.93 141.048 169.557 141.962 170.629C142.777 171.683 144.091 172.226 145.307 172.75" stroke="black" stroke-width="2" stroke-miterlimit="10" stroke-linecap="round" stroke-linejoin="round"/>
<path d="M172.765 171.666C174.408 170.963 176.247 170.295 177.987 170.715C178.671 170.841 179.399 171.276 179.567 172.01C179.691 172.434 179.522 172.806 179.451 173.194C179.085 174.634 178.72 176.074 178.355 177.514" stroke="black" stroke-width="2" stroke-miterlimit="10" stroke-linecap="round" stroke-linejoin="round"/>
<path d="M162.726 277.514C167.036 284.835 171.249 292.139 175.559 299.46C177.723 303.072 179.789 306.666 181.607 310.516C182.857 313.056 183.805 316.143 182.639 318.642C181.643 320.769 179.404 321.966 177.113 322.349C172.432 323.097 167.994 320.876 163.751 318.691C147.248 310.137 130.844 301.601 115.116 291.581" stroke="black" stroke-width="2" stroke-miterlimit="10" stroke-linecap="round" stroke-linejoin="round"/>
<path d="M70.2345 192.324C60.2596 183.964 47.4929 179.812 35.0633 176.024C31.3436 174.838 26.8863 173.82 23.8118 176.269C21.9279 177.732 21.1711 180.205 21.1516 182.512C21.132 184.819 21.9115 187.173 22.8246 189.349C26.0772 197.481 30.8578 204.989 36.9445 211.431" stroke="black" stroke-width="2" stroke-miterlimit="10" stroke-linecap="round" stroke-linejoin="round"/>
<path d="M179.155 196.716C179.194 196.061 179.425 195.389 179.296 194.783C178.763 192.037 178.847 189.113 177.368 186.591C175.969 184.216 174.618 181.717 172.823 179.614C171.509 178.075 169.472 177.145 167.82 175.862C164.322 173.181 160.111 172.355 155.961 171.488C154.066 171.087 152.08 171.04 150.13 171.079C147.695 171.163 145.228 171.266 142.867 171.812C138.671 172.79 134.821 174.784 131.005 176.731C127.403 178.533 123.955 180.654 120.336 182.399C118 183.532 115.484 184.342 113.031 185.242C111.976 185.631 110.894 186.015 109.79 186.236C107.197 186.739 104.623 187.141 102.018 187.564C99.1985 187.999 96.3529 188.43 93.4912 188.805C91.7196 189.036 89.904 189.073 88.1327 189.304C85.9565 189.567 83.7756 189.855 81.6063 190.225C77.5392 190.935 73.4137 191.528 69.4026 192.513C66.4235 193.237 63.4651 194.283 60.7124 195.657C57.7256 197.148 54.9466 199.101 52.1607 200.946C50.6227 201.935 49.2529 203.166 47.7779 204.246C46.612 205.091 45.3829 205.845 44.2171 206.69C42.9036 207.615 41.7001 208.665 40.3494 209.502C39.0549 210.323 37.6761 211.024 36.3183 211.755C34.5791 212.68 32.8446 213.58 31.0844 214.474C29.6447 215.217 28.0791 215.776 26.7445 216.671C25.2018 217.685 23.652 218.882 22.413 220.271C21.2701 221.57 20.1831 223.145 19.723 224.782C19.0966 226.89 19.0221 229.181 18.8799 231.405C18.6595 234.49 18.7927 237.532 19.5059 240.603C20.1587 243.423 21.0129 246.016 22.679 248.387C23.9409 250.208 25.8709 250.562 27.7704 250.937C28.8465 251.161 30.0026 250.949 31.4696 250.927C30.7038 251.766 30.1931 252.52 29.5352 253.061C28.306 254.106 27.8405 256.642 28.4407 257.865C28.8704 258.712 29.4687 259.51 29.7863 260.389C31.1215 263.839 32.9346 267.004 35.1291 269.975C36.8305 272.3 38.6487 274.567 40.5983 276.699C42.0616 278.291 43.7427 279.712 45.4073 281.077C46.9575 282.34 48.6787 283.398 50.2944 284.595C52.9904 286.573 55.7758 288.063 59.2911 286.882C60.4543 286.486 61.7039 286.344 63.0636 286.038C61.495 289.801 61.5151 290.996 64.3788 293.8C65.5313 294.912 66.9041 295.693 68.258 296.577C71.4267 298.589 74.8697 299.829 78.3197 301.178C79.7606 301.733 81.2364 302.242 82.7265 302.675C83.8867 303.02 85.0539 303.472 86.2449 303.505C88.3598 303.576 90.5242 303.524 92.6281 303.221C94.8442 302.887 97.0714 302.342 99.1781 301.59C102.488 300.371 105.311 298.32 107.961 296.053C109.226 294.96 110.642 294.055 111.86 292.928C113.811 291.141 115.656 289.204 117.56 287.382C119.459 285.585 121.32 283.703 123.324 282.059C126.397 279.524 128.33 276.093 130.726 273.037C132.358 270.954 133.66 268.65 135.224 266.501C136.574 264.657 138.042 262.888 139.599 261.214C141.595 259.038 143.506 256.741 145.809 254.913C149.359 252.096 153.17 249.592 156.961 247.057C161.842 243.795 166.18 240.011 169.168 234.892C170.03 233.383 170.748 231.793 171.461 230.23C172.316 228.321 173.322 226.467 173.898 224.481C174.938 220.991 175.797 217.468 176.585 213.906C177.813 208.227 178.862 202.514 179.155 196.716ZM86.1492 202.285C82.0491 203.175 78.2807 204.866 75.1571 207.682C73.4032 209.267 71.6516 210.984 70.3397 212.915C68.9176 215.011 67.9212 217.396 66.8828 219.721C65.7997 222.143 64.8149 224.61 63.9587 227.101C63.0298 229.844 62.4564 232.678 61.4762 235.41C60.4958 238.143 59.092 240.719 58.1164 243.426C57.19 246.009 55.5784 248.124 54.0137 250.272C52.9151 251.765 51.4539 253.059 50.0069 254.277C48.787 255.271 47.3941 256.048 46.0061 256.799C45.5941 257.015 44.9859 256.851 44.4571 256.833C44.4973 256.469 44.4112 255.924 44.6195 255.803C45.5677 255.13 46.6468 254.613 47.6206 253.945C48.7163 253.192 49.7956 252.385 50.7604 251.475C53.4837 248.957 55.1172 245.709 56.8234 242.5C58.5949 239.224 59.417 235.615 60.5852 232.149C61.9199 228.21 63.1564 224.227 64.6406 220.343C65.4075 218.338 66.5977 216.491 67.6545 214.646C68.6269 212.972 69.5106 211.2 70.7589 209.761C72.2789 208.001 74.0117 206.387 75.8917 204.983C77.5587 203.728 79.4337 202.642 81.3763 201.913C83.4408 201.1 85.6872 200.744 87.8494 200.268C89.4033 199.918 90.9993 199.628 92.5812 199.415C94.004 199.199 95.4546 199.122 96.9101 199.018C98.6673 198.864 100.429 198.684 102.208 198.56C103.017 198.497 103.862 198.679 104.671 198.615C107.095 198.451 109.529 198.236 111.921 197.96C114.286 197.679 116.689 197.485 118.999 196.929C121.089 196.412 123.148 195.625 125.125 194.717C126.692 193.998 128.2 193.031 129.588 191.988C131.686 190.413 133.648 188.709 135.662 187.013C137.453 185.514 139.182 183.925 140.951 182.396C141.928 181.569 142.883 180.712 143.965 180.036C146.006 178.77 148.073 177.507 150.226 176.499C153.108 175.148 156.267 174.748 159.434 174.879C160.569 174.928 161.667 175.474 162.756 175.913C162.932 175.972 163.029 176.598 162.942 176.926C162.879 177.127 162.458 177.393 162.221 177.376C161.538 177.331 160.853 177.152 160.158 177.024C155.872 176.026 152.028 177.121 148.371 179.363C147.086 180.133 145.7 180.726 144.457 181.557C143.301 182.351 142.245 183.322 141.172 184.237C139.367 185.812 137.562 187.388 135.782 188.968C134.797 189.846 133.92 190.849 132.909 191.724C131.897 192.597 130.886 193.471 129.732 194.106C127.575 195.272 125.39 196.46 123.105 197.312C120.938 198.105 118.653 198.666 116.372 199.068C113.272 199.585 110.152 199.912 107.043 200.189C104.824 200.391 102.559 200.267 100.33 200.387C98.0435 200.523 95.7271 200.68 93.4643 200.98C91.012 201.298 88.5829 201.779 86.1492 202.285ZM153.582 184.158C153.414 184.498 153.35 184.989 153.055 185.147C152.273 185.639 151.454 186.045 150.618 186.395C147.755 187.643 145.375 189.457 143.612 192.099C141.846 194.767 139.909 197.35 137.93 199.874C137.342 200.613 136.387 201.179 135.495 201.545C133.503 202.397 131.6 203.637 129.239 203.31C128.489 203.199 127.69 203.343 126.593 203.38C126.465 203.065 126.046 202.591 126.149 202.319C126.288 202 126.847 201.705 127.252 201.674C129.019 201.468 130.878 201.625 132.563 201.14C133.994 200.74 135.316 199.765 136.48 198.787C139.035 196.608 140.378 193.491 142.33 190.831C143.754 188.868 145.573 187.216 147.729 186.049C149.264 185.219 150.875 184.561 152.485 183.904C152.749 183.767 153.201 184.062 153.582 184.158ZM168.017 189.137C164.05 188.86 160.592 190.026 157.466 192.418C155.82 193.704 154.064 194.865 152.533 196.252C151.451 197.219 150.631 198.498 149.748 199.687C148.76 201.014 147.843 202.382 146.927 203.75C145.58 205.726 144.322 207.799 142.903 209.737C141.553 211.581 140.085 213.35 138.549 215.054C137.209 216.556 135.776 217.987 134.211 219.262C132.896 220.345 131.339 221.145 129.855 221.985C128.136 222.94 126.445 223.9 124.652 224.683C121.819 225.911 118.861 226.666 115.779 227.08C112.723 227.499 109.62 227.883 106.657 228.663C105.177 229.053 103.868 230.242 102.643 231.263C99.6224 233.806 98.1009 237.313 96.6004 240.851C95.7026 242.989 94.5308 245.025 93.5091 247.114C93.2558 247.625 93.2039 248.198 93.0279 248.721C91.6274 253.018 90.2059 257.285 88.81 261.558C88.1508 263.555 87.6882 265.641 86.9307 267.594C85.7396 270.605 84.4197 273.594 82.3539 276.154C81.9417 276.66 81.4265 277.148 80.8833 277.499C80.6142 277.661 79.9919 277.573 79.7931 277.352C79.6202 277.135 79.6138 276.445 79.8059 276.268C82.7939 273.321 84.6219 269.738 85.7249 265.758C86.6496 262.458 87.6305 259.143 88.6839 255.868C89.5168 253.213 90.3076 250.5 91.4819 248.014C93.4533 243.794 94.8656 239.288 97.5761 235.39C98.6935 233.794 99.5257 232.014 100.758 230.519C101.613 229.484 102.82 228.7 104.03 228.048C106.126 226.923 108.468 226.479 110.822 226.118C113.176 225.755 115.528 225.551 117.854 225.051C122.2 224.128 126.256 222.462 130.044 220.086C132.903 218.28 135.52 216.193 137.68 213.702C140.04 210.985 141.922 207.835 144.006 204.881C144.728 203.849 145.496 202.851 146.239 201.848C147.623 199.958 148.914 197.997 150.413 196.207C151.535 194.877 152.807 193.601 154.195 192.558C155.801 191.344 157.526 190.205 159.364 189.324C162.159 188.009 165.075 186.903 168.488 187.291C168.874 187.654 169.235 188.01 169.615 188.398C169.096 188.62 168.546 189.155 168.017 189.137Z" fill="black"/>
</g>
<defs>
<clipPath id="clip0_2113_1457">
<rect width="299.923" height="296.766" fill="white" transform="translate(53.5724) rotate(10.4001)"/>
</clipPath>
</defs>
</svg>
