<svg width="167" height="115" viewBox="0 0 167 115" fill="none" xmlns="http://www.w3.org/2000/svg">
<mask id="mask0_2370_15820" style="mask-type:luminance" maskUnits="userSpaceOnUse" x="0" y="14" width="167" height="89">
<path d="M167 14H0V102.263H167V14Z" fill="white"/>
</mask>
<g mask="url(#mask0_2370_15820)">
<path d="M15.7644 26.055L19.7265 24.4532L20.2323 25.6335L18.8835 26.1393L21.7497 33.1362L20.4852 33.7263L17.619 26.7294L16.2702 27.2352L15.7644 26.055Z" fill="#1A1F35"/>
</g>
<mask id="mask1_2370_15820" style="mask-type:luminance" maskUnits="userSpaceOnUse" x="0" y="14" width="167" height="89">
<path d="M167 14H0V102.263H167V14Z" fill="white"/>
</mask>
<g mask="url(#mask1_2370_15820)">
<path d="M31.5285 29.7642L30.1796 30.1857L29.5052 28.7526L27.9036 29.2584L28.1565 30.8601L26.9762 31.2816L25.6274 22.5143L27.5662 21.9242L31.5285 29.7642ZM27.6506 28.0782L28.9151 27.6567L26.892 23.6102L27.6506 28.0782Z" fill="#1A1F35"/>
</g>
<mask id="mask2_2370_15820" style="mask-type:luminance" maskUnits="userSpaceOnUse" x="0" y="14" width="167" height="89">
<path d="M167 14H0V102.263H167V14Z" fill="white"/>
</mask>
<g mask="url(#mask2_2370_15820)">
<path d="M35.8278 19.3109C37.0923 18.9737 38.0197 19.5638 38.3569 20.9969L38.4412 21.2498L37.1767 21.587L37.0923 21.2498C36.9237 20.6597 36.6708 20.4911 36.2493 20.5754C35.8278 20.6597 35.6594 20.9969 35.7437 21.587C36.1652 23.3573 38.8627 23.0201 39.4528 25.4648C39.79 26.8136 39.2842 27.741 38.0197 28.0782C36.6709 28.4154 35.8279 27.8253 35.4907 26.3921L35.3221 25.8863L36.5867 25.5491L36.7552 26.1392C36.9238 26.7293 37.2609 26.8979 37.6824 26.8136C38.1039 26.7293 38.3569 26.3921 38.1883 25.802C37.7668 24.0317 35.0692 24.3689 34.3948 21.9242C34.0576 20.5754 34.5633 19.6481 35.8278 19.3109Z" fill="#1A1F35"/>
</g>
<mask id="mask3_2370_15820" style="mask-type:luminance" maskUnits="userSpaceOnUse" x="0" y="14" width="167" height="89">
<path d="M167 14H0V102.263H167V14Z" fill="white"/>
</mask>
<g mask="url(#mask3_2370_15820)">
<path d="M42.9094 17.7936L47.1245 17.0349L47.3772 18.2994L45.9441 18.5523L47.3772 25.9708L46.0285 26.2237L44.5954 18.8052L43.1622 19.0581L42.9094 17.7936Z" fill="#1A1F35"/>
</g>
<mask id="mask4_2370_15820" style="mask-type:luminance" maskUnits="userSpaceOnUse" x="0" y="14" width="167" height="89">
<path d="M167 14H0V102.263H167V14Z" fill="white"/>
</mask>
<g mask="url(#mask4_2370_15820)">
<path d="M54.2901 19.6482L56.2288 19.3953L56.3976 20.6598L54.4586 20.9127L54.7958 23.4417L57.1562 23.1045L57.3248 24.369L53.6156 24.8748L52.4353 16.1918L56.1447 15.686L56.3132 16.8662L53.9528 17.2034L54.2901 19.6482Z" fill="#1A1F35"/>
</g>
<mask id="mask5_2370_15820" style="mask-type:luminance" maskUnits="userSpaceOnUse" x="0" y="14" width="167" height="89">
<path d="M167 14H0V102.263H167V14Z" fill="white"/>
</mask>
<g mask="url(#mask5_2370_15820)">
<path d="M67.7778 16.6134C67.6935 15.1802 68.3677 14.3372 69.7165 14.2529C71.0654 14.1686 71.8241 14.9273 71.9085 16.3604L72.1614 20.9127C72.2457 22.3458 71.5712 23.1888 70.2224 23.2731C68.8736 23.3574 68.1148 22.5987 68.0305 21.1656L67.7778 16.6134ZM69.3794 21.2499C69.3794 21.84 69.7165 22.0929 70.1381 22.0929C70.5596 22.0929 70.8125 21.84 70.8125 21.1656L70.5596 16.4448C70.5596 15.8546 70.2224 15.6017 69.8009 15.6017C69.3794 15.6017 69.1265 15.8547 69.1265 16.5291L69.3794 21.2499Z" fill="#1A1F35"/>
</g>
<mask id="mask6_2370_15820" style="mask-type:luminance" maskUnits="userSpaceOnUse" x="0" y="14" width="167" height="89">
<path d="M167 14H0V102.263H167V14Z" fill="white"/>
</mask>
<g mask="url(#mask6_2370_15820)">
<path d="M78.7371 17.9621H80.5073V19.2266H78.7371L78.8212 22.8516H77.3882L77.2196 14.0843L80.9288 14V15.2645L78.6527 15.3488L78.7371 17.9621Z" fill="#1A1F35"/>
</g>
<mask id="mask7_2370_15820" style="mask-type:luminance" maskUnits="userSpaceOnUse" x="0" y="14" width="167" height="89">
<path d="M167 14H0V102.263H167V14Z" fill="white"/>
</mask>
<g mask="url(#mask7_2370_15820)">
<path d="M92.0563 16.3604C92.1406 14.9273 92.8994 14.1686 94.2482 14.2529C95.597 14.3372 96.2715 15.1802 96.1872 16.6134L95.9342 21.1656C95.9342 21.6714 95.7657 22.0929 95.5971 22.3458C95.6814 22.5144 95.7656 22.5144 95.9342 22.5144H96.0186L95.9342 23.7789H95.7656C95.1755 23.7789 94.7539 23.526 94.5853 23.1045C94.3324 23.1888 93.9952 23.2731 93.5737 23.1888C92.2249 23.1045 91.5505 22.2615 91.6348 20.8284L92.0563 16.3604ZM93.1522 21.0813C93.1522 21.6714 93.4052 21.9243 93.8267 22.0086C94.2482 22.0086 94.5853 21.84 94.5853 21.1656L94.8383 16.4448C94.8383 15.8546 94.5853 15.6017 94.1638 15.5174C93.7423 15.5174 93.4052 15.686 93.4052 16.3604L93.1522 21.0813Z" fill="#1A1F35"/>
</g>
<mask id="mask8_2370_15820" style="mask-type:luminance" maskUnits="userSpaceOnUse" x="0" y="14" width="167" height="89">
<path d="M167 14H0V102.263H167V14Z" fill="white"/>
</mask>
<g mask="url(#mask8_2370_15820)">
<path d="M103.185 15.0117L102.51 21.7557C102.426 22.3458 102.679 22.5987 103.1 22.683C103.522 22.683 103.859 22.5144 103.859 21.9243L104.533 15.1803L105.798 15.2646L105.123 21.9243C104.955 23.3575 104.196 24.0319 102.847 23.9476C101.498 23.779 100.908 22.936 100.993 21.5871L101.667 14.9274L103.185 15.0117Z" fill="#1A1F35"/>
</g>
<mask id="mask9_2370_15820" style="mask-type:luminance" maskUnits="userSpaceOnUse" x="0" y="14" width="167" height="89">
<path d="M167 14H0V102.263H167V14Z" fill="white"/>
</mask>
<g mask="url(#mask9_2370_15820)">
<path d="M114.565 25.2963L113.216 25.1277V23.526L111.53 23.2731L111.024 24.7905L109.76 24.6219L112.458 16.1075L114.481 16.3604L114.565 25.2963ZM111.867 22.0086L113.216 22.1772V17.7093L111.867 22.0086Z" fill="#1A1F35"/>
</g>
<mask id="mask10_2370_15820" style="mask-type:luminance" maskUnits="userSpaceOnUse" x="0" y="14" width="167" height="89">
<path d="M167 14H0V102.263H167V14Z" fill="white"/>
</mask>
<g mask="url(#mask10_2370_15820)">
<path d="M121.14 17.4564L122.489 17.7936L120.972 25.1278L123.248 25.6336L122.995 26.8138L119.37 26.1394L121.14 17.4564Z" fill="#1A1F35"/>
</g>
<mask id="mask11_2370_15820" style="mask-type:luminance" maskUnits="userSpaceOnUse" x="117" y="15" width="16" height="21">
<path d="M121.444 15.4564L117.167 32.2935L128.692 35.2212L132.969 18.3841L121.444 15.4564Z" fill="white"/>
</mask>
<g mask="url(#mask11_2370_15820)">
<path d="M129.903 19.4771L127.745 27.9742L129.052 28.3063L131.211 19.8091L129.903 19.4771Z" fill="#1A1F35"/>
</g>
<mask id="mask12_2370_15820" style="mask-type:luminance" maskUnits="userSpaceOnUse" x="0" y="14" width="167" height="89">
<path d="M167 14H0V102.263H167V14Z" fill="white"/>
</mask>
<g mask="url(#mask12_2370_15820)">
<path d="M136.399 21.25L140.53 22.5145L140.108 23.6947L138.759 23.2732L136.483 30.4388L135.219 30.0173L137.411 22.8517L136.062 22.4302L136.399 21.25Z" fill="#1A1F35"/>
</g>
<mask id="mask13_2370_15820" style="mask-type:luminance" maskUnits="userSpaceOnUse" x="0" y="14" width="167" height="89">
<path d="M167 14H0V102.263H167V14Z" fill="white"/>
</mask>
<g mask="url(#mask13_2370_15820)">
<path d="M144.913 30.3543L145.503 24.2847L146.852 24.7905L146.346 28.9212L148.791 25.5492L150.055 26.055L146.178 30.8601L145.082 33.5578L143.817 33.0519L144.913 30.3543Z" fill="#1A1F35"/>
</g>
<mask id="mask14_2370_15820" style="mask-type:luminance" maskUnits="userSpaceOnUse" x="0" y="14" width="167" height="89">
<path d="M167 14H0V102.263H167V14Z" fill="white"/>
</mask>
<g mask="url(#mask14_2370_15820)">
<path d="M142.131 39.4589C126.535 32.7148 105.713 29.0056 83.6262 28.9213C83.4576 28.9213 83.3733 28.9213 83.2047 28.9213C36.5864 28.9213 0.08419 44.9384 -0.0844116 65.4235C-0.0844116 70.6502 2.27605 75.6239 6.9126 80.3447C20.0635 93.58 49.9903 102.179 83.2891 102.263H83.7106C130.329 102.263 166.831 86.2458 167 65.7607C167 55.7289 158.233 46.3715 142.131 39.4589ZM83.2891 100.661C38.0196 100.577 1.43302 84.8127 1.51732 65.4235C1.60163 46.0343 38.3567 30.4387 83.6262 30.523C128.896 30.6073 165.482 46.3715 165.398 65.7607C165.314 85.1499 128.559 100.83 83.2891 100.661Z" fill="#1A1F35"/>
</g>
<mask id="mask15_2370_15820" style="mask-type:luminance" maskUnits="userSpaceOnUse" x="0" y="14" width="167" height="89">
<path d="M167 14H0V102.263H167V14Z" fill="white"/>
</mask>
<g mask="url(#mask15_2370_15820)">
<path d="M13.0668 67.7838C14.4156 67.7838 15.4272 66.6879 15.4272 65.4234C15.4272 64.0746 14.3313 63.063 13.0668 63.063C11.718 63.063 10.7064 64.1589 10.7064 65.4234C10.6221 66.6879 11.718 67.7838 13.0668 67.7838Z" fill="#1A1F35"/>
</g>
<mask id="mask16_2370_15820" style="mask-type:luminance" maskUnits="userSpaceOnUse" x="0" y="14" width="167" height="89">
<path d="M167 14H0V102.263H167V14Z" fill="white"/>
</mask>
<g mask="url(#mask16_2370_15820)">
<path d="M153.933 62.9789C152.584 62.9789 151.573 64.0748 151.573 65.3393C151.573 66.6881 152.669 67.6997 153.933 67.6997C155.282 67.6997 156.294 66.6038 156.294 65.3393C156.294 64.0748 155.282 62.9789 153.933 62.9789Z" fill="#1A1F35"/>
</g>
<mask id="mask17_2370_15820" style="mask-type:luminance" maskUnits="userSpaceOnUse" x="0" y="14" width="167" height="89">
<path d="M167 14H0V102.263H167V14Z" fill="white"/>
</mask>
<g mask="url(#mask17_2370_15820)">
<path d="M25.8805 47.2145V84.054C31.8659 86.3301 34.8164 87.2574 40.9704 88.9434V79.586C38.6942 79.2488 37.514 78.9959 35.2379 78.5744V43.9268C31.4443 45.1913 29.5054 45.7814 25.8805 47.2145Z" fill="#1A1F35"/>
</g>
<mask id="mask18_2370_15820" style="mask-type:luminance" maskUnits="userSpaceOnUse" x="0" y="14" width="167" height="89">
<path d="M167 14H0V102.263H167V14Z" fill="white"/>
</mask>
<g mask="url(#mask18_2370_15820)">
<path d="M43.7524 41.5663V70.06C43.7524 75.4553 43.8366 79.0802 44.0052 80.7662C44.1738 82.4522 44.6798 84.2225 45.4385 85.9086C46.2815 87.5946 47.546 89.1963 49.232 90.5451C50.918 91.8939 52.8568 92.8212 55.0487 93.2427C57.0719 93.5799 58.7579 93.4956 60.2753 92.7369C61.7927 92.0625 62.9729 90.798 63.8159 89.112C64.7432 87.426 65.2491 85.6557 65.4177 83.9697C65.5863 82.2836 65.6707 79.2488 65.6707 75.0338V37.5199C61.7928 37.9414 59.8539 38.1943 55.9761 38.8687V78.1529C55.9761 80.8505 55.8917 82.4522 55.7231 83.211C55.5545 83.8854 55.1329 84.2225 54.5428 84.1382C54.037 84.0539 53.6156 83.7167 53.447 83.0423C53.2784 82.3679 53.1941 80.9348 53.1941 78.6587V39.3745C49.4849 40.2175 47.546 40.639 43.7524 41.5663Z" fill="#1A1F35"/>
</g>
<mask id="mask19_2370_15820" style="mask-type:luminance" maskUnits="userSpaceOnUse" x="0" y="14" width="167" height="89">
<path d="M167 14H0V102.263H167V14Z" fill="white"/>
</mask>
<g mask="url(#mask19_2370_15820)">
<path d="M93.4056 94.423C90.9609 81.9465 89.6963 75.5396 87.2516 62.7259C89.5277 52.2726 90.6237 46.9617 92.8155 36.677C89.1906 36.5084 87.3358 36.4241 83.6266 36.4241C81.8563 45.4443 81.0133 49.9965 79.243 59.0167V36.4241C75.3652 36.5084 73.4264 36.677 69.4642 37.0142V93.9172C73.3421 94.2544 75.2809 94.3387 79.243 94.5073V69.6386C80.8447 79.5861 81.6034 84.6442 83.2051 94.5916C87.3358 94.7602 89.3591 94.6759 93.4056 94.423Z" fill="#1A1F35"/>
</g>
<mask id="mask20_2370_15820" style="mask-type:luminance" maskUnits="userSpaceOnUse" x="0" y="14" width="167" height="89">
<path d="M167 14H0V102.263H167V14Z" fill="white"/>
</mask>
<g mask="url(#mask20_2370_15820)">
<path d="M95.0912 94.3387C99.1376 94.0858 101.161 93.9172 105.123 93.3271C105.376 89.2806 105.46 87.3417 105.713 83.2953C107.062 83.211 107.821 83.1267 109.169 82.9581C109.338 86.8359 109.507 88.7748 109.675 92.6527C113.637 92.0626 115.576 91.6411 119.538 90.7981C117.6 73.6007 115.829 56.4033 114.059 39.1216C108.495 38.11 105.713 37.6885 100.065 37.1827C98.3788 56.319 96.6929 75.2867 95.0912 94.3387ZM107.399 50.418C107.905 59.6068 108.411 67.2781 108.832 73.4321C107.483 73.5164 106.809 73.5164 105.46 73.6007C105.797 68.6269 106.472 60.8713 107.399 50.418Z" fill="#1A1F35"/>
</g>
<mask id="mask21_2370_15820" style="mask-type:luminance" maskUnits="userSpaceOnUse" x="0" y="14" width="167" height="89">
<path d="M167 14H0V102.263H167V14Z" fill="white"/>
</mask>
<g mask="url(#mask21_2370_15820)">
<path d="M131.678 50.0807C132.184 50.165 132.605 50.5022 132.774 50.9237C133.027 51.3452 133.111 52.3568 133.111 53.8742V57.0777C136.567 57.4992 138.338 57.7521 141.794 58.2579V56.7405C141.794 55.9817 141.794 55.3073 141.71 54.6329C141.71 53.6213 141.541 52.6097 141.372 51.6824C141.288 51.5138 140.951 50.165 140.951 50.0807C137.326 39.6274 122.405 38.1943 121.478 47.9732C121.225 49.4906 121.056 51.3452 121.056 53.6213C121.056 56.2347 121.309 58.5108 121.815 60.1968C122.32 61.8828 122.995 63.2316 123.754 64.1589C124.512 65.0863 126.114 66.688 128.475 68.5426C130.835 70.3972 132.268 71.5774 132.858 72.3361C133.448 73.0948 133.701 74.6965 133.701 77.2256C133.701 78.4058 133.533 79.2488 133.28 79.9232C132.942 80.5976 132.521 80.9348 131.847 81.1034C131.256 81.272 130.751 81.1034 130.498 80.6819C130.245 80.2604 130.161 79.1645 130.161 77.4785V71.9989C126.62 72.2518 124.85 72.4204 121.309 72.6733V75.9611C121.309 79.6703 121.562 82.5365 122.152 84.4754C122.405 85.4871 122.911 86.33 123.585 87.0888C123.669 87.1731 124.344 87.7632 124.597 87.9318C129.57 91.5567 138.422 87.8475 141.372 81.272C141.457 81.1034 141.963 79.7546 142.047 79.2488C142.131 78.9959 142.384 77.2256 142.384 77.2256C142.468 76.8041 142.468 76.3826 142.468 75.8768C142.468 75.8768 142.468 74.8651 142.468 74.6122C142.468 70.9873 141.963 68.4583 140.867 66.7723C139.771 65.0863 137.242 62.9787 133.027 59.6067C131.594 58.4265 130.666 57.4149 130.329 56.6562C129.992 55.8975 129.823 54.7173 129.823 53.1998C129.823 52.0196 129.992 51.1766 130.245 50.6708C130.666 50.165 131.088 49.9121 131.678 50.0807Z" fill="#1A1F35"/>
</g>
</svg>
