<svg width="131" height="115" viewBox="0 0 131 115" fill="none" xmlns="http://www.w3.org/2000/svg">
<mask id="mask0_2370_15833" style="mask-type:luminance" maskUnits="userSpaceOnUse" x="0" y="11" width="131" height="93">
<path d="M131 11.9999H0V103.223H131V11.9999Z" fill="white"/>
</mask>
<g mask="url(#mask0_2370_15833)">
<path d="M100.012 74.962C100.012 74.8863 100.012 74.8105 99.936 74.7348C99.8602 74.659 99.7844 74.6589 99.7086 74.6589H93.8747C93.4958 74.6589 93.3443 74.9621 93.3443 75.1136L91.2986 86.7058C91.2986 86.7058 91.2986 86.9331 91.3743 87.0846C91.4501 87.1604 91.5259 87.2362 91.6774 87.2362H97.5115C97.5872 87.2362 97.663 87.2361 97.7387 87.1604C97.8903 87.0846 97.9661 86.9331 97.9661 86.7815L98.1176 85.7966C98.1176 85.7966 98.4206 83.9024 98.4964 83.6751C98.6479 83.9782 99.3298 85.6451 99.6329 86.4027L99.8602 86.8574C99.936 87.0847 100.239 87.1604 100.315 87.1604H106.528C106.528 87.1604 106.679 87.1604 106.755 87.0089C106.831 86.9331 106.831 86.8573 106.831 86.7815C106.831 86.7058 106.831 86.7058 106.831 86.6301C106.755 86.327 104.937 81.8568 104.633 81.1749C104.633 81.0991 104.709 80.9476 104.709 80.8718C104.785 80.7961 109.483 75.4166 109.483 75.4166C109.558 75.3408 109.71 75.1136 109.558 74.8863C109.482 74.659 109.255 74.6589 109.028 74.6589H102.36L102.133 74.7348C102.057 74.8105 101.982 74.8863 101.906 74.8863C101.906 74.8863 99.7844 78.0685 99.3298 78.6746C99.4813 77.7654 99.936 75.1136 99.936 75.1136C100.012 75.0378 100.012 75.0378 100.012 74.962Z" fill="#1A1F35"/>
</g>
<mask id="mask1_2370_15833" style="mask-type:luminance" maskUnits="userSpaceOnUse" x="0" y="11" width="131" height="93">
<path d="M131 11.9999H0V103.223H131V11.9999Z" fill="white"/>
</mask>
<g mask="url(#mask1_2370_15833)">
<path d="M117.059 86.4785C117.059 86.63 117.135 86.7057 117.135 86.7057C117.286 86.8573 117.438 86.7815 117.438 86.7815H122.817C122.969 86.7815 123.196 86.7057 123.272 86.4027C123.272 86.1754 125.242 75.0378 125.318 74.8862C125.318 74.8862 125.318 74.7347 125.242 74.6589C125.166 74.5831 125.015 74.4316 124.863 74.4316H124.484C120.999 74.4316 119.332 74.4316 119.181 74.4316C118.877 74.5074 118.802 74.6589 118.726 74.8105L118.574 75.6439C118.574 75.6439 118.574 75.7196 118.499 75.7196C118.499 75.7196 118.499 75.7196 118.423 75.7196L118.196 75.5681C118.044 75.4166 117.817 75.1893 117.589 75.1136C117.059 74.8105 116.15 74.4316 114.635 74.4316C112.892 74.4316 111.377 75.1135 111.301 75.1893C111.225 75.1893 109.558 75.9469 108.725 78.0684C108.119 79.9625 107.891 80.8717 107.816 82.9932C107.816 85.4935 109.71 86.4785 109.861 86.5543C109.937 86.63 110.922 87.2361 113.574 87.1603C114.483 87.1603 114.862 87.0089 115.316 86.8573C115.62 86.7058 115.847 86.63 116.074 86.4785C116.529 86.2512 116.756 86.0239 116.832 85.8723L116.908 85.7966C116.908 85.7966 116.908 85.7966 116.908 85.8723C116.908 85.8723 116.908 85.8723 116.908 85.9481C116.908 86.0239 116.908 86.1754 116.832 86.4027C117.059 86.4784 117.059 86.4785 117.059 86.4785ZM115.923 83.372C114.634 83.372 114.331 82.4629 114.331 82.3871C114.331 82.3871 114.104 80.6445 115.013 79.4322C115.544 78.5988 116.68 78.6745 116.68 78.6745C116.756 78.6745 117.741 78.523 118.12 79.5837C118.574 80.9475 117.665 82.4629 117.665 82.4629C117.665 82.5386 117.211 83.372 115.923 83.372Z" fill="#1A1F35"/>
</g>
<mask id="mask2_2370_15833" style="mask-type:luminance" maskUnits="userSpaceOnUse" x="0" y="11" width="131" height="93">
<path d="M131 11.9999H0V103.223H131V11.9999Z" fill="white"/>
</mask>
<g mask="url(#mask2_2370_15833)">
<path d="M49.1722 63.9759C49.4752 64.279 49.7783 64.5063 50.0056 64.7336C52.0513 66.552 57.5065 70.8706 64.6285 70.8706C64.78 70.8706 65.1588 70.8706 65.5377 70.8706C65.9165 70.8706 66.2954 70.8706 66.4469 70.8706C73.569 70.8706 79.0241 66.552 81.0698 64.7336C81.2971 64.5063 81.5243 64.279 81.9032 63.9759C85.843 60.4149 96.2988 51.0199 98.7234 43.519C101.678 34.1998 99.2537 26.1686 91.6013 19.5011C90.5406 18.4404 87.7372 16.5462 87.7372 16.5462C82.1305 12.8337 76.2208 12.0002 72.2051 12.0002C71.2959 12.0002 70.3867 12.0003 69.5533 12.1518C69.0987 12.1518 68.6441 12.2276 68.038 12.3033C67.2803 12.3791 66.4468 12.5306 65.6134 12.5306C64.78 12.5306 63.9466 12.4549 63.1889 12.3033C62.5828 12.2276 62.1282 12.1518 61.6736 12.1518C60.7644 12.076 59.931 12.0002 59.0218 12.0002C55.0819 12.0002 49.0964 12.7579 43.4897 16.5462C43.4897 16.5462 40.6863 18.4404 39.6256 19.5011C31.9732 26.0928 29.5487 34.1998 32.5036 43.519C34.7008 51.0199 45.2323 60.4149 49.1722 63.9759ZM40.2317 20.2588C41.1409 19.3496 43.7927 17.5312 44.02 17.4554C49.3237 13.8944 54.9304 13.1367 58.946 13.1367C59.931 13.1367 60.8402 13.2125 61.5979 13.2883C62.4313 13.2883 64.0223 13.6671 65.6134 13.6671C67.2045 13.6671 68.7199 13.2883 69.6291 13.2883C70.3867 13.2125 71.2959 13.1367 72.2809 13.1367C76.2207 13.1367 81.8274 13.9702 87.2068 17.4554C87.3583 17.607 90.0102 19.4254 90.9951 20.2588C99.784 27.8354 100.011 36.0939 97.8141 43.1402C95.3138 51.0199 83.1913 61.3999 80.5394 63.9002C77.8118 66.4005 72.8112 69.7341 66.6742 69.7341H65.765H64.8558C58.7187 69.7341 53.7182 66.4005 50.9906 63.9002C48.263 61.3999 36.1403 51.0199 33.7158 43.1402C31.2155 36.1697 31.4428 27.8354 40.2317 20.2588Z" fill="#1A1F35"/>
</g>
<mask id="mask3_2370_15833" style="mask-type:luminance" maskUnits="userSpaceOnUse" x="0" y="11" width="131" height="93">
<path d="M131 11.9999H0V103.223H131V11.9999Z" fill="white"/>
</mask>
<g mask="url(#mask3_2370_15833)">
<path d="M91.6771 74.6589H85.8431C85.4643 74.6589 85.3127 74.9621 85.3127 75.1136C85.3127 75.1136 84.6309 78.9019 84.6309 79.1292H81.8275C81.9032 78.7503 82.5094 75.1136 82.5094 75.1136V75.0378C82.5094 74.962 82.5094 74.8863 82.4336 74.8105C82.3579 74.7348 82.2821 74.6589 82.2063 74.6589H76.3723C75.9935 74.6589 75.8419 74.9621 75.8419 75.1136L73.7963 86.7058C73.7963 86.7816 73.7962 86.9331 73.872 87.0846C73.9478 87.1604 74.0236 87.2362 74.1751 87.2362H80.0849C80.2364 87.2362 80.4637 87.1604 80.5395 86.7815C80.5395 86.7815 81.2214 82.9932 81.3729 82.2356H84.1762C84.1004 82.6144 83.4186 86.7815 83.4186 86.7815V86.8574C83.4186 86.9332 83.4186 87.0088 83.4944 87.1604C83.5702 87.2361 83.6459 87.312 83.7974 87.312H89.7072C89.783 87.312 90.086 87.2362 90.1618 86.8574C90.2375 86.4786 92.1318 75.7197 92.2075 75.2651C92.2075 75.2651 92.2074 75.0378 92.1317 74.962C91.8286 74.659 91.7529 74.6589 91.6771 74.6589Z" fill="#1A1F35"/>
</g>
<mask id="mask4_2370_15833" style="mask-type:luminance" maskUnits="userSpaceOnUse" x="0" y="11" width="131" height="93">
<path d="M131 11.9999H0V103.223H131V11.9999Z" fill="white"/>
</mask>
<g mask="url(#mask4_2370_15833)">
<path d="M86.298 56.9297C86.3737 56.8539 86.3737 56.8538 86.4495 56.7781C86.3737 56.8538 86.298 56.8539 86.298 56.9297Z" fill="#1A1F35"/>
</g>
<mask id="mask5_2370_15833" style="mask-type:luminance" maskUnits="userSpaceOnUse" x="0" y="11" width="131" height="93">
<path d="M131 11.9999H0V103.223H131V11.9999Z" fill="white"/>
</mask>
<g mask="url(#mask5_2370_15833)">
<path d="M57.2041 36.6999C65.1595 31.7751 68.4175 23.2893 65.0838 17.9857C61.75 12.682 52.9612 12.7577 44.1723 18.1372C36.1411 22.9862 33.1104 30.7144 36.3683 35.9422C39.6263 41.3217 49.2486 41.7005 57.2041 36.6999Z" fill="#1A1F35"/>
</g>
<mask id="mask6_2370_15833" style="mask-type:luminance" maskUnits="userSpaceOnUse" x="0" y="11" width="131" height="93">
<path d="M131 11.9999H0V103.223H131V11.9999Z" fill="white"/>
</mask>
<g mask="url(#mask6_2370_15833)">
<path d="M95.0868 32.9117C99.0266 45.0343 87.889 55.4901 86.3736 56.7781C91.1469 52.6867 94.1018 49.2772 95.7687 45.792C99.2539 38.8215 97.8902 33.2148 97.8902 33.2148C96.6779 25.9412 88.7982 17.6827 80.9942 15.334C73.0388 12.9852 68.4928 14.1217 68.4928 14.1217C72.2053 14.8793 78.9486 17.3796 84.7826 21.2437C89.7074 24.5017 93.7987 28.8203 95.0868 32.9117Z" fill="#1A1F35"/>
</g>
<mask id="mask7_2370_15833" style="mask-type:luminance" maskUnits="userSpaceOnUse" x="0" y="11" width="131" height="93">
<path d="M131 11.9999H0V103.223H131V11.9999Z" fill="white"/>
</mask>
<g mask="url(#mask7_2370_15833)">
<path d="M73.6452 45.8677C65.0836 64.8851 45.6117 57.9904 45.6117 57.9904C45.6117 57.9904 49.6273 62.5364 54.4006 65.7943C56.219 67.0066 58.8707 68.2946 62.1287 68.825C64.5532 69.2038 68.1143 68.9765 68.4931 68.9007C78.4185 67.5369 81.3733 61.4757 85.2374 53.8991C90.7684 42.9129 89.3289 19.1223 63.7956 14.1975C63.7956 14.1217 82.2068 26.9262 73.6452 45.8677Z" fill="#1A1F35"/>
</g>
<mask id="mask8_2370_15833" style="mask-type:luminance" maskUnits="userSpaceOnUse" x="0" y="11" width="131" height="93">
<path d="M131 11.9999H0V103.223H131V11.9999Z" fill="white"/>
</mask>
<g mask="url(#mask8_2370_15833)">
<path d="M23.4117 86.7817C23.5632 86.7059 23.639 86.5544 23.639 86.4028C23.7148 86.024 26.215 71.7799 26.215 71.6284C26.215 71.6284 26.2908 71.4769 26.1393 71.3254C26.1393 71.2496 26.0635 71.1738 25.912 71.1738H11.8952C11.5164 71.1738 11.3648 71.5527 11.3648 71.7042L9.62225 81.5539C9.62225 81.5539 9.39494 82.463 8.94034 82.8419C8.48574 83.2965 7.19773 83.2964 6.97043 83.2964H6.89459C6.81883 83.3722 6.81883 83.3722 6.51576 85.0391C6.43999 85.4937 6.21277 86.7059 6.21277 86.7059C6.21277 86.7817 6.21275 86.7817 6.28852 86.8575C6.28852 86.8575 6.36425 86.9333 6.44001 86.9333L7.80384 87.009C9.77377 87.1605 12.0467 87.3121 13.7136 86.1756H13.7894C15.0017 85.4179 15.6836 84.2056 16.0624 83.2964C16.0624 83.2207 16.1381 82.9934 17.4261 76.1744H18.8657C18.7899 76.5532 17.0473 86.3271 17.0473 86.3271C17.0473 86.3271 17.0473 86.3271 17.0473 86.4028C17.0473 86.4786 17.0473 86.5544 17.123 86.6302C17.1988 86.7059 17.2746 86.7817 17.4261 86.7817H23.1086H23.1844C23.2601 86.8574 23.3359 86.8574 23.4117 86.7817Z" fill="#1A1F35"/>
</g>
<mask id="mask9_2370_15833" style="mask-type:luminance" maskUnits="userSpaceOnUse" x="0" y="11" width="131" height="93">
<path d="M131 11.9999H0V103.223H131V11.9999Z" fill="white"/>
</mask>
<g mask="url(#mask9_2370_15833)">
<path d="M43.7174 85.1147C44.0962 85.5693 44.7023 86.0997 45.1568 86.327C45.9903 86.7058 46.5207 86.7816 46.9753 86.9331C47.4299 87.0089 47.8087 87.0846 48.4148 87.0846C48.8694 87.0846 49.2482 87.0846 49.7028 87.0846C50.4605 87.0846 51.1424 87.0089 51.597 86.9331C52.8092 86.7058 53.7185 86.5543 54.4004 86.327C54.7792 86.2512 55.0823 86.0996 55.2338 86.0239C55.3853 85.9481 55.5369 85.8724 55.6126 85.7209C55.6884 85.5693 56.5218 82.2356 56.5218 82.1598C56.5218 82.0083 56.5218 81.9325 56.4461 81.8567C56.3703 81.781 56.2187 81.781 56.143 81.781C56.0672 81.781 54.3246 82.1599 53.3397 82.3114C52.3547 82.4629 50.6878 82.5387 50.0817 82.3114C49.7028 82.1599 49.324 81.9325 49.2483 81.4779C49.2483 80.8718 49.3998 80.2656 49.6271 79.8868C49.9301 79.508 50.3848 79.2807 50.6121 79.2049C51.1424 78.9776 52.0517 78.9019 52.8093 78.9777C53.7185 79.0534 54.6277 79.1292 55.3096 79.2807L56.143 79.3565H56.4461C56.5976 79.3565 56.6734 79.3565 56.7491 79.2807C56.8249 79.205 56.9006 79.0534 56.9006 78.9777L57.5825 74.6589C57.5825 74.6589 57.5825 74.6589 57.5825 74.5832C57.5825 74.5074 57.5826 74.4316 57.431 74.2801C57.3553 74.2043 57.2795 74.2044 57.2037 74.1286C57.1279 74.1286 56.8249 74.0529 56.3703 73.9771C55.2338 73.8256 53.1881 73.5983 52.1274 73.5983C50.9909 73.5983 47.4299 73.5983 45.4599 75.1136C44.0204 76.2501 43.4143 77.3108 42.9597 78.5988C42.5051 79.9626 42.3536 81.7053 42.5809 82.6902C42.9597 83.9025 43.2628 84.5843 43.7174 85.1147Z" fill="#1A1F35"/>
</g>
<mask id="mask10_2370_15833" style="mask-type:luminance" maskUnits="userSpaceOnUse" x="0" y="11" width="131" height="93">
<path d="M131 11.9999H0V103.223H131V11.9999Z" fill="white"/>
</mask>
<g mask="url(#mask10_2370_15833)">
<path d="M34.7011 86.4785C34.7011 86.63 34.7768 86.7057 34.7768 86.7057C34.9283 86.8573 35.0799 86.7815 35.0799 86.7815H40.4593C40.6108 86.7815 40.8381 86.7057 40.9139 86.4027C40.9896 86.1754 42.8838 75.0378 42.9596 74.8862C42.9596 74.8862 42.9595 74.7347 42.8838 74.6589C42.808 74.5831 42.6565 74.4316 42.5049 74.4316H42.1261C38.6409 74.4316 36.974 74.4316 36.8225 74.4316C36.5194 74.5074 36.4437 74.6589 36.3679 74.8105L36.2164 75.6439C36.2164 75.6439 36.2164 75.7196 36.1406 75.7196C36.1406 75.7196 36.1406 75.7196 36.0648 75.7196L35.8376 75.5681C35.686 75.4166 35.4587 75.1893 35.2314 75.1136C34.701 74.8105 33.7918 74.4316 32.2765 74.4316C30.5339 74.4316 29.0186 75.1135 28.9428 75.1893C28.8671 75.1893 27.2002 75.9469 26.3668 78.0684C25.7606 79.9625 25.5333 80.8717 25.4575 82.9932C25.4575 85.4935 27.3517 86.4785 27.5033 86.5543C27.579 86.63 28.564 87.2361 31.2158 87.1603C32.125 87.1603 32.5038 87.0089 32.9584 86.8573C33.2615 86.7058 33.4888 86.63 33.7161 86.4785C34.1707 86.2512 34.3222 86.0239 34.4737 85.8723L34.5495 85.7966C34.5495 85.7966 34.5495 85.7966 34.5495 85.8723C34.5495 85.8723 34.5495 85.8723 34.5495 85.9481C34.5495 86.0239 34.5495 86.1754 34.4737 86.4027C34.701 86.4784 34.7011 86.4785 34.7011 86.4785ZM33.5646 83.372C32.2765 83.372 31.9735 82.4629 31.9735 82.3871C31.9735 82.3871 31.7462 80.6445 32.7312 79.4322C33.2615 78.5988 34.398 78.6745 34.398 78.6745C34.4737 78.6745 35.4587 78.523 35.8376 79.5837C36.2922 80.9475 35.383 82.4629 35.383 82.4629C35.3072 82.5386 34.7768 83.372 33.5646 83.372Z" fill="#1A1F35"/>
</g>
<mask id="mask11_2370_15833" style="mask-type:luminance" maskUnits="userSpaceOnUse" x="0" y="11" width="131" height="93">
<path d="M131 11.9999H0V103.223H131V11.9999Z" fill="white"/>
</mask>
<g mask="url(#mask11_2370_15833)">
<path d="M67.5839 91.4034C67.5839 91.4034 61.1438 92.9945 55.1583 92.1611C49.4 90.9488 62.5076 94.7371 66.9778 92.9945C66.3716 92.3884 67.5839 91.4034 67.5839 91.4034Z" fill="#1A1F35"/>
</g>
<mask id="mask12_2370_15833" style="mask-type:luminance" maskUnits="userSpaceOnUse" x="0" y="11" width="131" height="93">
<path d="M131 11.9999H0V103.223H131V11.9999Z" fill="white"/>
</mask>
<g mask="url(#mask12_2370_15833)">
<path d="M72.4331 79.5079C74.0242 77.0076 75.1607 75.1892 75.2365 75.0377C75.3123 74.8861 75.3122 74.8104 75.3122 74.6588C75.2365 74.5831 75.1607 74.5073 75.0849 74.5073H73.0393H68.8721C68.7963 74.5073 68.569 74.5074 68.4933 74.7347C68.4933 74.7347 68.3417 74.9619 68.1902 75.3407C67.5841 76.7045 66.0687 79.7352 65.9172 80.2655C65.9172 80.114 65.3868 76.856 65.1595 75.4165C65.0838 75.0377 65.0838 74.8104 65.0838 74.8104C65.0838 74.8104 65.0838 74.6588 64.9323 74.5831C64.8565 74.5073 64.7807 74.5073 64.705 74.5073H59.2498H58.6436C58.5679 74.5073 58.2648 74.5831 58.2648 74.8104V74.8862C58.2648 75.0377 58.2648 75.1892 58.3406 75.1892L61.5986 85.1146C61.5986 85.1904 61.6743 85.2662 61.6743 85.3419C61.5228 85.3419 60.5378 85.3419 59.7044 85.3419C58.6437 85.3419 58.0375 85.3419 57.886 85.3419C57.5829 85.4177 57.5072 85.645 57.4314 85.7965L56.901 88.9029C56.901 88.9029 56.8253 89.0545 56.9768 89.206C57.0526 89.2818 57.1283 89.3575 57.2798 89.3575C57.4313 89.3575 62.0532 89.5091 62.2805 89.5091H63.0381C63.1139 89.5091 65.1595 89.5848 66.3718 88.4483C67.2052 87.8422 68.0386 86.7815 69.0236 85.3419L72.4331 79.5079Z" fill="#1A1F35"/>
</g>
<mask id="mask13_2370_15833" style="mask-type:luminance" maskUnits="userSpaceOnUse" x="0" y="11" width="131" height="93">
<path d="M131 11.9999H0V103.223H131V11.9999Z" fill="white"/>
</mask>
<g mask="url(#mask13_2370_15833)">
<path d="M66.7503 93.752C66.7503 93.752 62.962 94.6611 59.401 94.2065C55.9915 93.5246 63.7196 95.7218 66.3714 94.7369C66.0684 94.358 66.7503 93.752 66.7503 93.752Z" fill="#1A1F35"/>
</g>
<mask id="mask14_2370_15833" style="mask-type:luminance" maskUnits="userSpaceOnUse" x="0" y="11" width="131" height="93">
<path d="M131 11.9999H0V103.223H131V11.9999Z" fill="white"/>
</mask>
<g mask="url(#mask14_2370_15833)">
<path d="M126.833 68.9008C120.847 65.5671 112.362 62.9911 101.678 61.1727C98.3448 60.6424 94.8595 60.112 91.1469 59.7331C90.3893 59.6574 89.2528 59.5058 88.4951 59.4301C88.0405 59.8847 87.6616 60.3393 87.207 60.7181C87.9647 60.7939 89.177 60.9454 89.9347 61.0211C105.543 62.6122 118.12 65.7187 125.924 70.0373C128.197 71.3254 129.257 76.0986 129.257 79.9627C129.257 83.5237 128.651 88.1455 125.848 89.8882C120.014 93.525 111.301 96.4798 100.769 98.4497C100.845 98.2982 100.921 98.1467 100.997 97.9951C101.375 95.4191 96.9052 95.116 96.9052 95.116L95.3898 94.9645H95.6929C74.8572 93.6007 58.4158 102.617 57.6582 101.102C56.9763 99.7377 55.3852 95.0403 51.8999 94.8887C44.6264 94.5099 35.7617 96.0252 28.867 98.374C18.79 96.404 10.5315 93.5249 4.84906 89.9639C2.04571 88.2213 1.43958 83.5996 1.43958 80.0385C1.43958 76.1745 2.50033 71.4011 4.77332 70.1131C12.7288 65.6429 25.6848 62.5365 41.7472 61.0211C42.5049 60.9454 43.1868 60.8697 43.9445 60.7939C43.5656 60.4151 43.1111 59.9604 42.7322 59.5058C41.9746 59.5816 41.2926 59.6574 40.6107 59.7331C36.6709 60.112 32.8826 60.6423 29.3216 61.2485C18.6386 63.0669 10.1527 65.6429 4.16715 68.9766C1.13649 70.7192 0 76.0986 0 80.2658C0 86.024 1.36379 89.8124 4.16715 91.555C9.47079 94.8887 16.9717 97.5405 25.9879 99.5862C31.14 100.723 36.8983 101.632 42.9596 102.238C50.0058 102.996 57.5824 103.375 65.5379 103.375H65.6136C92.2076 103.375 115.089 98.9801 126.984 91.555C129.712 89.8124 131.152 86.024 131.152 80.2658C131 76.0229 129.939 70.6435 126.833 68.9008Z" fill="#1A1F35"/>
</g>
<mask id="mask15_2370_15833" style="mask-type:luminance" maskUnits="userSpaceOnUse" x="0" y="11" width="131" height="93">
<path d="M131 11.9999H0V103.223H131V11.9999Z" fill="white"/>
</mask>
<g mask="url(#mask15_2370_15833)">
<path d="M65.9163 95.5706C65.9163 95.5706 63.2645 96.2524 60.7643 95.8735C58.4155 95.3432 63.7948 96.9343 65.6132 96.2524C65.3859 95.9493 65.9163 95.5706 65.9163 95.5706Z" fill="#1A1F35"/>
</g>
</svg>
