<svg width="144" height="115" viewBox="0 0 144 115" fill="none" xmlns="http://www.w3.org/2000/svg">
<mask id="mask0_2370_15823" style="mask-type:luminance" maskUnits="userSpaceOnUse" x="0" y="34" width="144" height="49">
<path d="M143.284 34H0.000488281V82.4047H143.284V34Z" fill="white"/>
</mask>
<g mask="url(#mask0_2370_15823)">
<path d="M38.6839 38.594L29.5623 59.3009L34.223 68.6888L36.4201 63.2292H49.3369L51.7339 69.1549H60.7224L47.1397 38.5275H38.6839V38.594ZM38.9502 56.904L42.8785 47.1164L46.8068 56.904H38.9502Z" fill="#1A1F35"/>
</g>
<mask id="mask1_2370_15823" style="mask-type:luminance" maskUnits="userSpaceOnUse" x="0" y="34" width="144" height="49">
<path d="M143.284 34H0.000488281V82.4047H143.284V34Z" fill="white"/>
</mask>
<g mask="url(#mask1_2370_15823)">
<path d="M71.8415 38.594H63.1859V69.2215H86.4894V62.3636H71.8415V38.594Z" fill="#1A1F35"/>
</g>
<mask id="mask2_2370_15823" style="mask-type:luminance" maskUnits="userSpaceOnUse" x="0" y="34" width="144" height="49">
<path d="M143.284 34H0.000488281V82.4047H143.284V34Z" fill="white"/>
</mask>
<g mask="url(#mask2_2370_15823)">
<path d="M114.453 62.5635H98.4739V56.9707H112.056V50.5122H98.4739V45.3189H113.921V38.6608H89.8849V69.2217H114.453V62.5635Z" fill="#1A1F35"/>
</g>
<mask id="mask3_2370_15823" style="mask-type:luminance" maskUnits="userSpaceOnUse" x="0" y="34" width="144" height="49">
<path d="M143.284 34H0.000488281V82.4047H143.284V34Z" fill="white"/>
</mask>
<g mask="url(#mask3_2370_15823)">
<path d="M119.314 38.594V69.2215H127.97V58.7682H141.486V52.0435H127.97V45.3187H143.283V38.594H119.314Z" fill="#1A1F35"/>
</g>
<mask id="mask4_2370_15823" style="mask-type:luminance" maskUnits="userSpaceOnUse" x="0" y="34" width="144" height="49">
<path d="M143.284 34H0.000488281V82.4047H143.284V34Z" fill="white"/>
</mask>
<g mask="url(#mask4_2370_15823)">
<path d="M0.599854 34L24.5692 82.4047H38.2184L33.2248 72.2843L31.76 69.2216L28.2311 62.2305L16.646 38.7273L14.249 34H0.599854Z" fill="#1A1F35"/>
</g>
<mask id="mask5_2370_15823" style="mask-type:luminance" maskUnits="userSpaceOnUse" x="0" y="34" width="144" height="49">
<path d="M143.284 34H0.000488281V82.4047H143.284V34Z" fill="white"/>
</mask>
<g mask="url(#mask5_2370_15823)">
<path d="M0 68.9552V82.4046H13.6492V65.2932L0 68.9552Z" fill="#1A1F35"/>
</g>
<mask id="mask6_2370_15823" style="mask-type:luminance" maskUnits="userSpaceOnUse" x="0" y="34" width="144" height="49">
<path d="M143.284 34H0.000488281V82.4047H143.284V34Z" fill="white"/>
</mask>
<g mask="url(#mask6_2370_15823)">
<mask id="mask7_2370_15823" style="mask-type:luminance" maskUnits="userSpaceOnUse" x="0" y="34" width="144" height="49">
<path d="M143.284 34H0.000976562V82.4047H143.284V34Z" fill="white"/>
</mask>
<g mask="url(#mask7_2370_15823)">
<path d="M44.4767 82.0051C44.0106 81.7387 43.6111 81.3393 43.3448 80.8732C43.0785 80.4072 42.9453 79.8745 42.9453 79.2752C42.9453 78.676 43.0785 78.1433 43.3448 77.6773C43.6111 77.2112 44.0106 76.8118 44.4767 76.5454C44.9427 76.2791 45.542 76.1459 46.1412 76.1459C46.6073 76.1459 47.0068 76.2125 47.4063 76.3457C47.8057 76.4788 48.1387 76.7451 48.405 77.0115L48.0055 77.4109C47.5394 76.9449 46.9402 76.6786 46.2078 76.6786C45.7417 76.6786 45.2757 76.8117 44.8762 77.0115C44.4767 77.2112 44.1438 77.5441 43.944 77.9436C43.7443 78.3431 43.6111 78.7426 43.6111 79.2752C43.6111 79.8079 43.7443 80.2074 43.944 80.6069C44.1438 81.0064 44.4767 81.2727 44.8762 81.539C45.2757 81.7388 45.7417 81.8719 46.2078 81.8719C46.9402 81.8719 47.5394 81.6056 48.0055 81.1395L48.405 81.539C48.1387 81.8054 47.8057 82.0717 47.4063 82.2048C47.0068 82.338 46.6073 82.4045 46.1412 82.4045C45.4754 82.4045 44.9427 82.2714 44.4767 82.0051Z" fill="#1A1F35"/>
</g>
<mask id="mask8_2370_15823" style="mask-type:luminance" maskUnits="userSpaceOnUse" x="0" y="34" width="144" height="49">
<path d="M143.284 34H0.000976562V82.4047H143.284V34Z" fill="white"/>
</mask>
<g mask="url(#mask8_2370_15823)">
<path d="M52.5331 82.0051C52.0005 81.7387 51.6676 81.3393 51.3347 80.8732C51.0683 80.4072 50.9352 79.8745 50.9352 79.2752C50.9352 78.676 51.0683 78.1433 51.3347 77.6773C51.601 77.2112 52.0005 76.8118 52.5331 76.5454C52.9992 76.2791 53.5984 76.1459 54.1977 76.1459C54.7969 76.1459 55.3296 76.2791 55.8622 76.5454C56.3283 76.8118 56.7277 77.2112 56.9941 77.6773C57.2604 78.1433 57.3936 78.676 57.3936 79.2752C57.3936 79.8745 57.2604 80.4072 56.9941 80.8732C56.7277 81.3393 56.3283 81.7387 55.8622 82.0051C55.3961 82.2714 54.7969 82.4045 54.1977 82.4045C53.5319 82.4045 52.9992 82.2714 52.5331 82.0051ZM55.5293 81.4724C55.9288 81.2726 56.2617 80.9398 56.4614 80.5403C56.6612 80.1408 56.7943 79.7413 56.7943 79.2087C56.7943 78.7426 56.6612 78.2765 56.4614 77.8771C56.2617 77.4776 55.9288 77.2112 55.5293 76.9449C55.1298 76.7452 54.6637 76.612 54.1977 76.612C53.7316 76.612 53.2655 76.7452 52.866 76.9449C52.4665 77.1446 52.1336 77.4776 51.9339 77.8771C51.7342 78.2765 51.601 78.676 51.601 79.2087C51.601 79.6748 51.7342 80.1408 51.9339 80.5403C52.1336 80.9398 52.4665 81.2061 52.866 81.4724C53.2655 81.6721 53.7316 81.8053 54.1977 81.8053C54.6637 81.8053 55.1298 81.6721 55.5293 81.4724Z" fill="#1A1F35"/>
</g>
<mask id="mask9_2370_15823" style="mask-type:luminance" maskUnits="userSpaceOnUse" x="0" y="34" width="144" height="49">
<path d="M143.284 34H0.000976562V82.4047H143.284V34Z" fill="white"/>
</mask>
<g mask="url(#mask9_2370_15823)">
<path d="M64.9178 82.338L63.5196 80.3406C63.3864 80.3406 63.1867 80.3406 63.0535 80.3406H61.389V82.2715H60.7231V76.0793H63.0535C63.8525 76.0793 64.4517 76.2791 64.9178 76.612C65.3839 77.0115 65.5836 77.4775 65.5836 78.1434C65.5836 78.6094 65.4504 79.0089 65.1841 79.3419C64.9178 79.6748 64.5849 79.9411 64.1188 80.0742L65.6502 82.2049H64.9178V82.338ZM64.3851 79.4084C64.718 79.1421 64.8512 78.7426 64.8512 78.2766C64.8512 77.7439 64.718 77.411 64.3851 77.1446C64.0522 76.8783 63.5861 76.7452 62.9869 76.7452H61.3224V79.8079H62.9869C63.6527 79.8079 64.1188 79.6747 64.3851 79.4084Z" fill="#1A1F35"/>
</g>
<mask id="mask10_2370_15823" style="mask-type:luminance" maskUnits="userSpaceOnUse" x="0" y="34" width="144" height="49">
<path d="M143.284 34H0.000976562V82.4047H143.284V34Z" fill="white"/>
</mask>
<g mask="url(#mask10_2370_15823)">
<path d="M73.1067 76.7452C73.5728 77.1446 73.7725 77.6108 73.7725 78.2766C73.7725 78.9424 73.5728 79.475 73.1067 79.8079C72.6407 80.2074 72.0414 80.3406 71.2425 80.3406H69.5779V82.2715H68.9121V76.0793H71.2425C72.0414 76.1459 72.6407 76.3457 73.1067 76.7452ZM72.6407 79.4084C72.9736 79.1421 73.1067 78.7426 73.1067 78.2766C73.1067 77.7439 72.9736 77.411 72.6407 77.1446C72.3077 76.8783 71.8417 76.7452 71.2425 76.7452H69.5779V79.8079H71.2425C71.8417 79.8079 72.3077 79.6747 72.6407 79.4084Z" fill="#1A1F35"/>
</g>
<mask id="mask11_2370_15823" style="mask-type:luminance" maskUnits="userSpaceOnUse" x="0" y="34" width="144" height="49">
<path d="M143.284 34H0.000976562V82.4047H143.284V34Z" fill="white"/>
</mask>
<g mask="url(#mask11_2370_15823)">
<path d="M78.1672 82.0051C77.7012 81.7387 77.3017 81.3393 77.0354 80.8732C76.769 80.4072 76.6359 79.8745 76.6359 79.2752C76.6359 78.676 76.769 78.1433 77.0354 77.6773C77.3017 77.2112 77.7012 76.8118 78.1672 76.5454C78.6333 76.2791 79.2326 76.1459 79.8318 76.1459C80.431 76.1459 80.9637 76.2791 81.4963 76.5454C81.9624 76.8118 82.3619 77.2112 82.6282 77.6773C82.8945 78.1433 83.0277 78.676 83.0277 79.2752C83.0277 79.8745 82.8945 80.4072 82.6282 80.8732C82.3619 81.3393 81.9624 81.7387 81.4963 82.0051C81.0303 82.2714 80.431 82.4045 79.8318 82.4045C79.2326 82.4045 78.6333 82.2714 78.1672 82.0051ZM81.1634 81.4724C81.5629 81.2726 81.8958 80.9398 82.0955 80.5403C82.2953 80.1408 82.4285 79.7413 82.4285 79.2087C82.4285 78.7426 82.2953 78.2765 82.0955 77.8771C81.8958 77.4776 81.5629 77.2112 81.1634 76.9449C80.7639 76.7452 80.2979 76.612 79.8318 76.612C79.3657 76.612 78.8996 76.7452 78.5002 76.9449C78.1007 77.1446 77.7678 77.4776 77.568 77.8771C77.3683 78.2765 77.2351 78.676 77.2351 79.2087C77.2351 79.6748 77.3683 80.1408 77.568 80.5403C77.7678 80.9398 78.1007 81.2061 78.5002 81.4724C78.8996 81.6721 79.3657 81.8053 79.8318 81.8053C80.2979 81.8053 80.7639 81.6721 81.1634 81.4724Z" fill="#1A1F35"/>
</g>
<mask id="mask12_2370_15823" style="mask-type:luminance" maskUnits="userSpaceOnUse" x="0" y="34" width="144" height="49">
<path d="M143.284 34H0.000976562V82.4047H143.284V34Z" fill="white"/>
</mask>
<g mask="url(#mask12_2370_15823)">
<path d="M90.5516 82.338L89.1534 80.3406C89.0202 80.3406 88.8204 80.3406 88.6873 80.3406H87.0227V82.2715H86.3569V76.0793H88.6873C89.4863 76.0793 90.0855 76.2791 90.5516 76.612C91.0176 77.0115 91.2174 77.4775 91.2174 78.1434C91.2174 78.6094 91.0842 79.0089 90.8179 79.3419C90.5516 79.6748 90.2187 79.9411 89.7526 80.0742L91.284 82.2049H90.5516V82.338ZM90.0855 79.4084C90.4184 79.1421 90.5516 78.7426 90.5516 78.2766C90.5516 77.7439 90.4184 77.411 90.0855 77.1446C89.7526 76.8783 89.2865 76.7452 88.6873 76.7452H87.0227V79.8079H88.6873C89.2865 79.8079 89.7526 79.6747 90.0855 79.4084Z" fill="#1A1F35"/>
</g>
<mask id="mask13_2370_15823" style="mask-type:luminance" maskUnits="userSpaceOnUse" x="0" y="34" width="144" height="49">
<path d="M143.284 34H0.000976562V82.4047H143.284V34Z" fill="white"/>
</mask>
<g mask="url(#mask13_2370_15823)">
<path d="M98.4742 80.6734H95.012L94.2796 82.338H93.6138L96.4102 76.1459H97.076L99.8724 82.338H99.2066L98.4742 80.6734ZM98.2079 80.1408L96.7431 76.8117L95.2783 80.1408H98.2079Z" fill="#1A1F35"/>
</g>
<mask id="mask14_2370_15823" style="mask-type:luminance" maskUnits="userSpaceOnUse" x="0" y="34" width="144" height="49">
<path d="M143.284 34H0.000976562V82.4047H143.284V34Z" fill="white"/>
</mask>
<g mask="url(#mask14_2370_15823)">
<path d="M103.668 76.7451H101.471V76.1459H106.464V76.7451H104.267V82.338H103.668V76.7451Z" fill="#1A1F35"/>
</g>
<mask id="mask15_2370_15823" style="mask-type:luminance" maskUnits="userSpaceOnUse" x="0" y="34" width="144" height="49">
<path d="M143.284 34H0.000976562V82.4047H143.284V34Z" fill="white"/>
</mask>
<g mask="url(#mask15_2370_15823)">
<path d="M109.993 76.1459H109.327V82.338H109.993V76.1459Z" fill="#1A1F35"/>
</g>
<mask id="mask16_2370_15823" style="mask-type:luminance" maskUnits="userSpaceOnUse" x="0" y="34" width="144" height="49">
<path d="M143.284 34H0.000976562V82.4047H143.284V34Z" fill="white"/>
</mask>
<g mask="url(#mask16_2370_15823)">
<path d="M114.92 82.0051C114.454 81.7387 114.055 81.3393 113.788 80.8732C113.522 80.4072 113.389 79.8745 113.389 79.2752C113.389 78.676 113.522 78.1433 113.788 77.6773C114.055 77.2112 114.454 76.8118 114.92 76.5454C115.386 76.2791 115.986 76.1459 116.585 76.1459C117.184 76.1459 117.717 76.2791 118.249 76.5454C118.715 76.8118 119.115 77.2112 119.381 77.6773C119.648 78.1433 119.781 78.676 119.781 79.2752C119.781 79.8745 119.648 80.4072 119.381 80.8732C119.115 81.3393 118.715 81.7387 118.249 82.0051C117.783 82.2714 117.184 82.4045 116.585 82.4045C115.919 82.4045 115.386 82.2714 114.92 82.0051ZM117.85 81.4724C118.249 81.2726 118.582 80.9398 118.782 80.5403C118.982 80.1408 119.115 79.7413 119.115 79.2087C119.115 78.7426 118.982 78.2765 118.782 77.8771C118.582 77.4776 118.249 77.2112 117.85 76.9449C117.45 76.7452 116.984 76.612 116.518 76.612C116.052 76.612 115.586 76.7452 115.187 76.9449C114.787 77.1446 114.454 77.4776 114.254 77.8771C114.055 78.2765 113.922 78.676 113.922 79.2087C113.922 79.6748 114.055 80.1408 114.254 80.5403C114.454 80.9398 114.787 81.2061 115.187 81.4724C115.586 81.6721 116.052 81.8053 116.518 81.8053C117.051 81.8053 117.45 81.6721 117.85 81.4724Z" fill="#1A1F35"/>
</g>
<mask id="mask17_2370_15823" style="mask-type:luminance" maskUnits="userSpaceOnUse" x="0" y="34" width="144" height="49">
<path d="M143.284 34H0.000976562V82.4047H143.284V34Z" fill="white"/>
</mask>
<g mask="url(#mask17_2370_15823)">
<path d="M128.237 76.1459V82.338H127.704L123.776 77.3444V82.338H123.11V76.1459H123.643L127.638 81.2061V76.1459H128.237Z" fill="#1A1F35"/>
</g>
</g>
</svg>
