<svg width="168" height="115" viewBox="0 0 168 115" fill="none" xmlns="http://www.w3.org/2000/svg">
<path d="M8.30119 50.7461V50.9419C8.30119 51.725 8.30119 52.508 8.30119 53.2911C8.30119 55.053 8.30119 56.6192 8.30119 58.3811C8.30119 60.3388 8.30119 62.2965 8.30119 64.2542C8.30119 66.0161 8.30119 67.778 8.30119 69.5399C8.30119 71.1061 8.30119 72.6722 8.30119 74.4341C8.30119 75.0214 8.30119 75.0214 7.70825 75.0214H0.395295H0.197647C-1.91436e-07 75.0214 0 75.0214 0 74.8257V74.6299V39.7831C0 39.1958 -5.89035e-07 39.1958 0.592942 39.1958C1.58118 39.1958 2.56942 39.1958 3.55765 39.1958C4.94119 39.1958 6.32472 39.3915 7.70825 39.7831C9.48708 40.3704 11.0683 41.1535 12.4518 42.3281C13.44 43.1111 14.2306 44.09 15.0212 45.2646C15.4165 45.6561 15.6141 46.2434 15.8118 46.635C16.9977 48.9842 18.1836 51.1377 19.1718 53.4869C19.7647 54.8573 20.5553 56.2276 21.1483 57.598C21.9389 58.9684 22.5318 60.5346 23.3224 61.9049C23.52 62.2965 23.52 62.4922 23.7177 62.8838C23.7177 62.8838 23.7177 63.0796 23.9153 63.0796V62.8838C23.9153 62.2965 23.9153 61.7092 23.9153 61.1219C23.7177 58.1853 23.9153 55.2488 23.9153 52.3123C23.9153 51.725 23.9153 51.1377 23.9153 50.3546C23.7177 46.8307 23.9153 43.1111 23.9153 39.5873C23.9153 39.3915 23.9153 39.3915 23.9153 39.1958C23.9153 39 23.9153 39 24.113 39C24.3106 39 24.3106 39 24.5083 39C27.0777 39 29.6471 39 32.2165 39C32.8095 39 32.8095 39 32.8095 39.5873V52.8996V74.0426C32.8095 74.2384 32.8095 74.2384 32.8095 74.4341C32.8095 74.6299 32.8095 74.6299 32.6118 74.6299H32.4142C31.0307 74.6299 29.4495 74.6299 28.0659 74.6299C26.4848 74.6299 25.1012 74.2384 23.7177 73.6511C22.7295 73.2595 21.7412 72.4764 20.753 71.8891C19.9624 71.1061 19.1718 70.323 18.5789 69.5399C17.9859 68.7568 17.5906 67.9738 17.1953 67.1907C16.4047 65.8203 15.8118 64.4499 15.0212 63.0796C13.8353 60.7303 12.4518 58.1853 11.2659 55.8361C10.4753 54.27 9.68472 52.7038 8.89413 51.1377C8.49884 50.9419 8.49884 50.7461 8.30119 50.7461Z" fill="#1A1F35"/>
<path d="M53.5623 75.6084C52.7717 75.6084 51.9811 75.6084 51.3881 75.6084C50.0046 75.4126 48.8187 75.2169 47.4352 75.0211C46.0517 74.6296 44.6681 74.0423 43.4822 73.2592C42.0987 72.4761 40.9128 71.4973 39.9246 70.3227C38.7387 68.9523 37.9481 67.5819 37.3552 66.0157C36.7622 64.6454 36.3669 63.0792 36.1693 61.7088C35.9716 60.73 35.9716 59.7511 35.9716 58.5765C35.9716 58.185 35.9716 57.7935 35.9716 57.4019C35.9716 56.6189 35.9716 55.8358 36.1693 55.0527C36.1693 54.2696 36.3669 53.4865 36.3669 52.7035C36.5646 51.1373 37.1575 49.3754 37.7505 48.005C38.3434 46.8304 38.9363 45.8516 39.7269 44.8727C40.7152 43.6981 41.9011 42.7193 43.0869 41.9362C44.8658 40.7616 46.8422 40.1743 49.0164 39.7827C49.807 39.587 50.5975 39.587 51.3881 39.3912C52.1787 39.3912 52.9693 39.1954 53.7599 39.1954C54.5505 39.1954 55.3411 39.1954 55.934 39.3912C56.7246 39.3912 57.5152 39.587 58.3058 39.7827C60.0846 40.1743 61.6658 40.5658 63.0493 41.5447C64.2352 42.132 65.2235 42.915 66.2117 43.8939C67.0023 44.4812 67.5952 45.2643 68.1882 46.0473C68.7811 47.0262 69.3741 48.005 69.7693 49.1796C70.3623 50.55 70.5599 51.9204 70.7576 53.2908C70.9552 54.2696 70.9552 55.2485 70.9552 56.2273C70.9552 56.8146 70.9552 57.4019 70.9552 57.9892C70.9552 58.7723 70.9552 59.5554 70.7576 60.1427C70.7576 61.1215 70.5599 61.9046 70.3623 62.8834C70.1646 64.4496 69.5717 65.82 68.9788 67.1904C68.3858 68.365 67.7929 69.5396 67.0023 70.5184C66.2117 71.3015 65.4211 72.0846 64.6305 72.8676C63.0493 74.0423 61.2705 74.8253 59.4917 75.4126C58.3058 75.8042 57.3176 76 56.1317 76C55.5387 75.6084 54.5505 75.6084 53.5623 75.6084ZM61.4682 56.8146C61.4682 56.2273 61.4682 55.0527 61.2705 54.0739C61.0729 52.7035 60.8752 51.5289 60.2823 50.3543C59.6893 49.1796 59.0964 48.2008 58.1082 47.4177C57.3176 46.8304 56.527 46.4389 55.5387 46.0473C54.3528 45.6558 53.167 45.6558 52.1787 45.8516C50.3999 46.0473 49.0164 46.8304 48.0281 48.2008C47.2375 49.1796 46.6446 50.3542 46.2493 51.7246C45.854 53.2908 45.6564 54.8569 45.6564 56.4231C45.6564 57.4019 45.6564 58.3808 45.854 59.1638C45.854 60.1427 46.0517 61.1215 46.4469 62.1004C46.8422 63.275 47.2375 64.2538 47.8305 65.2327C48.4234 66.0157 49.0164 66.6031 49.807 67.1904C50.9928 67.9734 52.3764 68.1692 53.7599 68.1692C53.9576 68.1692 54.1552 68.1692 54.3528 68.1692C55.1434 68.1692 55.934 67.9734 56.7246 67.5819C57.9105 66.9946 58.8987 66.2115 59.4917 65.2327C60.2823 64.0581 60.8752 62.6877 61.0729 61.3173C61.4682 60.1427 61.4682 58.7723 61.4682 56.8146Z" fill="#1A1F35"/>
<path d="M138.353 51.1373C138.353 54.8569 138.353 58.3808 138.353 62.1004C138.353 64.0581 137.957 65.82 137.365 67.5819C136.772 68.9523 135.981 70.3227 134.795 71.3015C133.807 72.2803 132.819 73.0634 131.435 73.6507C130.447 74.238 129.261 74.6296 128.075 74.8253C127.284 75.0211 126.494 75.2169 125.703 75.2169C125.308 75.2169 124.715 75.2169 124.32 75.4126C123.529 75.4126 122.739 75.4126 121.948 75.4126C121.157 75.4126 120.367 75.4126 119.576 75.2169C118.588 75.0211 117.797 75.0211 116.809 74.6296C115.03 74.238 113.449 73.455 111.868 72.2803C110.287 71.1057 109.101 69.5396 108.31 67.7777C107.915 66.6031 107.52 65.4284 107.322 64.2538C107.322 63.6665 107.124 63.0792 107.124 62.2961C107.124 60.73 107.124 59.1638 107.124 57.5977C107.124 51.7246 107.124 45.6558 107.124 39.7827C107.124 39.587 107.124 39.587 107.124 39.3912C107.124 39.1954 107.124 39.1954 107.322 39.1954H107.52H116.019C116.414 39.1954 116.414 39.1954 116.414 39.587V59.5554C116.414 59.9469 116.414 60.3385 116.414 60.73C116.414 62.1004 116.612 63.4708 117.204 64.6454C117.402 65.4284 117.995 66.2115 118.588 66.7988C119.181 67.3861 119.972 67.7777 120.762 67.9734C121.157 68.1692 121.75 68.1692 122.146 68.1692C123.134 68.1692 124.122 68.1692 124.913 67.7777C125.901 67.3861 126.692 66.6031 127.284 65.6242C127.877 64.6454 128.075 63.6665 128.273 62.6877C128.866 61.9046 128.866 60.9258 128.866 59.7511C128.866 53.095 128.866 46.6346 128.866 39.9785C128.866 39.7827 128.866 39.7827 128.866 39.587C128.866 39.3912 128.866 39.3912 129.063 39.3912H129.261H137.76C138.155 39.3912 138.155 39.3912 138.155 39.7827C138.353 43.6981 138.353 47.4177 138.353 51.1373Z" fill="#1A1F35"/>
<path d="M105.346 39.587C105.346 39.7827 105.346 39.9785 105.148 39.9785C102.579 47.6135 100.009 55.4442 97.4399 63.0792C96.254 66.7988 94.8705 70.7142 93.6846 74.4338C93.487 74.8253 93.487 74.8253 93.0917 74.8253H82.6164C82.0234 74.8253 82.0234 74.8253 82.0234 74.4338C81.2328 71.693 80.2446 69.148 79.454 66.4073C79.0587 65.2327 78.6634 64.2538 78.4658 63.0792C78.0705 61.7088 77.4775 60.1427 77.0822 58.7723C76.6869 57.7935 76.4893 56.6188 76.094 55.64C75.6987 54.2696 75.1058 52.7035 74.7105 51.3331C74.3152 50.1585 73.9199 48.9839 73.5246 47.6135C72.734 45.0685 71.7458 42.5235 70.9552 39.7827C70.9552 39.587 70.7575 39.587 70.9552 39.3912C71.1528 39.1954 71.1528 39.3912 71.3505 39.3912C72.5364 39.3912 73.7222 39.3912 74.9081 39.3912H79.454H79.6517C80.047 39.3912 80.047 39.3912 80.047 39.7827C80.8375 42.3277 81.4305 44.8727 82.2211 47.6135C83.0117 50.3543 83.8023 52.8992 84.3952 55.64C84.9881 58.185 85.7787 60.5342 86.3717 63.0792C86.767 64.4496 87.1623 65.6242 87.3599 66.9946C87.3599 66.9946 87.3599 67.1904 87.5576 67.1904C87.7552 67.1904 87.7552 66.9946 87.7552 66.9946C87.9529 66.0157 88.3481 64.8411 88.5458 63.8623C88.9411 62.1004 89.534 60.5342 89.9293 58.7723C90.5223 56.8146 90.9176 55.0527 91.5105 53.095C91.9058 51.5289 92.4987 49.7669 92.894 48.2008C93.2893 46.8304 93.6846 45.2643 94.0799 43.8939C94.4752 42.5235 94.8705 41.1531 95.2658 39.7827C95.2658 39.7827 95.2658 39.7827 95.2658 39.587C95.2658 39.3912 95.4635 39.1954 95.6611 39.1954C95.8588 39.1954 96.254 39.1954 96.4517 39.1954C99.0211 39.1954 101.788 39.1954 104.358 39.1954C104.951 39.3912 105.148 39.3912 105.346 39.587Z" fill="#1A1F35"/>
<path d="M165.035 48.9839C164.838 48.9839 164.838 48.9839 164.838 48.7881C164.047 48.005 163.256 47.4177 162.268 47.0262C161.082 46.4389 159.896 46.2431 158.71 46.0473C157.92 45.8516 157.327 45.8516 156.536 45.8516C155.548 45.8516 154.56 46.0473 153.572 46.4389C152.979 46.6346 152.386 47.0262 151.99 47.4177C151.595 47.8093 151.398 48.2008 151.398 48.7881C151.398 49.1796 151.398 49.3754 151.398 49.7669C151.595 50.55 151.99 51.1373 152.781 51.5289C153.374 51.9204 153.967 52.1162 154.758 52.3119C155.943 52.7035 157.327 53.095 158.513 53.4866C160.292 53.8781 161.873 54.6612 163.454 55.4442C164.442 56.0315 165.233 56.6189 165.826 57.4019C166.616 58.3808 167.209 59.3596 167.605 60.5342C167.802 61.3173 168 62.2961 168 63.0792C168 63.4708 168 63.8623 168 64.0581C168 65.6242 167.802 66.9946 167.209 68.365C166.814 69.3438 166.221 70.3227 165.43 71.3015C164.64 72.2803 163.454 73.0634 162.268 73.6507C160.687 74.4338 159.106 75.0211 157.327 75.2169C156.536 75.4126 155.746 75.4126 154.955 75.4126C154.165 75.4126 153.374 75.4126 152.386 75.4126C151.595 75.4126 151.002 75.2169 150.212 75.2169C149.223 75.0211 148.037 74.8253 147.049 74.4338C146.061 74.0423 144.875 73.455 144.085 72.6719C143.096 71.8888 142.503 70.91 142.108 69.7354C141.91 69.3438 141.91 68.9523 141.91 68.365C141.91 66.9946 142.108 65.82 142.306 64.4496V64.2538C142.503 64.2538 142.503 64.4496 142.503 64.4496C143.294 65.4284 144.282 66.2115 145.468 66.7988C146.852 67.5819 148.433 68.1692 150.014 68.5607C150.607 68.5607 151.2 68.7565 151.595 68.7565C151.99 68.7565 152.188 68.7565 152.583 68.7565C152.979 68.7565 153.374 68.7565 153.769 68.7565C154.56 68.5607 155.35 68.5607 156.141 68.1692C156.932 67.7777 157.525 67.1904 157.722 66.4073C157.92 65.4284 157.92 64.6454 157.327 63.8623C157.129 63.4708 156.734 63.0792 156.141 62.8834C155.746 62.4919 155.153 62.2961 154.758 62.1004C153.769 61.7088 152.979 61.5131 151.99 61.1215C150.607 60.73 149.026 60.3385 147.642 59.7511C146.061 59.1638 144.48 58.185 143.294 56.8146C142.503 55.8358 141.91 54.8569 141.515 53.6823C141.12 52.3119 140.922 50.9416 141.12 49.5712C141.317 47.6135 141.713 45.8516 142.899 44.2854C143.492 43.5023 144.282 42.7193 145.073 42.132C146.061 41.3489 147.247 40.9574 148.433 40.37C149.816 39.7827 151.002 39.587 152.386 39.3912C152.979 39.3912 153.769 39.1954 154.362 39.1954C154.955 39.1954 155.35 39.1954 155.943 39.1954C157.525 39.1954 158.908 39.3912 160.489 39.7827C161.873 40.1743 163.059 40.7616 163.849 41.7404C164.64 42.5235 165.233 43.6981 165.43 44.8727C165.628 45.46 165.628 46.0473 165.43 46.6346C165.628 47.222 165.43 48.005 165.035 48.9839C165.035 48.7881 165.035 48.7881 165.035 48.9839Z" fill="#1A1F35"/>
</svg>
