<svg width="147" height="116" viewBox="0 0 147 116" fill="none" xmlns="http://www.w3.org/2000/svg">
<mask id="mask0_2370_15825" style="mask-type:luminance" maskUnits="userSpaceOnUse" x="0" y="0" width="147" height="116">
<path d="M146.135 0H1.52588e-05V115.503H146.135V0Z" fill="white"/>
</mask>
<g mask="url(#mask0_2370_15825)">
<path d="M7.02434 87.4783H12.6728L9.84858 78.4987H9.70369L7.02434 87.4783ZM15.7142 97.3269L13.7591 90.9543H5.9381L3.98291 97.3269H3.05176e-05L7.02434 74.2986H12.8176L20.2765 97.3269H15.7142ZM36.7149 86.3196H40.8425V95.8061C38.308 97.1096 35.7011 97.7614 33.3837 97.7614C29.8354 97.7614 27.0835 96.7475 25.2007 94.5751C23.2455 92.4026 22.3765 89.7232 22.3765 86.2472C22.3765 84.7265 22.5214 83.2782 22.8834 82.0471C23.2455 80.6712 23.8973 79.3677 24.6938 78.0642C25.4904 76.7608 26.7215 75.7469 28.3146 75.0228C29.8354 74.2262 31.6458 73.8641 33.6734 73.8641C35.9907 73.8641 38.1632 74.371 40.3357 75.3849L38.9597 79.2229C37.1493 78.5711 35.4113 78.3539 33.6009 78.3539C31.4285 78.3539 29.763 79.1505 28.6043 80.5264C27.4457 82.0471 26.9387 83.8575 26.9387 86.03C26.9387 88.3473 27.5905 90.2301 28.7491 91.5336C29.9078 92.8371 31.5733 93.5612 33.7458 93.5612C34.7596 93.5612 35.7735 93.4164 36.9321 93.0544V86.3921H36.7149V86.3196ZM50.0394 78.1366V85.6679H55.0361C55.9051 85.3058 56.7017 84.6541 57.2086 84.0024C57.7155 83.2058 58.0775 82.4816 58.0775 81.5402C58.0775 80.3815 57.7154 79.5125 56.774 78.8608C55.905 78.2091 54.7464 77.9918 53.1532 77.9918C51.5601 77.9918 50.5463 77.9918 50.0394 78.1366ZM58.7293 97.3269L54.8912 89.506H49.8945V97.3269H45.5496V74.1538C47.8669 74.0089 50.4015 74.0089 53.3705 74.0089C59.381 74.0089 62.3501 76.3263 62.3501 81.0333C62.3501 82.3368 61.988 83.5679 61.1915 84.7265C60.3949 86.03 59.5259 86.899 58.3672 87.6956L63.726 97.182H58.7293V97.3269ZM66.9123 97.3269H71.5469V74.4435H66.9123V97.3269ZM87.0439 97.8338C83.7128 97.8338 81.1782 96.82 79.3678 94.8647C77.4126 92.9095 76.5436 90.1577 76.5436 86.5369C76.5436 84.7265 76.8333 83.2058 77.1954 81.685C77.5574 80.3091 78.2092 78.8608 79.0058 77.7022C79.8023 76.5435 80.961 75.5297 82.3369 74.8779C83.7128 74.2262 85.3784 73.8641 87.3336 73.8641C89.3612 73.8641 91.5337 74.371 93.7061 75.5297L92.5475 79.3677C90.6647 78.5712 88.8543 78.2091 87.3336 78.2091C85.3059 78.2091 83.7128 79.0057 82.6266 80.3816C81.6127 81.7575 80.961 83.7127 80.961 86.1748C80.961 88.4921 81.6127 90.3025 82.7714 91.3887C83.93 92.5474 85.5956 93.1991 87.7681 93.1991C88.1301 93.1991 88.5647 93.1992 88.7819 93.0544C89.144 93.0544 89.4336 92.9095 89.6509 92.9095C89.9405 92.9095 90.1578 92.7647 90.5199 92.6198C90.882 92.475 91.0268 92.3302 91.3165 92.3302L92.113 91.9681C92.4751 91.8233 92.7647 91.6784 92.9096 91.606L94.2131 95.2992C91.6061 97.0372 89.3612 97.8338 87.0439 97.8338ZM107.9 93.6337C109.565 93.6337 110.941 92.9819 112.027 91.606C113.041 90.2301 113.548 88.2749 113.548 85.9576C113.548 83.6402 113.041 81.8299 112.027 80.3091C111.014 78.9332 109.565 78.1366 107.827 78.1366C106.162 78.1366 104.786 78.7884 103.7 80.1643C102.686 81.5402 102.179 83.4955 102.179 85.8128C102.179 88.1301 102.686 89.9404 103.7 91.3164C104.713 92.6923 106.089 93.6337 107.9 93.6337ZM107.9 97.8338C104.713 97.8338 102.106 96.8199 100.368 94.6475C98.5581 92.475 97.5442 89.6508 97.5442 85.8128C97.5442 82.1195 98.4132 79.1505 100.224 77.1229C102.034 75.0952 104.569 73.9365 107.9 73.9365C111.086 73.9365 113.693 74.9504 115.431 76.978C117.241 79.0057 118.11 81.9747 118.11 85.8128C118.11 89.4336 117.241 92.3302 115.431 94.5027C113.765 96.82 111.231 97.8338 107.9 97.8338ZM140.632 74.4435H146.135V97.4717H142.008V82.1195L141.646 81.9747L136.504 94.2854H133.173L127.814 82.1195H127.669V97.4717H123.542V74.4435H129.407L134.911 89.6508L140.632 74.4435ZM1.01378 108.479C1.01378 110 1.88279 111.013 3.47594 111.013C4.27252 111.013 4.63465 111.013 5.7933 110.724V105.8C4.99673 105.655 4.27252 105.51 3.47594 105.51C1.81038 105.655 1.01378 106.813 1.01378 108.479ZM6.66226 105.148V111.665C6.66226 113.983 5.35875 115.503 3.11386 115.503C2.24487 115.503 1.30345 115.214 0.651703 114.996L0.796588 114.2C1.59316 114.489 2.31729 114.562 3.11386 114.562C4.6346 114.562 5.64842 113.548 5.64842 111.738C4.48976 112.027 3.98283 112.027 3.18626 112.027C1.23103 112.027 3.05176e-05 110.651 3.05176e-05 108.551C3.05176e-05 106.379 1.3035 105.003 3.33114 105.003C4.85188 104.713 5.72085 105.003 6.66226 105.148ZM11.5141 106.017V111.882H10.5003V105.22C11.659 104.931 12.9625 104.858 14.1211 104.858V105.872C13.1797 105.872 12.3831 105.872 11.5141 106.017ZM22.8834 108.334C22.8834 106.669 21.8696 105.655 20.3489 105.655C18.8281 105.655 17.8143 106.669 17.8143 108.334C17.8143 110 18.8281 111.158 20.3489 111.158C21.7248 111.158 22.8834 110 22.8834 108.334ZM23.8248 108.334C23.8248 110.507 22.3041 112.027 20.2765 112.027C18.2488 112.027 16.6557 110.651 16.6557 108.334C16.6557 106.162 18.1764 104.786 20.2765 104.786C22.3765 104.713 23.8248 106.162 23.8248 108.334ZM29.8353 112.027C28.1698 112.027 27.156 111.158 27.156 109.203V105.003H28.1697V109.131C28.1697 110.507 28.8215 111.158 30.125 111.158C30.9216 111.158 31.6458 111.158 32.5872 110.869V105.003H33.6009V111.665C32.5147 111.882 30.994 112.027 29.8353 112.027ZM43.015 108.479C43.015 106.813 42.1461 105.655 40.5529 105.655C39.7564 105.655 39.177 105.655 38.2356 105.944V110.941C39.3942 111.231 39.9012 111.231 40.5529 111.231C42.0737 111.013 43.015 109.855 43.015 108.479ZM44.0288 108.334C44.0288 110.362 42.7254 111.81 40.6977 111.81C39.8287 111.81 39.3218 111.81 38.2356 111.52V114.996H37.2217V105.148C38.2356 104.858 39.3943 104.786 40.5529 104.786C42.7254 104.713 44.0288 106.306 44.0288 108.334Z" fill="#1A1F35"/>
</g>
<mask id="mask1_2370_15825" style="mask-type:luminance" maskUnits="userSpaceOnUse" x="0" y="0" width="147" height="116">
<path d="M146.135 0H1.52588e-05V115.503H146.135V0Z" fill="white"/>
</mask>
<g mask="url(#mask1_2370_15825)">
<path d="M90.737 36.4976C90.8818 36.3528 90.8818 36.3528 91.0991 36.1356C91.2439 36.1356 91.4612 35.9907 91.6061 35.7735L91.9681 35.4114C91.9681 35.4114 92.113 35.2666 92.3302 35.0493" fill="#1A1F35"/>
</g>
<mask id="mask2_2370_15825" style="mask-type:luminance" maskUnits="userSpaceOnUse" x="0" y="0" width="147" height="116">
<path d="M146.135 0H1.52588e-05V115.503H146.135V0Z" fill="white"/>
</mask>
<g mask="url(#mask2_2370_15825)">
<path d="M92.2576 34.977C92.4024 34.8322 92.4024 34.8322 92.6196 34.615C92.6196 34.4701 92.7645 34.2529 92.9817 34.108C93.1266 33.9632 93.1266 33.9632 93.3438 33.746C93.4886 33.746 93.4886 33.6011 93.7059 33.3839L93.8508 33.239L93.9956 32.877L94.3576 32.5149L94.5025 32.3701C94.5025 32.2252 94.6473 32.2252 94.6473 32.008C94.7922 32.008 94.7922 31.8632 95.0094 31.6459L95.1542 31.5011C95.1542 31.3562 95.2991 31.3562 95.2991 31.139L95.6612 30.7769L95.806 30.6321C95.806 30.4873 95.9508 30.4873 95.9508 30.27C96.0957 30.27 96.3129 30.1252 96.3129 29.9079L96.4577 29.7631C96.4577 29.6183 96.6025 29.6183 96.6025 29.401C96.7474 29.401 96.9646 29.2562 96.9646 29.0389V29.401L97.1095 29.0389C97.1095 28.8941 97.2543 28.6768 97.2543 28.532L97.3992 28.1699L97.544 27.8079C97.544 27.663 97.6888 27.4458 97.6888 27.301L97.8336 26.9389L97.9784 26.5768C97.9784 26.432 98.1233 26.2147 98.1233 26.0699L98.2681 25.7078C98.413 25.563 98.4129 25.563 98.4129 25.3457C98.4129 25.2009 98.5578 24.9837 98.5578 24.8388L99.3544 22.5215V22.3767L99.4992 22.0146C99.4992 21.8698 99.644 21.5077 99.644 21.3628L99.7888 21.0008C99.7888 20.8559 99.9337 20.4939 99.9337 20.349L100.296 20.2042V19.6973C100.441 19.3352 100.441 19.1904 100.441 19.0456V18.6835C102.396 22.6663 103.41 27.0113 103.627 31.2838V32.0804C103.627 38.8875 101.454 45.3325 97.3267 50.6913L96.9646 50.8361L96.8198 50.9809H96.675C96.3129 51.1258 96.168 51.343 95.8784 51.343H95.5163C95.0094 51.4879 94.7197 51.7051 94.3576 51.7051H93.9956C93.6335 51.7051 93.4887 51.8499 93.199 51.8499H92.8369H92.4748C92.1128 51.9948 91.9679 51.9948 91.8231 51.9948H91.461H91.0989H90.5921H90.23H89.8679H89.3609C89.5058 51.9948 89.5058 51.85 89.5058 51.6327L89.6506 51.1258C89.6506 50.7637 89.7955 50.6189 89.7955 50.474C89.9403 50.3292 89.9403 50.112 89.9403 49.9671C90.0851 49.605 90.0851 49.4602 90.0851 49.3154V48.8085C90.2299 48.6636 90.23 48.3016 90.23 48.1567V47.6498V46.9981V46.4912V45.8394V45.4774V44.3187V43.3049V42.9428V42.291V41.7841V41.2772V40.7703V40.2634V39.7565C90.0851 39.6116 90.0851 39.3944 90.0851 39.2496L89.9403 38.7427C89.7955 38.5978 89.7955 38.3806 89.7955 38.2358L89.6506 37.7288C89.6506 37.584 89.5058 37.3668 89.5058 37.2219L89.3609 36.8598C89.5058 36.715 89.5058 36.715 89.723 36.4978C89.8678 36.3529 90.0851 36.3529 90.23 36.1357M88.4196 45.9118C88.4196 46.0567 88.4196 46.4188 87.623 46.9257V47.4326V47.9395V48.4464V48.9533L87.4781 49.4602C87.3333 49.6051 87.3333 49.8223 87.3333 49.9671L87.1885 50.474C87.1885 50.6189 87.0437 50.8361 87.0437 50.9809L86.8989 51.4879C86.8989 51.6327 86.754 51.85 86.754 51.9948L86.6092 52.3569H86.2471H85.7401H85.3781H85.016H84.8712H84.5091H84.0022H83.6401C83.4953 52.212 83.278 52.212 83.1332 52.212L82.6263 52.0672C82.4815 51.9224 82.4815 51.9223 82.2642 51.9223L81.6125 51.7775C81.4676 51.7775 81.2504 51.6327 81.1056 51.6327H80.9607C80.8159 51.4879 80.8159 51.4879 80.5986 51.4879L80.2365 51.343H80.0917C79.9469 51.1982 79.9469 51.1982 79.7297 51.1982C79.7297 51.1982 79.5848 51.0534 79.3676 51.0534L79.2227 50.9085L78.8606 50.7637C78.8606 50.7637 78.7158 50.6189 78.4985 50.6189L78.3537 50.474C78.2089 50.3292 78.2089 50.3292 77.9917 50.3292C77.9917 50.3292 77.8468 50.1844 77.6296 50.1844L77.2675 50.0395L76.9054 49.8947L76.5434 49.7499L76.0365 49.3878C76.0365 49.3878 75.8916 49.243 75.6744 49.243L75.1674 48.8809C75.0226 48.7361 74.8054 48.7361 74.6606 48.5188L74.1536 48.1567C74.0088 48.0119 73.7915 48.0119 73.6467 47.7947L73.2846 47.6498C72.9226 47.2878 72.7777 47.1429 72.4881 46.9981C70.6777 45.6946 69.0121 44.029 67.7086 42.2186C68.7225 42.5807 69.6639 42.8704 70.6777 43.0152H71.3294H71.6915H72.1984H72.3432H72.7053H73.2122H73.7191H74.2261H74.5882H75.095H75.6019H76.1089C76.471 42.8704 76.6158 42.8704 76.7606 42.8704L77.4123 42.7255H77.7744C78.1365 42.5807 78.571 42.5807 79.0779 42.3635C79.5848 42.2186 79.8745 42.2186 80.3814 42.0014H80.7435H80.8883C81.2504 42.0014 81.3952 42.0014 81.6849 41.8566L82.0469 41.7117L82.1918 41.5669C82.3367 41.5669 82.6987 41.5669 82.8435 41.4221C82.8435 41.4221 82.9883 41.2772 83.2056 41.2772H83.3505C83.4953 41.1324 83.8574 41.1324 84.0022 40.9151C84.1471 40.9151 84.3643 40.7703 84.5091 40.7703H84.6539C84.7987 40.6255 85.1608 40.6255 85.3057 40.4082C85.4505 40.2634 85.6678 40.2634 85.8126 40.0462C85.9575 39.9013 86.3195 39.9013 86.4643 39.6841C86.6091 39.5393 86.8264 39.5393 86.9713 39.322C87.1161 39.322 87.4782 39.1772 87.623 38.9599V39.1047L87.7678 39.4668C87.9126 39.6117 87.9126 39.8289 87.9126 39.9737V40.3358L88.0575 40.8427V41.2048V41.7117V42.0738V42.5807V42.9428V43.5945V43.9566V44.9704V45.9843V45.9118M49.4598 23.0284C49.6046 22.8836 49.8219 22.6663 49.9668 22.6663L50.4736 22.3043L50.6184 21.9422C50.7633 21.9422 50.9806 21.9422 51.1254 21.7973H51.2702L51.6323 21.6525C51.6323 21.6525 51.7771 21.5077 51.9943 21.5077H52.1392C52.2841 21.5077 52.2841 21.3628 52.5013 21.3628C52.5013 21.3628 52.6461 21.218 52.8634 21.218H53.0082C53.153 21.218 53.153 21.0732 53.3703 21.0732C53.5151 21.0732 53.7323 20.9283 53.8771 20.9283L54.5289 20.5663C54.5289 20.5663 54.6737 20.4214 54.891 20.4214H55.0359L55.3979 20.2766C55.3979 20.1318 55.5428 20.1318 55.76 20.1318L56.2669 19.9869C56.2669 19.8421 56.4117 19.8421 56.629 19.8421H56.9911H57.3531L57.86 19.6973L58.367 19.5524H58.7291L59.2359 19.4076H59.7429H60.2498H60.7566V19.9145H61.2636H61.7705H62.567H63.074C65.3913 19.9145 67.5638 20.2766 69.7362 20.9283C68.5776 21.2904 67.5637 21.7249 66.5499 22.2318C66.1878 22.2318 66.0431 22.3767 65.8982 22.5939L65.7534 22.7387H65.6086C65.4637 22.7387 65.4637 22.8836 65.2465 22.8836C65.1017 23.0284 64.7396 23.2457 64.5947 23.3905L64.2326 23.5353L64.0879 23.6802C63.943 24.0422 63.5809 24.1871 63.4361 24.3319L63.2912 24.4767L63.1464 24.6216C62.7843 24.9836 62.6395 25.1285 62.3499 25.4181L62.205 25.563L62.0602 25.7078C61.6981 26.0699 61.4084 26.5044 61.0463 26.8665C60.6843 27.2285 60.5394 27.5182 60.2498 27.8803L60.105 28.0251L59.9601 28.1699C59.8153 28.3148 59.598 28.6769 59.4532 28.8217C59.4532 28.9665 59.3083 28.9665 59.3083 29.1838L59.1635 29.3286C59.1635 29.4734 59.0187 29.6907 58.8015 29.8355C58.8015 29.9803 58.6567 29.9803 58.6567 30.1976L58.5118 30.3424C58.3669 30.7045 58.3669 30.8493 58.1497 30.9942C58.1497 30.9942 58.0049 31.139 58.0049 31.3563V31.5011C57.8601 31.6459 57.8601 32.008 57.6428 32.1528L57.2807 32.6597C57.1359 32.8046 57.1359 33.1666 56.9187 33.3115C56.9187 33.4563 56.7738 33.6736 56.7738 33.8184C56.6289 33.9632 56.6289 34.3253 56.4117 34.4701L56.2669 34.3253L55.9048 33.9632C55.9048 33.8184 55.76 33.8184 55.5427 33.6011C55.3979 33.4563 55.3979 33.4563 55.1807 33.239L54.8186 32.877L54.4565 32.5149C54.3117 32.5149 54.3117 32.3701 54.0944 32.1528C53.9496 32.008 53.9496 32.008 53.7323 31.7907C53.7323 31.6459 53.5875 31.4287 53.3703 31.2838L53.2255 30.9218C53.0806 30.7769 53.0806 30.5597 52.8634 30.4148L52.7185 30.0528C52.5737 29.9079 52.5737 29.6907 52.3564 29.5459L52.2116 29.401C52.0668 29.2562 52.0668 29.0389 51.8495 28.8941L51.7047 28.532C51.5598 28.1699 51.5598 28.0251 51.3426 27.8803L51.1978 27.7355C51.053 27.3734 50.8357 27.2285 50.6909 26.9389L50.546 26.5768C50.4012 26.432 50.4012 26.0699 50.1839 25.9251L50.0391 25.563C50.0391 25.4182 49.8943 25.2009 49.8943 25.0561L49.7495 24.694C49.7495 24.5492 49.6047 24.3319 49.6047 24.1871L49.4598 23.825C49.4598 23.6802 49.315 23.4629 49.315 23.3181L49.1701 22.956H49.5322C49.0977 23.1733 49.2425 23.1733 49.4598 23.0284Z" fill="#1A1F35"/>
</g>
<mask id="mask3_2370_15825" style="mask-type:luminance" maskUnits="userSpaceOnUse" x="0" y="0" width="147" height="116">
<path d="M146.135 0H1.52588e-05V115.503H146.135V0Z" fill="white"/>
</mask>
<g mask="url(#mask3_2370_15825)">
<path d="M93.4168 53.8775C93.4168 53.8775 93.7788 53.7326 93.5616 53.5154C93.9236 53.5154 94.0685 53.3705 94.3581 53.3705C91.027 56.5568 87.0442 59.019 82.5544 60.5397C79.3681 61.6984 76.1094 62.2053 72.7782 62.2053C68.9402 62.2053 65.3193 61.5536 61.8434 60.1777C61.6985 60.0328 61.4813 59.8156 61.3365 59.6707L61.1917 59.5259C61.0469 59.1638 60.6848 58.8742 60.5399 58.5121L60.395 58.15C60.2502 58.0052 60.033 57.6431 59.8882 57.4983C59.8882 57.3534 59.7434 57.1362 59.7434 57.1362L59.5985 56.9913C59.4537 56.8465 59.4537 56.6293 59.2364 56.4845C59.2364 56.3396 59.0916 56.3396 59.0916 56.1224V55.9775C58.9468 55.6155 58.9468 55.4706 58.7295 55.3258C58.7295 55.3258 58.5846 55.181 58.5846 54.9637V54.8189C58.4398 54.4568 58.4398 54.312 58.2226 54.1671L58.0778 53.6602C58.0778 53.5154 57.933 53.2981 57.933 53.1533H58.4399H58.8019H59.164H59.6709H60.033H60.395H60.902H61.2641H61.6262C61.771 53.1533 61.9883 53.0085 62.2779 53.0085H62.64C63.0021 53.0085 63.1469 52.8637 63.4366 52.8637H63.5814C63.9434 52.7188 64.2331 52.7188 64.5952 52.5016H64.9573C65.1021 52.5016 65.4642 52.3567 65.609 52.3567L65.9711 52.2119C66.116 52.2119 66.3332 52.0671 66.478 52.0671C66.6228 51.9222 66.6228 51.9222 66.8401 51.9222L66.985 51.7774C67.1298 51.7774 67.347 51.6326 67.4918 51.6326L67.9987 51.4878C68.1435 51.4878 68.3608 51.3429 68.5057 51.3429C68.6505 51.3429 68.6505 51.1981 68.8678 51.1981L69.0126 51.0533C69.1574 51.0533 69.3747 50.9084 69.5195 50.9084L69.8816 50.5464H70.0264C70.1712 50.5464 70.3884 50.5463 70.5333 50.4015C70.6781 50.4015 70.6781 50.2567 70.8953 50.2567H71.0402C71.1851 50.1118 71.4023 50.1118 71.5471 49.8946C71.6919 49.8946 71.6919 49.7498 71.9092 49.7498H72.0541C72.1989 49.6049 72.4161 49.6049 72.561 49.3877C72.7058 49.3877 72.7058 49.2429 72.923 49.2429L73.2851 49.6049C73.4299 49.7498 73.6472 49.7498 73.792 49.967L74.1541 50.3291C74.2989 50.4739 74.5162 50.4739 74.661 50.6912C74.661 50.6912 74.8059 50.836 75.0231 50.836C75.1679 50.836 75.3852 50.9808 75.53 50.9808L76.0369 51.1257C76.0369 51.1257 76.1818 51.2705 76.399 51.2705L76.7611 51.4154L76.9059 51.5601C77.0507 51.5601 77.0507 51.705 77.268 51.705C77.268 51.705 77.4128 51.8498 77.6301 51.8498L77.7749 51.9947L78.1369 52.1395C78.2818 52.1395 78.4991 52.1395 78.6439 52.2843H78.7887L79.1508 52.4291C79.2956 52.4291 79.5129 52.4291 79.006 52.7912L79.3681 52.9361L79.7301 53.0809L80.237 53.2257H80.5991C80.7439 53.3706 80.7439 53.3705 80.9612 53.3705C81.106 53.5154 81.3233 53.5154 81.4681 53.5154H81.8302C81.9751 53.6602 81.9751 53.6602 82.1923 53.6602C82.3371 53.8051 82.5543 53.8051 82.6992 53.8051H83.0613H83.4233C83.5682 53.9499 83.7854 53.9499 83.9302 53.9499H84.2923H84.6544H85.1613H85.5234H85.8855H86.3924L86.5373 54.0947H86.8993H87.551H89.2166H90.7373H91.0994H91.896H92.4029C92.765 53.9499 92.9098 53.9499 93.1995 53.9499H93.7064C92.9098 54.0223 93.0547 53.8775 93.4168 53.8775ZM43.3049 24.8387L42.798 25.3456C43.5946 21.7248 45.1153 18.0316 47.2878 14.9177C51.6327 8.47271 58.0778 3.8381 65.5366 1.95528L66.0435 2.1001L66.1883 2.24494C66.3331 2.24494 66.6953 2.38977 66.985 2.60702L67.347 2.75186C67.4919 2.8967 67.8539 2.89669 67.9987 3.11394L68.3608 3.25876C68.5056 3.40359 68.7229 3.40359 68.8678 3.62084L69.2298 3.76568C69.3747 3.91051 69.5919 3.91051 69.7367 4.12776L70.0988 4.27258C70.2436 4.27258 70.4609 4.41741 70.0988 4.63466L70.4609 4.7795L70.823 4.92434L70.4609 5.06916L70.0988 5.43124C69.954 5.43124 69.7367 5.57607 69.5919 5.79332C69.4471 5.93815 69.4471 5.93815 69.2298 6.1554C69.2298 6.1554 69.085 6.30023 68.8678 6.51748C68.7229 6.66231 68.7229 6.66231 68.5057 6.87956C68.3608 7.02439 68.1435 7.24164 67.9987 7.38648C67.8539 7.53131 67.8539 7.53131 67.6366 7.74856C67.6366 7.89339 67.4918 8.11062 67.2746 8.25545C67.1297 8.40029 67.1297 8.40029 66.9125 8.61753L66.5504 9.12445V9.26929L66.4056 9.63137C66.2608 9.63137 66.2608 9.77621 66.0435 9.99345L65.8987 10.1383L65.7538 10.5004C65.609 10.5004 65.609 10.6452 65.3918 10.8624L65.247 11.0073L65.1021 11.1521C65.1021 11.5142 64.9572 11.659 64.74 11.8039L64.5952 12.1659C64.4504 12.3108 64.2332 12.6728 64.0883 12.9625L63.9434 13.3246C63.7986 13.4694 63.7986 13.6867 63.5814 13.8315L63.4366 14.3384C63.4366 14.4832 63.2917 14.7005 63.2917 14.8453L63.1469 15.3522C63.1469 15.4971 63.0021 15.7143 63.0021 15.8591C63.0021 16.004 62.8572 16.004 62.8572 16.2212V16.366C62.8572 16.5109 62.7124 16.7281 62.7124 16.873L62.5675 17.235C57.426 17.3799 52.4294 18.9006 48.1568 21.58L46.2015 22.8835V23.0283L45.8395 23.1731C45.4774 23.318 45.3325 23.5352 45.1877 23.6801L44.8256 23.8249C44.6808 23.9697 44.4636 24.187 44.3187 24.3318L43.9567 24.4766C43.8118 24.3318 43.4497 24.6939 43.3049 24.8387ZM57.426 57.3534L57.7881 57.8603C57.7881 58.0052 57.9329 58.3673 58.1502 58.5121C54.3121 56.3396 51.1983 53.5154 48.5189 50.0394C44.536 44.7531 42.3636 38.4529 42.3636 31.7906V29.6181C42.5084 29.4733 42.5084 29.2561 42.7256 29.1112V29.0388C42.8705 28.6767 43.2325 28.5319 43.3773 28.2422L43.5222 28.0974C43.667 27.9526 43.8842 27.7353 44.0291 27.5905L44.174 27.4457C44.3188 27.3008 44.536 27.0836 44.6808 26.9388L45.0429 26.5767C45.1877 26.4319 45.405 26.2146 45.5498 26.0698L45.6947 25.5629C45.8395 25.5629 46.0567 25.418 46.2015 25.2008C46.3464 25.056 46.3464 25.056 46.5636 24.8387L46.9257 24.6939L47.0706 25.0559C47.0706 25.2008 47.2154 25.418 47.2154 25.5629C47.2154 25.7077 47.3602 25.9249 47.5775 26.0698L47.7223 26.5767L47.8671 27.0836C47.8671 27.2284 48.0119 27.4457 48.0119 27.5905C48.1568 27.7353 48.1568 27.9526 48.374 28.0974C48.374 28.0974 48.5189 28.2423 48.5189 28.4595C48.6637 28.6043 48.6637 28.8216 48.881 28.9664L49.2431 29.3285C49.3879 29.4733 49.3879 29.6906 49.6051 29.8354C49.6051 29.9802 49.7499 29.9802 49.7499 30.1975C49.8948 30.3423 49.8948 30.5595 50.112 30.7044L50.2568 31.0665C50.4017 31.2113 50.4017 31.4285 50.6189 31.5734L50.981 31.9355C51.1258 32.0803 51.3431 32.2975 51.4879 32.4424L51.6327 32.8045C51.7776 33.1665 52.1397 33.3114 52.2845 33.601L52.4293 33.7459C52.5741 34.1079 52.7914 34.2528 52.9363 34.3976L52.7914 35.0493C52.7914 35.0493 52.9362 35.1942 53.1535 35.4114L53.5155 35.7735L53.8776 36.1356L54.2397 36.4977C54.3845 36.6425 54.6018 36.6425 54.7467 36.8597L55.1087 37.2218C54.9639 37.2218 54.9639 37.3666 54.9639 37.5839C54.9639 37.7287 54.8191 37.946 54.8191 38.0908V38.2357L54.6743 38.5977C54.6743 38.9598 54.5294 39.1046 54.5294 39.2495V39.3943V39.7564C54.3845 39.9012 54.3846 40.1185 54.3846 40.2633V40.4081V40.7702V41.2771V41.4219V41.784V42.2909V42.653V43.0151V43.6668V44.0289V45.1876C54.3846 47.5049 54.7466 49.8222 55.1811 51.9947L55.9777 54.312L56.1226 54.6741L56.4847 54.8189C56.6295 55.1809 56.6295 55.3258 56.8467 55.6155C56.8467 55.6155 56.9915 55.7603 56.9915 55.9775C57.1364 56.3396 57.1364 56.4844 57.3536 56.7741L57.4984 57.1362C57.0639 56.8465 57.2088 57.0638 57.426 57.3534ZM70.1712 1.66562C70.1712 1.66562 70.0264 1.66561 69.6643 0.362125L69.1574 0.217307C72.9955 -0.144773 76.7611 0.0724575 80.4543 1.01386C87.6235 2.82426 93.9236 7.31406 98.0513 13.4694V13.9763V14.9901V15.3522V16.004V16.366V17.0178V17.3799V17.8868V18.3937C97.9065 18.5385 97.9065 18.7558 97.9065 18.9006L97.7617 19.4075C97.6169 19.5524 97.6168 19.7696 97.6168 19.9144L97.472 20.4213V20.7834L97.11 20.6386L96.603 20.2765C96.4582 20.1317 96.241 20.1317 96.0961 19.9144C95.9513 19.7696 95.7341 19.5523 95.5892 19.5523L95.0823 19.1903L94.5754 19.0454C94.4306 18.9006 94.2133 18.9006 94.0684 18.6834L93.5616 18.5385C93.4167 18.3937 93.1995 18.1764 93.0547 18.1764L92.6926 18.0316C92.5478 18.0316 92.3305 17.8868 92.1856 17.8868H92.0408L91.6788 17.7419C91.5339 17.7419 91.3166 17.5971 91.1718 17.5971L90.6649 17.4523C90.5201 17.4523 90.158 17.3074 90.0132 17.3074L89.6511 17.1626C89.5063 17.1626 89.1442 17.0178 88.9993 17.0178H88.6372C88.2752 17.0178 87.9856 16.873 87.6235 16.873H87.4786C87.1165 16.873 86.9717 16.7281 86.6821 16.7281H86.1752C86.0303 16.5833 85.813 16.5833 85.6682 16.5833H85.1613H84.5096H84.0027H83.4957H83.1337L82.9889 16.2212L82.844 15.7143C82.844 15.7143 82.6992 15.5695 82.6992 15.3522L82.5544 14.8453V14.7005L82.4095 14.3384C82.4095 14.1936 82.4095 13.9763 82.2647 13.8315L82.1198 13.4694L81.975 13.1073L81.8302 12.9625L81.6853 12.6004C81.6853 12.4556 81.5405 12.2383 81.5405 12.0935L81.3957 11.9487L81.2509 11.5866L80.8888 11.0797L80.744 10.9349C80.744 10.79 80.5991 10.79 80.5991 10.5728C80.4543 10.5728 80.4543 10.4279 80.237 10.2107L80.0922 10.0659L79.9473 9.70377C79.8025 9.70377 79.8025 9.55894 79.5853 9.34169L79.4405 9.19687C79.4405 9.05204 79.2957 9.05204 79.2957 8.83479L78.9336 8.47271L78.7887 8.32787C78.7887 8.18304 78.6439 7.96579 78.6439 7.96579C78.4991 7.82096 78.4991 7.82096 78.2818 7.60372L77.9197 7.09682C77.7749 6.95199 77.7749 6.95199 77.5577 6.73474L77.4128 6.5899L77.268 6.44506C77.268 6.44506 77.1232 6.30022 76.9059 6.08298L76.5438 5.7209C76.5438 5.7209 76.399 5.57607 76.1817 5.35882L75.8197 4.99674C75.6748 4.99674 75.4576 4.85191 75.3128 4.63466L73.2851 3.11394L73.1403 2.9691L72.7782 2.82426C72.4162 2.82426 72.2713 2.67943 72.1265 2.46218L71.7644 2.31736C71.4023 2.17253 71.2575 2.17253 71.1126 1.95528L70.7506 1.81044C70.6781 1.95528 70.316 1.81046 70.1712 1.66562ZM73.6472 6.80714L74.1541 7.31406C74.2989 7.45889 74.2989 7.45889 74.5161 7.67614L74.8782 8.03821L75.2403 8.40029C75.3851 8.54513 75.3851 8.54513 75.6024 8.76237L75.9645 9.12445L76.3265 9.48653L76.4714 9.63137L76.6162 9.77619L76.7611 10.1383C76.9059 10.2831 76.9059 10.2831 77.1232 10.5004L77.4853 10.8624L77.6301 11.2245L77.9921 11.3694L78.1369 11.7314L78.2818 12.0935L78.6439 12.6004C78.6439 12.7452 78.7887 12.7452 78.7887 12.9625L78.9336 13.1073L79.0784 13.4694C79.0784 13.6142 79.2232 13.6142 79.2232 13.8315L79.5853 14.3384C79.5853 14.4832 79.7301 14.4832 79.7301 14.7005L80.237 14.1936C80.237 14.3384 80.3819 14.3384 80.3819 14.5556C80.3819 14.5556 80.5267 14.7005 80.5267 14.9177L80.6715 15.4246C80.6715 15.5695 80.8164 15.7867 80.8164 15.9315L80.9612 16.4385C80.9612 16.5833 81.1061 16.8005 81.1061 16.9454L81.2509 17.3074C81.3957 17.6695 81.3957 17.9592 81.6129 18.3213C82.2647 20.6386 82.7716 23.1007 82.7716 25.6353C82.2647 24.6214 81.613 23.8249 80.744 22.9559C79.9474 22.1593 78.7887 21.2903 77.5577 20.7834C77.4128 20.6386 77.1955 20.6386 77.0507 20.4213L76.6886 20.2765L76.3265 20.1317C75.9645 19.9868 75.8197 19.9868 75.6749 19.7696L75.3128 19.6248C75.168 19.6248 75.168 19.4799 74.9507 19.4799C74.5886 19.3351 74.4437 19.3351 74.1541 19.1178H74.0093L73.8645 18.973C73.5024 18.8282 73.0678 18.6109 72.7057 18.4661C72.1988 18.4661 71.9092 18.3213 71.5471 18.104L71.185 17.9592C70.823 17.9592 70.6781 17.8144 70.3885 17.8144H70.0264H69.8816C69.7368 17.8144 69.3747 17.6695 69.2298 17.6695H68.8678H68.7229C68.578 17.6695 68.216 17.5247 68.0712 17.5247H67.5642C67.4194 17.3799 67.0573 17.3799 66.9125 17.3799H66.4056H65.7538H65.247H64.74L64.8849 17.235L65.0297 16.873C65.0297 16.7281 65.1746 16.5109 65.1746 16.366L65.6814 16.2212C65.6814 16.0764 65.8262 15.8591 65.8262 15.7143L65.9711 15.3522L66.3332 14.8453C66.3332 14.7005 66.478 14.7005 66.478 14.4832C66.6228 14.3384 66.6228 14.1212 66.8401 13.9763C66.8401 13.8315 66.985 13.8315 66.985 13.6142C67.1298 13.4694 67.1298 13.2522 67.347 13.1073L67.4918 12.7452C67.6367 12.6004 67.6367 12.3832 67.8539 12.2383L67.9987 11.8762C68.1435 11.7314 68.1435 11.5142 68.3608 11.3694L68.7229 11.0073C68.8677 10.6452 69.085 10.5004 69.2298 10.3555L69.3746 10.2107C69.5195 10.0659 69.8816 9.70378 70.0264 9.55895L70.1712 9.41411C70.316 9.26928 70.5333 9.05205 70.6782 8.90721L71.0402 8.54513C71.0402 8.54513 71.1851 8.4003 71.4023 8.18306L71.7644 7.82098C71.7644 7.67614 71.9092 7.67614 72.1265 7.4589L72.4886 7.09682C72.6334 6.95199 72.8506 6.95199 72.9954 6.73474L73.1403 6.5899L73.2851 6.73474C73.5024 6.58991 73.5024 6.58989 73.6472 6.80714Z" fill="#1A1F35"/>
</g>
<mask id="mask4_2370_15825" style="mask-type:luminance" maskUnits="userSpaceOnUse" x="0" y="0" width="147" height="116">
<path d="M146.135 0H1.52588e-05V115.503H146.135V0Z" fill="white"/>
</mask>
<g mask="url(#mask4_2370_15825)">
<path d="M63.0023 37.4391C63.0023 37.5839 63.0022 37.8012 63.147 37.946L63.2918 38.3081C63.2918 38.4529 63.2919 38.6702 63.4367 38.815C63.5816 38.9598 63.5815 39.1771 63.9436 40.4806L64.0885 40.8426C64.0885 40.8426 64.2333 40.9875 64.2333 41.2047C64.3781 41.5668 64.5954 42.0013 64.885 42.3634C65.0299 42.7255 65.392 43.0151 65.5368 43.3772L65.8989 43.7393C66.0437 43.8841 66.2609 44.1014 66.4058 44.2462C66.4058 44.391 66.5506 44.391 66.5506 44.6083L66.6954 44.7531C66.6954 44.898 66.8403 45.1152 67.0575 45.26C67.0575 45.4048 67.0575 45.4048 67.2023 45.6221L67.3472 45.7669C67.492 45.9118 67.7093 46.129 67.8541 46.2738C67.9989 46.4187 67.9989 46.4187 68.2162 46.6359C68.361 46.7807 68.5782 46.998 68.723 47.1428L69.0851 47.5049C69.2299 47.6497 69.4472 47.867 69.5921 48.0118L69.9542 48.3739L70.461 48.736L70.3162 48.8808C70.3162 48.8808 70.1714 49.0257 69.9542 49.0257C69.8093 49.1705 69.592 49.3877 69.4472 49.3877C69.4472 49.3877 69.3024 49.5326 69.0851 49.5326C68.9403 49.5326 68.7231 49.6774 68.5782 49.6774C68.4334 49.6774 68.2162 49.8222 68.0714 49.8222L67.5644 49.9671C67.4196 49.9671 67.2024 50.1119 67.0575 50.1119C66.9127 50.1119 66.6954 50.2567 66.5506 50.2567C66.4057 50.2567 66.1885 50.4016 66.0437 50.4016C65.8989 50.4016 65.6816 50.5464 65.5368 50.5464C65.392 50.5464 65.1747 50.6912 65.0298 50.6912C64.885 50.6912 64.6678 50.836 64.523 50.836C64.523 50.9809 64.3781 50.9809 64.1609 50.9809C64.0161 50.9809 63.7988 51.1257 63.6539 51.1257C63.6539 51.2705 63.5091 51.2706 63.2918 51.2706L62.785 51.4154L62.2781 51.5602C62.1333 51.705 61.916 51.705 61.7711 51.705L61.2643 51.8499C61.1194 51.9947 60.9021 51.9947 60.7573 51.9947H60.2504H59.7435H59.2366H58.7297H58.2227H57.7159H57.3538H56.8469V51.6326C56.8469 51.4878 56.702 51.2705 56.702 51.1257L56.5572 50.6188C56.4124 50.474 56.4123 50.2567 56.4123 50.1119L56.2675 49.605V49.0981L56.1227 48.5912V48.0842V47.5773V47.0704V46.5635V45.9118V45.5497V44.5359C56.1227 41.8565 56.6296 39.2495 57.4262 36.5701C58.2227 33.8907 59.5987 31.4286 61.2643 29.2561C61.1194 29.9078 61.1194 30.5596 61.1194 31.2113C61.1194 31.8631 61.1194 32.5148 61.2643 33.239C61.2643 33.6011 61.409 33.8907 61.409 34.0356V34.1804V34.3252C61.5539 34.47 61.5539 34.47 61.5539 34.6873V34.8321V34.977C61.5539 35.1218 61.6987 35.1218 61.6987 35.3391C61.8436 35.3391 61.8435 35.4839 61.8435 35.4839C61.9884 35.6287 61.9884 35.846 61.9884 35.846C62.1332 35.9908 62.1332 35.9908 62.1332 36.208L62.2781 36.5701C62.8574 36.9322 62.8574 37.2943 63.0023 37.4391ZM82.9166 35.9908C83.0615 35.6287 83.0614 35.4839 82.7717 35.1942V35.0494C82.7717 34.9045 82.9166 34.6873 82.9166 34.5425V34.3976V34.2528V33.8907C82.9166 33.7459 83.0614 33.5286 83.0614 33.3838V33.0217C83.0614 32.6597 83.2062 32.5148 83.2062 32.37V32.2252C83.2062 31.8631 83.3511 31.7182 83.3511 31.5734V31.4286C83.4959 31.2837 83.4959 31.0665 83.4959 30.9217V30.7768C83.6407 30.632 83.6408 30.4148 83.6408 30.2699V30.1251V29.763L83.7856 28.6044V27.8078V25.9974V24.9836V24.6215V23.9697V23.6077V22.9559V22.449V21.7973V21.2904L83.6408 20.7835C83.496 20.6386 83.4959 20.4214 83.4959 20.2765C83.3511 20.1317 83.3511 19.9145 83.3511 19.7696L83.2062 19.2627V18.9006H83.5683H84.0753H84.5821H85.0891H85.596H86.1029C86.2477 18.9006 86.465 19.0455 86.6098 19.0455H86.9719C87.1167 19.0455 87.3339 19.1903 87.4788 19.1903L87.9857 19.3351C88.1306 19.3351 88.3478 19.48 88.4926 19.48L88.9995 19.6248C89.1443 19.6248 89.3616 19.7696 89.5065 19.7696L89.8685 19.9145C90.0134 19.9145 90.2306 20.0593 90.3754 20.0593L90.8824 20.2041C91.0272 20.3489 91.3892 20.3489 91.534 20.5662L91.8961 20.711C92.041 20.8559 92.4031 21.0731 92.6928 21.218L93.0549 21.3628C93.4169 21.5076 93.5617 21.5076 93.7065 21.7249L94.2135 21.8697C94.3583 22.0145 94.5755 22.0145 94.7204 22.2318L95.0824 22.5939C95.2273 22.7387 95.4446 22.7387 95.5894 22.9559L95.9515 23.318C96.0963 23.4628 96.3135 23.4628 96.4584 23.6801L96.8204 23.8249L96.6756 24.187L96.5308 24.6939C96.5308 24.8387 96.386 24.8387 96.386 25.056C96.386 25.2008 96.3859 25.4181 96.2411 25.5629C96.2411 25.7077 96.0963 25.7077 96.0963 25.925L95.9515 26.4319L95.8066 26.794C95.6618 26.9388 95.6618 27.1561 95.4445 27.3009V27.4457C95.4445 27.5905 95.2997 27.5905 95.2997 27.8078C95.2997 27.9526 95.1548 27.9526 95.1548 28.1699L95.01 28.3147L94.8652 28.6768L94.7204 29.0389L94.5756 29.1837C94.5756 29.3285 94.4307 29.3285 94.4307 29.5458C94.4307 29.6906 94.2859 29.6906 94.2859 29.9079L94.1411 30.0527C94.1411 30.1975 93.9962 30.1975 93.9962 30.4148C93.8514 30.5596 93.8514 30.5596 93.6341 30.7768L93.4893 30.9217C93.4893 31.0665 93.3444 31.0665 93.3444 31.2838C93.1996 31.4286 93.1996 31.4286 92.9824 31.6458L92.6203 32.1527L92.2582 32.5148L91.8961 33.0217C91.7513 33.1666 91.7513 33.1666 91.534 33.3838L91.172 33.7459C91.0271 33.8907 91.0271 33.8907 90.8099 34.108L90.303 34.4701L89.9409 34.8321L89.5789 35.1942C89.434 35.339 89.2168 35.339 89.072 35.5563L88.7099 35.9184C88.3478 36.2805 88.2029 36.4253 87.9133 36.5701C85.7408 38.0908 83.4235 39.2495 80.9613 40.0461C81.7579 39.2495 82.4821 38.2357 82.989 37.2218C82.7718 36.4977 82.7718 36.1356 82.9166 35.9908Z" fill="#1A1F35"/>
</g>
</svg>
