<svg width="169" height="115" viewBox="0 0 169 115" fill="none" xmlns="http://www.w3.org/2000/svg">
<mask id="mask0_2370_15835" style="mask-type:luminance" maskUnits="userSpaceOnUse" x="0" y="15" width="169" height="86">
<path d="M169 15.0001H0V100.622H169V15.0001Z" fill="white"/>
</mask>
<g mask="url(#mask0_2370_15835)">
<path d="M84.051 30.0307C84.6492 29.8811 85.0978 30.255 85.4717 31.1524L98.4085 62.7091C99.231 64.429 99.9039 65.5507 100.353 66.0741C101.699 67.5697 103.045 67.8688 105.213 67.9436L105.438 68.1679C105.438 68.467 105.363 68.6166 105.213 68.7661H92.5757H92.5008C92.127 68.6914 91.9028 68.7661 91.9028 68.467C91.9028 67.7192 92.6505 68.0931 93.0244 67.4948C93.3236 66.9714 93.0243 66.6723 92.8747 66.2236L88.9116 55.979L88.6124 55.8294H77.0965L76.7226 56.4276L73.7315 64.2047L73.3576 65.8498C73.2828 66.8219 73.5071 67.4201 73.881 67.6445L74.5539 67.8687C75.9 67.8687 76.6478 67.9436 76.8722 68.0184C77.0217 68.3922 76.9469 68.6913 76.6478 68.8409H75.9C72.9088 68.7661 69.2448 68.7661 64.9824 68.8409H63.9354L63.6364 68.5418L63.711 68.0184L64.2346 67.8687C65.5059 68.0183 66.7023 67.7192 67.7492 67.0462C68.5718 66.448 69.469 65.0272 70.2916 62.7838L83.0788 31.302C83.3779 30.6289 83.6771 30.255 84.051 30.0307ZM78.0687 53.0626L78.1434 53.2869H87.9394L83.0788 40.2754L82.7796 40.5745L78.0687 53.0626Z" fill="#1A1F35"/>
</g>
<mask id="mask1_2370_15835" style="mask-type:luminance" maskUnits="userSpaceOnUse" x="0" y="15" width="169" height="86">
<path d="M169 15.0001H0V100.622H169V15.0001Z" fill="white"/>
</mask>
<g mask="url(#mask1_2370_15835)">
<path fill-rule="evenodd" clip-rule="evenodd" d="M158.382 76.0945C158.083 75.945 158.008 75.6459 158.083 75.3467V75.272V75.1972C158.158 75.0477 158.457 74.9729 158.681 74.9729C159.354 74.9729 160.027 74.9729 160.775 74.9729C161.298 74.9729 161.822 75.0477 162.271 75.0477C162.944 75.0477 163.841 75.0477 164.514 75.0477C164.813 75.0477 165.187 75.0476 165.561 74.9729C166.084 74.9729 166.608 74.8981 167.206 74.8981C167.505 74.8981 168.253 74.8233 168.328 75.1225C168.328 75.1225 168.328 75.1224 168.328 75.1972C168.402 75.4216 168.328 75.7207 168.103 75.8703L168.028 75.945H167.954C167.43 75.945 166.683 76.0198 166.234 76.2441C165.71 76.5433 165.636 78.0388 165.636 78.5623C165.636 81.4039 165.561 84.395 165.561 87.2366C165.561 90.153 165.486 93.0693 165.486 95.9109C165.486 96.5839 165.561 97.3317 165.636 98.0047C165.785 98.7525 166.234 98.7525 166.907 98.8273C167.43 98.9021 168.029 98.9021 168.627 99.0517C168.926 99.1264 169.076 99.6499 168.702 99.949C168.552 100.099 168.328 100.099 168.103 100.173C167.58 100.248 166.907 100.173 166.383 100.173C165.112 100.173 163.841 100.099 162.57 100.099C161.672 100.099 160.7 100.099 159.728 100.099C159.279 100.099 158.831 100.173 158.382 100.099C158.158 100.099 158.008 99.949 157.933 99.7995C157.859 99.6499 157.859 99.4255 157.933 99.276C158.008 99.1264 158.233 98.9769 158.382 98.9769C158.681 98.9769 159.579 98.9769 159.878 98.8273C160.177 98.6777 160.401 98.3039 160.401 97.93C160.551 96.8831 160.7 95.0883 160.625 94.0414C160.625 91.2746 160.7 88.5078 160.7 85.6663C160.7 82.8994 160.775 80.1326 160.7 77.3658C160.7 76.7676 160.476 76.3937 159.953 76.1694C159.429 76.0946 158.98 76.0945 158.382 76.0945C158.457 76.0945 158.457 76.0945 158.382 76.0945ZM22.2847 96.5839C22.8082 97.7804 23.3316 98.8274 24.6776 98.9769C25.0515 99.0517 25.2759 98.9769 25.7245 99.0517C26.3228 99.2012 26.3976 100.099 25.7245 100.173C24.9768 100.248 24.229 100.173 23.4812 100.099C21.8361 100.024 20.0414 100.024 18.5458 100.099C18.2467 100.099 17.5737 100.173 17.3494 99.8742C17.2746 99.7994 17.1998 99.7246 17.1998 99.5751C17.125 99.2012 17.5737 99.0516 17.798 98.9021L18.0224 98.8273C18.0972 98.7525 17.1998 96.6587 17.125 96.4344C16.6015 94.9388 15.4799 91.7981 15.4799 91.7981H9.34798C9.34798 91.7981 8.22634 94.9388 7.70289 96.4344C7.55333 96.8831 7.10462 98.3039 7.47851 98.6778C7.70285 98.9769 8.45069 98.9769 8.74981 98.9769C9.1237 98.9769 9.49761 99.2012 9.42283 99.5751C9.42283 99.7246 9.348 99.7994 9.27322 99.8742C9.04889 100.173 8.37589 100.099 8.07678 100.099C7.47855 100.099 6.80554 100.099 6.20731 100.024C5.98297 100.024 5.6091 100.024 5.38476 99.949C5.08565 99.949 4.71173 99.949 4.33784 99.949C3.96395 99.949 3.51529 99.949 3.1414 99.949C2.31883 99.949 1.1971 100.024 0.37453 99.949C-0.2237 99.8742 -0.2237 99.0516 0.37453 98.9021C0.823203 98.7525 1.34665 98.9021 1.87011 98.8273C3.21612 98.6777 3.81441 97.7057 4.26308 96.4344C4.86131 94.8641 7.9272 86.4888 8.89933 83.8715C9.87145 81.2543 10.9184 78.5623 11.8905 75.945C12.4139 74.5242 13.6852 74.3747 14.2835 75.8703C15.2556 78.338 16.2276 80.9552 17.1998 83.4229C18.2467 86.1897 21.537 94.9388 22.2847 96.5839ZM41.4282 86.1897C41.4282 86.1897 41.2786 86.414 41.2038 86.5636C40.0821 88.433 38.8109 90.3026 37.6144 92.2468C36.4179 94.1163 34.1745 97.93 34.1745 97.93C34.3241 98.2291 39.11 97.93 41.5777 97.93C42.8489 97.93 44.3446 97.7056 45.1671 96.5092C45.541 95.9857 45.7653 95.2379 45.9149 94.6397C45.9897 94.4154 46.1392 94.2658 46.2888 94.191C46.4384 94.1163 46.9617 94.191 47.1113 94.191C47.4104 94.191 47.6348 94.4153 47.56 94.7892C47.3357 96.4344 47.1112 98.2291 46.8869 99.8742C46.8121 100.099 46.8121 100.547 46.7374 100.622C46.7374 100.622 46.5878 100.622 46.513 100.622C46.1391 100.622 45.7652 100.622 45.3913 100.622C43.5218 100.398 41.802 100.323 39.8578 100.323C36.1936 100.323 32.5295 100.323 28.9401 100.323C27.6688 100.323 27.5193 99.8742 28.1923 98.8273C29.4635 96.8083 30.66 94.864 31.8565 92.845C33.0529 90.826 34.3242 88.8069 35.5954 86.8627C35.6702 86.7131 35.745 86.6384 35.8198 86.4888C36.6423 85.068 37.5397 83.6472 38.437 82.2264C39.3344 80.8056 41.0543 77.8892 41.0543 77.8892C40.9047 77.6649 36.6423 77.8892 34.4737 77.8892C33.1277 77.8892 31.6321 78.1136 30.8843 79.3101C30.5104 79.8335 30.3608 80.5065 30.2113 81.1795C30.1365 81.4039 30.0617 81.5534 29.8374 81.6282C29.6878 81.703 29.1644 81.6282 29.0148 81.6282C28.7157 81.5534 28.4914 81.4039 28.5662 81.03C28.7905 79.3849 28.94 77.6649 29.1644 75.945C29.1644 75.7207 29.1644 75.272 29.2392 75.1972C29.2392 75.1972 29.3887 75.1972 29.4635 75.1972C29.8374 75.1972 30.2113 75.1972 30.5852 75.1972C32.4546 75.4216 34.1746 75.4964 36.1188 75.4964C39.4839 75.4964 42.8489 75.4964 46.2139 75.4964C47.56 75.4964 47.6347 75.945 46.9617 77.0667C46.0644 78.5623 45.0922 80.1326 44.1201 81.7029C43.2975 83.1237 42.3255 84.6193 41.4282 86.1897ZM74.555 91.9477C74.555 94.5649 74.4804 97.2569 74.4804 99.949C74.4804 100.248 74.3307 100.547 74.0316 100.622C73.9568 100.622 73.1343 100.622 72.9848 100.622C72.7604 100.547 72.4612 100.398 72.3117 100.248C70.517 98.2291 68.3485 96.2101 66.4042 94.191C64.46 92.172 62.5158 90.0782 60.6463 88.0591C59.1507 86.4888 56.3091 83.1985 56.3091 83.1985C56.2343 83.1985 56.3839 85.8906 56.3839 87.2366C56.3839 88.5826 56.5335 91.2747 56.5335 91.2747C56.5335 91.2747 56.6082 95.0884 56.683 96.8083C56.7578 97.4065 56.8326 98.3786 57.2812 98.8273C57.5056 99.0516 57.7298 99.1264 58.1037 99.1264C58.5524 99.2012 59.0011 99.1264 59.4498 99.1264C59.4498 99.1264 59.4498 99.1264 59.5246 99.1264C59.5246 99.1264 59.5245 99.1264 59.5993 99.1264C59.8236 99.276 59.9733 99.6499 59.8985 99.8742V99.949V100.024C59.7489 100.173 59.5994 100.248 59.3751 100.248C58.5525 100.323 57.5055 100.248 56.6081 100.173C56.1595 100.173 55.7856 100.173 55.3369 100.173C54.963 100.173 54.5891 100.173 54.2152 100.173C53.9161 100.173 53.617 100.173 53.3179 100.248C52.7197 100.248 52.1214 100.248 51.598 100.323C51.2989 100.323 50.1773 100.323 50.1773 100.099C50.1773 100.099 50.1773 100.099 50.1773 100.024C50.1773 99.7994 50.1772 99.4256 50.3268 99.3508L50.4016 99.276H50.4763C50.925 99.276 52.0467 99.1265 52.4206 98.9769C53.0189 98.603 53.0936 97.2569 53.0936 96.5839C53.0936 94.9388 53.1684 87.2366 53.1684 84.9185C53.1684 82.6003 53.1683 80.357 53.2431 78.0389C53.2431 77.0667 53.1684 75.272 53.3928 75.0477C53.5423 74.8981 55.0379 74.8981 55.4118 75.0477C56.3091 75.4964 57.6551 77.5154 58.7768 78.7866C59.8985 80.0579 61.0202 81.3291 62.1419 82.5256C63.5627 84.0212 65.0583 85.5167 66.4791 87.0123C68.199 88.807 71.5639 92.6207 71.5639 92.6207C71.6387 92.6207 71.4892 89.7791 71.4892 88.3583C71.4892 86.9375 71.3397 80.3569 71.3397 78.637C71.3397 78.0388 71.2648 77.0667 70.8161 76.618C70.5918 76.3937 70.2927 76.3189 69.9936 76.3189C69.4702 76.2441 68.9467 76.3189 68.4981 76.2441H68.4232H68.3485C68.0494 76.0946 68.0493 75.7955 68.0493 75.4964V75.4216H68.1242C68.1989 75.3468 68.4232 75.1972 68.6476 75.1972C69.4701 75.1224 70.5918 75.1972 71.4144 75.1972C71.863 75.1972 72.237 75.272 72.6109 75.272C72.9848 75.272 73.3587 75.272 73.7326 75.272C74.0317 75.272 74.3308 75.272 74.6299 75.1972C75.2281 75.1224 75.8264 75.1972 76.3498 75.1972C76.6489 75.1972 77.4715 75.1225 77.4715 75.4216V75.4964C77.4715 75.7207 77.4715 76.0198 77.322 76.1694L77.2471 76.2441H77.1723C76.7236 76.2441 75.8264 76.3189 75.4525 76.5433C74.9291 76.9172 74.8543 78.2632 74.8543 78.8614C74.7047 80.5065 74.555 89.3304 74.555 91.9477ZM100.13 96.6587C100.653 97.7804 101.176 98.9021 102.522 99.0517C102.896 99.1264 103.121 99.0517 103.569 99.1264C104.167 99.3508 104.242 100.173 103.569 100.248C102.821 100.323 102.074 100.248 101.326 100.173C99.6807 100.099 97.9609 100.173 96.3906 100.248C96.0915 100.248 95.4184 100.323 95.194 100.024C95.1193 99.949 95.1193 99.8743 95.0445 99.7247C94.9697 99.276 95.3437 99.1264 95.6428 99.0517C95.7176 99.0517 95.8671 98.9769 95.9418 98.9769C96.0166 98.9021 95.194 96.7335 95.1192 96.5839C94.521 95.0136 93.4741 91.9477 93.4741 91.9477H87.3423C87.3423 91.9477 86.2206 95.0884 85.6972 96.5839C85.5476 96.9578 85.0989 98.4534 85.4728 98.8273C85.6971 99.0516 86.4449 99.0517 86.744 99.0517C87.1179 99.0517 87.4918 99.276 87.3423 99.6498C87.3423 99.7994 87.2675 99.8742 87.1927 99.949C87.0432 100.248 86.3701 100.173 85.9962 100.173C85.398 100.173 84.725 100.173 84.1267 100.099C83.8276 100.099 83.5286 100.099 83.3043 100.024C82.9304 100.024 82.5564 100.024 82.2573 100.024C81.8834 100.024 81.4348 100.024 81.0609 100.099C80.2384 100.099 79.1913 100.248 78.294 100.173C77.621 100.099 77.6957 99.276 78.294 99.1264C78.8174 98.9769 79.3409 99.0517 79.8644 98.9769C81.2104 98.8274 81.7339 97.8552 82.1826 96.5839C82.7808 95.0136 83.379 93.518 83.9772 91.9477C84.9493 89.2557 85.9963 86.6384 86.9684 84.0212C87.9405 81.4039 88.9874 78.7866 89.9595 76.0945C90.483 74.6737 91.7542 74.5242 92.3524 76.0198C93.2498 78.5623 94.2967 81.1047 95.194 83.5724C96.1662 86.1897 99.3817 94.9388 100.13 96.6587ZM106.635 95.0884C106.336 94.5649 106.112 93.0693 105.962 92.5459C105.887 91.9476 105.738 91.2746 105.738 90.6764C105.663 89.5547 105.738 88.2835 105.738 87.0871C105.738 85.8906 105.738 79.4596 105.738 77.4406C105.738 76.7676 105.439 76.4685 104.84 76.2441C104.317 76.0198 103.719 76.1693 103.121 76.0945H103.046H102.971C102.672 75.945 102.597 75.6459 102.672 75.3467V75.272C102.672 75.272 102.747 75.272 102.747 75.1972C102.822 75.0477 103.121 74.9729 103.27 74.9729C104.093 74.9729 104.915 74.9729 105.738 75.0477C106.261 75.0477 106.71 75.0477 107.234 75.1225C107.981 75.1225 108.804 75.1225 109.552 75.1225C109.925 75.1225 110.225 75.1225 110.599 75.1225C111.122 75.1225 111.72 75.0477 112.169 75.0477C112.468 75.0477 113.291 75.0476 113.365 75.3467C113.365 75.3467 113.365 75.3468 113.365 75.4216C113.365 75.6459 113.365 76.0945 113.141 76.0945H113.066H112.991C112.468 76.0945 111.72 76.1693 111.271 76.3937C110.748 76.6928 110.748 78.1883 110.748 78.7118C110.748 80.4317 110.673 83.9463 110.673 83.9463C110.673 85.8158 110.598 87.76 110.673 89.5547C110.673 90.4521 110.748 91.5738 110.898 92.4711C111.047 93.0693 111.122 93.6676 111.271 94.191C111.944 96.2101 113.739 97.7057 115.683 97.8552C115.758 97.8552 115.908 97.8552 116.057 97.8552C117.628 97.8552 119.198 97.257 120.245 96.0605C121.367 94.7145 121.741 92.3963 121.741 90.6764C121.741 89.4799 121.741 88.2835 121.741 87.0871C121.741 85.8906 121.74 79.3848 121.666 77.4406C121.666 76.8424 121.367 76.4685 120.843 76.2441C120.32 76.0198 119.722 76.1693 119.198 76.0945H119.123C119.048 75.945 118.675 75.6459 118.824 75.3467V75.272C118.824 75.272 118.899 75.272 118.899 75.1972C119.048 75.0477 119.198 74.9729 119.422 74.9729C120.17 74.9729 120.993 74.9729 121.741 74.9729C122.189 74.9729 122.638 74.9729 123.161 75.0477C123.535 75.0477 123.984 75.0477 124.358 75.0477C124.657 75.0477 125.031 75.0476 125.33 74.9729C125.853 74.9729 126.452 74.9729 126.975 74.8981C127.274 74.8981 128.022 74.8981 128.097 75.1972V75.272C128.097 75.4963 127.947 75.7955 127.872 75.945V76.0198H127.798C127.349 76.0198 126.452 76.0946 126.078 76.3189C125.554 76.618 125.554 78.1136 125.554 78.637C125.554 80.4317 125.554 83.8715 125.554 83.8715C125.554 85.8906 125.554 87.9096 125.479 89.8538C125.405 91.1251 125.255 92.3963 124.881 93.6675C124.582 94.864 123.984 96.1353 123.161 97.1074C121.441 99.0517 119.198 100.024 116.656 100.173C116.356 100.173 115.982 100.173 115.683 100.173C114.936 100.173 114.113 100.173 113.365 100.099C110.374 99.7247 107.832 98.1543 106.635 95.0884ZM145.071 88.5826C146.642 90.6764 148.287 92.845 149.857 94.9388C150.53 95.8362 151.727 97.257 152.549 97.93C152.699 98.0795 152.923 98.2291 153.148 98.3039C153.895 98.8273 155.092 98.9769 155.989 99.1264C156.288 99.2012 156.438 99.4255 156.438 99.6498C156.438 100.173 155.84 100.248 155.466 100.248C154.195 100.323 152.624 100.173 151.353 100.173C149.708 100.099 148.81 99.949 147.539 98.8273C146.567 98.0047 145.67 96.8083 144.997 95.7614C143.8 93.9667 142.454 92.172 141.407 90.4521C141.333 90.3026 141.108 90.0782 140.959 90.0782C140.51 90.0034 138.715 90.0782 138.715 90.0782C138.715 90.0782 138.715 96.3596 138.865 97.5561C138.94 98.3787 138.94 98.8274 139.837 98.9769C140.286 99.0517 140.809 99.1264 141.258 99.1264C141.632 99.2012 141.931 99.2012 141.931 99.7247C141.931 100.024 141.706 100.248 141.482 100.248C141.108 100.248 140.809 100.248 140.435 100.248C137.967 100.173 135.425 100.248 132.957 100.248C132.509 100.248 131.387 100.398 131.312 99.8742C131.237 99.6499 131.312 99.276 131.611 99.2012C132.06 99.1264 132.658 99.0517 133.182 98.9769C134.154 98.8274 134.004 94.7145 134.004 93.9667C134.004 91.3494 134.004 88.6574 134.004 86.0401C134.004 83.4229 134.079 80.7309 134.004 78.1136C134.004 76.5433 133.555 76.3189 132.135 76.1694C131.985 76.1694 131.836 76.1694 131.686 76.1694C131.312 76.1694 130.938 76.1693 130.863 75.7206C130.789 75.272 131.163 75.0477 131.611 75.0477C131.985 75.0477 132.434 75.0477 132.808 75.0477C133.182 75.0477 133.63 75.0477 134.004 75.1225C135.649 75.1972 137.369 75.1972 139.014 75.1225C140.809 75.0477 142.679 74.9729 144.399 75.4216C145.595 75.7207 147.091 76.3937 147.913 77.4406C148.736 78.5623 149.109 79.9083 149.184 81.2543C149.184 82.6003 148.885 84.0211 148.287 85.2176C147.464 86.4888 146.343 87.6105 145.071 88.5826ZM10.1706 89.8538H14.7321C14.7321 89.8538 13.9096 87.6105 13.5357 86.5636C13.1618 85.4419 12.414 83.2734 12.414 83.2734C12.3392 83.2734 11.5914 85.5167 11.2923 86.5636C10.9184 87.6852 10.5445 88.7322 10.1706 89.8538ZM88.0152 89.8538C89.5108 89.8538 92.5768 89.8538 92.5768 89.8538C92.5768 89.8538 91.829 87.6852 91.4551 86.5636C91.0812 85.4419 90.3334 83.2734 90.3334 83.2734C90.2586 83.2734 89.5109 85.4419 89.2117 86.5636C88.8378 87.6852 88.3891 88.8069 88.0152 89.8538ZM138.79 77.2162L138.715 87.5357C138.715 87.5357 140.136 87.9096 140.51 87.9096C141.781 87.9096 142.828 87.5357 143.501 86.3393C144.174 85.2176 144.324 84.395 144.399 83.1238C144.473 81.6282 144.174 79.9083 143.277 78.7118C142.454 77.6649 141.183 76.9919 139.912 76.9919C139.613 77.0667 139.014 77.0667 138.79 77.2162Z" fill="#1A1F35"/>
</g>
<mask id="mask2_2370_15835" style="mask-type:luminance" maskUnits="userSpaceOnUse" x="0" y="15" width="169" height="86">
<path d="M169 15.0001H0V100.622H169V15.0001Z" fill="white"/>
</mask>
<g mask="url(#mask2_2370_15835)">
<path fill-rule="evenodd" clip-rule="evenodd" d="M79.4895 24.7962C79.4895 24.871 79.34 24.8711 79.34 24.8711C79.1905 24.8711 79.0408 25.0954 79.0408 25.3945C79.0408 25.6936 79.1905 25.9179 79.34 25.9179H84.5745H89.809C89.9586 25.9179 90.1081 25.6936 90.1081 25.3945C90.1081 25.0954 89.9586 24.8711 89.809 24.8711C86.3692 24.8711 82.9294 24.7962 79.4895 24.7962ZM82.4058 21.2069L82.9294 20.5339L83.4528 21.2069L82.9294 21.8799L82.4058 21.2069ZM86.6684 21.2069L86.1448 21.8799L85.6214 21.2069L86.1448 20.5339L86.6684 21.2069ZM88.2386 21.3564L87.7152 21.8051L87.1918 21.3564L87.7152 20.9078L88.2386 21.3564ZM80.8356 21.3564L81.359 20.9078L81.8824 21.3564L81.359 21.8051L80.8356 21.3564ZM83.9763 21.1321L84.4997 20.3095L85.0231 21.1321L84.4997 21.9547L83.9763 21.1321ZM91.6785 15.0002C91.3794 15.0002 91.0802 15.2246 91.0802 15.5237C91.0802 15.748 91.3045 15.9724 91.6037 16.0472C90.7063 17.468 89.8091 18.1409 88.9117 17.8418C89.4352 17.9914 89.5847 18.7392 89.2856 19.4122C89.1361 19.7861 88.9116 20.0104 88.6125 20.16C88.4629 20.2348 88.7621 18.2157 88.8369 17.3932C89.136 17.3932 89.3603 17.1688 89.3603 16.8697C89.3603 16.5706 89.1359 16.3463 88.762 16.3463C88.4629 16.3463 88.1639 16.5706 88.1639 16.8697C88.1639 17.094 88.3135 17.2436 88.5378 17.3184C88.1639 18.0662 87.5657 19.7861 87.4162 19.6365C87.2666 19.487 87.0421 19.3374 86.743 19.2626C86.6683 19.2626 86.6684 19.2626 86.6684 19.1878C86.9675 19.1878 87.1918 18.9635 87.1918 18.7392C87.1918 18.5148 86.9675 18.2905 86.6684 18.2905C86.3692 18.2905 86.1448 18.5148 86.1448 18.7392C86.1448 18.8887 86.2197 18.9635 86.2945 19.0383C85.8458 18.8888 85.3971 18.9635 85.3223 19.1131L85.0231 17.8418L86.0701 18.2157C86.2944 17.767 86.2944 17.3184 86.0701 16.9445L85.0231 17.2436L85.8457 16.4211C85.8457 16.1219 85.7709 15.9724 85.4718 15.9724L84.8736 16.0472C85.0979 15.9724 85.2475 15.8228 85.2475 15.5985C85.2475 15.2994 85.0231 15.075 84.6492 15.075C84.3501 15.075 84.0511 15.2994 84.0511 15.5985C84.0511 15.8228 84.2007 15.9724 84.425 16.0472L83.8267 15.9724C83.4528 15.9724 83.3781 16.1219 83.4528 16.4211L84.2753 17.2436L83.2285 16.9445C82.9294 17.3931 83.0041 17.8418 83.2285 18.2157L84.2753 17.8418L83.9763 19.1131C83.9015 18.9635 83.4528 18.8888 83.0041 19.0383C83.0789 18.9635 83.1536 18.8887 83.1536 18.7392C83.1536 18.5148 82.9293 18.2905 82.6302 18.2905C82.3311 18.2905 82.1068 18.5148 82.1068 18.7392C82.1068 18.9635 82.3311 19.1878 82.6302 19.1878C82.6302 19.1878 82.5555 19.1879 82.5555 19.2626C82.3312 19.4122 82.032 19.487 81.8824 19.6365C81.7329 19.7113 81.1346 17.9914 80.7607 17.3184C80.9851 17.2436 81.1346 17.094 81.1346 16.8697C81.1346 16.5706 80.9103 16.3463 80.5364 16.3463C80.2372 16.3463 79.9383 16.5706 79.9383 16.8697C79.9383 17.094 80.1626 17.3184 80.4617 17.3932C80.4617 18.2157 80.8356 20.2348 80.6861 20.16C80.3869 20.0104 80.1625 19.7113 80.0129 19.4122C79.7138 18.7392 79.8634 18.0662 80.3868 17.8418C79.4147 18.0662 78.5175 17.468 77.6949 16.0472C77.994 16.0472 78.2183 15.8228 78.2183 15.5237C78.2183 15.2246 77.994 15.0002 77.6201 15.0002C77.3209 15.0002 77.0218 15.2246 77.0218 15.5237C77.0218 15.8228 77.2462 16.0472 77.6201 16.0472C78.0687 17.8419 79.1156 19.3374 79.4895 20.6834C79.7886 21.3564 79.9382 23.0016 79.8634 23.9737H89.5847C89.4351 23.0016 89.5847 21.3564 89.9586 20.6834C90.3325 19.3374 91.3794 17.7671 91.828 16.0472C92.1271 16.0472 92.4263 15.8228 92.4263 15.5237C92.202 15.2246 91.9776 15.0002 91.6785 15.0002ZM101.848 41.3224C102.297 41.3972 102.596 41.2476 103.045 41.2476C103.269 41.1728 103.269 40.7989 103.568 40.7989C103.867 41.8458 102.222 41.8458 101.848 41.3224ZM114.337 60.9144C113.888 60.6901 114.486 59.7927 114.785 59.7927C114.486 60.0919 114.337 60.6153 114.337 60.9144ZM113.738 60.4658C113.29 60.3162 113.738 59.1945 114.262 59.1945C113.888 59.5684 113.813 60.0171 113.738 60.4658ZM112.916 59.9423C112.766 59.7179 112.841 59.3441 112.99 58.9702C113.14 58.5963 113.514 58.3719 113.813 58.4467C113.663 58.5962 113.439 58.8954 113.364 59.1197C113.215 59.4188 113.065 59.6431 112.916 59.9423ZM112.317 59.2692C112.168 58.9701 112.317 58.4467 112.542 58.0728C112.766 57.6989 113.215 57.3998 113.514 57.3998C113.364 57.6989 113.14 57.9981 112.916 58.2972C112.766 58.5963 112.542 58.8953 112.317 59.2692ZM113.215 56.8016C112.99 56.9511 112.766 57.1755 112.542 57.4746C112.317 57.7737 112.168 57.9981 111.943 58.2224C111.943 57.9233 112.093 57.5494 112.317 57.1755C112.542 56.8764 112.916 56.652 113.215 56.652C113.14 56.652 113.29 56.7268 113.215 56.8016ZM111.869 56.9511C111.719 56.7268 111.869 56.3529 112.018 56.0538C112.243 55.7547 112.542 55.4555 112.766 55.4555C112.766 55.4555 112.841 55.4555 112.841 55.5303C112.617 55.7546 112.467 55.979 112.317 56.2033C112.243 56.4277 112.093 56.7268 111.869 56.9511ZM112.542 54.5582C112.317 54.7078 112.168 55.1565 111.943 55.2313C111.869 54.9321 112.168 54.2591 112.542 54.5582ZM120.543 63.756C120.543 63.3821 120.842 63.0082 120.693 62.5595C120.767 62.5595 120.767 62.4848 120.767 62.4848C120.767 62.5595 120.842 62.4847 120.917 62.5595C121.291 63.0082 120.842 63.5317 120.917 63.9803C120.992 64.5038 121.515 64.8777 121.44 65.4759C121.141 64.8777 120.468 64.5785 120.543 63.756ZM123.459 43.0423H123.534C123.459 43.491 123.385 43.8648 123.385 44.2387C123.385 44.4631 123.759 44.6126 123.684 44.9118C122.936 45.1361 122.712 43.1171 123.459 43.0423ZM124.506 43.3414C124.581 43.8649 124.431 44.5378 124.656 44.9865C123.983 44.9117 124.357 44.164 124.282 43.6405C124.282 43.4909 124.132 43.4162 124.282 43.2666C124.357 43.2666 124.432 43.3414 124.506 43.3414ZM100.801 28.6847C100.502 28.9839 100.054 29.4325 99.8293 29.6569C99.2311 30.1803 98.6328 30.3299 98.1094 30.629C98.3337 31.0777 98.9321 30.5542 99.3808 30.5542C99.306 30.5542 99.9788 32.3489 99.9788 32.4237C99.3806 32.9471 99.0815 33.5454 98.8572 34.2184C98.7076 34.8166 98.7824 35.2653 98.3337 35.6392C97.9598 34.8166 97.2122 31.7507 97.1374 30.7785C97.1374 30.3299 97.0626 29.956 97.1374 29.5073C97.1374 29.283 97.1374 28.4604 97.2869 28.3109C97.6608 27.937 98.0347 27.5631 98.4086 27.1892C98.6329 27.264 98.8573 27.3387 99.0069 27.4883C99.0816 27.7126 99.0067 28.0865 99.2311 28.0118C99.6049 27.5631 99.2311 26.89 98.8572 26.6657C99.2311 26.0675 100.054 26.5909 100.278 27.1892C100.353 27.3387 100.203 27.4883 100.353 27.6379C100.577 27.3388 100.502 26.8153 100.278 26.5162C100.129 26.2919 99.7546 26.2918 99.7546 26.0675C100.727 25.6188 101.4 27.1892 101.25 28.0865C101.101 28.2361 100.951 28.5352 100.801 28.6847ZM100.278 33.0967C100.203 33.1715 100.203 33.0967 100.278 33.0967C99.8294 33.4706 99.6051 33.695 99.3808 34.368C99.306 34.6671 99.1563 35.6392 98.8572 35.7887C98.6328 35.9383 99.3807 36.1626 99.9042 35.714C100.278 35.4149 100.203 34.9662 100.129 34.5923C100.054 34.1436 100.203 33.6202 100.278 33.0967ZM111.719 30.1803C111.644 30.7038 111.869 31.1525 111.57 31.6011C111.345 31.6759 111.345 31.4516 111.121 31.4516C111.121 31.975 110.897 32.5733 110.598 32.9471C110.822 33.5454 110.672 34.4427 110.448 34.8166C111.719 34.8914 111.495 36.387 111.121 37.2843C111.944 36.9852 112.99 37.2843 113.289 37.8078C113.215 37.9573 112.99 37.8826 112.841 37.9573C113.514 38.7051 114.935 38.3312 115.308 37.6582C115.383 37.5086 115.458 37.2843 115.383 37.1347C115.234 36.387 114.262 36.9852 113.738 36.6113C112.99 36.0879 113.962 34.9662 114.561 34.9662C114.935 34.9662 115.084 35.4896 115.608 35.3401C115.682 35.4896 115.608 35.714 115.682 35.7887C116.804 35.714 118.001 34.2184 116.879 33.4706C117.028 33.0219 117.477 33.5454 117.627 33.5454C117.701 32.7228 116.954 32.7228 116.355 32.4985C116.131 32.4237 115.907 32.1994 115.608 31.975C115.159 31.6759 114.86 31.6759 114.561 31.3768C114.411 30.3299 112.99 29.7317 111.719 30.1803ZM114.636 31.6759C114.336 31.8255 114.187 32.1993 114.112 32.648C113.963 32.3489 113.813 32.0498 113.589 31.8255C113.364 31.6759 112.916 31.5264 112.916 31.3768C113.364 31.6759 113.963 31.7507 114.636 31.6759ZM115.234 33.2463C115.234 33.1715 115.234 33.2463 115.308 33.2463C115.907 33.4706 116.655 33.7697 116.505 34.5923C116.355 34.0688 115.757 33.695 115.234 33.2463ZM116.131 34.9662C115.682 34.4427 114.935 34.0688 114.411 33.8445C115.234 33.6202 116.056 34.1436 116.131 34.9662ZM111.046 28.61C110.298 28.0118 108.803 28.2361 107.756 27.937C109.027 27.7126 110.597 27.5631 111.046 28.61ZM105.812 30.2551C105.737 30.8534 104.466 30.7786 104.765 31.7507C105.288 31.8255 105.662 31.6011 106.036 31.6759C106.634 32.3489 105.139 32.7228 105.662 33.4706C106.036 33.5454 105.961 33.2463 106.26 33.2463C106.709 33.4706 105.961 34.2184 106.485 34.4427C107.382 34.0688 107.457 32.6481 108.429 32.4985C108.13 32.8724 108.055 33.321 107.681 33.7697C107.232 34.2931 106.634 34.5923 106.335 35.1905C106.111 35.6392 106.036 36.387 105.288 36.3122C105.139 35.5644 106.111 34.6671 105.662 33.8445C105.213 34.1436 104.989 34.9662 104.241 34.8914C104.466 34.0688 105.064 33.2463 105.438 32.4237C105.064 32.0498 104.615 32.4985 104.316 32.7228C104.017 33.0219 103.718 33.3958 103.194 33.3958C103.045 32.7228 103.867 32.4985 104.017 31.975C103.344 31.9003 102.596 32.1994 102.073 32.0498C102.521 31.2272 104.017 31.5264 104.466 30.7038C104.017 30.7038 102.97 30.7786 103.12 30.1803C104.017 30.4794 104.989 30.2551 105.812 30.2551ZM122.039 40.9485C122.263 41.2476 122.338 41.5467 122.412 41.9206C122.637 42.9675 121.814 44.3883 122.487 45.2109C122.712 45.51 123.385 46.1082 123.759 46.2578C124.282 46.4821 124.805 46.4821 125.254 46.1082C125.105 45.5847 125.03 45.2108 125.105 44.6126C125.179 44.0144 125.329 43.491 125.179 43.0423C125.105 42.7432 124.805 42.3693 124.581 42.1449C124.132 41.771 123.534 41.5467 123.011 41.0981C122.936 41.0233 122.861 40.9485 122.786 40.9485C122.786 40.9485 122.786 40.8737 122.712 40.8737C122.338 40.425 122.188 39.8268 121.74 39.4529C119.721 37.5834 115.458 39.3781 116.804 42.8927C117.253 44.0144 118.001 44.837 118.823 45.7343C119.721 46.6316 120.767 47.6037 120.917 49.1741C120.992 50.5201 120.394 51.4175 119.571 51.7166C119.122 51.8662 118.524 51.941 118.15 51.6418C117.701 51.3427 117.328 50.7445 116.355 49.8471C115.383 48.9498 114.187 48.4264 113.364 47.8281C111.644 46.4073 110.523 45.1361 109.775 42.9675C109.625 42.5188 109.476 42.0702 109.476 41.5467C109.401 40.8737 109.326 39.9016 109.625 39.4529C109.7 39.3781 109.85 39.3033 110.074 39.3781L110.224 39.6025C110.448 39.9016 110.747 40.1259 111.121 40.2755C111.495 40.425 112.168 40.4998 112.168 39.9016C111.719 39.752 111.121 39.5277 110.897 38.8547C110.672 38.1069 110.971 37.06 110.897 36.3122C110.897 35.9383 110.822 35.4149 110.298 35.3401C110.149 36.0879 109.999 36.7608 109.7 37.5086C109.625 37.733 109.476 37.9573 109.401 38.1817C109.251 38.406 109.027 38.6303 108.803 39.0042C108.653 39.3781 108.653 39.6772 108.653 39.9016C108.429 40.7989 107.905 41.2476 107.457 41.2476C106.634 41.6215 106.859 40.8737 107.008 39.9764C107.008 39.5277 106.784 39.079 106.933 38.3312C107.083 38.1817 107.232 38.0321 107.382 37.9573C107.681 38.1069 107.233 38.5556 107.233 38.8547C107.307 39.3781 107.382 39.752 107.382 40.2755C107.382 40.4998 107.232 40.6494 107.382 40.7989C108.279 40.6494 108.205 39.752 108.354 38.9294C108.429 38.4808 108.878 37.9573 109.102 37.5086C109.252 37.06 109.625 36.6861 109.7 36.3122C109.7 36.1626 109.775 35.8635 109.551 35.714C108.803 35.9383 108.803 36.9104 108.13 37.2095C107.532 36.9104 108.279 36.2374 108.653 35.8635C109.177 35.3401 109.924 34.8914 110.149 34.2184C109.7 33.9941 109.551 34.4427 109.326 34.6671C108.952 35.0409 108.354 34.7419 108.055 35.1158C108.803 33.3211 110.149 33.8445 110.448 32.4237C110.523 31.975 110.224 31.3768 110.672 31.1524C110.822 31.0777 110.897 31.1524 111.121 31.1524C110.598 30.1055 109.925 29.2082 108.504 29.1334C108.279 29.8065 108.429 30.9281 109.027 31.1524C109.401 30.7038 108.728 30.1803 108.878 29.5821C109.177 29.8064 109.551 29.956 109.775 30.2551C109.775 30.3299 109.401 30.2551 109.326 30.4795C109.177 31.0777 109.775 31.0777 109.775 31.5263C108.728 31.3768 107.905 31.8254 107.158 32.2741C107.382 31.6759 107.98 31.4516 108.578 31.302C108.504 31.2272 108.504 31.0777 108.504 30.9281C107.606 30.7786 106.784 31.1525 106.26 31.0777C106.559 30.5542 107.681 30.4794 108.279 30.5542C108.279 30.4047 108.13 30.0308 108.055 29.8064C107.083 29.956 106.41 29.5073 105.363 29.5821C105.887 28.9091 107.083 29.3578 108.055 29.4325C108.055 29.1334 107.98 28.8343 108.13 28.61C109.252 28.7595 110.298 28.9839 110.822 29.7317C111.046 30.0308 111.046 30.4795 111.42 30.4795C111.57 30.0308 111.196 29.7317 111.121 29.3578C111.719 29.283 111.57 29.956 111.943 29.8812C112.467 29.8065 112.168 28.9091 112.093 28.5352C112.392 28.5352 112.617 29.1334 112.467 29.5073C113.29 29.4326 112.766 28.2361 112.392 27.937C111.495 27.1144 109.326 27.4135 108.055 27.5631C107.681 28.0117 106.784 27.7874 107.008 26.9648C106.111 26.9648 105.961 28.2361 106.709 28.4604C105.812 28.5352 104.765 28.9839 104.615 28.0118C103.643 27.7127 103.643 29.0587 104.391 29.2082C104.017 29.4325 103.643 29.3577 103.194 29.6569C102.895 29.8812 102.222 30.7786 101.549 30.5542C101.4 30.4794 101.4 30.4047 101.25 30.1803C100.802 30.3299 100.428 30.7038 100.577 31.2272C100.652 31.6759 101.325 31.7507 101.624 31.975C101.175 32.5733 100.652 33.3958 100.801 34.4427C101.624 34.1436 101.774 33.0219 102.82 33.1715C102.746 33.6201 102.521 33.9193 102.447 34.5175C102.372 34.8166 102.297 35.1905 102.447 35.4896C102.895 35.3401 103.344 35.1905 103.568 35.4148C103.493 36.0131 103.269 36.8356 103.494 37.4339C103.793 37.2843 103.942 36.9852 104.466 36.9852C104.466 37.5087 103.793 38.5556 104.391 39.2286C105.064 38.1069 105.213 37.8077 106.111 37.1347C106.485 36.9104 106.933 36.6861 107.083 36.3122C107.158 36.6861 107.008 37.06 106.784 37.2843C106.111 38.0321 104.84 39.2286 104.391 40.3503C103.793 39.9764 103.643 39.6024 103.568 39.0042C103.568 38.7051 103.568 38.4808 103.568 38.406C103.419 38.3312 102.746 39.079 102.521 38.9294C102.447 37.9573 102.746 36.9104 102.82 36.0131C102.596 35.9383 102.372 36.1626 102.222 36.3122C101.998 36.4617 101.848 36.6113 101.624 36.7608C101.549 36.5365 101.624 36.2374 101.624 36.0131C101.848 35.4148 101.923 34.7419 101.848 33.9941C101.549 34.2184 100.951 34.8166 100.727 35.6392C100.577 36.5365 99.9041 36.387 98.932 36.4618C99.0816 37.6582 100.652 37.4339 101.101 37.5834C100.876 37.8078 100.278 37.9573 99.7546 37.8078C99.0069 37.5834 97.9599 37.06 97.0625 36.1626C95.8661 34.9662 94.8192 33.321 94.2958 32.4237C93.7723 32.5732 92.9497 32.8724 92.5758 32.3489C93.174 32.0498 93.5479 32.1993 93.9965 31.9002C94.2209 31.7507 94.4452 31.5263 94.7443 31.302C94.9687 31.0777 95.2678 30.9281 95.4921 30.7038C95.7912 30.4794 96.3148 29.8812 96.3896 29.5821C96.4644 29.283 96.0156 28.2361 95.866 28.0118C95.7164 27.7874 95.3427 27.3387 95.0435 27.4135C95.0435 27.4135 94.8192 27.5631 94.8192 27.6379C94.8192 27.8622 95.2678 27.937 95.3426 28.1613C95.5669 28.5352 95.6418 28.9091 95.4174 29.283C95.4174 28.5352 94.5201 27.5631 93.9219 28.3109C94.221 28.61 94.7444 29.2082 94.2958 29.7317C94.0714 29.4326 94.0714 28.8343 93.548 28.8343C93.3984 28.8343 93.0993 29.283 92.9497 29.4325C92.3515 30.0308 91.4541 30.9281 91.6037 32.0498C91.6784 32.3489 91.9028 32.7976 91.9775 33.1715C92.9497 36.0878 95.1182 37.9573 96.6138 40.5746C96.9877 41.2476 98.4833 40.7989 99.3059 41.0232C100.054 41.1728 100.652 41.6215 101.4 42.0702C102.073 42.4441 102.746 42.5936 103.494 42.5188C103.867 42.444 104.316 41.9954 104.69 41.5467C104.69 42.1449 104.166 43.0423 103.568 43.117C102.746 43.1918 101.998 43.1171 101.175 42.6684C100.278 42.2945 99.2312 41.6215 98.2591 41.9954C99.3808 47.3047 101.549 50.8193 106.485 52.0157C107.307 52.2401 108.13 52.3149 108.803 52.614C110.074 53.1375 111.196 54.0348 111.271 55.6052C111.345 56.6521 111.121 57.0259 111.196 58.0728C111.345 60.6153 112.99 61.6622 114.86 62.41C115.458 62.6343 118.001 62.9334 118.674 63.2325C119.646 63.6812 119.87 64.5785 119.87 65.2515C119.945 65.8498 120.094 66.8219 119.571 67.0462C119.048 67.3454 118.225 67.3454 117.627 67.794C117.402 67.9436 117.029 68.3922 116.954 68.6166C116.804 68.9905 116.879 69.5888 117.402 69.514C117.552 69.3644 117.253 69.2896 117.328 69.1401C117.477 68.9158 117.627 68.6914 117.851 68.5418C117.776 68.8409 117.702 69.2896 117.851 69.514C118.075 69.6635 118.524 69.6636 118.674 69.4392C118.449 68.841 119.122 68.5419 119.496 68.3175C119.347 68.6167 119.048 68.9905 119.197 69.4392C119.646 69.7383 120.244 69.8131 120.693 69.5887C121.216 69.3644 121.665 68.3923 121.964 67.9436C122.113 67.7193 122.412 67.495 122.412 67.2706C122.412 66.9715 122.413 66.5976 122.338 66.2237C122.263 65.4011 121.814 64.6534 121.74 63.8308C121.665 63.3074 121.814 62.7839 121.814 62.3352C121.74 61.4379 120.917 61.4379 120.244 61.2883C119.496 61.1388 118.898 60.391 117.851 59.718C117.328 59.1945 117.552 58.2971 117.851 57.2502C118.15 55.9042 118.449 54.8573 118.524 53.96L118.599 53.8852C119.197 53.7356 119.87 53.5861 120.468 53.2869C121.216 52.913 121.74 52.3896 122.113 51.7914C122.562 50.894 122.786 49.8472 122.487 48.5012C121.964 46.4074 120.169 45.4352 119.122 44.0144C118.674 43.4162 117.926 42.444 118.001 41.3971C118.075 40.6494 118.823 39.9016 119.87 39.8268C120.543 39.5277 121.515 40.1259 122.039 40.9485ZM113.888 34.7419C113.589 35.1158 112.99 35.5644 113.14 36.1626C112.542 35.6392 113.29 34.5923 113.888 34.7419ZM109.775 62.3352C109.027 61.5875 108.803 61.064 108.578 60.5405C108.354 59.9423 108.205 59.4188 108.205 58.7458C108.205 57.9233 108.429 57.6989 108.728 57.0259C109.102 55.979 109.551 55.4555 109.625 53.5861C110.747 54.633 110.598 55.9043 110.598 55.979C110.523 57.9233 110.448 58.8954 111.196 60.3162C111.42 60.6901 111.869 61.1387 112.317 61.5126C112.691 61.8117 113.589 62.0361 113.663 62.41C113.888 62.8587 113.514 63.3073 113.439 63.9056C113.289 64.8029 113.589 65.9246 113.439 66.6724C113.364 67.121 112.916 67.3454 112.542 67.7193C112.243 68.0932 112.018 68.4671 111.794 68.6914C111.345 69.0653 109.999 69.2896 109.999 68.4671C109.999 68.0932 110.373 68.0184 110.448 67.5698C109.924 67.7941 109.551 68.1679 109.401 68.841C109.177 68.9157 108.952 68.841 108.803 68.7662C108.578 68.4671 108.803 67.9436 108.803 67.7193C108.354 67.7941 108.354 68.3175 108.205 68.6166C107.905 68.6914 107.756 68.1679 107.905 67.794C107.98 67.6445 108.13 67.5697 108.205 67.4201C108.504 67.0462 108.952 66.6724 109.476 66.5228C109.7 66.4481 110.074 66.5229 110.298 66.4481C110.523 66.3733 110.897 66.1489 111.046 65.9246C111.42 65.4011 111.42 63.9056 111.121 63.4569C110.897 63.1578 110.224 62.6344 109.775 62.3352ZM108.728 51.1932C108.429 50.9688 108.354 50.6698 108.354 50.3706C108.429 50.2959 108.429 50.2958 108.504 50.2958C108.429 50.6697 108.803 50.8941 108.728 51.1932ZM107.606 51.0436C107.382 50.5949 107.158 49.9967 107.457 49.6228C107.681 50.0715 107.681 50.5949 107.606 51.0436ZM105.662 50.5202C105.363 49.9219 104.914 49.2489 105.363 48.6507C105.438 49.1741 105.662 49.9219 105.662 50.5202ZM106.559 50.8193C106.26 50.2958 105.961 49.548 106.26 49.0246C106.709 49.4733 106.634 50.2958 106.559 50.8193ZM104.466 48.9498C104.466 49.3985 104.54 49.7724 104.466 50.1463C104.092 49.4733 103.793 48.5759 104.316 47.8281C104.615 48.0525 104.466 48.5759 104.466 48.9498ZM103.494 49.6976C103.194 48.9498 102.746 47.9029 103.568 47.1551L103.643 47.2299C103.344 48.1272 103.568 48.875 103.494 49.6976ZM102.596 46.7065C102.372 47.4542 102.596 48.1273 102.447 48.8751C102.447 48.9498 102.447 48.9498 102.447 48.8751C102.073 47.9777 101.774 46.856 102.671 45.9587C102.821 46.2578 102.671 46.4821 102.596 46.7065ZM101.774 44.7622C101.549 45.5848 101.848 46.4821 101.325 47.2299C101.25 46.4073 101.101 45.5847 101.699 44.6874L101.774 44.7622ZM100.801 45.6595C100.652 45.2109 100.577 44.4631 101.026 44.164C101.026 44.6126 100.951 45.1361 100.801 45.6595ZM67.2259 41.3224C66.7772 41.3972 66.478 41.2476 66.0294 41.2476C65.805 41.1728 65.8051 40.7989 65.5059 40.7989C65.2068 41.8458 66.852 41.8458 67.2259 41.3224ZM54.7377 60.9144C55.1864 60.6901 54.5882 59.7927 54.2891 59.7927C54.5882 60.0919 54.7377 60.6153 54.7377 60.9144ZM55.336 60.4658C55.7846 60.3162 55.336 59.1945 54.8125 59.1945C55.1117 59.5684 55.2612 60.0171 55.336 60.4658ZM56.1586 59.9423C56.3082 59.7179 56.2333 59.3441 56.0837 58.9702C55.9342 58.5963 55.5604 58.3719 55.2613 58.4467C55.4108 58.5962 55.6351 58.8954 55.7847 59.1197C55.8595 59.4188 56.009 59.6431 56.1586 59.9423ZM56.7569 59.2692C56.9064 58.9701 56.7568 58.4467 56.5325 58.0728C56.3082 57.6989 55.8594 57.3998 55.5603 57.3998C55.7099 57.6989 55.9343 57.9981 56.1586 58.2972C56.3082 58.5963 56.5325 58.8953 56.7569 59.2692ZM55.8594 56.8016C56.0837 56.9511 56.3082 57.1755 56.5325 57.4746C56.7568 57.7737 56.9064 57.9981 57.1308 58.2224C57.1308 57.9233 56.9812 57.5494 56.7569 57.1755C56.5325 56.8764 56.1585 56.652 55.8594 56.652C55.9341 56.652 55.7846 56.7268 55.8594 56.8016ZM57.2054 56.9511C57.355 56.7268 57.2054 56.3529 56.9811 56.0538C56.7567 55.7547 56.4576 55.4555 56.2333 55.4555C56.1585 55.4555 56.1586 55.4555 56.1586 55.5303C56.3829 55.7546 56.5325 55.979 56.682 56.2033C56.8316 56.4277 56.9811 56.7268 57.2054 56.9511ZM56.5325 54.5582C56.7568 54.7078 56.9064 55.1565 57.1308 55.2313C57.2055 54.9321 56.8316 54.2591 56.5325 54.5582ZM48.5312 63.756C48.5312 63.3821 48.2319 63.0082 48.3815 62.5595C48.3067 62.5595 48.3068 62.4848 48.3068 62.4848C48.3068 62.5595 48.2321 62.4847 48.1573 62.5595C47.7834 63.0082 48.2321 63.5317 48.1573 63.9803C48.0825 64.5038 47.5589 64.8777 47.6337 65.4759C47.9328 64.8777 48.5312 64.5785 48.5312 63.756ZM45.6147 43.0423H45.54C45.6148 43.491 45.6896 43.8648 45.6896 44.2387C45.6896 44.4631 45.3156 44.6126 45.3903 44.9118C46.1381 45.1361 46.3625 43.1171 45.6147 43.0423ZM44.5679 43.3414C44.4931 43.8649 44.5679 44.5378 44.4184 44.9865C45.0914 44.9117 44.7175 44.164 44.7923 43.6405C44.7923 43.4909 44.9418 43.4162 44.7923 43.2666C44.7175 43.2666 44.6427 43.3414 44.5679 43.3414ZM68.2727 28.6847C68.5718 28.9839 69.0205 29.4325 69.2449 29.6569C69.8431 30.1803 70.4414 30.3299 70.9648 30.629C70.7405 31.0777 70.1421 30.5542 69.6934 30.5542C69.7682 30.5542 69.0954 32.3489 69.0954 32.4237C69.6936 32.9471 69.9927 33.5454 70.217 34.2184C70.3666 34.8166 70.2918 35.2653 70.7405 35.6392C71.1143 34.8166 71.862 31.7507 71.9368 30.7785C71.9368 30.3299 72.0116 29.956 71.9368 29.5073C71.9368 29.283 71.9368 28.4604 71.7873 28.3109C71.4134 27.937 71.0395 27.5631 70.6656 27.1892C70.4413 27.264 70.2169 27.3387 70.0673 27.4883C69.9926 27.7126 70.0675 28.0865 69.8431 28.0118C69.4692 27.5631 69.8431 26.89 70.217 26.6657C69.8431 26.0675 69.0205 26.5909 68.7961 27.1892C68.7214 27.3387 68.871 27.4883 68.7215 27.6379C68.4971 27.3388 68.5718 26.8153 68.7961 26.5162C68.9457 26.2919 69.3195 26.2918 69.3195 26.0675C68.3474 25.6188 67.6744 27.1892 67.824 28.0865C67.9735 28.2361 68.1232 28.5352 68.2727 28.6847ZM68.7961 33.0967C68.8709 33.1715 68.8709 33.0967 68.7961 33.0967C69.17 33.4706 69.4691 33.695 69.6934 34.368C69.7682 34.6671 69.9179 35.6392 70.217 35.7887C70.4414 35.9383 69.6935 36.1626 69.17 35.714C68.7961 35.4149 68.8709 34.9662 68.9457 34.5923C68.9457 34.1436 68.8709 33.6202 68.7961 33.0967ZM57.3549 30.1803C57.4297 30.7038 57.2055 31.1525 57.5046 31.6011C57.729 31.6759 57.7289 31.4516 57.9532 31.4516C57.9532 31.975 58.1775 32.5733 58.4766 32.9471C58.2523 33.5454 58.402 34.4427 58.6263 34.8166C57.3551 34.8914 57.5793 36.387 57.9532 37.2843C57.1306 36.9852 56.0838 37.2843 55.7847 37.8078C55.8595 37.9573 56.0837 37.8826 56.2333 37.9573C55.5603 38.7051 54.1396 38.3312 53.7657 37.6582C53.6909 37.5086 53.6161 37.2843 53.6909 37.1347C53.8404 36.387 54.8125 36.9852 55.336 36.6113C56.0837 36.0879 55.1117 34.9662 54.5135 34.9662C54.1396 34.9662 53.9899 35.4896 53.4665 35.3401C53.3917 35.4896 53.4666 35.714 53.3918 35.7887C52.2701 35.714 51.0736 34.2184 52.1953 33.4706C52.0457 33.0219 51.5971 33.5454 51.4475 33.5454C51.3727 32.7228 52.1205 32.7228 52.7187 32.4985C52.943 32.4237 53.1674 32.1994 53.4665 31.975C53.9152 31.6759 54.2144 31.6759 54.5135 31.3768C54.6631 30.3299 56.0837 29.7317 57.3549 30.1803ZM54.4386 31.6759C54.7378 31.8255 54.8873 32.1993 54.9621 32.648C55.1116 32.3489 55.2611 32.0498 55.4855 31.8255C55.7098 31.6759 56.1586 31.5264 56.1586 31.3768C55.7099 31.6759 55.1117 31.7507 54.4386 31.6759ZM53.8404 33.2463C53.8404 33.1715 53.8405 33.2463 53.7657 33.2463C53.1675 33.4706 52.4196 33.7697 52.5692 34.5923C52.7187 34.0688 53.3169 33.695 53.8404 33.2463ZM52.8682 34.9662C53.3169 34.4427 54.0647 34.0688 54.5882 33.8445C53.8404 33.6202 53.0178 34.1436 52.8682 34.9662ZM57.9532 28.61C58.701 28.0118 60.1967 28.2361 61.2436 27.937C59.9723 27.7126 58.4767 27.5631 57.9532 28.61ZM63.2626 30.2551C63.3374 30.8534 64.6085 30.7786 64.3094 31.7507C63.786 31.8255 63.4121 31.6011 63.0382 31.6759C62.44 32.3489 63.9355 32.7228 63.4121 33.4706C63.0382 33.5454 63.1129 33.2463 62.8138 33.2463C62.3652 33.4706 63.1129 34.2184 62.5895 34.4427C61.6921 34.0688 61.6174 32.6481 60.6453 32.4985C60.9444 32.8724 61.0192 33.321 61.3931 33.7697C61.8418 34.2931 62.44 34.5923 62.7392 35.1905C62.9635 35.6392 63.0382 36.387 63.786 36.3122C63.9355 35.5644 62.9634 34.6671 63.4121 33.8445C63.8608 34.1436 64.085 34.9662 64.8328 34.8914C64.6085 34.0688 64.0104 33.2463 63.6365 32.4237C64.0104 32.0498 64.459 32.4985 64.7582 32.7228C65.132 33.0219 65.3564 33.3958 65.8798 33.3958C66.0294 32.7228 65.2815 32.4985 65.0572 31.975C65.7302 31.9003 66.4781 32.1994 67.0015 32.0498C66.5528 31.2272 65.0573 31.5264 64.6086 30.7038C65.0573 30.7038 66.1041 30.7786 65.9545 30.1803C65.0572 30.4794 64.0851 30.2551 63.2626 30.2551ZM47.0356 40.9485C46.8861 41.2476 46.7365 41.5467 46.6617 41.9206C46.4374 42.9675 47.2599 44.3883 46.5869 45.2109C46.3625 45.51 45.6896 46.1082 45.3157 46.2578C44.7922 46.4821 44.2688 46.4821 43.8201 46.1082C43.9697 45.5847 44.0444 45.2108 43.9696 44.6126C43.8948 44.0144 43.7452 43.491 43.8948 43.0423C43.9695 42.7432 44.2687 42.3693 44.493 42.1449C44.9417 41.771 45.54 41.5467 46.0635 41.0981C46.1382 41.0233 46.2131 40.9485 46.2878 40.9485L46.3625 40.8737C46.7364 40.425 46.886 39.8268 47.3347 39.4529C49.3537 37.5834 53.6162 39.3781 52.2701 42.8927C51.8215 44.0144 51.0735 44.837 50.251 45.7343C49.3536 46.6316 48.3069 47.6037 48.1573 49.1741C48.0825 50.5201 48.6806 51.4175 49.5032 51.7166C49.9518 51.8662 50.5502 51.941 50.9241 51.6418C51.3728 51.3427 51.7466 50.7445 52.7187 49.8471C53.6908 48.9498 54.8873 48.4264 55.7098 47.8281C57.4298 46.4073 58.5515 45.1361 59.2993 42.9675C59.4488 42.5188 59.5983 42.0702 59.5983 41.5467C59.6731 40.8737 59.7479 39.9016 59.4488 39.4529C59.374 39.3781 59.2246 39.3033 59.0002 39.3781L58.8505 39.6025C58.6262 39.9016 58.3271 40.1259 57.9532 40.2755C57.5793 40.425 56.9064 40.4998 56.9064 39.9016C57.3551 39.752 57.9532 39.5277 58.1776 38.8547C58.4019 38.1069 58.1028 37.06 58.1776 36.3122C58.1776 35.9383 58.2524 35.4149 58.7759 35.3401C58.9254 36.0879 59.075 36.7608 59.3741 37.5086C59.4489 37.733 59.5984 37.9573 59.6732 38.1817C59.8227 38.406 60.0471 38.6303 60.2714 39.0042C60.421 39.3781 60.4209 39.6772 60.4209 39.9016C60.6453 40.7989 61.1688 41.2476 61.6175 41.2476C62.44 41.6215 62.2156 40.8737 62.066 39.9764C62.066 39.5277 62.2905 39.079 62.1409 38.3312C61.9913 38.1817 61.8417 38.0321 61.6921 37.9573C61.393 38.1069 61.8417 38.5556 61.8417 38.8547C61.7669 39.3781 61.6921 39.752 61.6921 40.2755C61.6921 40.4998 61.8417 40.6494 61.6921 40.7989C60.7948 40.6494 60.8696 39.752 60.7948 38.9294C60.7201 38.4808 60.2714 37.9573 60.0471 37.5086C59.8975 37.06 59.5236 36.6861 59.4488 36.3122C59.4488 36.1626 59.374 35.8635 59.5983 35.714C60.3461 35.9383 60.3462 36.9104 61.0192 37.2095C61.6174 36.9104 60.8697 36.2374 60.4958 35.8635C59.9723 35.3401 59.2246 34.8914 59.0002 34.2184C59.4489 33.9941 59.5983 34.4427 59.8227 34.6671C60.1966 35.0409 60.7948 34.7419 61.0939 35.1158C60.3461 33.3211 59.0001 33.8445 58.701 32.4237C58.6262 31.975 58.9253 31.3768 58.4766 31.1524C58.3271 31.0777 58.2524 31.1524 58.0281 31.1524C58.5515 30.1055 59.1497 29.2082 60.6453 29.1334C60.8697 29.8065 60.7201 30.9281 60.1219 31.1524C59.748 30.7038 60.421 30.1803 60.2714 29.5821C59.9723 29.8064 59.5985 29.956 59.3741 30.2551C59.3741 30.3299 59.7479 30.2551 59.8227 30.4795C59.9722 31.0777 59.3741 31.0777 59.3741 31.5263C60.421 31.3768 61.2436 31.8254 61.9914 32.2741C61.767 31.6759 61.1687 31.4516 60.5705 31.302C60.6452 31.2272 60.6453 31.0777 60.6453 30.9281C61.5427 30.7786 62.3652 31.1525 62.8887 31.0777C62.5896 30.5542 61.4679 30.4794 60.8697 30.5542C60.8697 30.4047 61.0191 30.0308 61.0939 29.8064C62.066 29.956 62.7391 29.5073 63.786 29.5821C63.2625 28.9091 62.066 29.3578 61.0939 29.4325C61.0939 29.1334 61.094 28.8343 61.0192 28.61C59.8975 28.7595 58.8506 28.9839 58.3271 29.7317C58.1028 30.0308 58.1027 30.4795 57.7288 30.4795C57.5793 30.0308 57.9533 29.7317 58.0281 29.3578C57.4298 29.283 57.5793 29.956 57.2054 29.8812C56.682 29.8065 56.9811 28.9091 57.0559 28.5352C56.7568 28.5352 56.5325 29.1334 56.682 29.5073C55.8594 29.4326 56.383 28.2361 56.7569 27.937C57.6542 27.1144 59.8226 27.4135 61.0939 27.5631C61.4678 28.0117 62.3652 27.7874 62.1409 26.9648C63.0382 26.9648 63.1877 28.2361 62.4399 28.4604C63.3373 28.5352 64.3842 28.9839 64.5338 28.0118C65.5059 27.7127 65.5059 29.0587 64.7582 29.2082C65.132 29.4325 65.5058 29.3577 65.9545 29.6569C66.2536 29.8812 66.9268 30.7786 67.5998 30.5542C67.7493 30.4794 67.7493 30.4047 67.8988 30.1803C68.3475 30.3299 68.7213 30.7038 68.5718 31.2272C68.497 31.6759 67.824 31.7507 67.5249 31.975C67.9736 32.5733 68.4971 33.3958 68.3476 34.4427C67.525 34.1436 67.3753 33.0219 66.3284 33.1715C66.4032 33.6201 66.6275 33.9193 66.7023 34.5175C66.7771 34.8166 66.8518 35.1905 66.7023 35.4896C66.2536 35.3401 65.8049 35.1905 65.5806 35.4148C65.6554 36.0131 65.8798 36.8356 65.6555 37.4339C65.2816 37.2843 65.2068 36.9852 64.6833 36.9852C64.6833 37.5087 65.3564 38.5556 64.7582 39.2286C64.0851 38.1069 63.9355 37.8077 63.0382 37.1347C62.6643 36.9104 62.2156 36.6861 62.066 36.3122C61.9913 36.6861 62.1409 37.06 62.3653 37.2843C63.0383 38.0321 64.3095 39.2286 64.7582 40.3503C65.3564 39.9764 65.5058 39.6024 65.5806 39.0042C65.5806 38.7051 65.5807 38.4808 65.6555 38.406C65.805 38.3312 66.478 39.079 66.7023 38.9294C66.7771 37.9573 66.478 36.9104 66.4032 36.0131C66.6276 35.9383 66.852 36.1626 67.0015 36.3122C67.2259 36.4617 67.3754 36.6113 67.5998 36.7608C67.6746 36.5365 67.5998 36.2374 67.5998 36.0131C67.3754 35.4148 67.3006 34.7419 67.3754 33.9941C67.6745 34.2184 68.2728 34.8166 68.4971 35.6392C68.6466 36.5365 69.3196 36.387 70.2917 36.4618C70.1421 37.6582 68.5719 37.4339 68.1232 37.5834C68.3475 37.8078 68.9458 37.9573 69.4692 37.8078C70.217 37.5834 71.2638 37.06 72.1612 36.1626C73.3576 34.9662 74.4045 33.321 74.928 32.4237C75.4514 32.5732 76.274 32.8724 76.6479 32.3489C76.0497 32.0498 75.6759 32.1993 75.2272 31.9002C75.0028 31.7507 74.7785 31.5263 74.4794 31.302C74.2551 31.0777 73.9559 30.9281 73.7316 30.7038C73.4325 30.4794 72.9091 29.8812 72.8343 29.5821C72.7595 29.283 73.2081 28.2361 73.2829 28.0118C73.4324 27.7874 73.8064 27.3387 74.1055 27.4135C74.1055 27.4135 74.3299 27.5631 74.3299 27.6379C74.3299 27.8622 73.8811 27.937 73.8063 28.1613C73.5819 28.5352 73.5073 28.9091 73.7316 29.283C73.7316 28.5352 74.6289 27.5631 75.2272 28.3109C74.9281 28.61 74.4046 29.2082 74.8533 29.7317C75.0776 29.4326 75.0776 28.8343 75.6011 28.8343C75.7506 28.8343 76.0498 29.283 76.1993 29.4325C76.7976 30.0308 77.6948 30.9281 77.5452 32.0498C77.4704 32.3489 77.2461 32.7976 77.1713 33.1715C76.1992 36.0878 74.0306 37.9573 72.5351 40.5746C72.1612 41.2476 70.6657 40.7989 69.8431 41.0232C69.0954 41.1728 68.4971 41.6215 67.7493 42.0702C67.0763 42.4441 66.4032 42.5936 65.6555 42.5188C65.2816 42.444 64.8328 41.9954 64.4589 41.5467C64.4589 42.1449 64.9824 43.0423 65.5806 43.117C66.4032 43.1918 67.1511 43.1171 67.9737 42.6684C68.871 42.2945 69.9178 41.6215 70.89 41.9954C69.6935 47.3047 67.5997 50.8193 62.6643 52.0157C61.8417 52.2401 61.0191 52.3149 60.3461 52.614C59.0749 53.1375 57.9533 54.0348 57.8785 55.6052C57.8038 56.6521 58.028 57.0259 57.9532 58.0728C57.8037 60.6153 56.1586 61.6622 54.2891 62.41C53.6909 62.6343 51.1483 62.9334 50.4753 63.2325C49.5032 63.6812 49.279 64.5785 49.279 65.2515C49.2042 65.8498 49.0546 66.8219 49.578 67.0462C50.0267 67.3454 50.9241 67.3454 51.5223 67.794C51.7467 67.9436 52.1205 68.3922 52.1953 68.6166C52.3448 68.9905 52.27 69.5888 51.7465 69.514C51.597 69.3644 51.8962 69.2896 51.8214 69.1401C51.6718 68.9158 51.5223 68.6914 51.298 68.5418C51.3728 68.8409 51.4475 69.2896 51.298 69.514C51.0736 69.6635 50.6249 69.6636 50.4753 69.4392C50.6997 68.841 50.0268 68.5419 49.6529 68.3175C49.8024 68.6167 50.1015 68.9905 49.9519 69.4392C49.5032 69.7383 48.905 69.8131 48.4563 69.5887C47.9329 69.3644 47.559 68.3923 47.1851 67.9436C47.0356 67.7193 46.7364 67.495 46.7364 67.2706C46.7364 66.9715 46.7365 66.5976 46.8112 66.2237C46.886 65.4011 47.3347 64.6534 47.4095 63.8308C47.4843 63.3074 47.3347 62.7839 47.3347 62.3352C47.4094 61.4379 48.2321 61.4379 48.9051 61.2883C49.6529 61.1388 50.2511 60.391 51.298 59.718C51.8214 59.1945 51.5971 58.2971 51.298 57.2502C50.9989 55.9042 50.6996 54.8573 50.6249 53.96L50.5502 53.8852C49.952 53.7356 49.2789 53.5861 48.6807 53.2869C47.9329 52.913 47.4095 52.3896 47.0356 51.7914C46.5869 50.894 46.3626 49.8472 46.6617 48.5012C47.1852 46.4074 48.9799 45.4352 50.0268 44.0144C50.4754 43.4162 51.2232 42.444 51.0736 41.3971C50.9988 40.6494 50.251 39.9016 49.2041 39.8268C48.4563 39.5277 47.5591 40.1259 47.0356 40.9485ZM55.1864 34.7419C55.4855 35.1158 56.0838 35.5644 55.9342 36.1626C56.5325 35.6392 55.7847 34.5923 55.1864 34.7419ZM59.2993 62.3352C60.0471 61.5875 60.2715 61.064 60.4958 60.5405C60.7201 59.9423 60.8697 59.4188 60.8697 58.7458C60.9445 57.9233 60.6452 57.6989 60.3461 57.0259C59.9722 55.979 59.5236 55.4555 59.4488 53.5861C58.3271 54.633 58.4767 55.9043 58.5515 55.979C58.6263 57.9233 58.701 58.8954 57.9532 60.3162C57.7289 60.6901 57.2802 61.1387 56.8315 61.5126C56.4576 61.8117 55.5603 62.0361 55.4855 62.41C55.2611 62.8587 55.6351 63.3073 55.7098 63.9056C55.8594 64.8029 55.6351 65.9246 55.7098 66.6724C55.7846 67.121 56.2333 67.3454 56.6072 67.7193C56.9063 68.0932 57.1306 68.4671 57.3549 68.6914C57.8036 69.0653 59.1497 69.2896 59.1497 68.4671C59.1497 68.0932 58.7758 68.0184 58.701 67.5698C59.2245 67.7941 59.5985 68.1679 59.748 68.841C59.9723 68.9157 60.1965 68.841 60.3461 68.7662C60.5704 68.4671 60.3461 67.9436 60.3461 67.7193C60.7948 67.7941 60.7948 68.3175 60.9444 68.6166C61.2435 68.6914 61.3931 68.1679 61.2436 67.794C61.1688 67.6445 61.0191 67.5697 60.9444 67.4201C60.6452 67.0462 60.1966 66.6724 59.6732 66.5228C59.4488 66.4481 59.0749 66.5229 58.8505 66.4481C58.6262 66.3733 58.2523 66.1489 58.1027 65.9246C57.7288 65.4011 57.7289 63.9056 58.0281 63.4569C58.1028 63.1578 58.8506 62.6344 59.2993 62.3352ZM60.3461 51.1932C60.6452 50.9688 60.72 50.6698 60.72 50.3706C60.6452 50.2959 60.6452 50.2958 60.5705 50.2958C60.5705 50.6697 60.2713 50.8941 60.3461 51.1932ZM61.4678 51.0436C61.6173 50.5949 61.9166 49.9967 61.6175 49.6228C61.3931 50.0715 61.393 50.5949 61.4678 51.0436ZM63.4121 50.5202C63.7112 49.9219 64.1598 49.2489 63.7111 48.6507C63.6364 49.1741 63.4121 49.9219 63.4121 50.5202ZM62.5148 50.8193C62.8139 50.2958 63.1129 49.548 62.8138 49.0246C62.3652 49.4733 62.3652 50.2958 62.5148 50.8193ZM64.6086 48.9498C64.6086 49.3985 64.5339 49.7724 64.6086 50.1463C64.9825 49.4733 65.2816 48.5759 64.7582 47.8281C64.459 48.0525 64.6086 48.5759 64.6086 48.9498ZM65.5806 49.6976C65.8797 48.9498 66.3285 47.9029 65.5059 47.1551L65.4311 47.2299C65.7302 48.1272 65.5058 48.875 65.5806 49.6976ZM66.4781 46.7065C66.7024 47.4542 66.4781 48.1273 66.6276 48.8751C66.6276 48.9498 66.6276 48.9498 66.6276 48.8751C67.0015 47.9777 67.3006 46.856 66.4032 45.9587C66.2537 46.2578 66.4033 46.4821 66.4781 46.7065ZM67.3006 44.7622C67.5249 45.5848 67.2259 46.4821 67.7493 47.2299C67.8241 46.4073 67.9736 45.5847 67.3754 44.6874L67.3006 44.7622ZM68.2727 45.6595C68.4223 45.2109 68.497 44.4631 68.0483 44.164C68.0483 44.6126 68.1232 45.1361 68.2727 45.6595Z" fill="#1A1F35"/>
</g>
</svg>
