<svg width="152" height="95" viewBox="0 0 152 95" fill="none" xmlns="http://www.w3.org/2000/svg">
<g clip-path="url(#clip0_2374_16068)">
<path d="M29.7199 67.3867C19.6266 67.3867 11.4146 58.8521 11.4146 48.3614C11.4146 37.8721 19.6266 29.3374 29.7199 29.3374H133.893C143.988 29.3374 152.199 37.8721 152.199 48.3614C152.199 58.8521 143.988 67.3867 133.893 67.3867H29.7199Z" fill="black"/>
<path d="M29.7199 32.3757C21.2573 32.3757 14.6279 39.3983 14.6279 48.361C14.6279 57.3263 21.2573 64.3477 29.7199 64.3477H133.893C142.356 64.3477 148.985 57.3263 148.985 48.361C148.985 39.3983 142.356 32.3757 133.893 32.3757H29.7199Z" fill="white"/>
<path d="M53.3613 47.8952H53.8106C54.852 47.8952 56.612 47.9498 56.612 46.4592C56.612 44.8245 54.8693 44.9858 53.7213 44.9858H53.3613V47.8952ZM53.3613 42.3645H53.756C54.6906 42.3645 55.66 42.2032 55.66 41.0538C55.66 39.8138 54.564 39.7432 53.6133 39.7432H53.3613V42.3645ZM49.8413 50.5898V37.0485H54.8693C57.276 37.0485 58.892 37.9832 58.892 40.5685C58.892 41.7898 58.4973 42.7778 57.4026 43.3338V43.3698C59.3413 43.6218 60.1666 44.9325 60.1666 46.8178C60.1666 49.6552 57.7426 50.5898 55.2653 50.5898H49.8413Z" fill="black"/>
<path d="M64.8345 50.627H61.5665V41.415H64.8345V50.627ZM65.0331 38.4056C65.0331 39.4109 64.2065 40.2363 63.2012 40.2363C62.1958 40.2363 61.3691 39.4109 61.3691 38.4056C61.3691 37.4003 62.1958 36.5736 63.2012 36.5736C64.2065 36.5736 65.0331 37.4003 65.0331 38.4056Z" fill="black"/>
<path d="M73.0594 44.6452C72.8981 43.7652 72.0901 43.1905 71.2101 43.1905C70.2581 43.1905 69.4687 43.6945 69.2701 44.6452H73.0594ZM76.0941 46.5305H69.2167C69.2167 47.8599 69.9167 48.5785 71.2634 48.5785C71.9634 48.5785 72.4674 48.3452 72.8261 47.7345H75.9687C75.7167 48.8119 75.0701 49.6012 74.2261 50.1225C73.3834 50.6439 72.3407 50.8945 71.2807 50.8945C68.2287 50.8945 65.9487 49.1705 65.9487 45.9919C65.9487 42.9212 68.0487 41.0719 71.0487 41.0719C74.2447 41.0719 76.0941 43.0479 76.0941 46.1905V46.5305Z" fill="black"/>
<path d="M80.0622 45.9919C80.0622 47.1585 80.8342 48.0559 82.1635 48.0559C83.4915 48.0559 84.2635 47.1585 84.2635 45.9919C84.2635 44.8599 83.4915 43.9092 82.1635 43.9092C80.8342 43.9092 80.0622 44.8599 80.0622 45.9919ZM84.1568 49.5652H84.1195C83.5448 50.4812 82.4142 50.8945 81.3368 50.8945C78.6075 50.8945 76.6862 48.6132 76.6862 45.9732C76.6862 43.3345 78.5715 41.0719 81.3008 41.0719C82.3608 41.0719 83.4742 41.4665 84.1568 42.2745V37.0572H87.4248V50.5892H84.1568V49.5652Z" fill="black"/>
<path d="M92.3798 42.8858H92.4158C93.0438 41.7538 94.1225 41.2512 95.3958 41.2512H96.0251V44.3938C95.5758 44.1432 95.1451 44.0885 94.6425 44.0885C92.8291 44.0885 92.3798 45.2925 92.3798 46.8725V50.5898H89.1118V41.3765H92.3798V42.8858Z" fill="black"/>
<path d="M99.652 45.9919C99.652 47.1585 100.424 48.0559 101.753 48.0559C103.081 48.0559 103.853 47.1585 103.853 45.9919C103.853 44.8599 103.081 43.9092 101.753 43.9092C100.424 43.9092 99.652 44.8599 99.652 45.9919ZM107.301 45.9919C107.301 49.1159 104.716 50.8945 101.753 50.8945C98.808 50.8945 96.204 49.1345 96.204 45.9919C96.204 42.8492 98.7906 41.0719 101.753 41.0719C104.716 41.0719 107.301 42.8492 107.301 45.9919Z" fill="black"/>
<path d="M111.682 42.5622H111.718C112.473 41.4489 113.389 41.0715 114.664 41.0715C117.141 41.0715 118.129 42.6342 118.129 44.8969V50.5889H114.861V46.0995C114.861 45.2195 115.005 43.6755 113.389 43.6755C112.06 43.6755 111.682 44.6635 111.682 45.8129V50.5889H108.416V41.3769H111.682V42.5622Z" fill="black"/>
<path d="M123.193 44.6992L126.587 41.3765H131.058L126.443 45.6325L131.345 50.5898H126.766L123.193 46.8365V50.5898H119.925V37.1165H123.193V44.6992Z" fill="black"/>
<path d="M134.631 45.9919C134.631 47.1585 135.403 48.0559 136.732 48.0559C138.06 48.0559 138.832 47.1585 138.832 45.9919C138.832 44.8599 138.06 43.9092 136.732 43.9092C135.403 43.9092 134.631 44.8599 134.631 45.9919ZM141.994 50.5892H138.724V49.5652H138.69C138.114 50.4812 136.983 50.8945 135.906 50.8945C133.176 50.8945 131.255 48.6132 131.255 45.9732C131.255 43.3345 133.14 41.0719 135.87 41.0719C136.93 41.0719 138.043 41.4665 138.724 42.2745V41.3772H141.994V50.5892Z" fill="black"/>
<path d="M54.3758 54.2848C54.0078 53.8755 53.4491 53.6302 52.8824 53.6302C51.6131 53.6302 50.8851 54.6942 50.8851 55.7568C50.8851 56.7955 51.6411 57.8355 52.8731 57.8355C53.4398 57.8355 54.0078 57.5648 54.3758 57.1808V58.6115C53.8811 58.8248 53.3864 58.9795 52.8371 58.9795C50.9291 58.9795 49.5171 57.4835 49.5171 55.7808C49.5171 54.0315 50.8758 52.4848 52.8638 52.4848C53.3958 52.4848 53.9158 52.6168 54.3758 52.8462V54.2848Z" fill="black"/>
<path d="M56.3159 56.8126C56.3159 57.3526 56.7119 57.9339 57.3599 57.9339C58.0079 57.9339 58.4039 57.3526 58.4039 56.8126C58.4039 56.2566 58.0079 55.6846 57.3599 55.6846C56.7119 55.6846 56.3159 56.2566 56.3159 56.8126ZM59.6812 56.8126C59.6812 58.0553 58.7452 58.9473 57.3599 58.9473C55.9746 58.9473 55.0386 58.0553 55.0386 56.8126C55.0386 55.5619 55.9826 54.6699 57.3599 54.6699C58.7359 54.6699 59.6812 55.5619 59.6812 56.8126Z" fill="black"/>
<path d="M63.5936 56.8046C63.5936 56.2646 63.1976 55.6846 62.5496 55.6846C61.9016 55.6846 61.5056 56.2646 61.5056 56.8046C61.5056 57.3446 61.9016 57.9339 62.5496 57.9339C63.1976 57.9339 63.5936 57.3446 63.5936 56.8046ZM63.4669 58.4406H63.4496C63.1883 58.7673 62.7203 58.9473 62.2616 58.9473C60.9656 58.9473 60.2283 57.8766 60.2283 56.7873C60.2283 55.7246 60.9749 54.6699 62.2443 54.6699C62.7029 54.6699 63.1709 54.8499 63.4496 55.1686H63.4669V52.5833H64.7269V58.8166H63.4669V58.4406Z" fill="black"/>
<path d="M69.5465 57.8511V58.8164H65.3531L67.6118 55.7657H65.7051V54.8004H69.6905L67.4505 57.8511H69.5465Z" fill="black"/>
<path d="M75.462 56.281C75.398 55.8716 75.1114 55.4703 74.6247 55.4703C74.1207 55.4703 73.842 55.8636 73.7794 56.281H75.462ZM73.7434 56.9916C73.7434 57.4996 73.9594 58.0716 74.6154 58.0716C75.03 58.0716 75.2914 57.8436 75.462 57.525L76.6234 57.6956C76.3167 58.4983 75.542 58.9463 74.6154 58.9463C73.2487 58.9463 72.4114 58.0636 72.4114 56.845C72.4114 55.6263 73.122 54.669 74.5527 54.669C76.002 54.669 76.65 55.6423 76.65 56.8543V56.9916H73.7434Z" fill="black"/>
<path d="M78.7225 55.1684H78.7399C79.0012 54.8084 79.4425 54.6697 79.8919 54.6697C81.0799 54.6697 81.4225 55.4297 81.4225 56.3631V58.8164H80.1625V56.6897C80.1625 56.2071 80.1892 55.5857 79.4785 55.5857C78.7319 55.5857 78.7225 56.3457 78.7225 56.8284V58.8164H77.4625V54.8004H78.7225V55.1684Z" fill="black"/>
<path d="M83.7417 55.1684H83.7604C84.0204 54.8084 84.4617 54.6697 84.911 54.6697C86.099 54.6697 86.4417 55.4297 86.4417 56.3631V58.8164H85.1804V56.6897C85.1804 56.2071 85.2084 55.5857 84.4977 55.5857C83.751 55.5857 83.7417 56.3457 83.7417 56.8284V58.8164H82.4817V54.8004H83.7417V55.1684Z" fill="black"/>
<path d="M92.6342 56.281C92.5715 55.8716 92.2835 55.4703 91.7968 55.4703C91.2942 55.4703 91.0155 55.8636 90.9515 56.281H92.6342ZM90.9155 56.9916C90.9155 57.4996 91.1315 58.0716 91.7888 58.0716C92.2022 58.0716 92.4635 57.8436 92.6342 57.525L93.7955 57.6956C93.4888 58.4983 92.7155 58.9463 91.7888 58.9463C90.4208 58.9463 89.5848 58.0636 89.5848 56.845C89.5848 55.6263 90.2942 54.669 91.7262 54.669C93.1742 54.669 93.8208 55.6423 93.8208 56.8543V56.9916H90.9155Z" fill="black"/>
<path d="M98.9872 55.1684H99.0045C99.2658 54.8084 99.7072 54.6697 100.157 54.6697C101.345 54.6697 101.686 55.4297 101.686 56.3631V58.8164H100.426V56.6897C100.426 56.2071 100.454 55.5857 99.7432 55.5857C98.9965 55.5857 98.9872 56.3457 98.9872 56.8284V58.8164H97.7272V54.8004H98.9872V55.1684Z" fill="black"/>
<path d="M107.325 55.749C107.145 55.593 106.91 55.4703 106.658 55.4703C106.452 55.4703 106.245 55.6183 106.245 55.8143C106.245 56.109 106.704 56.1903 107.153 56.3703C107.612 56.5503 108.062 56.829 108.062 57.5236C108.062 58.4156 107.27 58.9463 106.344 58.9463C105.75 58.9463 105.174 58.701 104.788 58.277L105.364 57.5983C105.606 57.8423 105.93 58.0636 106.298 58.0636C106.578 58.0636 106.802 57.8916 106.802 57.6303C106.802 57.2796 106.362 57.197 105.921 57.025C105.48 56.853 105.04 56.6156 105.04 55.969C105.04 55.217 105.614 54.669 106.444 54.669C106.91 54.669 107.504 54.7996 107.865 55.0863L107.325 55.749Z" fill="black"/>
<path d="M110.144 56.2734H110.163L111.486 54.8H113.123L111.26 56.568L113.267 58.8174H111.611L110.163 57.108H110.144V58.8174H108.884V52.564H110.144V56.2734Z" fill="black"/>
<path d="M118.992 56.281C118.928 55.8716 118.642 55.4703 118.155 55.4703C117.651 55.4703 117.372 55.8636 117.31 56.281H118.992ZM117.274 56.9916C117.274 57.4996 117.49 58.0716 118.146 58.0716C118.56 58.0716 118.822 57.8436 118.992 57.525L120.152 57.6956C119.847 58.4983 119.072 58.9463 118.146 58.9463C116.779 58.9463 115.942 58.0636 115.942 56.845C115.942 55.6263 116.652 54.669 118.083 54.669C119.532 54.669 120.18 55.6423 120.18 56.8543V56.9916H117.274Z" fill="black"/>
<path d="M127.09 56.0273C126.821 55.7806 126.55 55.6353 126.163 55.6353C125.453 55.6353 125.049 56.2406 125.049 56.8286C125.049 57.4593 125.489 57.9819 126.209 57.9819C126.55 57.9819 126.865 57.8273 127.09 57.5979V58.7019C126.749 58.8739 126.389 58.9473 126.002 58.9473C124.697 58.9473 123.77 57.9739 123.77 56.8206C123.77 55.6259 124.733 54.6699 126.065 54.6699C126.415 54.6699 126.785 54.7513 127.09 54.9233V56.0273Z" fill="black"/>
<path d="M130.79 56.281C130.727 55.8716 130.439 55.4703 129.954 55.4703C129.45 55.4703 129.171 55.8636 129.107 56.281H130.79ZM129.071 56.9916C129.071 57.4996 129.287 58.0716 129.945 58.0716C130.358 58.0716 130.619 57.8436 130.79 57.525L131.951 57.6956C131.645 58.4983 130.871 58.9463 129.945 58.9463C128.577 58.9463 127.741 58.0636 127.741 56.845C127.741 55.6263 128.45 54.669 129.882 54.669C131.33 54.669 131.978 55.6423 131.978 56.8543V56.9916H129.071Z" fill="black"/>
<path d="M134.051 55.1684H134.068C134.33 54.8084 134.771 54.6697 135.22 54.6697C136.408 54.6697 136.75 55.4297 136.75 56.3631V58.8164H135.491V56.6897C135.491 56.2071 135.518 55.5857 134.807 55.5857C134.059 55.5857 134.051 56.3457 134.051 56.8284V58.8164H132.791V54.8004H134.051V55.1684Z" fill="black"/>
<path d="M137.078 54.7997H138.509L139.647 56.9077L140.695 54.7997H142.098L139.154 60.3184H137.843L138.955 58.1877L137.078 54.7997Z" fill="black"/>
<path d="M71.6052 58.8174H70.3452V54.8001H71.6052V58.8174Z" fill="black"/>
<path d="M71.7415 53.1837C71.7415 53.6037 71.4015 53.9424 70.9828 53.9424C70.5641 53.9424 70.2241 53.6037 70.2241 53.1837C70.2241 52.765 70.5641 52.425 70.9828 52.425C71.4015 52.425 71.7415 52.765 71.7415 53.1837Z" fill="black"/>
<path d="M88.7772 58.8174H87.5186V54.8001H88.7772V58.8174Z" fill="black"/>
<path d="M88.9099 53.1837C88.9099 53.6037 88.5699 53.9424 88.1512 53.9424C87.7326 53.9424 87.3926 53.6037 87.3926 53.1837C87.3926 52.765 87.7326 52.425 88.1512 52.425C88.5699 52.425 88.9099 52.765 88.9099 53.1837Z" fill="black"/>
<path d="M104.023 58.8174H102.763V54.8001H104.023V58.8174Z" fill="black"/>
<path d="M104.167 53.1837C104.167 53.6037 103.827 53.9424 103.409 53.9424C102.99 53.9424 102.65 53.6037 102.65 53.1837C102.65 52.765 102.99 52.425 103.409 52.425C103.827 52.425 104.167 52.765 104.167 53.1837Z" fill="black"/>
<path d="M115.136 58.8174H113.876V54.8001H115.136V58.8174Z" fill="black"/>
<path d="M115.275 53.1837C115.275 53.6037 114.935 53.9424 114.516 53.9424C114.098 53.9424 113.758 53.6037 113.758 53.1837C113.758 52.765 114.098 52.425 114.516 52.425C114.935 52.425 115.275 52.765 115.275 53.1837Z" fill="black"/>
<path d="M39.8053 35.0439C37.0747 31.4266 33.2293 28.6933 28.94 27.3039L28.9947 27.2626L27.5267 26.8946C25.768 26.4533 23.9533 26.2293 22.1293 26.2293C9.92667 26.2293 0 36.1573 0 48.3599C0 54.3773 2.37467 60.0066 6.68667 64.2079L7.628 65.1266L7.916 63.8426C8.10533 62.9919 8.39067 61.7773 8.76533 60.3266C9.416 60.9306 10.1093 61.4879 10.8413 61.9959C10.8227 64.2946 10.996 66.1093 11.1493 67.2399L11.1987 67.6079L11.524 67.7866C14.7587 69.5546 18.4253 70.4893 22.1293 70.4893C34.332 70.4893 44.2587 60.5613 44.2587 48.3599C44.2587 43.5093 42.7187 38.9039 39.8053 35.0439Z" fill="black"/>
<path d="M6.43581 61.7384C4.84515 59.8811 3.61315 57.7864 2.77581 55.5131C1.93448 53.2344 1.50781 50.8278 1.50781 48.3598C1.50781 42.8518 3.65315 37.6731 7.54781 33.7771C11.4425 29.8824 16.6225 27.7384 22.1291 27.7384C23.1078 27.7384 24.0945 27.8078 25.0611 27.9451L25.6118 28.0238L25.1958 28.3931C21.1438 31.9918 13.7038 39.9478 9.41181 52.7984C8.24648 56.2851 7.39448 59.5264 6.88248 61.6318L6.76381 62.1211L6.43581 61.7384Z" fill="white"/>
<path d="M22.1296 68.9814C18.8629 68.9814 15.6082 68.1961 12.7176 66.7121L12.5949 66.6481L12.5776 66.5108C12.2443 63.5654 11.8309 55.7854 15.1963 47.1721C19.0496 37.3081 25.6909 31.0561 28.3669 28.8254L28.4776 28.7348L28.6136 28.7788C32.5496 30.0841 36.0962 32.6308 38.6016 35.9521C41.3162 39.5494 42.7509 43.8388 42.7509 48.3588C42.7509 53.8668 40.6069 59.0468 36.7109 62.9414C32.8176 66.8361 27.6376 68.9814 22.1296 68.9814Z" fill="white"/>
<path d="M3.43051 52.2655C3.43051 40.9975 11.5225 31.6215 22.2132 29.6295L21.6065 28.6509C21.6065 28.6509 10.5758 29.4882 5.25717 38.4015C2.45451 43.1002 2.66784 48.4215 3.43051 52.2695V52.2655Z" fill="white"/>
<path d="M28.1907 47.6952C28.1907 50.3352 26.0507 52.4766 23.4107 52.4766C20.7694 52.4766 18.6294 50.3352 18.6294 47.6952C18.6294 45.0539 20.7694 42.9139 23.4107 42.9139C26.0507 42.9139 28.1907 45.0539 28.1907 47.6952Z" fill="black"/>
<path d="M29.9616 61.6873C29.9616 63.6927 27.8216 65.3193 25.1816 65.3193C22.5403 65.3193 20.4003 63.6927 20.4003 61.6873C20.4003 59.6833 22.5403 58.0567 25.1816 58.0567C27.8216 58.0567 29.9616 59.6833 29.9616 61.6873Z" fill="black"/>
<path d="M40.6612 50.5886C41.7199 51.0953 41.7185 53.302 40.6572 55.5153C39.5972 57.7286 37.8785 59.114 36.8199 58.606C35.7599 58.098 35.7625 55.8913 36.8239 53.6793C37.8839 51.4646 39.6025 50.0806 40.6612 50.5886Z" fill="black"/>
<path d="M12.4614 41.7955C10.8148 43.7235 8.27878 44.2595 6.79744 42.9942C5.31611 41.7302 5.45078 39.1422 7.09878 37.2142C8.74411 35.2862 11.2814 34.7488 12.7614 36.0142C14.2428 37.2782 14.1081 39.8675 12.4614 41.7955Z" fill="black"/>
<path d="M14.2917 32.5962C12.565 33.3282 10.917 33.3362 10.6104 32.6135C10.305 31.8908 11.4557 30.7122 13.181 29.9815C14.9077 29.2495 16.557 29.2415 16.8624 29.9642C17.169 30.6868 16.0184 31.8642 14.2917 32.5962Z" fill="black"/>
<path d="M4.58014 49.8165C4.70014 52.0658 4.17214 53.9231 3.40147 53.9631C2.63214 54.0058 1.91081 52.2151 1.79081 49.9645C1.67081 47.7151 2.19881 45.8591 2.96814 45.8191C3.74014 45.7765 4.46014 47.5658 4.58014 49.8165Z" fill="black"/>
<path d="M38.5544 40.3217C38.9691 42.1017 38.2517 43.7911 36.9504 44.0964C35.6491 44.4004 34.2571 43.2031 33.8424 41.4217C33.4264 39.6417 34.1437 37.9511 35.4451 37.6484C36.7464 37.3431 38.1397 38.5404 38.5544 40.3217Z" fill="black"/>
<path d="M34.2806 8.14997C33.3446 8.14997 32.4299 8.2433 31.5446 8.41397C31.6659 7.60997 31.9952 6.5593 32.7939 5.3753C33.7219 4.00197 35.3632 3.5233 35.9366 3.39397C35.9539 3.48064 35.9792 3.56597 36.0179 3.64997C36.2886 4.2313 36.9792 4.4833 37.5592 4.21264C38.1419 3.94197 38.3939 3.2513 38.1219 2.66997C37.8526 2.08997 37.1619 1.83797 36.5792 2.10864C36.2832 2.24597 36.0752 2.49264 35.9752 2.77797C35.5006 2.8153 33.3659 3.10997 31.4846 5.45264C30.6019 6.5513 30.2312 7.8033 30.0819 8.77664C27.9499 9.42864 26.0326 10.5686 24.4472 12.058C24.0072 11.422 23.3979 10.6406 22.6019 9.82864C21.2246 8.4273 19.7459 7.8713 19.0392 7.67264C19.0406 7.61264 19.0406 7.5513 19.0299 7.48997C18.9339 6.8553 18.3432 6.4193 17.7086 6.5153C17.0752 6.6113 16.6406 7.2033 16.7352 7.83664C16.8299 8.46997 17.4219 8.9073 18.0566 8.80997C18.3552 8.76464 18.6086 8.60597 18.7846 8.3873C19.3032 8.61264 20.3846 9.21664 21.6779 10.694C22.4592 11.5873 23.0126 12.454 23.3912 13.1553C21.2179 15.6753 19.8979 18.9526 19.8979 22.534C19.8979 30.466 26.3486 36.918 34.2806 36.918C42.2126 36.918 48.6659 30.466 48.6659 22.534C48.6659 14.6033 42.2126 8.14997 34.2806 8.14997Z" fill="black"/>
<path d="M47.0779 22.5478C47.0779 29.6291 41.3379 35.3691 34.2565 35.3691C27.1752 35.3691 21.4365 29.6291 21.4365 22.5478C21.4365 15.4678 27.1752 9.72781 34.2565 9.72781C41.3379 9.72781 47.0779 15.4678 47.0779 22.5478Z" fill="white"/>
<path d="M42.9872 25.7401C43.1725 26.4601 42.5859 27.2334 41.6779 27.4681C40.7685 27.7014 39.8819 27.3067 39.6965 26.5854C39.5112 25.8667 40.0979 25.0921 41.0059 24.8601C41.9152 24.6254 42.8019 25.0201 42.9872 25.7401Z" fill="black"/>
<path d="M42.7135 25.7253C42.8415 26.2253 42.3602 26.78 41.6362 26.9667C40.9135 27.152 40.2228 26.8987 40.0948 26.3987C39.9668 25.9 40.4482 25.344 41.1722 25.1587C41.8948 24.972 42.5842 25.2253 42.7135 25.7253Z" fill="white"/>
<path d="M26.5277 27.4827C26.7863 27.168 27.009 27.0373 27.009 27.0373C27.009 27.0373 28.1557 32.648 33.3117 33.532C40.9503 34.84 42.5423 28.3467 42.5423 28.3467L43.4263 27.612C43.4263 27.612 38.8103 29.316 34.809 29.2013C30.8063 29.0867 27.757 26.4947 27.757 26.4947C27.757 26.4947 27.9103 26.3733 28.257 26.24C28.6023 26.1067 29.153 26.0387 29.153 26.0387C29.153 26.0387 27.6997 25.896 26.845 26.4373C25.9903 26.9787 26.0477 28.204 26.0477 28.204C26.0477 28.204 26.2677 27.7973 26.5277 27.4827Z" fill="black"/>
<path d="M29.1704 29.8494C29.1704 29.8494 31.4917 29.7467 32.1757 30.672C32.8611 31.5974 33.0357 31.948 33.0357 31.948C33.0357 31.948 32.7224 31.116 32.7504 31.116C32.7771 31.116 33.9797 31.108 34.4797 31.6894C34.9784 32.2734 35.1544 33.0587 35.1544 33.0587C35.1544 33.0587 32.9264 33.244 31.3717 32.2907C29.6557 31.2387 29.1704 29.8494 29.1704 29.8494Z" fill="white"/>
<path d="M34.0652 20.7304C33.4052 18.8038 32.2012 17.4704 31.3758 17.7518C31.2185 17.8064 31.0878 17.9144 30.9812 18.0664C31.3012 18.5838 31.7825 19.3464 31.7825 19.3464L30.6625 19.2531C30.6278 19.9598 30.7598 20.8398 31.0732 21.7544C31.7332 23.6798 32.9372 25.0144 33.7625 24.7318C34.5892 24.4491 34.7238 22.6571 34.0652 20.7304Z" fill="black"/>
<path d="M42.6341 18.2388C41.8754 16.5428 40.7887 15.3775 40.2087 15.6375C40.1141 15.6801 40.0407 15.7615 39.9834 15.8695C40.2954 16.3761 40.8687 17.2855 40.8687 17.2855L39.9141 17.2055C40.0101 17.7868 40.2181 18.4721 40.5341 19.1788C41.2954 20.8748 42.3807 22.0401 42.9621 21.7788C43.5421 21.5201 43.3941 19.9348 42.6341 18.2388Z" fill="black"/>
</g>
<defs>
<clipPath id="clip0_2374_16068">
<rect width="152" height="95" fill="white"/>
</clipPath>
</defs>
</svg>
