<svg width="144" height="95" viewBox="0 0 144 95" fill="none" xmlns="http://www.w3.org/2000/svg">
<g clip-path="url(#clip0_2374_16076)">
<path d="M0 37.8809C0.240517 36.7729 0.446222 35.6586 0.724715 34.5601C1.77539 30.4362 3.8546 26.8519 6.51294 23.5787C8.40543 21.2485 10.5764 19.2008 12.9056 17.315C13.0101 17.2325 13.1272 17.169 13.3487 17.2007C12.9468 17.6801 12.5417 18.1595 12.1398 18.6389C8.9909 22.3946 6.72814 26.6011 5.7281 31.4362C5.22491 33.8776 5.08883 36.3348 5.32302 38.8301C5.97178 45.7828 9.07635 51.5862 13.5386 56.7642C18.254 62.2374 23.9884 66.4027 30.3115 69.7837C37.5586 73.6601 45.233 76.384 53.2618 78.0825C56.3854 78.746 59.5438 79.2476 62.6895 79.8127C62.9426 79.8572 63.2053 79.8445 63.4553 80C62.392 79.9429 61.3223 79.927 60.2653 79.8159C58.2874 79.6127 56.3094 79.3968 54.341 79.1048C51.651 78.7079 48.9547 78.3206 46.29 77.7777C40.7739 76.6475 35.3718 75.0982 30.1279 73.0156C23.865 70.5298 17.9375 67.4313 12.6619 63.193C7.71236 59.2183 3.59193 54.5673 1.41462 48.475C0.810162 46.7797 0.553822 44.9574 0.136082 43.1954C0.117094 43.1097 0.0474704 43.0367 0.0031647 42.9573C0.0031647 41.2652 0.0031647 39.5699 0.0031647 37.8777L0 37.8809Z" fill="white"/>
<path d="M18.2508 55.6468C18.485 54.1071 18.7255 52.6499 18.9122 51.1831C18.9502 50.8784 18.8299 50.526 18.7033 50.2275C17.3583 47.0496 16.6273 43.732 16.6526 40.2875C16.6969 34.8492 18.4185 29.9252 21.4408 25.4456C25.1815 19.9089 30.1722 15.7468 35.8781 12.3975C42.2835 8.63859 49.1889 6.17818 56.4297 4.69558C59.5153 4.06381 62.6578 3.68284 65.794 3.35584C68.4682 3.07647 71.1708 2.88281 73.8545 2.93678C77.1616 3.00662 80.4719 3.27965 83.76 3.63522C91.2698 4.44477 98.4568 6.47025 105.293 9.718C110.59 12.2356 115.401 15.4579 119.451 19.7438C120.328 20.6708 121.198 21.6264 121.904 22.6804C122.385 23.4011 122.933 23.4138 123.616 23.3312C124.202 23.2614 124.79 23.2042 125.436 23.1344C125.281 24.5027 125.116 25.779 124.999 27.0615C124.971 27.3663 125.028 27.7187 125.154 27.9949C126.401 30.6934 127.221 33.5221 127.468 36.4778C127.889 41.532 126.85 46.3036 124.467 50.7799C122.243 54.9611 119.224 58.4818 115.616 61.5169C108.087 67.8505 99.3461 71.6697 89.8584 73.8634C86.7032 74.5936 83.4942 75.1492 80.282 75.5746C77.8104 75.9016 75.3008 75.9873 72.8038 76.0317C70.041 76.0794 67.2656 76.1016 64.5155 75.8825C54.3062 75.0698 44.5431 72.6284 35.5332 67.5711C31.5457 65.3329 27.8936 62.6503 24.7701 59.2946C23.7225 58.1707 22.789 56.9357 21.8364 55.7262C21.6022 55.4309 21.4376 55.3103 21.0231 55.3801C20.1306 55.5262 19.2192 55.5547 18.2476 55.6373L18.2508 55.6468Z" fill="white"/>
<path d="M70.1424 28.3757C70.2215 28.3662 70.2975 28.3567 70.3766 28.3472C71.4273 34.9728 72.4748 41.5985 73.535 48.2813C75.1205 48.1035 76.5952 47.9099 78.0795 47.7892C78.5415 47.7511 78.7187 47.5765 78.8738 47.1638C81.0859 41.2874 83.317 35.4141 85.545 29.544C85.9153 28.5694 86.3045 27.5979 86.6874 26.6265C86.7444 26.6423 86.8014 26.655 86.8552 26.6709C85.8868 33.4839 84.9184 40.2937 83.9436 47.1447C84.0924 47.1543 84.2095 47.1797 84.3202 47.167C85.9406 46.9828 87.5577 46.7543 89.1812 46.6209C89.7477 46.5765 89.83 46.3288 89.8743 45.8653C90.0104 44.478 90.1781 43.0906 90.349 41.7064C90.6655 39.1508 90.9978 36.6015 91.3111 34.0458C91.5769 31.8743 91.8079 29.6964 92.0738 27.5249C92.3871 24.9534 92.7194 22.385 93.0516 19.7722C92.8934 19.7564 92.7763 19.7246 92.6624 19.7373C89.8996 20.023 87.1337 20.3024 84.374 20.6199C83.9247 20.6707 83.4341 20.6389 83.2063 21.3088C81.6936 25.7661 80.127 30.2076 78.57 34.6522C78.1744 35.7824 77.7598 36.9094 77.3547 38.0364C77.2788 38.0301 77.1997 38.0206 77.1237 38.0142C76.3958 32.5569 75.668 27.0963 74.9401 21.6263C71.7754 21.9628 68.6866 22.2898 65.5726 22.62C64.4776 31.5949 63.3953 40.4873 62.3003 49.4432C64.3542 49.2305 66.234 49.0401 68.1265 48.8432C68.8037 41.9731 69.4715 35.1728 70.1424 28.3694V28.3757Z" fill="#1A1F35"/>
<path d="M19.9091 53.8148C20.349 53.8148 20.6623 53.8434 20.9693 53.8085C22.5421 53.637 24.115 53.4466 25.6879 53.2719C28.3335 52.9767 30.9919 52.764 33.6249 52.3767C36.3371 51.9767 38.3466 50.5988 39.1505 47.8051C39.7423 45.7605 40.1062 43.697 39.948 41.5508C39.8309 39.9635 39.1283 39.1317 37.5681 38.8745C37.3213 38.8333 37.0744 38.7666 36.6915 38.6809C36.9383 38.5666 37.0554 38.4968 37.1789 38.4555C38.5872 37.9729 39.6758 37.1475 40.1885 35.6808C40.9449 33.5156 41.255 31.2806 41.0746 29.0011C40.9765 27.7693 40.4607 26.6836 39.1726 26.2804C38.3403 26.0201 37.4447 25.7629 36.5902 25.8042C34.3401 25.9121 32.0995 26.1788 29.8558 26.3883C27.7797 26.582 25.7037 26.7788 23.6308 27.0074C23.4567 27.0265 23.1941 27.2773 23.1688 27.4487C22.8998 29.325 22.6656 31.2076 22.4314 33.087C22.213 34.8522 22.0105 36.6173 21.7953 38.3825C21.5769 40.1921 21.3491 42.0048 21.1275 43.8144C20.9092 45.5764 20.6908 47.3384 20.4756 49.1035C20.2857 50.6496 20.1053 52.1989 19.9123 53.8116L19.9091 53.8148Z" fill="#1A1F35"/>
<path d="M118.964 28.265C118.891 28.265 118.818 28.2714 118.746 28.2745C118.689 28.0745 118.625 27.8777 118.575 27.6745C118.265 26.4459 117.673 25.4681 116.277 25.3633C115.521 25.3062 114.749 25.3157 113.995 25.4109C111.843 25.6808 110.131 26.6268 109.251 28.7444C107.625 32.662 107.217 36.7765 107.391 40.9639C107.451 42.4592 108.438 43.5545 109.888 43.964C110.413 44.1133 110.967 44.2212 111.511 44.2307C113.233 44.2593 114.802 43.8275 115.938 42.4148C116.363 41.8846 116.701 41.2846 117.138 40.6242C117.173 40.8084 117.214 40.8941 117.204 40.9734C117.014 42.5227 116.85 44.0783 116.613 45.6181C116.451 46.6657 115.872 47.4467 114.806 47.7261C114.255 47.869 113.676 47.961 113.106 47.9769C111.884 48.0118 111.59 47.6943 111.568 46.4594C111.568 46.3229 111.54 46.1832 111.517 45.9863C109.935 46.1546 108.394 46.3165 106.65 46.5038C106.65 47.3451 106.65 48.1769 106.65 49.0119C106.65 51.2754 107.736 52.4469 110.001 52.5326C112.172 52.6152 114.309 52.3453 116.385 51.6786C118.575 50.977 120.176 49.6405 120.913 47.4055C121.167 46.634 121.426 45.853 121.546 45.053C121.967 42.2751 122.347 39.4909 122.705 36.7034C123.148 33.2462 123.556 29.7825 123.974 26.3189C124.05 25.6903 124.1 25.0617 124.167 24.4141C122.42 24.6014 120.784 24.7792 119.157 24.9538C119.087 26.1284 119.024 27.1951 118.961 28.2618L118.964 28.265Z" fill="#1A1F35"/>
<path d="M101.989 36.0206C101.302 34.2618 99.8493 34.3634 98.4505 34.4174C97.8808 34.4396 97.3112 34.5634 96.7542 34.6967C94.5199 35.2301 92.6432 36.2555 92.004 38.6715C91.6812 39.8938 91.3521 41.1605 91.3521 42.4082C91.3521 44.2209 91.621 45.6051 94.1876 46.0591C95.0642 46.2147 96.0168 46.1416 96.9029 45.9893C98.8682 45.6496 100.606 44.9194 101.204 42.7225C101.21 42.7034 101.286 42.7002 101.381 42.678C101.223 43.5955 101.068 44.4876 100.913 45.3829C102.308 45.2495 103.644 45.0876 104.982 45.0051C105.669 44.9638 106.024 44.7003 106.068 44.0051C106.1 43.5003 106.153 42.9987 106.217 42.4971C106.486 40.3001 106.789 38.1064 107.024 35.9063C107.226 33.992 107.508 32.0681 107.476 30.1537C107.441 28.0457 106.742 27.2711 104.989 26.9345C102.391 26.4361 99.8429 26.6774 97.3333 27.4234C96.1624 27.7727 94.9914 28.1473 94.2667 29.2648C93.523 30.414 93.2509 31.7062 93.0388 33.1665C94.6275 32.9919 96.1434 32.8078 97.6625 32.6713C98.0454 32.6364 98.2005 32.5062 98.2732 32.1316C98.4536 31.2363 99.0169 30.6871 99.9252 30.5569C100.394 30.4902 100.878 30.4521 101.349 30.4775C102.071 30.5156 102.46 30.9188 102.444 31.6236C102.425 32.4871 102.362 33.3538 102.277 34.2142C102.216 34.8174 102.087 35.4111 101.989 36.0111V36.0206Z" fill="#1A1F35"/>
<path d="M46.7742 32.5657C46.3374 32.6006 46.0051 32.6197 45.6697 32.6578C44.5019 32.7848 43.3341 32.9022 42.1727 33.061C41.9955 33.0864 41.7201 33.2959 41.698 33.4515C41.4733 35.0674 41.2929 36.6897 41.0967 38.312C40.8752 40.147 40.6093 41.9788 40.4321 43.8201C40.277 45.4424 39.8846 47.0457 40.2137 48.706C40.4859 50.0839 41.2264 51.0871 42.5746 51.3855C45.2045 51.9665 48.0242 51.0077 49.3344 48.1441C49.4768 47.833 49.6192 47.5219 49.7648 47.2107C49.8218 47.2298 49.8787 47.2488 49.9389 47.2711C49.7553 48.4298 49.5686 49.5886 49.3755 50.8014C50.9579 50.649 52.4833 50.5125 54.0023 50.3315C54.1574 50.3125 54.3758 50.0236 54.3979 49.8394C54.7555 47.0742 55.0878 44.3027 55.4264 41.5343C55.7556 38.8358 56.091 36.1373 56.417 33.4388C56.4929 32.807 56.5372 32.1689 56.5942 31.5371C55.1131 31.6768 53.727 31.7816 52.3472 31.953C52.056 31.9879 51.613 32.2165 51.556 32.4356C51.3725 33.1753 51.325 33.9499 51.2364 34.7118C50.8946 37.5723 50.5655 40.4359 50.211 43.2963C50.0148 44.8995 48.961 46.144 47.5305 46.5314C46.2425 46.8806 45.4482 46.2933 45.4513 44.9472C45.4513 44.1059 45.4988 43.2582 45.5969 42.4233C45.8469 40.2263 46.1412 38.0326 46.4102 35.8357C46.54 34.7626 46.6539 33.6896 46.7805 32.5657H46.7742Z" fill="#1A1F35"/>
<path d="M60.7656 49.6145C61.8574 40.6682 62.9429 31.7567 64.0347 22.7881C62.3669 22.9468 60.8415 23.077 59.3256 23.2548C59.1706 23.2738 58.9554 23.5754 58.9301 23.7691C58.7054 25.4834 58.5186 27.201 58.3193 28.9153C58.1167 30.6551 57.9142 32.3948 57.7022 34.1346C57.4806 35.9696 57.2433 37.8014 57.0154 39.6332C56.7971 41.3952 56.5755 43.1603 56.3603 44.9223C56.1515 46.624 55.9521 48.3288 55.7369 50.132C57.4268 49.9574 59.0471 49.7892 60.7656 49.6114V49.6145Z" fill="#1A1F35"/>
<path d="M72.0822 61.5901C72.9999 61.7583 73.2911 61.2377 73.5443 60.5488C73.9303 59.4979 74.4114 58.482 74.8513 57.4502C74.8924 57.4661 74.9336 57.4788 74.9747 57.4947C74.7373 58.7773 74.5 60.0567 74.25 61.3901C74.75 61.3266 75.3735 61.6504 75.5127 60.8853C75.826 59.1487 76.0918 57.3994 76.3925 55.5771C75.9874 55.6057 75.6361 55.6565 75.2817 55.6502C74.5411 55.6343 74.2437 56.0438 74.0379 56.7074C73.7658 57.5868 73.3702 58.4281 73.0284 59.2884C72.9873 59.2821 72.9493 59.2725 72.9082 59.2662C72.8132 58.1677 72.7151 57.0693 72.617 55.9518C72.3512 55.9835 72.1423 56.0184 71.9303 56.028C70.7593 56.0946 70.7277 56.0851 70.522 57.1963C70.2371 58.717 70.0093 60.244 69.7593 61.771C70.9271 61.9203 70.9302 61.8949 71.06 60.8218C71.1866 59.771 71.3764 58.7265 71.5378 57.682C71.579 57.682 71.6201 57.682 71.6613 57.6788C71.8037 58.9836 71.9429 60.2916 72.0853 61.5964L72.0822 61.5901Z" fill="#1A1F35"/>
<path d="M85.5133 58.1077C86.5956 57.4505 86.5481 56.4092 86.5703 55.406C86.5798 54.8917 86.2506 54.6726 85.7823 54.6758C85.1588 54.6822 84.5354 54.7234 83.9119 54.7552C83.1746 54.7933 82.6397 55.0123 82.7188 55.9235C82.7442 56.2187 82.6112 56.5299 82.5574 56.8346C82.3422 58.0918 82.1302 59.3522 81.9023 60.6856C82.3834 60.5967 82.7695 60.5237 83.1271 60.457C83.2062 60.0411 83.2379 59.676 83.3613 59.3427C83.4246 59.1744 83.6398 58.9712 83.8107 58.949C84.7063 58.8188 84.7886 58.9236 84.6683 59.8379C84.6461 59.9967 84.6683 60.1617 84.6683 60.5872C85.181 60.2856 85.7601 60.1395 85.8551 59.8411C86.0259 59.3014 86.3741 58.5712 85.5164 58.1077H85.5133Z" fill="#1A1F35"/>
<path d="M67.3952 62.2697C67.8034 62.0697 68.3382 61.9872 68.5091 61.6919C68.9079 61.0062 68.7085 60.2411 68.1832 59.8347C69.1231 59.4029 69.1073 58.5108 69.218 57.6886C69.3446 56.7393 69.0186 56.3615 68.0882 56.4187C67.2559 56.4695 66.4236 56.5647 65.547 56.6473C65.2178 58.5648 64.8919 60.4601 64.5659 62.3586C65.7495 62.4316 65.7653 62.4157 66.0691 60.7236C66.4394 60.7236 67.0629 60.5744 67.1831 60.7554C67.4015 61.0887 67.3255 61.6157 67.3952 62.2697Z" fill="#1A1F35"/>
<path d="M49.0623 60.0533C49.0623 59.6597 49.1035 59.2978 49.0465 58.9485C49.0212 58.7835 48.8345 58.5644 48.6762 58.5168C46.7711 57.9644 45.3976 58.8755 45.1571 60.8248C45.0716 61.5201 45.3818 61.9074 46.116 61.9709C46.4736 62.0026 46.8375 61.9741 47.1983 61.9836C47.6161 61.9899 47.7458 62.2947 47.5401 62.555C47.3344 62.8217 46.9705 63.0598 46.6445 63.1074C46.3913 63.1455 46.0938 62.8693 45.8153 62.7328L45.8818 62.59H44.964C44.5273 63.9392 44.7837 64.317 46.1097 64.3011C46.442 64.298 46.7806 64.2726 47.1065 64.1995C48.3756 63.9202 49.1541 62.6217 48.7902 61.355C48.7269 61.1423 48.4484 60.9042 48.2237 60.8439C47.8629 60.7454 47.461 60.8121 47.0876 60.7518C46.8692 60.7169 46.6667 60.5645 46.4578 60.4661C46.616 60.2026 46.7204 59.7962 46.9451 59.7105C47.3692 59.5486 47.923 59.4375 47.98 60.1772C48.3471 60.1359 48.6572 60.1041 49.0623 60.0597V60.0533Z" fill="#1A1F35"/>
<path d="M91.4534 59.5898C91.1306 58.8881 90.8331 58.1865 90.485 57.5071C90.2698 57.0913 90.3046 56.7643 90.5831 56.3896C91.1401 55.6468 91.6591 54.8753 92.2256 54.0689C91.3711 53.8721 90.7603 53.9832 90.3679 54.7864C90.1495 55.234 89.7951 55.6182 89.5324 56.0468C89.4217 56.2277 89.39 56.4563 89.3204 56.6658C89.197 56.5674 89.0767 56.469 88.9533 56.3738C89.0482 55.7007 89.14 55.0245 89.2349 54.3515C88.5134 54.252 88.083 54.5271 87.9438 55.1769C87.8741 55.5039 87.8077 55.8309 87.7539 56.1611C87.5355 57.4468 87.3203 58.7326 87.1051 60.0215C88.2127 60.1549 88.2507 60.1168 88.428 59.1167C88.5134 58.6278 88.6526 58.1453 88.7666 57.6595L89.0134 57.65C89.1685 57.9802 89.3394 58.3072 89.4818 58.6437C89.8405 59.4924 90.4966 59.8078 91.4502 59.5898H91.4534Z" fill="#1A1F35"/>
<path d="M76.3232 61.2969C76.9024 61.116 77.472 61.116 77.6714 60.8429C78.3202 59.9604 78.586 59.7889 79.6936 60.0461C79.7285 60.2969 79.7633 60.5477 79.8044 60.8429C80.2221 60.8048 80.5924 60.7699 80.9912 60.7318C80.8488 58.827 80.7095 57.0142 80.5671 55.1094C80.0924 55.1729 79.6683 55.2078 79.2537 55.2935C79.0227 55.3411 78.6809 55.4269 78.6145 55.5888C77.855 57.4111 77.1366 59.2492 76.3232 61.2906V61.2969Z" fill="#1A1F35"/>
<path d="M51.8469 58.0785C50.6854 58.0848 50.6316 58.1324 50.5019 59.142C50.4861 59.2595 50.4386 59.3738 50.4196 59.4912C50.2519 60.6246 50.0683 61.758 49.9354 62.8977C49.8784 63.3961 50.119 63.7517 50.6823 63.7263C51.3215 63.6946 51.9703 63.6882 52.5938 63.5644C53.29 63.4279 53.6982 62.9231 53.8343 62.2215C54.0337 61.1865 54.2267 60.1484 54.4103 59.1103C54.4862 58.6785 54.5242 58.2372 54.5938 57.707C54.116 57.8023 53.771 57.8721 53.4324 57.9388C53.2235 59.1706 53.0178 60.3484 52.8216 61.5262C52.6982 62.2596 52.2235 62.6564 51.5716 62.4533C50.9196 62.2501 51.2646 61.7135 51.3247 61.3103C51.4798 60.25 51.6665 59.196 51.85 58.0753L51.8469 58.0785Z" fill="#1A1F35"/>
<path d="M56.2018 63.2408C56.2999 62.7519 56.2493 62.1868 56.5056 61.9519C56.781 61.6979 57.3791 61.8344 57.7684 61.6535C58.2621 61.4249 58.8982 61.1455 59.0975 60.7137C59.4298 59.9994 59.5121 59.155 59.6007 58.3517C59.6545 57.8533 59.3665 57.466 58.7842 57.485C58.0215 57.5104 57.2588 57.5708 56.4962 57.593C56.0404 57.6057 55.9044 57.847 55.8506 58.2629C55.7556 59.0184 55.6037 59.7677 55.4803 60.5201C55.3252 61.4693 55.1733 62.4154 55.0151 63.39C55.4581 63.3361 55.8126 63.2916 56.2018 63.244V63.2408Z" fill="#1A1F35"/>
<path d="M63.5534 61.3138C62.8224 61.3741 62.1863 61.4249 61.5533 61.4789C61.4394 60.3518 61.5122 60.2756 62.7148 60.2407C63.6673 60.2122 63.7148 60.155 63.623 59.1899H61.778C61.8666 58.8311 61.9426 58.5391 62.0122 58.2565C62.7211 58.174 63.3825 58.0978 64.0787 58.0184C64.1357 57.6057 64.1927 57.2025 64.2496 56.8057C63.2717 56.8914 62.3888 56.9835 61.509 57.0406C61.1546 57.0628 60.9584 57.1295 60.9014 57.5549C60.759 58.5708 60.528 59.5709 60.3539 60.5836C60.2273 61.3201 60.1387 62.063 60.0216 62.8884C61.2115 62.7615 62.2749 62.644 63.3414 62.5297C63.4142 62.1202 63.4806 61.7519 63.5566 61.317L63.5534 61.3138Z" fill="#1A1F35"/>
<path d="M95.9724 58.0306C95.2287 58.0782 94.5768 58.1195 93.928 58.1639C93.773 56.3226 95.3015 57.2528 96.0516 56.7226C96.0611 56.5258 96.0769 56.2273 96.0959 55.8591C95.4439 55.8972 94.8616 55.9321 94.273 55.967C94.3964 54.6812 94.3964 54.8876 95.311 54.8559C95.7098 54.8432 96.1085 54.7352 96.5136 54.6717C96.5706 54.2844 96.6212 53.9415 96.6877 53.4971C95.5136 53.6145 94.4534 53.7193 93.4059 53.8241C93.2287 54.8305 93.0609 55.7448 92.9059 56.6623C92.7476 57.5893 92.602 58.5227 92.4312 59.5703C93.6242 59.4465 94.6907 59.3386 95.7572 59.2275C95.8332 58.8116 95.8933 58.4687 95.9724 58.0306Z" fill="#1A1F35"/>
<path d="M99.0552 58.9033C99.3242 57.3858 99.5837 55.9127 99.84 54.4714C100.72 54.3909 101.184 53.9073 101.232 53.0205C100.448 53.1031 99.6691 53.2237 98.8875 53.2618C97.5646 53.3285 97.5583 53.3094 97.5361 54.6618C97.8558 54.6364 98.1754 54.611 98.5963 54.5761C98.3495 56.0873 98.1184 57.5032 97.8779 58.9668C98.3305 58.9414 98.6817 58.9255 99.052 58.9033H99.0552Z" fill="#1A1F35"/>
<path d="M124.781 18.3369C130.018 22.972 134.284 28.1595 136.379 34.8201C139.006 43.1696 137.417 50.8525 132.335 57.8623C128.677 62.9069 123.876 66.6309 118.499 69.6501C111.609 73.5232 104.207 75.99 96.4758 77.4599C92.8648 78.1456 89.2096 78.5965 85.5734 79.152C85.5607 79.0695 85.5449 78.9838 85.5322 78.9012C87.0513 78.5964 88.5735 78.3202 90.0831 77.9806C100.428 75.6567 110.068 71.7454 118.458 65.0975C123.831 60.837 128.252 55.767 130.825 49.3096C134.699 39.5981 133.278 30.4771 127.493 21.9275C126.683 20.7307 125.749 19.6163 124.778 18.3401L124.781 18.3369Z" fill="white"/>
<path d="M59.3602 0C52.9105 1.12068 46.6286 2.80011 40.5872 5.33672C33.4508 8.33366 26.9316 12.2926 21.4566 17.8356C17.1843 22.1596 13.893 27.1058 12.2822 33.0426C10.0004 41.4366 11.5923 49.1988 16.2507 56.4181C16.7222 57.1483 17.2349 57.8499 17.7603 58.5452C18.2824 59.2373 18.8426 59.8976 19.3616 60.5929C16.7412 58.3515 14.3867 55.8594 12.3771 53.0529C9.64598 49.2369 7.67438 45.0843 6.94966 40.3984C6.10152 34.9125 7.01612 29.7218 9.62066 24.8359C12.5353 19.3722 16.8425 15.2101 21.9028 11.7814C28.362 7.40347 35.5016 4.58748 43.0114 2.65725C47.9135 1.39688 52.8916 0.555578 57.9392 0.146038C58.4139 0.107941 58.8887 0.0507957 59.3634 0L59.3602 0Z" fill="white"/>
<path d="M94.1973 1.54004C95.3873 1.75592 96.5835 1.93688 97.7639 2.19403C103.22 3.38456 108.584 4.88303 113.784 6.94978C119.92 9.38479 125.727 12.4167 130.93 16.5184C135.541 20.1535 139.427 24.4044 141.864 29.8427C143.431 33.3413 144.2 37.0145 143.956 40.84C143.649 45.6973 141.915 50.0721 139.158 54.0532C136.196 58.3232 132.449 61.7869 128.208 64.7394C128.199 64.7457 128.167 64.7267 128.031 64.6854C128.943 63.7838 129.841 62.9393 130.686 62.0472C134.452 58.0756 137.171 53.5104 138.389 48.1228C139.051 45.1926 139.202 42.2464 138.807 39.2431C137.946 32.7445 134.984 27.2744 130.791 22.4075C124.601 15.2263 116.812 10.3055 108.236 6.52436C103.688 4.51793 98.9855 2.96232 94.2005 1.54321L94.1973 1.54004Z" fill="white"/>
<path d="M26.5488 47.453C26.7577 45.691 26.9223 44.1608 27.1343 42.6369C27.1628 42.4433 27.4065 42.1417 27.5774 42.1226C29.1281 41.9385 30.6788 41.7448 32.2358 41.675C33.9542 41.5988 34.3783 42.1321 34.1441 43.8528C34.103 44.1608 34.0428 44.4687 33.97 44.7735C33.739 45.7259 33.2675 46.4974 32.2326 46.6625C30.3939 46.9545 28.5489 47.18 26.552 47.4562L26.5488 47.453Z" fill="white"/>
<path d="M27.7891 37.182C27.9979 35.5152 28.1878 33.9914 28.3904 32.385C30.1594 32.1945 31.9348 31.9595 33.7165 31.8294C34.5805 31.7659 35.0267 32.2929 35.0109 33.1913C35.0014 33.7628 34.9539 34.3438 34.8432 34.9057C34.6628 35.8168 34.0615 36.401 33.1659 36.5565C31.9918 36.7597 30.8019 36.8708 29.6183 37.0105C29.0296 37.0804 28.441 37.1216 27.7891 37.1851V37.182Z" fill="white"/>
<path d="M116.274 29.7539C117.8 29.7539 118.274 30.2111 118.151 31.9318C118.031 33.5985 117.803 35.2684 117.483 36.9097C117.04 39.186 115.439 39.4432 113.568 39.3067C113.056 39.2686 112.603 38.932 112.587 38.3225C112.562 37.4145 112.524 36.5002 112.6 35.5986C112.698 34.4271 112.834 33.2525 113.072 32.1C113.442 30.2936 114.236 29.7539 116.274 29.7539Z" fill="white"/>
<path d="M98.2196 41.9447C97.0265 41.9447 96.7068 41.7859 96.5454 41.1161C96.3207 40.1795 96.767 38.7382 97.5455 38.462C98.4284 38.1509 99.3968 37.9159 100.321 37.9413C101.593 37.9763 101.919 38.6906 101.52 40.0843C101.191 41.2367 100.292 41.8685 98.8652 41.9415C98.65 41.9542 98.4316 41.9415 98.2164 41.9415L98.2196 41.9447Z" fill="white"/>
<path d="M85.2 56.0757C85.2949 57.4821 85.1145 57.6631 83.7347 57.5996C83.5448 56.1805 83.7822 55.9233 85.2 56.0757Z" fill="white"/>
<path d="M66.3193 59.4021C66.5852 57.7544 66.1073 57.6973 67.8036 57.802C68.0947 58.9545 67.7783 59.31 66.3193 59.4021Z" fill="white"/>
<path d="M79.5036 56.6589C79.5416 57.351 79.5795 58.0431 79.6207 58.8051C79.2409 58.859 78.9276 58.9066 78.4624 58.9733C78.7884 58.1098 79.0637 57.3796 79.3422 56.6494C79.396 56.6526 79.4498 56.6558 79.5036 56.6621V56.6589Z" fill="white"/>
<path d="M56.7239 60.3547C56.784 59.9293 56.8125 59.5483 56.8948 59.1769C57.0245 58.5959 57.5435 58.6276 57.9265 58.6943C58.0879 58.7229 58.3062 59.2023 58.2746 59.4499C58.1701 60.3166 57.9518 60.4245 56.7207 60.3579L56.7239 60.3547Z" fill="white"/>
</g>
<defs>
<clipPath id="clip0_2374_16076">
<rect width="144" height="80" fill="white"/>
</clipPath>
</defs>
</svg>
