<svg width="156" height="95" viewBox="0 0 156 95" fill="none" xmlns="http://www.w3.org/2000/svg">
<g clip-path="url(#clip0_2374_16074)">
<path d="M72.6309 45.1183L57.0703 29.6934L39.1392 47.505V53.4864L43.6572 48.993L56.1786 61.4346L51.5564 66.0017L54.5586 68.9997L79.5938 44.146V38.1867L72.6309 45.1257V45.1183Z" fill="white"/>
<path d="M139.934 51.549V32.382H144.571V26.4521H116.831V32.382H121.475V52.9633H116.831V58.9226H156V42.7021L139.934 51.549ZM23.0883 51.549V32.382H27.7104V26.4521H0V32.382H4.64441V52.9633H0V58.9226H39.1393V42.7021L23.0883 51.549Z" fill="white"/>
<path d="M54.7891 8C60.2361 8 64.6501 12.3756 64.6501 17.775C64.6501 23.1745 60.2361 27.5501 54.7891 27.5501C49.3422 27.5501 44.9281 23.1745 44.9281 17.775V17.7382C44.9281 12.3608 49.3273 8 54.7594 8H54.7966L54.7891 8Z" fill="white"/>
<path d="M101.396 26.4521H75.0237V32.382H79.6458V52.9633H74.9717V58.9226H101.344C120.925 58.9226 121.171 26.4521 101.396 26.4521ZM97.6884 48.7646H96.3657V36.566H97.4729C103.262 36.566 103.262 48.7646 97.6884 48.7646Z" fill="white"/>
</g>
<defs>
<clipPath id="clip0_2374_16074">
<rect width="156" height="61" fill="white" transform="translate(0 8)"/>
</clipPath>
</defs>
</svg>
