<svg width="140" height="95" viewBox="0 0 140 95" fill="none" xmlns="http://www.w3.org/2000/svg">
<g clip-path="url(#clip0_2374_16067)">
<path d="M86.834 61.5928C78.708 67.6878 66.93 70.9397 56.7894 70.9397C42.5706 70.9397 29.77 65.588 20.0858 56.6871C19.3249 55.9872 20.0067 55.0333 20.9197 55.5783C31.3708 61.7662 44.2931 65.4889 57.6415 65.4889C66.644 65.4889 76.5472 63.5935 85.6531 59.6603C87.0287 59.0656 88.1792 60.577 86.834 61.5928Z" fill="white"/>
<path d="M90.2122 57.6596C89.1774 56.3093 83.3463 57.0216 80.7289 57.3375C79.9315 57.4366 79.8098 56.7305 80.528 56.2225C85.1723 52.8963 92.793 53.8564 93.6817 54.9713C94.5704 56.0925 93.4504 63.866 89.0861 67.5763C88.4166 68.1462 87.7775 67.8426 88.0757 67.087C89.0557 64.5969 91.253 59.0161 90.2122 57.6596Z" fill="white"/>
<path d="M80.9116 32.7404V29.5071C80.9116 29.0177 81.2768 28.6895 81.7151 28.6895H95.94C96.3965 28.6895 96.7617 29.0239 96.7617 29.5071V32.2758C96.7556 32.7404 96.3721 33.3474 95.6904 34.3075L88.3193 45.0171C91.0583 44.9489 93.9496 45.3639 96.433 46.7886C96.993 47.1107 97.1452 47.5814 97.1878 48.046V51.4961C97.1878 51.9668 96.6765 52.5181 96.1408 52.2332C91.7644 49.898 85.9515 49.6441 81.1125 52.258C80.6194 52.5305 80.1021 51.9854 80.1021 51.5147V48.238C80.1021 47.7115 80.1081 46.8134 80.6255 46.0143L89.1653 33.5518H81.7333C81.2768 33.5518 80.9116 33.2235 80.9116 32.7404Z" fill="white"/>
<path d="M29.0212 52.9155H24.6934C24.2795 52.8845 23.9508 52.5686 23.9204 52.166V29.5638C23.9204 29.1116 24.2917 28.7523 24.7543 28.7523H28.7899C29.2099 28.7709 29.5446 29.0992 29.5751 29.508V32.4626H29.6542C30.7072 29.6071 32.6854 28.2754 35.3515 28.2754C38.0601 28.2754 39.7523 29.6071 40.9696 32.4626C42.0166 29.6071 44.3965 28.2754 46.9469 28.2754C48.7608 28.2754 50.7451 29.0373 51.9563 30.7468C53.3259 32.6484 53.0459 35.411 53.0459 37.8329L53.0398 52.0979C53.0398 52.55 52.6685 52.9155 52.2059 52.9155H47.8843C47.4521 52.8845 47.1051 52.5314 47.1051 52.0979V40.1185C47.1051 39.1646 47.1904 36.7861 46.9834 35.8817C46.6608 34.3642 45.693 33.9368 44.4391 33.9368C43.3922 33.9368 42.2965 34.6491 41.8522 35.7888C41.4079 36.9285 41.4505 38.8363 41.4505 40.1185V52.0979C41.4505 52.55 41.0792 52.9155 40.6166 52.9155H36.2949C35.8567 52.8845 35.5158 52.5314 35.5158 52.0979L35.5097 40.1185C35.5097 37.5975 35.9175 33.8872 32.8437 33.8872C29.7333 33.8872 29.8551 37.5046 29.8551 40.1185V52.0979C29.8551 52.55 29.4838 52.9155 29.0212 52.9155Z" fill="white"/>
<path d="M109.008 28.2754C115.43 28.2754 118.906 33.8872 118.906 41.0228C118.906 47.9168 115.065 53.3862 109.008 53.3862C102.703 53.3862 99.2695 47.7744 99.2695 40.7813C99.2695 33.7448 102.745 28.2754 109.008 28.2754ZM109.045 32.89C105.855 32.89 105.655 37.3126 105.655 40.0689C105.655 42.8315 105.612 48.7283 109.008 48.7283C112.362 48.7283 112.521 43.9712 112.521 41.0724C112.521 39.1646 112.441 36.8852 111.875 35.0765C111.388 33.5032 110.421 32.89 109.045 32.89Z" fill="white"/>
<path d="M127.232 52.9155H122.923C122.491 52.8845 122.144 52.5314 122.144 52.0979L122.138 29.4894C122.174 29.0744 122.533 28.7523 122.972 28.7523H126.983C127.36 28.7709 127.671 29.0311 127.756 29.3841V32.8404H127.835C129.046 29.7496 130.744 28.2754 133.733 28.2754C135.675 28.2754 137.568 28.9877 138.785 30.9388C139.917 32.7475 139.917 35.7888 139.917 37.9753V52.2032C139.869 52.5996 139.509 52.9155 139.083 52.9155H134.744C134.348 52.8845 134.019 52.5872 133.977 52.2032V39.9265C133.977 37.455 134.257 33.8377 131.268 33.8377C130.215 33.8377 129.247 34.5562 128.766 35.6464C128.158 37.0276 128.078 38.4027 128.078 39.9265V52.0979C128.072 52.55 127.695 52.9155 127.232 52.9155Z" fill="white"/>
<path d="M69.5717 42.1192V41.1653C66.4431 41.1653 63.138 41.8466 63.138 45.6003C63.138 47.5018 64.1058 48.7902 65.7675 48.7902C66.9848 48.7902 68.0744 48.0283 68.7622 46.7895C69.6143 45.2658 69.5717 43.8349 69.5717 42.1192ZM73.936 52.8535C73.6499 53.1137 73.236 53.1323 72.9134 52.9588C71.4769 51.7448 71.2213 51.1811 70.43 50.0228C68.0561 52.4881 66.3761 53.2252 63.2962 53.2252C59.6563 53.2252 56.8198 50.9396 56.8198 46.3621C56.8198 42.7881 58.725 40.3539 61.4336 39.1646C63.7832 38.1116 67.064 37.9258 69.5717 37.6347V37.0648C69.5717 36.018 69.6509 34.7792 69.0483 33.8748C68.5187 33.0634 67.5083 32.7289 66.6196 32.7289C64.9701 32.7289 63.4971 33.5899 63.138 35.3738C63.0649 35.7702 62.7788 36.1605 62.3893 36.179L58.1894 35.7207C57.8363 35.6402 57.4468 35.349 57.5442 34.7978C58.512 29.6195 63.1075 28.0586 67.2222 28.0586C69.3283 28.0586 72.0795 28.6284 73.7412 30.2513C75.8473 32.252 75.6464 34.9216 75.6464 37.8267V44.6897C75.6464 46.7524 76.4864 47.6567 77.2777 48.7716C77.5577 49.1681 77.6185 49.645 77.2655 49.9423C76.3829 50.6918 74.8125 52.0855 73.9482 52.8659L73.936 52.8535Z" fill="white"/>
<path d="M12.8364 42.1192V41.1653C9.70775 41.1653 6.4026 41.8466 6.4026 45.6003C6.4026 47.5018 7.3704 48.7902 9.03211 48.7902C10.2495 48.7902 11.339 48.0283 12.0268 46.7895C12.879 45.2658 12.8364 43.8349 12.8364 42.1192ZM17.2006 52.8535C16.9146 53.1137 16.5006 53.1323 16.178 52.9588C14.7416 51.7448 14.4859 51.1811 13.6946 50.0228C11.3208 52.4881 9.6408 53.2252 6.56086 53.2252C2.92093 53.2252 0.0844727 50.9396 0.0844727 46.3621C0.0844727 42.7881 1.98965 40.3539 4.69829 39.1646C7.0478 38.1116 10.3286 37.9258 12.8364 37.6347V37.0648C12.8364 36.018 12.9155 34.7792 12.3129 33.8748C11.7834 33.0634 10.7729 32.7289 9.88426 32.7289C8.23474 32.7289 6.76172 33.5899 6.4026 35.3738C6.32956 35.7702 6.04348 36.1605 5.65392 36.179L1.45401 35.7207C1.10097 35.6402 0.711415 35.349 0.808804 34.7978C1.77661 29.6195 6.37216 28.0586 10.4869 28.0586C12.5929 28.0586 15.3441 28.6284 17.0059 30.2513C19.1119 32.252 18.911 34.9216 18.911 37.8267V44.6897C18.911 46.7524 19.751 47.6567 20.5423 48.7716C20.8223 49.1681 20.8832 49.645 20.5301 49.9423C19.6475 50.6918 18.0771 52.0855 17.2128 52.8659L17.2006 52.8535Z" fill="white"/>
</g>
<defs>
<clipPath id="clip0_2374_16067">
<rect width="140" height="43" fill="white" transform="translate(0 28)"/>
</clipPath>
</defs>
</svg>
