<svg width="127" height="95" viewBox="0 0 127 95" fill="none" xmlns="http://www.w3.org/2000/svg">
<g clip-path="url(#clip0_2374_16072)">
<path d="M21.7714 64.4576L22.761 59.3576C38.9247 69.5576 59.7065 69.5576 75.8701 59.3576L76.8597 64.4576C60.6961 77.1254 37.9351 77.1254 21.7714 64.4576ZM85.7662 40.9318C87.5805 41.2608 89.5597 41.0963 91.2091 40.1092C92.5286 39.2866 93.3532 37.9705 93.6831 36.4899C94.013 35.0092 94.1779 33.6931 94.3429 32.2125H100.61C100.61 32.8705 100.61 33.6931 100.61 34.5157C100.445 36.4899 99.9506 38.2995 99.126 39.9447C98.4662 41.2608 97.3117 42.4125 96.1571 43.235C95.8273 43.3995 95.4974 43.7286 95.1675 43.8931C95.4974 44.3866 95.8273 45.0447 95.9922 45.5383C97.6416 48.4995 99.2909 51.2963 101.105 54.2576C101.27 54.5866 101.435 54.9157 101.6 55.2447C101.765 55.5737 101.765 55.9028 101.765 56.2318H94.8377L89.3948 46.3608L85.7662 46.6899V56.3963H79.0039V23.8221H85.7662V40.9318ZM20.1221 32.0479C20.1221 32.377 19.9571 32.706 19.7922 33.1995C18.6377 35.1737 17.4831 37.1479 16.3286 39.1221C14.1844 42.7415 12.0403 46.3608 10.061 49.9802C10.061 50.1447 9.8961 50.3092 9.8961 50.4737C11.7104 50.4737 13.3597 50.4737 15.0091 50.4737C16.6584 50.4737 18.3078 50.4737 20.1221 50.4737V56.3963H0C0 56.0673 0.164935 55.7383 0.32987 55.4092C1.31948 53.5995 2.30909 51.9544 3.2987 50.3092C4.28831 48.6641 5.11299 47.1834 6.1026 45.5383C7.42208 43.235 8.74156 40.9318 10.061 38.7931C10.226 38.6286 10.226 38.4641 10.3909 38.135C9.56623 38.135 8.74156 38.135 7.91688 38.135C7.09221 38.135 6.26753 38.135 5.60779 38.135H0.824675V32.0479H20.1221ZM10.7208 29.7447C9.73117 29.9092 8.90649 29.5802 8.24675 28.9221C7.25714 28.0995 6.76234 26.6189 7.25714 25.3028C7.58701 24.1512 8.74156 23.1641 10.061 22.9995C11.2156 22.6705 12.5351 23.1641 13.3597 23.9866C14.3494 24.9737 14.5143 26.2899 14.1844 27.606C13.6896 28.9221 12.5351 29.7447 11.2156 29.7447C11.0506 29.9092 10.8857 29.9092 10.7208 29.7447ZM74.2208 39.6157C73.561 37.3125 72.2416 35.1737 70.2623 33.6931C68.448 32.377 66.4688 31.7189 64.3247 31.7189C62.5104 31.5544 60.5312 31.8834 58.7169 32.5415C58.5519 32.5415 58.2221 32.706 58.0571 32.706V23.8221H51.2948V54.9157C52.2844 55.2447 53.274 55.4092 54.2636 55.5737C55.913 56.0673 57.5623 56.3963 59.3766 56.7254C62.0156 57.0544 64.6545 56.7254 67.2935 55.9028C71.2519 54.7512 74.2208 51.4608 74.7156 47.3479C75.0455 44.8802 75.0455 42.0834 74.2208 39.6157ZM67.7883 47.677C67.2935 49.3221 65.974 50.6383 64.3247 50.9673C62.3455 51.4608 60.2013 51.2963 58.387 50.6383C58.387 50.6383 58.2221 50.6383 58.2221 50.4737V38.4641C60.5312 36.8189 63.6649 36.8189 65.974 38.2995C66.7987 38.9576 67.2935 39.7802 67.6234 40.7673C68.2831 42.906 68.448 45.3737 67.7883 47.677ZM45.0273 33.6931C43.3779 33.035 41.5636 32.5415 39.7494 32.2125C37.2753 31.7189 34.8013 31.5544 32.3273 31.7189C30.1831 31.8834 28.039 32.8705 26.3896 34.5157C24.9052 36.1608 23.7506 38.135 23.4208 40.2737C23.0909 41.9189 22.926 43.5641 22.926 45.2092C22.926 47.3479 23.4208 49.3221 24.4104 51.1318C25.2351 52.6125 26.3896 53.9286 27.874 54.7512C31.1727 56.5608 34.9662 57.2189 38.5948 56.5608C41.2338 56.2318 43.7078 55.4092 46.3468 54.9157V34.3512C46.0169 34.1866 45.5221 33.8576 45.0273 33.6931ZM39.7494 50.6383C37.4403 51.4608 34.9662 51.6254 32.6571 50.6383C31.5026 50.1447 30.6779 49.3221 30.1831 48.006C29.3584 45.3737 29.3584 42.7415 30.3481 40.1092C31.0078 38.4641 32.6571 37.3125 34.3065 37.1479C35.9558 36.9834 37.7701 37.1479 39.2545 37.9705C39.4195 37.9705 39.4195 38.135 39.5844 38.135L39.7494 50.6383ZM124.691 33.3641C122.712 32.706 120.732 32.2125 118.588 31.8834C116.609 31.5544 114.465 31.5544 112.321 31.8834C108.527 32.5415 105.558 35.3383 104.404 38.9576C103.579 41.7544 103.249 44.7157 103.744 47.677C104.074 50.3092 105.394 52.777 107.538 54.4221C108.032 54.7512 108.692 55.2447 109.187 55.4092C110.506 56.0673 112.156 56.5608 113.64 56.7254C115.455 57.0544 117.269 57.0544 119.083 56.7254C121.722 56.2318 124.361 55.5737 126.835 55.0802V34.3512C126.175 34.0221 125.516 33.6931 124.691 33.3641ZM120.403 50.6383C120.073 50.8028 119.908 50.8028 119.578 50.8028C118.258 51.1318 116.939 51.2963 115.455 51.2963C113.805 51.2963 112.321 50.4737 111.331 49.1576C110.836 48.4995 110.506 47.677 110.342 46.8544C110.012 44.8802 110.012 42.906 110.671 40.9318C111.166 38.9576 112.981 37.477 114.96 37.3124C116.774 36.9834 118.588 37.3125 120.238 38.2995L120.403 50.6383Z" fill="white"/>
</g>
<defs>
<clipPath id="clip0_2374_16072">
<rect width="127" height="51" fill="white" transform="translate(0 23)"/>
</clipPath>
</defs>
</svg>
