<svg width="127" height="95" viewBox="0 0 127 95" fill="none" xmlns="http://www.w3.org/2000/svg">
<path d="M6.26566 37.9509V38.1001C6.26566 38.6969 6.26566 39.2936 6.26566 39.8903C6.26566 41.233 6.26566 42.4264 6.26566 43.7691C6.26566 45.2609 6.26566 46.7527 6.26566 48.2445C6.26566 49.5872 6.26566 50.9298 6.26566 52.2724C6.26566 53.4659 6.26566 54.6594 6.26566 56.002C6.26566 56.4495 6.26566 56.4495 5.81811 56.4495H0.298364H0.149182C-1.44494e-07 56.4495 0 56.4495 0 56.3004V56.1512V29.5967C0 29.1492 -4.44598e-07 29.1492 0.447546 29.1492C1.19346 29.1492 1.93937 29.1492 2.68528 29.1492C3.72956 29.1492 4.77383 29.2984 5.81811 29.5967C7.16075 30.0443 8.35421 30.641 9.39848 31.5361C10.1444 32.1328 10.7411 32.8787 11.3379 33.7738C11.6362 34.0722 11.7854 34.5197 11.9346 34.8181C12.8297 36.6083 13.7248 38.2493 14.4707 40.0395C14.9182 41.0838 15.515 42.128 15.9625 43.1723C16.5592 44.2166 17.0068 45.4101 17.6035 46.4543C17.7527 46.7527 17.7527 46.9019 17.9019 47.2002C17.9019 47.2002 17.9019 47.3494 18.0511 47.3494V47.2002C18.0511 46.7527 18.0511 46.3051 18.0511 45.8576C17.9019 43.6199 18.0511 41.3821 18.0511 39.1444C18.0511 38.6969 18.0511 38.2493 18.0511 37.6526C17.9019 34.9673 18.0511 32.1328 18.0511 29.4475C18.0511 29.2984 18.0511 29.2984 18.0511 29.1492C18.0511 29 18.0511 29 18.2002 29C18.3494 29 18.3494 29 18.4986 29C20.438 29 22.3773 29 24.3167 29C24.7643 29 24.7643 29 24.7643 29.4475V39.5919V55.7036C24.7643 55.8528 24.7643 55.8528 24.7643 56.002C24.7643 56.1512 24.7643 56.1512 24.6151 56.1512H24.4659C23.4216 56.1512 22.2282 56.1512 21.1839 56.1512C19.9904 56.1512 18.9462 55.8528 17.9019 55.4053C17.156 55.1069 16.4101 54.5102 15.6641 54.0626C15.0674 53.4659 14.4707 52.8692 14.0231 52.2724C13.5756 51.6757 13.2772 51.079 12.9789 50.4823C12.3821 49.438 11.9346 48.3937 11.3379 47.3494C10.4428 45.5592 9.39848 43.6199 8.50339 41.8297C7.90666 40.6362 7.30993 39.4428 6.7132 38.2493C6.41484 38.1001 6.41484 37.9509 6.26566 37.9509Z" fill="white"/>
<path d="M40.4281 56.8963C39.8314 56.8963 39.2346 56.8963 38.7871 56.8963C37.7428 56.7472 36.8477 56.598 35.8035 56.4488C34.7592 56.1504 33.7149 55.7029 32.8198 55.1062C31.7755 54.5094 30.8804 53.7635 30.1345 52.8684C29.2394 51.8241 28.6427 50.7799 28.1952 49.5864C27.7476 48.5421 27.4492 47.3487 27.3001 46.3044C27.1509 45.5585 27.1509 44.8126 27.1509 43.9175C27.1509 43.6191 27.1509 43.3208 27.1509 43.0224C27.1509 42.4257 27.1509 41.8289 27.3001 41.2322C27.3001 40.6355 27.4492 40.0387 27.4492 39.442C27.5984 38.2486 28.046 36.9059 28.4935 35.8616C28.9411 34.9665 29.3886 34.2206 29.9853 33.4747C30.7313 32.5796 31.6263 31.8337 32.5214 31.237C33.8641 30.3419 35.3559 29.8944 36.9969 29.596C37.5936 29.4468 38.1904 29.4468 38.7871 29.2976C39.3838 29.2976 39.9806 29.1484 40.5773 29.1484C41.174 29.1484 41.7707 29.1484 42.2183 29.2976C42.815 29.2976 43.4117 29.4468 44.0085 29.596C45.3511 29.8944 46.5446 30.1927 47.5889 30.9386C48.484 31.3862 49.2299 31.9829 49.9758 32.7288C50.5725 33.1764 51.02 33.7731 51.4676 34.3698C51.9151 35.1157 52.3627 35.8616 52.6611 36.7567C53.1086 37.801 53.2578 38.8453 53.407 39.8896C53.5561 40.6355 53.5561 41.3814 53.5561 42.1273C53.5561 42.5748 53.5561 43.0224 53.5561 43.4699C53.5561 44.0667 53.5561 44.6634 53.407 45.1109C53.407 45.8569 53.2578 46.4536 53.1086 47.1995C52.9594 48.393 52.5119 49.4372 52.0643 50.4815C51.6168 51.3766 51.1692 52.2717 50.5725 53.0176C49.9758 53.6143 49.379 54.2111 48.7823 54.8078C47.5889 55.7029 46.2462 56.2996 44.9036 56.7472C44.0085 57.0455 43.2626 57.1947 42.3675 57.1947C41.9199 56.8963 41.174 56.8963 40.4281 56.8963ZM46.3954 42.5748C46.3954 42.1273 46.3954 41.2322 46.2462 40.4863C46.097 39.442 45.9478 38.5469 45.5003 37.6518C45.0528 36.7567 44.6052 36.0108 43.8593 35.4141C43.2626 34.9665 42.6658 34.6682 41.9199 34.3698C41.0248 34.0715 40.1297 34.0715 39.3838 34.2206C38.0412 34.3698 36.9969 34.9665 36.251 36.0108C35.6543 36.7567 35.2067 37.6518 34.9084 38.6961C34.61 39.8896 34.4608 41.083 34.4608 42.2765C34.4608 43.0224 34.4608 43.7683 34.61 44.365C34.61 45.1109 34.7592 45.8569 35.0575 46.6028C35.3559 47.4979 35.6543 48.2438 36.1018 48.9897C36.5494 49.5864 36.9969 50.034 37.5936 50.4815C38.4887 51.0782 39.533 51.2274 40.5773 51.2274C40.7265 51.2274 40.8757 51.2274 41.0248 51.2274C41.6216 51.2274 42.2183 51.0782 42.815 50.7799C43.7101 50.3323 44.456 49.7356 44.9036 48.9897C45.5003 48.0946 45.9479 47.0503 46.097 46.006C46.3954 45.1109 46.3954 44.0667 46.3954 42.5748Z" fill="white"/>
<path d="M104.427 38.2486C104.427 41.083 104.427 43.7683 104.427 46.6028C104.427 48.0946 104.129 49.4372 103.681 50.7799C103.234 51.8241 102.637 52.8684 101.742 53.6143C100.996 54.3602 100.25 54.957 99.2059 55.4045C98.46 55.8521 97.5649 56.1504 96.6698 56.2996C96.073 56.4488 95.4763 56.598 94.8796 56.598C94.5812 56.598 94.1337 56.598 93.8353 56.7472C93.2386 56.7472 92.6418 56.7472 92.0451 56.7472C91.4484 56.7472 90.8517 56.7472 90.2549 56.598C89.509 56.4488 88.9123 56.4488 88.1664 56.1504C86.8237 55.8521 85.6303 55.2553 84.4368 54.3602C83.2434 53.4652 82.3483 52.2717 81.7515 50.9291C81.4532 50.034 81.1548 49.1389 81.0056 48.2438C81.0056 47.7962 80.8564 47.3487 80.8564 46.752C80.8564 45.5585 80.8564 44.365 80.8564 43.1716C80.8564 38.6961 80.8564 34.0715 80.8564 29.596C80.8564 29.4468 80.8564 29.4468 80.8564 29.2976C80.8564 29.1484 80.8564 29.1484 81.0056 29.1484H81.1548H87.5696C87.868 29.1484 87.868 29.1484 87.868 29.4468V44.6634C87.868 44.9618 87.868 45.2601 87.868 45.5585C87.868 46.6028 88.0172 47.647 88.4647 48.5421C88.6139 49.1389 89.0615 49.7356 89.509 50.1831C89.9566 50.6307 90.5533 50.9291 91.15 51.0782C91.4484 51.2274 91.8959 51.2274 92.1943 51.2274C92.9402 51.2274 93.6861 51.2274 94.2829 50.9291C95.0288 50.6307 95.6255 50.034 96.073 49.288C96.5206 48.5421 96.6698 47.7962 96.8189 47.0503C97.2665 46.4536 97.2665 45.7077 97.2665 44.8126C97.2665 39.7404 97.2665 34.8174 97.2665 29.7452C97.2665 29.596 97.2665 29.596 97.2665 29.4468C97.2665 29.2976 97.2665 29.2976 97.4157 29.2976H97.5649H103.98C104.278 29.2976 104.278 29.2976 104.278 29.596C104.427 32.5796 104.427 35.4141 104.427 38.2486Z" fill="white"/>
<path d="M79.5138 29.4468C79.5138 29.596 79.5138 29.7452 79.3646 29.7452C77.4252 35.5633 75.4858 41.5306 73.5465 47.3487C72.6514 50.1831 71.6071 53.1668 70.712 56.0013C70.5628 56.2996 70.5628 56.2996 70.2645 56.2996H62.3578C61.9103 56.2996 61.9103 56.2996 61.9103 56.0013C61.3135 53.9127 60.5676 51.9733 59.9709 49.8848C59.6725 48.9897 59.3742 48.2438 59.225 47.3487C58.9266 46.3044 58.4791 45.1109 58.1807 44.0667C57.8823 43.3208 57.7332 42.4257 57.4348 41.6797C57.1364 40.6355 56.6889 39.442 56.3905 38.3977C56.0921 37.5026 55.7938 36.6076 55.4954 35.5633C54.8987 33.6239 54.1528 31.6845 53.556 29.596C53.556 29.4468 53.4069 29.4468 53.556 29.2976C53.7052 29.1484 53.7052 29.2976 53.8544 29.2976C54.7495 29.2976 55.6446 29.2976 56.5397 29.2976H59.9709H60.1201C60.4184 29.2976 60.4184 29.2976 60.4184 29.596C61.0152 31.5354 61.4627 33.4747 62.0594 35.5633C62.6562 37.6518 63.2529 39.5912 63.7004 41.6797C64.148 43.6191 64.7447 45.4093 65.1923 47.3487C65.4906 48.393 65.789 49.288 65.9382 50.3323C65.9382 50.3323 65.9382 50.4815 66.0874 50.4815C66.2365 50.4815 66.2365 50.3323 66.2365 50.3323C66.3857 49.5864 66.6841 48.6913 66.8333 47.9454C67.1316 46.6028 67.5792 45.4093 67.8775 44.0667C68.3251 42.5748 68.6235 41.2322 69.071 39.7404C69.3694 38.5469 69.8169 37.2043 70.1153 36.0108C70.4136 34.9665 70.712 33.7731 71.0104 32.7288C71.3087 31.6845 71.6071 30.6403 71.9055 29.596C71.9055 29.596 71.9055 29.596 71.9055 29.4468C71.9055 29.2976 72.0547 29.1484 72.2038 29.1484C72.353 29.1484 72.6514 29.1484 72.8006 29.1484C74.7399 29.1484 76.8285 29.1484 78.7679 29.1484C79.2154 29.2976 79.3646 29.2976 79.5138 29.4468Z" fill="white"/>
<path d="M124.567 36.6076C124.418 36.6076 124.418 36.6076 124.418 36.4584C123.821 35.8616 123.224 35.4141 122.479 35.1157C121.583 34.6682 120.688 34.519 119.793 34.3698C119.197 34.2206 118.749 34.2206 118.152 34.2206C117.406 34.2206 116.66 34.3698 115.915 34.6682C115.467 34.8174 115.019 35.1157 114.721 35.4141C114.423 35.7125 114.274 36.0108 114.274 36.4584C114.274 36.7567 114.274 36.9059 114.274 37.2043C114.423 37.801 114.721 38.2486 115.318 38.5469C115.765 38.8453 116.213 38.9945 116.81 39.1437C117.705 39.442 118.749 39.7404 119.644 40.0387C120.987 40.3371 122.18 40.9338 123.374 41.5306C124.12 41.9781 124.716 42.4257 125.164 43.0224C125.761 43.7683 126.208 44.5142 126.506 45.4093C126.656 46.006 126.805 46.752 126.805 47.3487C126.805 47.647 126.805 47.9454 126.805 48.0946C126.805 49.2881 126.656 50.3323 126.208 51.3766C125.91 52.1225 125.462 52.8684 124.865 53.6143C124.269 54.3602 123.374 54.957 122.479 55.4045C121.285 56.0013 120.092 56.4488 118.749 56.598C118.152 56.7472 117.556 56.7472 116.959 56.7472C116.362 56.7472 115.765 56.7472 115.019 56.7472C114.423 56.7472 113.975 56.598 113.378 56.598C112.633 56.4488 111.737 56.2996 110.992 56.0013C110.246 55.7029 109.351 55.2553 108.754 54.6586C108.008 54.0619 107.56 53.316 107.262 52.4209C107.113 52.1225 107.113 51.8241 107.113 51.3766C107.113 50.3323 107.262 49.4372 107.411 48.393V48.2438C107.56 48.2438 107.56 48.393 107.56 48.393C108.157 49.1389 108.903 49.7356 109.798 50.1831C110.842 50.7799 112.036 51.2274 113.229 51.5258C113.677 51.5258 114.124 51.675 114.423 51.675C114.721 51.675 114.87 51.675 115.169 51.675C115.467 51.675 115.765 51.675 116.064 51.675C116.66 51.5258 117.257 51.5258 117.854 51.2274C118.451 50.9291 118.898 50.4815 119.047 49.8848C119.197 49.1389 119.197 48.5421 118.749 47.9454C118.6 47.647 118.301 47.3487 117.854 47.1995C117.556 46.9011 117.108 46.752 116.81 46.6028C116.064 46.3044 115.467 46.1552 114.721 45.8569C113.677 45.5585 112.483 45.2601 111.439 44.8126C110.246 44.365 109.052 43.6191 108.157 42.5748C107.56 41.8289 107.113 41.083 106.814 40.1879C106.516 39.1437 106.367 38.0994 106.516 37.0551C106.665 35.5633 106.964 34.2206 107.859 33.0272C108.306 32.4304 108.903 31.8337 109.5 31.3862C110.246 30.7894 111.141 30.4911 112.036 30.0435C113.08 29.596 113.975 29.4468 115.019 29.2976C115.467 29.2976 116.064 29.1484 116.511 29.1484C116.959 29.1484 117.257 29.1484 117.705 29.1484C118.898 29.1484 119.942 29.2976 121.136 29.596C122.18 29.8944 123.075 30.3419 123.672 31.0878C124.269 31.6845 124.716 32.5796 124.865 33.4747C125.015 33.9223 125.015 34.3698 124.865 34.8174C125.015 35.2649 124.865 35.8616 124.567 36.6076C124.567 36.4584 124.567 36.4584 124.567 36.6076Z" fill="white"/>
</svg>
