<svg width="211" height="95" viewBox="0 0 211 95" fill="none" xmlns="http://www.w3.org/2000/svg">
<g clip-path="url(#clip0_2374_16070)">
<path d="M42.2827 16.492L41.7883 16H0.494385V17.0658H41.7883L41.2925 16.492H42.2827V16H41.7883" fill="white"/>
<path d="M41.7884 63.0002L42.2827 62.5082V16.4922H41.2925V62.5082L41.7884 61.9344V63.0002H42.2827V62.5082" fill="white"/>
<path d="M0 62.5084L0.494394 63.0004H41.7883V61.9346H0.494394L1.07095 62.5084H0V63.0004H0.494394" fill="white"/>
<path d="M0.494394 16L0 16.492V62.508H1.07095V16.492L0.494394 17.0658V16H0V16.492" fill="white"/>
<path d="M3.21429 59.8014H18.7091V40.4434H3.21429" fill="white"/>
<path d="M3.21429 38.4752H18.7091V19.1172H3.21429" fill="white"/>
<path fill-rule="evenodd" clip-rule="evenodd" d="M20.7702 19.1172H39.2328L20.7702 38.4752V19.1172Z" fill="white"/>
<path fill-rule="evenodd" clip-rule="evenodd" d="M20.7702 40.4434L39.2328 59.8014H20.7702V40.4434Z" fill="white"/>
<path fill-rule="evenodd" clip-rule="evenodd" d="M52.75 37.408H52.6678V25.3499H45.0848V54.4694H52.6678V41.8376H52.75L62.6407 54.4694H72.4493L59.7551 39.2125L71.4591 25.3499H61.9806L52.75 37.408ZM81.8442 40.69H82.5865L82.7508 40.7718L82.9987 40.8535H83.2466L83.4109 40.9353L83.6574 41.0171L83.8232 41.1002L84.0697 41.182L84.2354 41.3455L84.3997 41.4273L84.5655 41.5923L84.7298 41.674L84.8941 41.8376L84.9763 42.0025L85.142 42.0843L85.3064 42.2478L85.4707 42.5763L85.6364 42.8216L85.8829 43.3136V43.5603L85.9665 43.7239L86.0487 43.9706V44.1341L86.1308 44.3809V45.6934L86.0487 45.8569V46.1036L85.9665 46.2672L85.8829 46.5139V46.6774L85.8007 46.841L85.7186 47.0877L85.6364 47.2512L85.4707 47.4162L85.3064 47.7432L85.142 47.9082L84.9763 47.9899L84.8941 48.1535L84.7298 48.3184L84.5655 48.4002L84.3997 48.5637L84.2354 48.6455L84.0697 48.7287L83.8232 48.8105L83.6574 48.8922L83.4109 48.974L83.2466 49.0558L82.9987 49.1375H82.7508L82.5865 49.2207H81.1033L80.8554 49.1375H80.6089L80.361 49.0558L80.1967 48.974L79.9488 48.8922L79.7844 48.8105L79.5365 48.7287L79.2079 48.5637L79.0421 48.4002L78.8778 48.3184L78.7135 48.1535L78.6299 47.9899L78.4656 47.9082L78.3013 47.7432L78.1355 47.4162L77.9712 47.2512L77.889 47.0877L77.8069 46.841L77.6411 46.5139V46.2672L77.559 46.1036V45.8569L77.4768 45.6934V44.3809L77.559 44.1341V43.9706L77.6411 43.7239V43.5603L77.7233 43.3136L77.9712 42.8216L78.1355 42.5763L78.3013 42.2478L78.4656 42.0843L78.6299 42.0025L78.7135 41.8376L78.8778 41.674L79.0421 41.5923L79.2079 41.4273L79.3722 41.3455L79.5365 41.182L79.7844 41.1002L79.9488 41.0171L80.1967 40.9353L80.361 40.8535H80.6089L81.1033 40.69H81.8442ZM92.6415 35.4399H85.8829V37.3262L85.8007 37.1627L85.3885 36.7524L84.3997 36.0137L83.9875 35.7684L83.6574 35.6034L83.2466 35.4399L82.8344 35.2763L82.5043 35.1932L82.0921 35.1114L81.2676 34.9479L80.8554 34.8661H78.96L78.4656 34.9479L77.9712 35.0296L77.4768 35.1932L77.0646 35.2763L76.5702 35.4399L76.1579 35.6866L75.7457 35.8501L74.509 36.5875L74.1789 36.9159L73.7681 37.1627L73.108 37.8182L72.8615 38.2285L72.5314 38.557L71.5426 40.198L71.3769 40.6068L71.2126 41.1002L71.0483 41.5105L70.7182 42.4945L70.636 42.9034L70.5524 43.3968V43.9706L70.4703 44.4626V45.4467L70.5524 45.9387V46.4307L70.7182 47.4162L71.0483 48.4002L71.2126 48.8105L71.3769 49.3025L71.5426 49.7127L72.5314 51.3523L72.8615 51.6808L73.1902 52.0911L73.8503 52.748L74.1789 52.9933L74.5912 53.3218L74.9212 53.5671L75.7457 54.0592L76.2401 54.3059L76.6523 54.4694L77.1467 54.6344L77.559 54.7161L78.0534 54.8797L78.5477 54.9614L79.0421 55.0446H80.9376L81.3498 54.9614L81.762 54.8797L82.1742 54.7979L82.5865 54.7161L82.9987 54.5526L83.3288 54.3876H83.5753L83.741 54.2241L84.0697 54.0592L84.2354 53.9774L84.4819 53.8138L84.7298 53.5671L84.8941 53.4854L85.3885 52.9933L85.4707 52.8298L85.6364 52.748L85.7186 52.5013L85.8007 52.3378H85.8829V54.4694H92.6415V35.4399ZM95.8572 35.4399V47.4979L95.9394 47.9899V48.5637L96.0215 49.0558L96.1859 49.5478L96.268 49.958L96.4338 50.4501L96.6802 50.8603L96.846 51.1888L97.0925 51.599L97.8348 52.5831L99.4837 53.8138L101.131 54.4694L101.543 54.5526L102.038 54.7161L102.45 54.7979L102.944 54.8797L103.439 54.9614H103.933L104.429 55.0446H107.561L108.056 54.9614H108.55L109.044 54.8797L109.539 54.7979L110.033 54.7161L110.445 54.5526L110.858 54.4694L111.352 54.3059L111.764 54.1423L112.094 53.9774L112.507 53.8138L112.835 53.5671L113.247 53.3218L113.577 53.0751L113.824 52.8298L114.154 52.5831L114.484 52.2546L114.978 51.599L115.143 51.1888L115.391 50.8603L115.555 50.4501L115.721 49.958L115.803 49.5478L115.967 49.0558L116.049 48.5637L116.133 47.9899V35.4399H109.374V46.5139L109.291 46.9241L109.209 47.2512V47.6615L108.879 48.3184L108.796 48.4002L108.632 48.7287L108.55 48.8105L108.468 48.974L108.138 49.1375L108.056 49.3025L107.89 49.3842L107.725 49.466H107.561L107.395 49.5478L107.149 49.6295H106.983L106.737 49.7127H105.252L105.088 49.6295H104.841L104.676 49.5478L104.511 49.466H104.263L104.181 49.3842L104.017 49.3025L103.851 49.1375L103.687 49.0558L103.357 48.7287L103.192 48.4002L103.11 48.3184L102.862 47.8264V47.6615L102.78 47.4979V47.2512L102.698 46.9241L102.616 46.5139V35.4399H95.8572ZM126.682 41.0171H131.38V35.4399H126.682V31.6658L126.765 31.3388V31.0103L126.847 30.6818L127.013 30.4365V30.3533L127.095 30.1898L127.177 30.108V29.9445L127.425 29.6978L127.507 29.616L127.589 29.5342H127.753L127.919 29.3693H128.083L128.166 29.2875H128.331L128.414 29.2057H129.65L129.979 29.2875L130.227 29.3693L130.557 29.451L130.803 29.616L131.133 29.6978L131.38 29.8613V24.0374L130.721 23.7103L130.391 23.6271L129.979 23.4636H129.65L129.32 23.3818H127.589L127.095 23.4636L126.6 23.5454L126.188 23.6271L125.694 23.7921L124.869 24.1206L124.457 24.3659L124.045 24.5308L123.633 24.8579L123.22 25.1046L122.892 25.3499L122.479 25.6784L121.985 26.1704L121.819 26.4171L121.489 26.7442L121.407 26.9909L121.243 27.1545L121.078 27.4012L120.913 27.7297L120.748 27.975L120.583 28.3035L120.5 28.5502L120.418 28.7137L120.336 29.124L120.172 29.5342L120.088 29.9445V30.3533L119.924 31.1738V35.4399H117.534V41.0171H119.924V54.4694H126.682V41.0171ZM132.452 54.4694H139.211V23.7103H132.452V54.4694ZM152.398 40.69H153.14L153.387 40.7718L153.635 40.8535H153.799L154.047 40.9353L154.211 41.0171L154.459 41.1002L154.624 41.182L154.788 41.3455L155.036 41.4273L155.118 41.5923L155.282 41.674L155.612 42.0025L155.778 42.0843L155.86 42.2478L156.025 42.4128L156.107 42.5763L156.189 42.8216L156.437 43.3136L156.519 43.5603L156.601 43.7239L156.685 43.9706V44.3809L156.767 44.5444V45.4467L156.685 45.6934V46.1036L156.601 46.2672L156.519 46.5139L156.355 46.841L156.272 47.0877L156.025 47.5797L155.86 47.7432L155.778 47.9082L155.612 47.9899L155.282 48.3184L155.118 48.4002L155.036 48.5637L154.788 48.6455L154.459 48.8105L154.211 48.8922L154.047 48.974L153.799 49.0558L153.635 49.1375H153.387L153.14 49.2207H151.656L151.409 49.1375H151.244L150.997 49.0558L150.749 48.974L150.585 48.8922L150.42 48.8105L150.173 48.7287L150.008 48.6455L149.842 48.5637L149.678 48.4002L149.514 48.3184L149.184 47.9899L149.102 47.9082L148.936 47.7432L148.854 47.5797L148.689 47.4162L148.524 47.0877L148.441 46.841L148.277 46.5139L148.195 46.2672V46.1036L148.111 45.8569V45.4467L148.029 45.2014V44.7911L148.111 44.5444V44.1341L148.195 43.9706V43.7239L148.277 43.5603L148.359 43.3136L148.607 42.8216L148.689 42.5763L148.854 42.4128L148.936 42.2478L149.102 42.0843L149.184 42.0025L149.514 41.674L149.678 41.5923L149.842 41.4273L150.008 41.3455L150.173 41.182L150.42 41.1002L150.749 40.9353L150.997 40.8535H151.244L151.409 40.7718L151.656 40.69H152.398ZM163.278 35.4399H156.519V37.3262L156.355 37.1627L156.272 36.9977L156.107 36.8342L155.942 36.7524L155.612 36.5057L155.366 36.2604L154.954 36.0137L154.624 35.7684L154.293 35.6034L153.469 35.2763L153.057 35.1932L152.728 35.1114L152.316 35.0296L151.904 34.9479L151.409 34.8661H149.596L149.102 34.9479L148.607 35.0296L148.111 35.1932L147.617 35.2763L147.206 35.4399L146.794 35.6866L146.298 35.8501L145.475 36.3422L145.145 36.5875L144.733 36.9159L144.403 37.1627L143.744 37.8182L143.414 38.2285L143.167 38.557L142.837 38.9672L142.343 39.7877L142.177 40.198L141.931 40.6068L141.765 41.1002L141.601 41.5105L141.519 42.0025L141.354 42.4945L141.271 42.9034L141.188 43.3968L141.106 43.9706V45.9387L141.354 47.4162L141.519 47.9082L141.601 48.4002L141.765 48.8105L141.931 49.3025L143.167 51.3523L143.496 51.6808L143.744 52.0911L144.403 52.748L144.815 52.9933L145.145 53.3218L146.794 54.3059L147.288 54.4694L147.701 54.6344L148.195 54.7161L148.689 54.8797L149.184 54.9614L149.678 55.0446H151.574L151.986 54.9614L152.398 54.8797L153.223 54.7161L153.553 54.5526L153.965 54.3876H154.129L154.376 54.2241L154.871 53.9774L155.036 53.8138L155.2 53.7321L155.366 53.5671L155.53 53.4854L155.694 53.3218L155.778 53.1569L156.189 52.748L156.355 52.5013L156.437 52.3378H156.519V54.4694H163.278V35.4399ZM173.334 35.4399H166.574V54.4694H173.334V44.1341L173.416 43.7239V43.3136L173.498 42.9034L173.58 42.7398V42.5763L173.663 42.3296L174.157 41.3455L174.323 41.2638L174.405 41.1002L174.651 40.8535L174.817 40.7718L174.981 40.69L175.146 40.525L175.312 40.4433H175.558L175.724 40.3615L175.97 40.2797H176.136L176.383 40.198H177.455L177.949 40.3615L178.196 40.4433L178.444 40.525L178.608 40.6068L178.774 40.69L179.102 41.0171L179.185 41.182L179.35 41.3455L179.68 42.0025V42.2478L179.763 42.4128V42.6581L179.845 42.8216L179.927 43.2319V54.4694H186.685V41.8376L186.603 41.4273V41.0171L186.521 40.69L186.355 39.8695L186.273 39.541L186.191 39.1307L186.027 38.8023L185.943 38.4752L185.779 38.1467L185.615 37.9L185.449 37.5729L185.202 37.3262L185.037 36.9977L184.542 36.5057L184.296 36.3422L184.048 36.0954L183.719 35.9319L183.471 35.7684L182.812 35.4399L182.4 35.2763L182.07 35.1932L181.74 35.1114L181.328 35.0296L180.916 34.9479L180.421 34.8661H178.526L178.114 34.9479L177.701 35.0296L177.207 35.1114L176.795 35.1932L176.465 35.3581L176.218 35.4399L176.052 35.5216L175.888 35.6034L175.724 35.6866L175.476 35.7684L175.312 35.9319L175.146 36.0137L174.817 36.3422L174.651 36.4239L174.157 36.9159L173.993 37.1627L173.828 37.3262L173.745 37.4897L173.58 37.7365L173.416 37.9H173.334V35.4399ZM204.241 54.4694H211V23.7103H204.241V37.3262L204.159 37.1627L203.829 36.8342L203.665 36.7524L203.417 36.5057L203.088 36.2604L202.676 36.0137L202.346 35.7684L202.016 35.6034L201.604 35.4399L201.191 35.2763L200.779 35.1932L200.367 35.1114L199.544 34.9479L199.214 34.8661H197.318L196.824 34.9479L196.33 35.0296L195.834 35.1932L195.339 35.2763L194.927 35.4399L194.433 35.6866L194.021 35.8501L193.198 36.3422L192.868 36.5875L192.455 36.9159L192.125 37.1627L191.466 37.8182L191.136 38.2285L190.889 38.557L190.56 38.9672L190.065 39.7877L189.9 40.198L189.653 40.6068L189.488 41.1002L189.323 41.5105L189.241 42.0025L189.075 42.4945L188.993 42.9034L188.911 43.3968L188.829 43.9706V45.9387L189.075 47.4162L189.241 47.9082L189.323 48.4002L189.488 48.8105L189.653 49.3025L190.148 50.123L190.312 50.5318L190.642 50.9421L190.889 51.3523L191.219 51.6808L191.466 52.0911L192.125 52.748L192.537 52.9933L192.868 53.3218L194.515 54.3059L195.011 54.4694L195.422 54.6344L195.917 54.7161L196.412 54.8797L196.906 54.9614L197.401 55.0446H199.296L199.708 54.9614L200.121 54.8797L200.533 54.7979L200.945 54.7161L201.274 54.5526L201.686 54.3876H201.852L202.098 54.2241L202.592 53.9774L202.758 53.8138L202.923 53.7321L203.088 53.5671L203.253 53.4854L203.417 53.3218L203.499 53.1569L203.665 52.9933L203.911 52.748L204.077 52.5013L204.159 52.3378H204.241V54.4694ZM200.121 40.69H200.863L201.357 40.8535H201.522L201.769 40.9353L201.934 41.0171L202.18 41.1002L202.346 41.182L202.51 41.3455L202.676 41.4273L202.84 41.5923L203.005 41.674L203.335 42.0025L203.499 42.0843L203.583 42.2478L203.747 42.4128L203.829 42.5763L203.911 42.8216L204.159 43.3136L204.241 43.5603L204.324 43.7239V43.9706L204.406 44.1341V44.3809L204.489 44.5444V45.4467L204.406 45.6934V45.8569L204.324 46.1036V46.2672L204.241 46.5139L204.077 46.841L203.994 47.0877L203.747 47.5797L203.583 47.7432L203.499 47.9082L203.335 47.9899L203.005 48.3184L202.84 48.4002L202.676 48.5637L202.18 48.8105L201.934 48.8922L201.769 48.974L201.522 49.0558L201.357 49.1375H201.109L200.863 49.2207H199.378L199.132 49.1375H198.966L198.72 49.0558L198.472 48.974L198.307 48.8922L198.059 48.8105L197.565 48.5637L197.401 48.4002L197.235 48.3184L196.658 47.7432L196.576 47.5797L196.412 47.4162L196.246 47.0877L196.164 46.841L196 46.5139L195.917 46.2672V46.1036L195.834 45.8569V45.4467L195.752 45.2014V44.7911L195.834 44.5444V44.1341L195.917 43.9706V43.7239L196 43.5603L196.082 43.3136L196.33 42.8216L196.412 42.5763L196.576 42.4128L196.658 42.2478L197.235 41.674L197.401 41.5923L197.565 41.4273L197.731 41.3455L197.895 41.182L198.059 41.1002L198.307 41.0171L198.472 40.9353L198.72 40.8535H198.966L199.132 40.7718L199.378 40.69H200.121Z" fill="white"/>
<path d="M45.0848 63H210.836V58.7354H45.0848" fill="white"/>
</g>
<defs>
<clipPath id="clip0_2374_16070">
<rect width="211" height="47" fill="white" transform="translate(0 16)"/>
</clipPath>
</defs>
</svg>
