<svg width="281" height="95" viewBox="0 0 281 95" fill="none" xmlns="http://www.w3.org/2000/svg">
<g clip-path="url(#clip0_2374_16075)">
<path d="M38.8387 66.995C35.5835 67.0838 33.3719 65.5755 31.6723 63.175C30.3354 61.2872 29.5253 59.1579 28.919 56.9448C28.0791 53.869 27.5822 50.7342 27.4529 47.555C27.3386 44.775 27.1945 41.9852 27.274 39.2052C27.4082 34.5571 27.9201 29.9436 29.4408 25.4976C30.1813 23.3387 31.1455 21.2981 32.7308 19.6025C34.7535 17.4534 37.2434 16.6845 40.1656 17.1183C41.9298 17.3795 43.5848 17.9168 45.0856 18.8681C45.9404 19.4152 46.7108 20.0609 47.2028 20.9777C47.7643 22.0276 47.66 22.8556 46.8151 23.7084C45.6572 24.8765 44.6731 26.1581 44.1066 27.7255C42.7499 31.4666 44.9962 35.6218 48.9124 36.445C51.8793 37.0709 55.1196 35.5725 56.2477 31.9398C56.9683 29.6281 56.7 27.3312 56.0489 25.054C55.4873 23.0922 54.5331 21.3129 53.405 19.6173C53.3454 19.5286 53.251 19.4546 53.2311 19.361C53.1714 19.1145 53.1416 18.8631 53.1019 18.6167C53.3354 18.7054 53.6287 18.735 53.7927 18.8927C60.0794 24.911 66.3562 30.9392 72.638 36.9625C73.3288 37.623 74.0196 38.2835 74.7153 38.9341C76.6187 40.7135 76.6635 43.2618 74.7799 45.0707C67.8272 51.7496 60.8696 58.4235 53.902 65.0875C53.6933 65.2847 53.4746 65.7578 53.1118 65.4375C52.7739 65.1466 53.1466 64.8411 53.3205 64.5847C54.8612 62.2927 56.0688 59.8578 56.4962 57.1074C56.8491 54.8204 56.7348 52.5924 55.5172 50.5321C53.5293 47.1705 48.9968 46.4706 46.0498 49.0633C43.5251 51.2862 42.9536 54.6084 44.6831 57.5707C45.2546 58.5467 46.0001 59.4339 46.7604 60.2817C47.655 61.2823 47.814 62.2582 47.0338 63.3623C46.1044 64.6833 44.7725 65.5114 43.2965 66.093C41.8155 66.6796 40.2799 67.0542 38.8337 66.9852L38.8387 66.995Z" fill="white"/>
<path d="M22.9305 18.3848C23.0299 18.646 23.174 18.8284 23.1342 18.9713C23.0845 19.1734 22.9155 19.3558 22.7764 19.5332C20.5152 22.3625 18.572 25.384 17.1655 28.7259C15.6647 32.2994 14.8298 36.0208 14.6111 39.8852C14.3775 44.0995 14.7801 48.2448 16.0225 52.2866C17.419 56.8459 19.7995 60.8828 22.8012 64.5796C23.01 64.8359 23.4026 65.1267 23.0199 65.4471C22.677 65.7379 22.4732 65.2893 22.2744 65.0971C15.4609 58.576 8.66228 52.0451 1.84378 45.5289C1.09334 44.8093 0.367758 44.0995 0.12424 43.0545C-0.243522 41.4526 0.193817 40.0823 1.37662 38.9437C8.3641 32.255 15.3466 25.5614 22.3341 18.8678C22.4782 18.7298 22.6472 18.6115 22.9305 18.3848Z" fill="white"/>
<path d="M108.912 34.163C107.337 31.3091 103.192 30.3775 100.205 32.2013C97.9687 33.5666 96.7909 35.691 96.1498 38.1161C94.8775 42.9515 95.0167 47.6735 97.6954 52.0701C99.8473 55.6043 104.444 56.6393 107.59 54.3819C107.928 54.1403 108.226 53.8298 108.529 53.539C109.017 53.0707 109.096 52.6468 108.639 52.0209C107.809 50.8872 107.734 49.6155 108.47 48.3783C109.171 47.2003 110.274 46.7665 111.611 46.8651C113.156 46.9785 114.384 48.3783 114.458 50.1133C114.573 52.8095 113.191 54.7762 111.213 56.388C106.045 60.5924 97.6556 59.7791 93.0735 54.9339C87.7559 49.3099 87.1098 38.6977 92.9145 32.1618C97.9638 26.4737 107.446 26.1731 112.341 31.6738C113.614 33.1033 114.424 34.7298 114.279 36.7212C114.165 38.2738 113.34 39.4863 112.088 39.8757C110.786 40.2799 109.384 39.8757 108.569 38.8505C107.7 37.7563 107.635 36.2381 108.415 34.927C108.574 34.6608 108.758 34.4095 108.922 34.163H108.912Z" fill="white"/>
<path d="M254.089 55.905C253.517 56.393 253.01 56.8711 252.454 57.295C248.557 60.2574 241.217 59.2863 240.496 52.4646C240.213 49.7684 240.323 47.0279 240.248 44.3071C240.233 43.7846 240.263 43.2522 240.183 42.7396C239.965 41.2954 239.522 40.8222 238.046 40.8272C237.038 40.8272 236.923 40.2603 237.142 39.6491C237.375 38.9985 237.788 38.3035 238.325 37.8845C239.771 36.7558 241.505 36.4255 243.314 36.6375C244.641 36.7952 245.655 38.1113 245.675 39.6984C245.705 42.4587 245.635 45.2239 245.7 47.9841C245.73 49.2657 245.894 50.5571 246.122 51.8189C246.42 53.4356 247.414 54.382 248.866 54.6235C250.54 54.8995 252.295 54.2834 252.951 52.8836C253.497 51.7104 253.865 50.3944 253.994 49.1079C254.168 47.3433 254.039 45.5442 254.039 43.7649C254.039 41.3349 253.617 40.906 251.176 40.8567C250.714 39.8808 250.903 38.9246 251.808 38.1704C253.313 36.9135 255.093 36.4502 257.026 36.6424C258.224 36.7607 259.232 37.7761 259.406 39.1069C259.541 40.1371 259.456 41.1919 259.456 42.2369C259.451 45.5935 259.451 48.9502 259.421 52.3019C259.406 54.0665 260.082 55.0967 261.891 55.0918C262.716 55.0918 262.741 55.8015 262.542 56.2057C262.214 56.8563 261.747 57.6598 261.136 57.9062C259.829 58.4287 258.407 58.7343 257.001 58.9315C256.082 59.0596 255.316 58.5026 254.879 57.6499C254.596 57.1028 254.367 56.5261 254.084 55.905H254.089Z" fill="white"/>
<path d="M139.416 55.8359C139.322 57.3096 138.572 58.3004 137.225 58.6405C134.959 59.2122 133.045 58.6306 131.783 56.4668C129.944 57.8617 127.996 58.7489 125.735 58.8672C120.417 59.1383 116.481 54.924 117.927 49.995C118.732 47.2544 120.974 46.0863 123.528 45.4553C125.854 44.8836 128.2 45.0019 130.501 45.7363C130.655 45.7856 130.824 45.7954 131.192 45.8546C131.127 44.4498 131.182 43.119 130.973 41.8325C130.729 40.3242 129.402 39.4469 127.569 39.4715C126.609 39.4814 125.65 39.6884 124.751 39.8018C124.716 40.6003 124.751 41.1917 124.646 41.7586C124.333 43.4098 122.907 44.2674 121.247 43.8534C119.826 43.5034 118.971 41.9705 119.329 40.5017C119.781 38.6582 121.163 37.6872 122.793 37.1302C125.963 36.0458 129.214 35.9818 132.419 37.0169C134.924 37.8252 136.156 39.4715 136.236 42.0839C136.335 45.3666 136.335 48.6493 136.365 51.937C136.39 54.9289 136.435 54.9979 139.416 55.8408V55.8359ZM131.162 51.523C131.162 48.9549 130.257 48.0381 127.728 48.0529C125.029 48.0677 123.364 49.3986 123.359 51.5476C123.354 53.6572 124.93 55.1359 127.171 55.1359C129.636 55.1359 131.157 53.7558 131.157 51.523H131.162Z" fill="white"/>
<path d="M224.573 58.8372C218.441 58.9851 213.411 53.9871 213.491 47.3822C213.555 42.0046 217.695 36.3067 224.872 36.3018C232.068 36.3018 236.307 42.1476 236.178 47.7469C236.034 54.0315 230.94 58.9309 224.573 58.8372ZM230.12 48.4715C230.05 46.0169 229.742 44.1783 228.897 42.4433C227.933 40.4619 226.477 39.274 224.171 39.4563C222.024 39.6239 220.831 41.009 220.215 42.882C219.122 46.1943 219.291 49.5017 220.776 52.6612C221.616 54.4406 223.018 55.6334 225.18 55.5052C227.262 55.382 228.569 54.1399 229.22 52.3162C229.717 50.9212 229.911 49.4179 230.125 48.4764L230.12 48.4715Z" fill="white"/>
<path d="M206.757 36.839C208.223 36.839 209.55 36.839 210.882 36.839C211.627 36.839 212.482 36.6073 212.611 37.7853C212.721 38.7465 212.109 39.8752 211.145 40.033C210.181 40.1907 209.167 40.2597 208.203 40.1365C207.11 39.9985 206.891 40.3681 206.906 41.3638C206.956 45.1049 206.916 48.8461 206.931 52.5872C206.936 54.4996 207.472 55.1256 209.286 55.6284C209.679 55.7368 210.176 56.0621 210.3 56.4072C210.539 57.0775 210.156 57.6986 209.49 57.9056C208.561 58.1964 207.587 58.4823 206.623 58.502C204.764 58.5464 202.9 58.4379 201.042 58.3196C200.535 58.2901 199.968 58.1126 199.575 57.8169C199.233 57.5556 198.9 57.0233 198.92 56.629C198.939 56.2642 199.362 55.7467 199.73 55.6037C200.808 55.1848 201.489 54.4602 201.499 53.3561C201.549 48.9545 201.519 44.5578 201.519 40.028C200.724 39.9837 199.963 39.9245 199.203 39.8999C198.204 39.8654 197.821 39.4168 198.03 38.4409C198.254 37.4009 198.984 36.9425 199.993 36.8537C200.44 36.8143 200.892 36.8488 201.519 36.8488C201.519 36.0454 201.509 35.3602 201.519 34.6751C201.553 32.2057 201.976 29.8742 203.884 28.0653C205.162 26.8528 206.702 26.2514 208.442 26.1282C210.728 25.9705 212.954 26.1627 214.952 27.4147C216.348 28.2871 217.208 29.4898 217.129 31.2149C217.079 32.3338 216.557 33.1422 215.548 33.6154C214.495 34.1083 213.491 33.9801 212.591 33.2408C211.702 32.5162 211.399 31.5058 211.766 30.5052C212.149 29.475 211.622 29.3025 210.882 29.0955C208.655 28.4793 207.005 29.6919 206.782 32.2698C206.652 33.7238 206.757 35.1927 206.757 36.8439V36.839Z" fill="white"/>
<path d="M194.904 52.1188C195.878 52.9124 195.888 53.8489 195.57 54.8347C195.123 56.2247 194.099 57.1317 192.827 57.7379C186.898 60.5573 179.284 58.5167 176.938 51.6457C174.876 45.6076 177.823 37.8641 185.258 36.484C190.237 35.5623 194.541 37.7606 195.992 42.0636C196.509 43.5916 196.534 45.1443 196.097 46.7018C195.903 47.387 195.54 47.6975 194.75 47.6877C190.873 47.6433 186.992 47.6877 183.111 47.6531C182.186 47.6482 181.933 47.8355 182.087 48.8509C182.942 54.6031 190.039 56.3036 194.218 52.735C194.432 52.5526 194.636 52.3604 194.899 52.1188H194.904ZM182.032 44.538C182.45 44.5577 182.763 44.5873 183.071 44.5873C185.466 44.5873 187.862 44.6119 190.257 44.538C190.506 44.5281 190.923 43.9564 190.943 43.6212C191.127 40.856 188.21 38.7415 185.427 39.5843C183.036 40.3089 182.311 42.1819 182.032 44.5331V44.538Z" fill="white"/>
<path d="M159.937 40.7775C159.256 39.3136 159.813 38.1996 161.691 37.2532C164.504 35.8435 166.084 36.3611 167.709 39.3136C168.112 38.865 168.475 38.4214 168.877 38.0123C170.483 36.3907 172.59 35.8238 174.225 36.5681C175.596 37.1892 176.267 38.4954 176.044 40.1219C175.88 41.3246 174.911 42.3154 173.574 42.4879C172.008 42.69 171.079 41.8225 170.512 40.398C169.076 40.8712 168.52 42.0196 168.266 43.2469C167.983 44.6024 167.859 46.0121 167.829 47.3972C167.789 49.3836 167.878 51.3798 167.948 53.3662C167.993 54.5886 168.723 55.2639 169.881 55.5202C170.542 55.6681 171.104 55.9145 171.099 56.7032C171.099 57.5362 170.562 58.0734 169.822 58.1326C167.625 58.3051 165.413 58.3938 163.207 58.4431C162.551 58.4579 161.825 58.3544 161.259 58.0636C160.772 57.8122 160.29 57.2749 160.116 56.7623C159.902 56.1215 160.404 55.7272 161.06 55.5202C162.332 55.121 162.76 54.0908 162.774 52.9029C162.809 49.5117 162.819 46.1156 162.774 42.7245C162.755 41.0634 162.074 40.6444 159.937 40.7726V40.7775Z" fill="white"/>
<path d="M141.534 40.763C141.121 38.747 141.941 37.6675 144.431 36.8345C146.856 36.0262 148.084 36.6226 149.401 39.3483C149.679 39.0279 149.908 38.7519 150.151 38.4907C151.632 36.8986 153.302 35.76 155.628 36.4304C157.034 36.8345 157.929 38.2541 157.829 39.7624C157.735 41.2016 156.751 42.2417 155.24 42.5078C154.281 42.6754 153.207 42.1727 152.641 41.2756C152.477 41.0143 152.343 40.7383 152.064 40.2208C151.493 40.8073 150.847 41.2312 150.554 41.8227C150.111 42.7149 149.704 43.7204 149.659 44.6914C149.54 47.5897 149.565 50.4929 149.614 53.3911C149.634 54.579 150.41 55.2691 151.577 55.5352C152.189 55.6782 152.795 55.8014 152.78 56.6886C152.765 57.566 152.288 58.0737 151.548 58.1328C149.316 58.3054 147.08 58.399 144.838 58.4237C144.128 58.4335 143.347 58.2413 142.716 57.916C142.314 57.7089 141.926 57.0977 141.906 56.6492C141.886 56.2943 142.359 55.7521 142.746 55.5747C143.78 55.0966 144.396 54.4065 144.406 53.263C144.446 49.8422 144.535 46.4166 144.491 42.9958C144.466 41.0735 143.839 40.6397 141.896 40.8024C141.797 40.8123 141.698 40.7827 141.534 40.7679V40.763Z" fill="white"/>
<path d="M264.784 40.768C264.202 38.9738 265.012 37.6824 267.423 36.8987C270.315 35.9622 271.548 36.8149 272.546 39.4174C272.86 39.0478 273.113 38.7471 273.371 38.4514C274.987 36.5882 277.084 35.8242 278.873 36.4354C280.503 36.9973 281.403 38.8851 280.826 40.5363C280.289 42.0693 278.664 42.9762 277.218 42.3404C276.448 42.0002 275.861 41.2461 274.952 40.4821C274.639 40.8124 273.943 41.256 273.69 41.877C273.242 42.9565 272.87 44.1345 272.815 45.2879C272.686 47.8362 272.76 50.3944 272.775 52.9476C272.785 54.515 273.207 55.0671 274.728 55.5107C275.369 55.698 275.911 55.9149 275.921 56.6887C275.931 57.4823 275.459 58.0393 274.763 58.0984C272.532 58.2857 270.29 58.3892 268.054 58.4238C267.338 58.4336 266.563 58.2414 265.927 57.921C265.519 57.714 265.117 57.1225 265.087 56.6789C265.062 56.324 265.514 55.7473 265.897 55.5797C267.08 55.0523 267.607 54.2193 267.607 52.9624C267.602 49.5712 267.691 46.185 267.597 42.7988C267.547 40.9454 267.005 40.6349 265.087 40.7976C264.987 40.8074 264.883 40.7779 264.789 40.768H264.784Z" fill="white"/>
</g>
<defs>
<clipPath id="clip0_2374_16075">
<rect width="281" height="50" fill="white" transform="translate(0 17)"/>
</clipPath>
</defs>
</svg>
