<svg width="292" height="95" viewBox="0 0 292 95" fill="none" xmlns="http://www.w3.org/2000/svg">
<g clip-path="url(#clip0_2374_16069)">
<path d="M49.9144 45.1058C49.8594 58.3626 38.6177 69.0527 24.8474 68.9998C11.077 68.9468 -0.0547687 58.1509 0.000202724 44.8942C0.0551742 31.6374 11.2968 20.9473 25.0672 21.0002C38.8651 21.0531 49.9693 31.8491 49.9144 45.1058Z" fill="#221F1F"/>
<path d="M33.9454 56.8805C31.3067 61.4317 28.036 65.1627 24.3804 65.0833C22.099 65.0303 19.9276 64.2101 17.9487 62.9135C18.5809 61.8022 22.5663 56.2455 33.9454 56.8805ZM49.255 45.1055C49.2 57.9918 38.2607 68.4173 24.8476 68.338C11.4346 68.2851 0.660156 57.7801 0.660156 44.8938C0.660156 36.5322 5.00291 30.5257 9.12577 27.2975C14.1831 23.3548 17.6189 26.3714 18.8282 28.6734C18.6908 27.6944 18.2786 24.8896 17.1516 22.8785C19.6253 22.0583 22.2915 21.6084 25.0676 21.6349C38.4806 21.7143 49.3099 32.1927 49.255 45.1055ZM23.6657 31.6635C27.1839 29.3614 33.2583 28.0913 36.474 32.9071C34.5226 21.8995 26.0844 28.2236 23.6657 31.6635ZM18.7733 42.0625C19.5154 41.2687 20.3675 40.4748 21.357 39.7605C25.7546 36.5058 30.5647 35.6855 32.1314 37.9611C32.7361 38.8343 32.7635 40.0515 32.2963 41.3746C33.863 38.8872 34.3577 36.5851 33.3956 35.3151C31.7741 33.1981 26.7441 34.6535 22.154 38.5697C20.8072 39.6546 19.6803 40.8718 18.7733 42.0625ZM11.1047 44.0206C13.3311 44.4175 15.7498 41.6921 16.492 37.8817C17.234 34.0714 16.0522 30.6844 13.8258 30.2611C11.5995 29.8642 9.18073 32.5896 8.43863 36.4C7.69651 40.1838 8.87839 43.5972 11.1047 44.0206ZM42.0537 39.4164C20.7523 53.1496 6.04737 46.1904 6.04737 46.1904C5.82748 50.9533 14.3206 65.586 24.4354 65.7713C34.5776 65.9565 42.0537 39.4164 42.0537 39.4164ZM9.04331 36.4793C9.73046 32.9865 11.8194 30.4463 13.7159 30.8167C15.6124 31.1607 16.6019 34.2831 15.9422 37.7759C15.2551 41.2687 13.1661 43.8089 11.2697 43.4385C9.34565 43.0945 8.35616 39.9721 9.04331 36.4793ZM13.0838 39.4429C13.9358 39.6281 14.8703 38.6226 15.2001 37.2202C15.53 35.8179 15.0902 34.5213 14.2381 34.3625C13.6609 34.2301 13.0563 34.6535 12.6164 35.368C13.0013 35.5531 13.1936 36.0295 13.0013 36.4264C12.8364 36.7968 12.4516 36.9821 12.0667 36.9027C11.9018 38.1463 12.3141 39.2577 13.0838 39.4429Z" fill="white"/>
<path fill-rule="evenodd" clip-rule="evenodd" d="M103.268 45.1324C103.268 36.5592 109.926 32.5107 120.559 32.5107C131.245 32.5107 137.878 36.5857 137.878 45.1324C137.878 53.6792 131.245 57.7807 120.559 57.7807C109.9 57.7807 103.268 53.7057 103.268 45.1324ZM111.994 45.106C111.994 49.6573 115.243 51.4566 120.559 51.4566C125.848 51.4566 129.152 49.6837 129.152 45.106C129.152 40.5283 125.848 38.7819 120.559 38.7819C115.243 38.7819 111.994 40.5283 111.994 45.106Z" fill="white"/>
<path d="M166.421 37.3794V33.0928H139.462V39.2581H153.962L139.247 52.8853V57.1456H166.501V50.9538H151.867L166.421 37.3794Z" fill="white"/>
<path d="M192.304 47.5139H177.992V51.1919H195.338V57.1456H169.965V33.0928H194.747V39.1523H177.992V42.6981H192.304V47.5139Z" fill="white"/>
<path d="M197.405 39.2581H207.528V57.1456H215.852V39.2581H225.975V33.0928H197.405V39.2581Z" fill="white"/>
<path fill-rule="evenodd" clip-rule="evenodd" d="M280.642 33.0928H269.795L258.41 57.1456H267.485L269.445 52.4356H280.938L282.898 57.1456H292L280.642 33.0928ZM271.459 47.6197L275.219 38.6231L278.951 47.6197H271.459Z" fill="white"/>
<path fill-rule="evenodd" clip-rule="evenodd" d="M100.797 41.7984C100.797 36.718 97.4944 33.0928 89.6272 33.0928H72.604V57.1456H80.8203V50.3452H86.1099L92.0169 57.1456H102.274L95.4001 49.3397C98.837 47.8578 100.797 44.7355 100.797 41.7984ZM80.8203 38.7555H88.9023C91.3994 38.7555 92.3928 40.0785 92.3928 41.7719C92.3928 42.9097 91.6947 45.0001 88.768 45.0001H80.8203V38.7555Z" fill="white"/>
<path d="M237.144 41.8777L247.24 33.0928H257.927L246.192 42.9097L257.525 57.1456H247.267L240.232 47.9107L237.144 50.5039V57.1456H228.928V33.0928H237.144V41.8777Z" fill="white"/>
</g>
<defs>
<clipPath id="clip0_2374_16069">
<rect width="292" height="48" fill="white" transform="translate(0 21)"/>
</clipPath>
</defs>
</svg>
