<svg width="240" height="95" viewBox="0 0 240 95" fill="none" xmlns="http://www.w3.org/2000/svg">
<g clip-path="url(#clip0_2374_16077)">
<path d="M203.643 44.4546C203.643 40.9051 203.682 37.3499 203.615 33.8004C203.598 32.8135 203.909 32.3929 204.853 32.1406C210.291 30.6602 215.718 29.9481 221.129 32.1854C221.773 32.4546 222.237 32.1294 222.757 31.9163C226.086 30.5424 229.524 30.5256 232.961 31.2995C237.048 32.2191 239.66 35.3649 239.869 40.0808C240.101 45.2845 239.931 50.5051 239.982 55.7144C239.988 56.4882 239.632 56.7069 238.987 56.791C236.856 57.0602 234.73 57.021 232.593 56.8079C231.61 56.7069 231.598 56.1125 231.604 55.378C231.621 51.2509 231.632 47.1294 231.598 43.0023C231.593 42.0939 231.514 41.1574 231.265 40.2882C230.705 38.3256 227.924 37.2882 226.12 38.2359C225.51 38.5555 225.736 38.9817 225.776 39.3967C226.301 44.7686 225.872 50.1574 226.03 55.535C226.053 56.3032 225.798 56.6901 225.012 56.7854C222.881 57.049 220.755 57.021 218.624 56.7967C217.657 56.6957 217.618 56.1294 217.624 55.3724C217.646 51.4191 217.64 47.4658 217.624 43.5125C217.624 42.5985 217.59 41.6733 217.431 40.7761C217.058 38.5948 214.786 37.3724 212.688 38.1013C211.812 38.4097 212.021 39.0714 212.021 39.6602C212.01 44.8135 211.953 49.9724 212.055 55.1256C212.083 56.4546 211.546 56.8415 210.421 56.8808C208.233 56.9537 205.616 57.7107 204.022 56.3929C202.772 55.3611 203.722 52.8378 203.654 50.9817C203.575 48.806 203.637 46.6303 203.637 44.4546H203.643Z" fill="white"/>
<path d="M201.229 56.5381C198.273 57.0877 195.469 57.0484 192.648 56.7007C192.054 56.6278 191.749 56.3138 191.511 55.8091C189.951 52.4895 188.413 49.1587 186.774 45.8839C186.293 44.9194 186.864 44.7063 187.469 44.3419C189.171 43.3157 190.217 41.897 190.058 39.8278C189.917 37.9381 187.667 36.5923 185.943 37.3269C185.174 37.6521 185.524 38.3194 185.524 38.8185C185.496 44.2073 185.462 49.5905 185.541 54.9792C185.564 56.2802 185.18 56.8241 183.885 56.8914C182.093 56.9811 180.306 57.0148 178.52 56.8577C177.587 56.7736 177.163 56.4596 177.169 55.3774C177.225 47.8129 177.203 40.2484 177.191 32.6839C177.191 31.9605 177.158 31.3493 178.164 31.2652C182.421 30.9007 186.672 30.3512 190.94 31.0802C194.242 31.6409 197.119 32.9811 198.227 36.368C199.307 39.682 198.861 42.8503 196.158 45.3792C195.548 45.9512 195.859 46.3437 196.124 46.854C197.809 50.0391 199.477 53.2297 201.218 56.5437L201.229 56.5381Z" fill="white"/>
<path d="M84.2681 43.3721C84.2681 46.9273 84.2342 50.4824 84.2907 54.032C84.3077 55.0974 84.0702 55.6413 82.9113 55.9329C78.8466 56.9591 74.7762 57.5086 70.5701 56.9703C65.2391 56.2918 62.0732 53.3479 61.8019 48.032C61.5361 42.7721 61.7058 37.4899 61.6492 32.2189C61.6379 31.3721 62.0393 31.1871 62.7742 31.0806C64.7925 30.789 66.7937 30.845 68.8176 31.0581C69.9483 31.1759 70.0387 31.7366 70.0274 32.6507C69.9992 37.0637 69.9596 41.4768 70.0613 45.8899C70.1292 48.8955 71.4747 50.045 74.3692 50.0507C75.5337 50.0507 75.9634 49.7366 75.9408 48.4918C75.8673 43.4507 75.9747 38.4039 75.8729 33.3628C75.839 31.7535 76.15 30.9964 77.9534 30.9516C79.6324 30.9123 81.2888 30.9067 82.9622 31.0581C83.9798 31.1535 84.3133 31.5011 84.2907 32.5441C84.2229 36.1553 84.2625 39.7665 84.2681 43.3778V43.3721Z" fill="white"/>
<path d="M89.0847 44.5501C89.0847 40.9445 89.113 37.3333 89.0678 33.7277C89.0565 32.8473 89.2939 32.4212 90.1928 32.152C94.6306 30.823 99.1307 30.4305 103.71 31.1707C108.329 31.9165 111.381 35.1688 111.591 40.0473C111.811 45.2511 111.664 50.466 111.715 55.6754C111.721 56.41 111.438 56.7015 110.765 56.7857C108.634 57.0548 106.508 57.0324 104.377 56.8081C103.461 56.7128 103.325 56.2193 103.331 55.4174C103.365 51.352 103.348 47.2866 103.348 43.2212C103.348 42.3015 103.32 41.3931 103.043 40.5015C102.427 38.5221 99.8939 37.3557 97.9887 38.1352C97.1972 38.4604 97.4629 39.0772 97.4629 39.5875C97.4403 44.7969 97.4008 50.0118 97.4799 55.2212C97.4969 56.4492 97.0389 56.8081 95.9422 56.8754C94.1501 56.9931 92.3693 56.9931 90.5772 56.8754C89.4748 56.8081 89.0169 56.4156 89.0508 55.1987C89.1469 51.6492 89.0847 48.0997 89.0847 44.5501Z" fill="white"/>
<path d="M172.618 47.4489C172.618 49.7984 172.607 52.1423 172.624 54.4919C172.624 55.1031 172.607 55.6134 171.861 55.804C167.072 57.0208 162.256 57.8339 157.331 56.6339C152.939 55.5629 150.768 52.8265 150.768 48.4022C150.768 44.4769 153.08 41.7797 157.343 40.7423C159.435 40.2321 161.571 40.1984 163.708 40.1928C164.065 40.1928 164.573 40.4059 164.743 39.862C164.873 39.4414 164.63 39.0825 164.381 38.7685C163.561 37.7311 162.374 37.4844 161.153 37.3666C159.112 37.176 157.1 37.4564 155.183 38.1068C154.143 38.4601 153.685 38.1629 153.38 37.2545C153.323 37.0919 153.25 36.9349 153.182 36.7779C151.616 33.0881 152.074 32.1853 155.935 31.3498C158.202 30.8564 160.492 30.6433 162.815 30.7779C168.994 31.1311 172.448 34.619 172.618 40.7536C172.68 42.9853 172.629 45.2227 172.629 47.4545L172.618 47.4489ZM164.913 48.161C164.913 47.533 164.913 46.905 164.913 46.2825C164.913 45.9349 164.913 45.4975 164.46 45.5031C162.589 45.5311 160.627 45.1106 158.971 46.3722C157.642 47.3872 157.722 49.3779 159.112 50.3311C159.887 50.8638 160.797 51.0265 161.724 51.0713C164.867 51.2283 164.913 51.1891 164.913 48.161Z" fill="white"/>
<path d="M128.24 44.0172C128.24 34.1424 135.148 28.9499 145.991 31.2209C149.061 31.8658 149.287 32.3873 148.552 35.4377C148.484 35.7181 148.433 35.9985 148.348 36.2732C147.87 37.8134 146.833 38.4153 145.239 38.0788C144.956 38.0172 144.668 37.9947 144.385 37.9499C136.855 36.8115 135.905 42.1779 137.121 46.7929C137.635 48.7499 139.128 49.8377 141.152 50.0564C142.65 50.219 144.205 50.3144 145.595 49.6751C147.212 48.9349 147.89 49.6134 148.303 51.0377C149.897 56.5611 149.711 56.0788 144.826 56.9873C142.305 57.4583 139.755 57.419 137.257 56.819C131.462 55.4396 128.257 50.8527 128.245 44.0172H128.24Z" fill="white"/>
<path d="M116.266 43.8883C116.266 40.165 116.317 36.4416 116.238 32.7238C116.209 31.5351 116.611 31.1537 117.758 31.036C119.669 30.8341 121.552 30.8509 123.457 31.0696C124.424 31.1818 124.684 31.5631 124.678 32.4939C124.644 40.1089 124.633 47.7294 124.689 55.3444C124.695 56.4098 124.316 56.7911 123.344 56.8192C123.112 56.8248 122.886 56.8752 122.654 56.8977C118.395 57.3089 116.266 55.4379 116.266 51.2846C116.266 48.8229 116.266 46.3612 116.266 43.8939V43.8883Z" fill="white"/>
<path d="M31.9864 66.5253C28.2213 67.8655 24.3262 68.1571 20.3689 67.9328C16.926 67.7365 13.5906 67.0468 10.5039 65.4655C4.82227 62.5552 1.7073 57.7833 0.463571 51.6823C0.141333 50.0954 0 48.4917 0 46.8711C0 40.5235 0 34.1814 0 27.8337C0 27.6543 0.0339199 27.4692 0.0508798 27.2898C0.282666 27.2842 0.514451 27.273 0.746237 27.273C2.97364 27.2449 5.19539 27.2113 7.39453 27.6767C7.39453 34.1365 7.39453 40.5964 7.39453 47.0562C7.39453 47.9814 7.45106 48.901 7.59805 49.815C8.41778 55.0132 11.2784 58.501 16.4455 59.9029C20.5611 61.0188 24.7276 61.0076 28.8432 59.8412C33.0266 58.6524 35.7855 55.9777 36.9953 51.7945C37.3005 50.7515 37.3966 49.6692 37.5945 48.6038C37.5945 51.1384 37.6567 53.6786 37.5945 56.2132C37.5323 59.0506 36.6956 61.6468 34.9092 63.9122C34.163 64.8599 33.1793 65.5552 32.2917 66.3571H32.303C32.1504 66.3235 32.0543 66.3964 31.9864 66.5309V66.5253Z" fill="white"/>
<path d="M22.4607 26.2912C23.7553 25.3211 25.0386 24.3286 26.418 23.4706C30.2849 21.0762 34.4627 19.9099 39.0475 20.022C40.3421 20.0501 41.0714 20.3641 41.665 21.536C42.66 23.5043 43.8472 25.3772 44.9552 27.2949C42.496 27.2445 40.0368 27.1884 37.6059 27.665C37.1706 27.7267 36.7353 27.766 36.3 27.8501C33.0663 28.4613 30.0757 29.6052 27.5204 31.7304C26.2823 32.4931 25.293 33.5304 24.3772 34.6351C23.597 35.5772 22.8621 36.5585 22.5059 37.7585C21.2848 39.8837 20.4707 42.1379 20.335 44.594C20.2729 45.665 20.4481 46.7192 21.2113 47.566C21.9971 48.4351 23.1956 48.3734 23.9249 47.4594C24.1906 47.1286 24.298 46.7192 24.4959 46.3603C24.4676 46.7024 24.4676 47.0501 24.3998 47.3865C23.7101 50.6837 21.9575 53.1959 18.8765 54.7211C16.4399 53.7174 14.8457 51.8949 13.8677 49.523C12.5561 46.3435 12.7992 43.1192 13.6698 39.8893C14.4669 36.9454 15.818 34.2594 17.4858 31.7136C17.9267 31.1585 18.3564 30.5921 18.8086 30.0426C19.9167 28.6912 21.2509 27.5529 22.4607 26.2968V26.2912Z" fill="white"/>
<path d="M42.6203 27.2615V27.8222C43.2252 27.8222 43.8357 27.8334 44.4407 27.8446C44.4407 29.7736 44.4463 31.7026 44.4576 33.6316C44.4746 38.3362 44.4972 43.1979 44.3954 47.9699C44.288 53.0278 42.6542 57.396 39.5449 60.9512C38.3125 62.3587 36.8426 63.5531 35.1466 64.5175C35.2201 64.4334 35.2936 64.3437 35.3614 64.254C37.1535 61.983 38.0976 59.2802 38.1655 56.2185C38.2051 54.4521 38.1881 52.6577 38.1768 50.925C38.1711 50.1512 38.1655 49.3717 38.1598 48.5979V38.1848L38.1711 28.125C39.7936 27.8503 41.3879 27.8166 42.6203 27.8166V27.2559M42.6203 27.2615C40.9413 27.2615 39.2679 27.34 37.6058 27.6652C37.6058 34.6465 37.6001 41.6222 37.5945 48.6035C37.5945 51.1381 37.6567 53.6783 37.5945 56.2129C37.5323 59.0503 36.6956 61.6465 34.9092 63.9119C34.1629 64.8596 33.1793 65.5549 32.2917 66.3568C32.3369 66.3736 32.3765 66.3792 32.4161 66.3792C32.5348 66.3792 32.6478 66.3175 32.7553 66.2783C35.548 65.1848 37.9846 63.5811 39.9632 61.3269C43.31 57.5026 44.8477 52.9549 44.9551 47.9867C45.0964 41.2073 45.0003 34.4222 45.006 27.6372C45.006 27.525 44.9721 27.4129 44.9551 27.3007C44.1749 27.2839 43.4004 27.2671 42.6203 27.2671V27.2615Z" fill="white"/>
<path d="M6.73332 20V20.5607C11.9909 20.5607 16.8697 22.4505 21.6298 26.3308C21.3415 26.6168 21.0475 26.9028 20.7592 27.1832C19.9508 27.9682 19.1084 28.7813 18.3735 29.6841C18.0626 30.0654 17.7573 30.4523 17.452 30.8393C17.4294 30.8673 17.4124 30.8953 17.3898 30.9178C14.5914 28.8374 11.2673 27.5589 7.49087 27.1159C5.71007 26.7458 3.92363 26.6953 2.40854 26.6953C1.94497 26.6953 1.47574 26.6953 1.01217 26.7065C1.40225 26.0056 1.8206 25.3103 2.22763 24.6374C2.81558 23.6561 3.42048 22.6467 3.95755 21.6093C4.34763 20.8467 4.7377 20.628 5.78357 20.5832C6.10015 20.572 6.42239 20.5607 6.73898 20.5607V20M6.73332 20C6.41108 20 6.08319 20.0056 5.74965 20.0224C4.61333 20.0729 3.96885 20.3308 3.44875 21.3514C2.40854 23.3757 1.10263 25.2654 0.0567627 27.2897C0.288548 27.2841 0.520334 27.2729 0.75212 27.2729C1.30614 27.2673 1.85452 27.2561 2.40854 27.2561C4.08192 27.2561 5.74965 27.3234 7.40041 27.671C11.1316 28.1084 14.5292 29.3645 17.4859 31.7028C17.9269 31.1477 18.3565 30.5813 18.8088 30.0318C19.9168 28.6804 21.251 27.5421 22.4608 26.286C17.8873 22.4336 12.7937 20 6.73332 20Z" fill="white"/>
<path d="M31.9863 66.525C32.0485 66.396 32.1446 66.3175 32.3029 66.3455C32.269 66.5306 32.0994 66.4745 31.9863 66.525Z" fill="white"/>
<path d="M27.362 32.5097C29.612 35.9526 30.9236 39.3452 31.3702 42.8779C31.8055 46.2928 31.161 49.1078 29.4085 51.4854C27.8086 53.6611 25.2251 54.9564 22.5058 54.9564C21.7144 54.9564 20.9286 54.8498 20.171 54.6312C22.6811 53.0498 24.2866 50.6555 24.9481 47.4984C25.0046 47.2293 25.0216 46.9713 25.0329 46.719C25.0385 46.6181 25.0442 46.5115 25.0498 46.433C25.0611 46.3321 25.0781 46.2255 25.095 46.1246C25.129 45.8835 25.1685 45.6312 25.1798 45.3676C25.2873 42.9283 24.6484 40.5564 23.1107 37.7022C23.4725 36.6592 24.1453 35.7956 24.8067 34.9938C25.4456 34.2199 26.2992 33.2667 27.3564 32.5097M27.5203 31.7246C26.2822 32.4872 25.2929 33.5246 24.3771 34.6293C23.5969 35.5713 22.862 36.5526 22.5058 37.7526C23.8061 40.119 24.7445 42.5863 24.6202 45.3396C24.6032 45.6816 24.5354 46.0181 24.4958 46.3601C24.4675 46.7022 24.4675 47.0498 24.3997 47.3807C23.71 50.6779 21.9575 53.19 18.8764 54.7153C18.9725 54.7713 19.0686 54.8386 19.1704 54.8779C20.2615 55.304 21.3921 55.5115 22.5171 55.5115C25.3608 55.5115 28.1196 54.1938 29.8777 51.8106C31.8677 49.1078 32.3539 46.0405 31.9412 42.805C31.4268 38.7452 29.8156 35.1003 27.5316 31.7302L27.5203 31.7246Z" fill="white"/>
</g>
<defs>
<clipPath id="clip0_2374_16077">
<rect width="240" height="48" fill="white" transform="translate(0 20)"/>
</clipPath>
</defs>
</svg>
