<svg width="110" height="95" viewBox="0 0 110 95" fill="none" xmlns="http://www.w3.org/2000/svg">
<path d="M109.649 19.2984C109.35 19.7459 109.201 19.8951 109.052 20.0443C106.367 22.7296 103.682 25.4148 100.996 28.1001C100.4 28.6968 99.8028 28.9952 98.9077 28.9952C92.7912 28.9952 86.6747 28.9952 80.7075 28.9952C80.2599 28.9952 79.9615 28.9952 79.514 29.1444C79.514 29.4428 79.3648 29.7411 79.3648 29.8903C79.3648 36.0068 79.3648 41.9741 79.3648 48.0905C79.3648 49.5824 79.514 49.7316 81.0058 49.7316C84.437 49.7316 88.0174 49.7316 91.4486 49.5824C93.8355 49.5824 95.1781 47.3446 93.9847 45.4053C93.5371 44.5102 92.642 44.2118 91.7469 44.2118C88.9125 44.2118 86.078 44.2118 83.2435 44.2118C82.796 44.2118 82.3485 44.2118 81.9009 44.0626C81.9009 43.6151 81.7517 43.3167 81.7517 43.0184C81.7517 40.6314 81.7517 38.2445 81.7517 35.8576C81.7517 34.6641 81.9009 34.515 83.0944 34.515C87.1223 34.515 91.1502 34.515 95.1781 34.515C96.5208 34.515 97.5651 34.9625 98.6093 35.5592C100.996 37.0511 102.786 39.2888 103.532 42.1233C104.577 45.8528 104.427 49.5824 102.786 53.1627C101.444 55.9972 99.3552 57.7874 96.5208 58.8317C96.2224 58.9809 95.7749 58.9809 95.3273 58.9809C86.9731 58.9809 78.7681 58.9809 70.4139 58.9809C70.2647 58.9809 70.1155 58.9809 69.8171 58.8317C69.8171 58.3841 69.668 58.0858 69.668 57.6382C69.668 48.3889 69.668 38.9904 69.668 29.7411C69.668 28.9952 69.8172 28.3985 70.4139 27.9509C73.0992 25.2657 75.7844 22.7296 78.4697 20.0443C79.2156 19.2984 79.9615 19 80.8566 19C90.1059 19 99.5044 19 108.754 19C108.903 19.2984 109.052 19.2984 109.649 19.2984Z" fill="white"/>
<path d="M0 58.9808C0 58.6824 0 58.3841 0 57.9365C0 54.3562 0 50.7758 0 47.1954C0 46.4495 0.298365 45.8528 0.745912 45.4052C9.39849 37.051 18.2002 28.846 26.8528 20.4918C27.5987 19.895 28.1955 19.5967 29.2397 19.5967C31.925 19.5967 34.6103 19.5967 37.4448 19.5967C37.4448 20.0442 37.594 20.4918 37.594 20.9393C37.594 28.2493 37.5939 35.41 37.7431 42.7199C37.7431 47.643 37.7431 52.7152 37.7431 57.6382C37.7431 57.9365 37.7431 58.2349 37.7431 58.3841C37.7431 59.2792 37.594 59.4284 36.6989 59.4284C34.9087 59.4284 32.9693 59.4284 31.1791 59.4284C30.284 59.4284 29.5381 59.4284 28.643 59.4284C27.7479 59.4284 27.5987 59.2792 27.5987 58.3841C27.5987 57.3398 27.5987 56.1463 27.5987 55.1021C27.5987 53.7594 27.4495 53.6102 26.1069 53.6102C21.1839 53.6102 16.2609 53.6102 11.3379 53.7594C11.0395 53.7594 10.8903 53.7594 10.4428 53.6102C10.5919 53.3119 10.7411 53.0135 10.8903 52.8643C13.5756 50.3282 16.2609 47.643 19.0953 45.1069C19.6921 44.5101 20.2888 44.2118 21.1839 44.3609C22.9741 44.3609 24.7643 44.3609 26.4053 44.3609C27.4496 44.3609 27.7479 44.0626 27.7479 43.0183C27.7479 40.333 27.7479 37.6477 27.7479 34.9625C27.7479 34.8133 27.7479 34.6641 27.5987 34.2165C27.1512 34.3657 26.8528 34.5149 26.5545 34.8133C18.6478 42.2724 10.5919 49.7315 2.68529 57.1906C1.93937 57.9365 1.19346 58.5333 0.447551 59.2792C0.149187 59.13 0 59.13 0 58.9808Z" fill="white"/>
<path d="M39.9805 29.1443C39.9805 28.1001 39.9805 27.205 39.9805 26.3099C39.9805 24.5197 39.9805 22.7295 39.9805 21.0885C39.9805 19.7459 40.1297 19.7459 41.3231 19.7459C45.9478 19.7459 50.5724 19.7459 55.0479 19.7459C61.6119 19.7459 68.1759 19.5967 74.7399 19.5967C74.8891 19.5967 75.0383 19.5967 75.4859 19.7459C75.1875 20.0442 75.0383 20.3426 74.8891 20.641C72.2039 23.3262 69.5186 26.0115 66.8333 28.846C66.3857 29.2935 65.789 29.4427 65.1923 29.4427C63.7005 29.4427 62.2086 29.4427 60.7168 29.4427C59.0758 29.4427 59.0758 29.5919 59.0758 31.0837C59.0758 39.7363 59.225 48.538 59.225 57.3398C59.225 57.7874 59.225 58.0857 59.225 58.5333C59.225 59.4284 59.0758 59.5775 58.0315 59.7267C55.3463 59.7267 52.5118 59.7267 49.8265 59.7267C49.0806 59.7267 48.9314 59.5775 48.9314 58.6824C48.9314 56.1463 48.9314 53.6102 48.9314 51.0741C48.9314 44.3609 48.7822 37.7969 48.7822 31.0837C48.7822 29.7411 48.6331 29.5919 47.2904 29.5919C45.351 29.5919 43.4117 29.5919 41.4723 29.5919C40.8756 29.1443 40.5772 29.1443 39.9805 29.1443Z" fill="white"/>
</svg>
